%TF.GenerationSoftware,KiCad,Pcbnew,7.0.5*%
%TF.CreationDate,2024-03-20T17:14:55+08:00*%
%TF.ProjectId,ec11c,65633131-632e-46b6-9963-61645f706362,rev?*%
%TF.SameCoordinates,Original*%
%TF.FileFunction,Drillmap*%
%TF.FilePolarity,Positive*%
%FSLAX45Y45*%
G04 Gerber Fmt 4.5, Leading zero omitted, Abs format (unit mm)*
G04 Created by KiCad (PCBNEW 7.0.5) date 2024-03-20 17:14:55*
%MOMM*%
%LPD*%
G01*
G04 APERTURE LIST*
%ADD10C,0.100000*%
%ADD11C,0.200000*%
%ADD12C,0.220000*%
G04 APERTURE END LIST*
D10*
X10595791Y-12937666D02*
G75*
G03*
X10357691Y-12699566I-238099J2D01*
G01*
X10357691Y-12699566D02*
X7747700Y-12699566D01*
X10595791Y-12937666D02*
X10595800Y-14366400D01*
X7747700Y-12699566D02*
G75*
G03*
X7509600Y-12937666I6J-238106D01*
G01*
X10357700Y-14604500D02*
G75*
G03*
X10595800Y-14366400I0J238100D01*
G01*
X7509600Y-12937666D02*
X7509600Y-13890134D01*
X8214500Y-14604500D02*
X7509600Y-13890134D01*
X10357700Y-14604500D02*
X8214500Y-14604500D01*
D11*
D12*
X7866300Y-13542000D02*
X8086300Y-13762000D01*
X8086300Y-13542000D02*
X7866300Y-13762000D01*
X10247700Y-12827600D02*
X10467700Y-13047600D01*
X10467700Y-12827600D02*
X10247700Y-13047600D01*
X10247700Y-14256400D02*
X10467700Y-14476400D01*
X10467700Y-14256400D02*
X10247700Y-14476400D01*
D11*
X7765377Y-14920984D02*
X7765377Y-14720984D01*
X7765377Y-14720984D02*
X7812996Y-14720984D01*
X7812996Y-14720984D02*
X7841567Y-14730508D01*
X7841567Y-14730508D02*
X7860615Y-14749555D01*
X7860615Y-14749555D02*
X7870139Y-14768603D01*
X7870139Y-14768603D02*
X7879662Y-14806698D01*
X7879662Y-14806698D02*
X7879662Y-14835269D01*
X7879662Y-14835269D02*
X7870139Y-14873365D01*
X7870139Y-14873365D02*
X7860615Y-14892412D01*
X7860615Y-14892412D02*
X7841567Y-14911460D01*
X7841567Y-14911460D02*
X7812996Y-14920984D01*
X7812996Y-14920984D02*
X7765377Y-14920984D01*
X7965377Y-14920984D02*
X7965377Y-14787650D01*
X7965377Y-14825746D02*
X7974901Y-14806698D01*
X7974901Y-14806698D02*
X7984424Y-14797174D01*
X7984424Y-14797174D02*
X8003472Y-14787650D01*
X8003472Y-14787650D02*
X8022520Y-14787650D01*
X8089186Y-14920984D02*
X8089186Y-14787650D01*
X8089186Y-14720984D02*
X8079662Y-14730508D01*
X8079662Y-14730508D02*
X8089186Y-14740031D01*
X8089186Y-14740031D02*
X8098710Y-14730508D01*
X8098710Y-14730508D02*
X8089186Y-14720984D01*
X8089186Y-14720984D02*
X8089186Y-14740031D01*
X8212996Y-14920984D02*
X8193948Y-14911460D01*
X8193948Y-14911460D02*
X8184424Y-14892412D01*
X8184424Y-14892412D02*
X8184424Y-14720984D01*
X8317758Y-14920984D02*
X8298710Y-14911460D01*
X8298710Y-14911460D02*
X8289186Y-14892412D01*
X8289186Y-14892412D02*
X8289186Y-14720984D01*
X8546329Y-14920984D02*
X8546329Y-14720984D01*
X8546329Y-14720984D02*
X8612996Y-14863841D01*
X8612996Y-14863841D02*
X8679663Y-14720984D01*
X8679663Y-14720984D02*
X8679663Y-14920984D01*
X8860615Y-14920984D02*
X8860615Y-14816222D01*
X8860615Y-14816222D02*
X8851091Y-14797174D01*
X8851091Y-14797174D02*
X8832044Y-14787650D01*
X8832044Y-14787650D02*
X8793948Y-14787650D01*
X8793948Y-14787650D02*
X8774901Y-14797174D01*
X8860615Y-14911460D02*
X8841567Y-14920984D01*
X8841567Y-14920984D02*
X8793948Y-14920984D01*
X8793948Y-14920984D02*
X8774901Y-14911460D01*
X8774901Y-14911460D02*
X8765377Y-14892412D01*
X8765377Y-14892412D02*
X8765377Y-14873365D01*
X8765377Y-14873365D02*
X8774901Y-14854317D01*
X8774901Y-14854317D02*
X8793948Y-14844793D01*
X8793948Y-14844793D02*
X8841567Y-14844793D01*
X8841567Y-14844793D02*
X8860615Y-14835269D01*
X8955853Y-14787650D02*
X8955853Y-14987650D01*
X8955853Y-14797174D02*
X8974901Y-14787650D01*
X8974901Y-14787650D02*
X9012996Y-14787650D01*
X9012996Y-14787650D02*
X9032044Y-14797174D01*
X9032044Y-14797174D02*
X9041567Y-14806698D01*
X9041567Y-14806698D02*
X9051091Y-14825746D01*
X9051091Y-14825746D02*
X9051091Y-14882888D01*
X9051091Y-14882888D02*
X9041567Y-14901936D01*
X9041567Y-14901936D02*
X9032044Y-14911460D01*
X9032044Y-14911460D02*
X9012996Y-14920984D01*
X9012996Y-14920984D02*
X8974901Y-14920984D01*
X8974901Y-14920984D02*
X8955853Y-14911460D01*
X9136805Y-14901936D02*
X9146329Y-14911460D01*
X9146329Y-14911460D02*
X9136805Y-14920984D01*
X9136805Y-14920984D02*
X9127282Y-14911460D01*
X9127282Y-14911460D02*
X9136805Y-14901936D01*
X9136805Y-14901936D02*
X9136805Y-14920984D01*
X9136805Y-14797174D02*
X9146329Y-14806698D01*
X9146329Y-14806698D02*
X9136805Y-14816222D01*
X9136805Y-14816222D02*
X9127282Y-14806698D01*
X9127282Y-14806698D02*
X9136805Y-14797174D01*
X9136805Y-14797174D02*
X9136805Y-14816222D01*
X7304600Y-15149500D02*
X7504600Y-15349500D01*
X7504600Y-15149500D02*
X7304600Y-15349500D01*
X7755853Y-15160031D02*
X7765377Y-15150508D01*
X7765377Y-15150508D02*
X7784424Y-15140984D01*
X7784424Y-15140984D02*
X7832043Y-15140984D01*
X7832043Y-15140984D02*
X7851091Y-15150508D01*
X7851091Y-15150508D02*
X7860615Y-15160031D01*
X7860615Y-15160031D02*
X7870139Y-15179079D01*
X7870139Y-15179079D02*
X7870139Y-15198127D01*
X7870139Y-15198127D02*
X7860615Y-15226698D01*
X7860615Y-15226698D02*
X7746329Y-15340984D01*
X7746329Y-15340984D02*
X7870139Y-15340984D01*
X7955853Y-15321936D02*
X7965377Y-15331460D01*
X7965377Y-15331460D02*
X7955853Y-15340984D01*
X7955853Y-15340984D02*
X7946329Y-15331460D01*
X7946329Y-15331460D02*
X7955853Y-15321936D01*
X7955853Y-15321936D02*
X7955853Y-15340984D01*
X8041567Y-15160031D02*
X8051091Y-15150508D01*
X8051091Y-15150508D02*
X8070139Y-15140984D01*
X8070139Y-15140984D02*
X8117758Y-15140984D01*
X8117758Y-15140984D02*
X8136805Y-15150508D01*
X8136805Y-15150508D02*
X8146329Y-15160031D01*
X8146329Y-15160031D02*
X8155853Y-15179079D01*
X8155853Y-15179079D02*
X8155853Y-15198127D01*
X8155853Y-15198127D02*
X8146329Y-15226698D01*
X8146329Y-15226698D02*
X8032043Y-15340984D01*
X8032043Y-15340984D02*
X8155853Y-15340984D01*
X8279662Y-15140984D02*
X8298710Y-15140984D01*
X8298710Y-15140984D02*
X8317758Y-15150508D01*
X8317758Y-15150508D02*
X8327282Y-15160031D01*
X8327282Y-15160031D02*
X8336805Y-15179079D01*
X8336805Y-15179079D02*
X8346329Y-15217174D01*
X8346329Y-15217174D02*
X8346329Y-15264793D01*
X8346329Y-15264793D02*
X8336805Y-15302888D01*
X8336805Y-15302888D02*
X8327282Y-15321936D01*
X8327282Y-15321936D02*
X8317758Y-15331460D01*
X8317758Y-15331460D02*
X8298710Y-15340984D01*
X8298710Y-15340984D02*
X8279662Y-15340984D01*
X8279662Y-15340984D02*
X8260615Y-15331460D01*
X8260615Y-15331460D02*
X8251091Y-15321936D01*
X8251091Y-15321936D02*
X8241567Y-15302888D01*
X8241567Y-15302888D02*
X8232043Y-15264793D01*
X8232043Y-15264793D02*
X8232043Y-15217174D01*
X8232043Y-15217174D02*
X8241567Y-15179079D01*
X8241567Y-15179079D02*
X8251091Y-15160031D01*
X8251091Y-15160031D02*
X8260615Y-15150508D01*
X8260615Y-15150508D02*
X8279662Y-15140984D01*
X8470139Y-15140984D02*
X8489186Y-15140984D01*
X8489186Y-15140984D02*
X8508234Y-15150508D01*
X8508234Y-15150508D02*
X8517758Y-15160031D01*
X8517758Y-15160031D02*
X8527282Y-15179079D01*
X8527282Y-15179079D02*
X8536805Y-15217174D01*
X8536805Y-15217174D02*
X8536805Y-15264793D01*
X8536805Y-15264793D02*
X8527282Y-15302888D01*
X8527282Y-15302888D02*
X8517758Y-15321936D01*
X8517758Y-15321936D02*
X8508234Y-15331460D01*
X8508234Y-15331460D02*
X8489186Y-15340984D01*
X8489186Y-15340984D02*
X8470139Y-15340984D01*
X8470139Y-15340984D02*
X8451091Y-15331460D01*
X8451091Y-15331460D02*
X8441567Y-15321936D01*
X8441567Y-15321936D02*
X8432044Y-15302888D01*
X8432044Y-15302888D02*
X8422520Y-15264793D01*
X8422520Y-15264793D02*
X8422520Y-15217174D01*
X8422520Y-15217174D02*
X8432044Y-15179079D01*
X8432044Y-15179079D02*
X8441567Y-15160031D01*
X8441567Y-15160031D02*
X8451091Y-15150508D01*
X8451091Y-15150508D02*
X8470139Y-15140984D01*
X8622520Y-15340984D02*
X8622520Y-15207650D01*
X8622520Y-15226698D02*
X8632044Y-15217174D01*
X8632044Y-15217174D02*
X8651091Y-15207650D01*
X8651091Y-15207650D02*
X8679663Y-15207650D01*
X8679663Y-15207650D02*
X8698710Y-15217174D01*
X8698710Y-15217174D02*
X8708234Y-15236222D01*
X8708234Y-15236222D02*
X8708234Y-15340984D01*
X8708234Y-15236222D02*
X8717758Y-15217174D01*
X8717758Y-15217174D02*
X8736805Y-15207650D01*
X8736805Y-15207650D02*
X8765377Y-15207650D01*
X8765377Y-15207650D02*
X8784425Y-15217174D01*
X8784425Y-15217174D02*
X8793948Y-15236222D01*
X8793948Y-15236222D02*
X8793948Y-15340984D01*
X8889186Y-15340984D02*
X8889186Y-15207650D01*
X8889186Y-15226698D02*
X8898710Y-15217174D01*
X8898710Y-15217174D02*
X8917758Y-15207650D01*
X8917758Y-15207650D02*
X8946329Y-15207650D01*
X8946329Y-15207650D02*
X8965377Y-15217174D01*
X8965377Y-15217174D02*
X8974901Y-15236222D01*
X8974901Y-15236222D02*
X8974901Y-15340984D01*
X8974901Y-15236222D02*
X8984425Y-15217174D01*
X8984425Y-15217174D02*
X9003472Y-15207650D01*
X9003472Y-15207650D02*
X9032044Y-15207650D01*
X9032044Y-15207650D02*
X9051091Y-15217174D01*
X9051091Y-15217174D02*
X9060615Y-15236222D01*
X9060615Y-15236222D02*
X9060615Y-15340984D01*
X9451091Y-15131460D02*
X9279663Y-15388603D01*
X9708234Y-15140984D02*
X9727282Y-15140984D01*
X9727282Y-15140984D02*
X9746329Y-15150508D01*
X9746329Y-15150508D02*
X9755853Y-15160031D01*
X9755853Y-15160031D02*
X9765377Y-15179079D01*
X9765377Y-15179079D02*
X9774901Y-15217174D01*
X9774901Y-15217174D02*
X9774901Y-15264793D01*
X9774901Y-15264793D02*
X9765377Y-15302888D01*
X9765377Y-15302888D02*
X9755853Y-15321936D01*
X9755853Y-15321936D02*
X9746329Y-15331460D01*
X9746329Y-15331460D02*
X9727282Y-15340984D01*
X9727282Y-15340984D02*
X9708234Y-15340984D01*
X9708234Y-15340984D02*
X9689187Y-15331460D01*
X9689187Y-15331460D02*
X9679663Y-15321936D01*
X9679663Y-15321936D02*
X9670139Y-15302888D01*
X9670139Y-15302888D02*
X9660615Y-15264793D01*
X9660615Y-15264793D02*
X9660615Y-15217174D01*
X9660615Y-15217174D02*
X9670139Y-15179079D01*
X9670139Y-15179079D02*
X9679663Y-15160031D01*
X9679663Y-15160031D02*
X9689187Y-15150508D01*
X9689187Y-15150508D02*
X9708234Y-15140984D01*
X9860615Y-15321936D02*
X9870139Y-15331460D01*
X9870139Y-15331460D02*
X9860615Y-15340984D01*
X9860615Y-15340984D02*
X9851091Y-15331460D01*
X9851091Y-15331460D02*
X9860615Y-15321936D01*
X9860615Y-15321936D02*
X9860615Y-15340984D01*
X9993948Y-15140984D02*
X10012996Y-15140984D01*
X10012996Y-15140984D02*
X10032044Y-15150508D01*
X10032044Y-15150508D02*
X10041568Y-15160031D01*
X10041568Y-15160031D02*
X10051091Y-15179079D01*
X10051091Y-15179079D02*
X10060615Y-15217174D01*
X10060615Y-15217174D02*
X10060615Y-15264793D01*
X10060615Y-15264793D02*
X10051091Y-15302888D01*
X10051091Y-15302888D02*
X10041568Y-15321936D01*
X10041568Y-15321936D02*
X10032044Y-15331460D01*
X10032044Y-15331460D02*
X10012996Y-15340984D01*
X10012996Y-15340984D02*
X9993948Y-15340984D01*
X9993948Y-15340984D02*
X9974901Y-15331460D01*
X9974901Y-15331460D02*
X9965377Y-15321936D01*
X9965377Y-15321936D02*
X9955853Y-15302888D01*
X9955853Y-15302888D02*
X9946329Y-15264793D01*
X9946329Y-15264793D02*
X9946329Y-15217174D01*
X9946329Y-15217174D02*
X9955853Y-15179079D01*
X9955853Y-15179079D02*
X9965377Y-15160031D01*
X9965377Y-15160031D02*
X9974901Y-15150508D01*
X9974901Y-15150508D02*
X9993948Y-15140984D01*
X10174901Y-15226698D02*
X10155853Y-15217174D01*
X10155853Y-15217174D02*
X10146329Y-15207650D01*
X10146329Y-15207650D02*
X10136806Y-15188603D01*
X10136806Y-15188603D02*
X10136806Y-15179079D01*
X10136806Y-15179079D02*
X10146329Y-15160031D01*
X10146329Y-15160031D02*
X10155853Y-15150508D01*
X10155853Y-15150508D02*
X10174901Y-15140984D01*
X10174901Y-15140984D02*
X10212996Y-15140984D01*
X10212996Y-15140984D02*
X10232044Y-15150508D01*
X10232044Y-15150508D02*
X10241568Y-15160031D01*
X10241568Y-15160031D02*
X10251091Y-15179079D01*
X10251091Y-15179079D02*
X10251091Y-15188603D01*
X10251091Y-15188603D02*
X10241568Y-15207650D01*
X10241568Y-15207650D02*
X10232044Y-15217174D01*
X10232044Y-15217174D02*
X10212996Y-15226698D01*
X10212996Y-15226698D02*
X10174901Y-15226698D01*
X10174901Y-15226698D02*
X10155853Y-15236222D01*
X10155853Y-15236222D02*
X10146329Y-15245746D01*
X10146329Y-15245746D02*
X10136806Y-15264793D01*
X10136806Y-15264793D02*
X10136806Y-15302888D01*
X10136806Y-15302888D02*
X10146329Y-15321936D01*
X10146329Y-15321936D02*
X10155853Y-15331460D01*
X10155853Y-15331460D02*
X10174901Y-15340984D01*
X10174901Y-15340984D02*
X10212996Y-15340984D01*
X10212996Y-15340984D02*
X10232044Y-15331460D01*
X10232044Y-15331460D02*
X10241568Y-15321936D01*
X10241568Y-15321936D02*
X10251091Y-15302888D01*
X10251091Y-15302888D02*
X10251091Y-15264793D01*
X10251091Y-15264793D02*
X10241568Y-15245746D01*
X10241568Y-15245746D02*
X10232044Y-15236222D01*
X10232044Y-15236222D02*
X10212996Y-15226698D01*
X10422520Y-15140984D02*
X10384425Y-15140984D01*
X10384425Y-15140984D02*
X10365377Y-15150508D01*
X10365377Y-15150508D02*
X10355853Y-15160031D01*
X10355853Y-15160031D02*
X10336806Y-15188603D01*
X10336806Y-15188603D02*
X10327282Y-15226698D01*
X10327282Y-15226698D02*
X10327282Y-15302888D01*
X10327282Y-15302888D02*
X10336806Y-15321936D01*
X10336806Y-15321936D02*
X10346329Y-15331460D01*
X10346329Y-15331460D02*
X10365377Y-15340984D01*
X10365377Y-15340984D02*
X10403472Y-15340984D01*
X10403472Y-15340984D02*
X10422520Y-15331460D01*
X10422520Y-15331460D02*
X10432044Y-15321936D01*
X10432044Y-15321936D02*
X10441568Y-15302888D01*
X10441568Y-15302888D02*
X10441568Y-15255269D01*
X10441568Y-15255269D02*
X10432044Y-15236222D01*
X10432044Y-15236222D02*
X10422520Y-15226698D01*
X10422520Y-15226698D02*
X10403472Y-15217174D01*
X10403472Y-15217174D02*
X10365377Y-15217174D01*
X10365377Y-15217174D02*
X10346329Y-15226698D01*
X10346329Y-15226698D02*
X10336806Y-15236222D01*
X10336806Y-15236222D02*
X10327282Y-15255269D01*
X10612996Y-15140984D02*
X10574901Y-15140984D01*
X10574901Y-15140984D02*
X10555853Y-15150508D01*
X10555853Y-15150508D02*
X10546329Y-15160031D01*
X10546329Y-15160031D02*
X10527282Y-15188603D01*
X10527282Y-15188603D02*
X10517758Y-15226698D01*
X10517758Y-15226698D02*
X10517758Y-15302888D01*
X10517758Y-15302888D02*
X10527282Y-15321936D01*
X10527282Y-15321936D02*
X10536806Y-15331460D01*
X10536806Y-15331460D02*
X10555853Y-15340984D01*
X10555853Y-15340984D02*
X10593949Y-15340984D01*
X10593949Y-15340984D02*
X10612996Y-15331460D01*
X10612996Y-15331460D02*
X10622520Y-15321936D01*
X10622520Y-15321936D02*
X10632044Y-15302888D01*
X10632044Y-15302888D02*
X10632044Y-15255269D01*
X10632044Y-15255269D02*
X10622520Y-15236222D01*
X10622520Y-15236222D02*
X10612996Y-15226698D01*
X10612996Y-15226698D02*
X10593949Y-15217174D01*
X10593949Y-15217174D02*
X10555853Y-15217174D01*
X10555853Y-15217174D02*
X10536806Y-15226698D01*
X10536806Y-15226698D02*
X10527282Y-15236222D01*
X10527282Y-15236222D02*
X10517758Y-15255269D01*
X10708234Y-15140984D02*
X10708234Y-15179079D01*
X10784425Y-15140984D02*
X10784425Y-15179079D01*
X11079663Y-15417174D02*
X11070139Y-15407650D01*
X11070139Y-15407650D02*
X11051091Y-15379079D01*
X11051091Y-15379079D02*
X11041568Y-15360031D01*
X11041568Y-15360031D02*
X11032044Y-15331460D01*
X11032044Y-15331460D02*
X11022520Y-15283841D01*
X11022520Y-15283841D02*
X11022520Y-15245746D01*
X11022520Y-15245746D02*
X11032044Y-15198127D01*
X11032044Y-15198127D02*
X11041568Y-15169555D01*
X11041568Y-15169555D02*
X11051091Y-15150508D01*
X11051091Y-15150508D02*
X11070139Y-15121936D01*
X11070139Y-15121936D02*
X11079663Y-15112412D01*
X11136806Y-15140984D02*
X11260615Y-15140984D01*
X11260615Y-15140984D02*
X11193948Y-15217174D01*
X11193948Y-15217174D02*
X11222520Y-15217174D01*
X11222520Y-15217174D02*
X11241568Y-15226698D01*
X11241568Y-15226698D02*
X11251091Y-15236222D01*
X11251091Y-15236222D02*
X11260615Y-15255269D01*
X11260615Y-15255269D02*
X11260615Y-15302888D01*
X11260615Y-15302888D02*
X11251091Y-15321936D01*
X11251091Y-15321936D02*
X11241568Y-15331460D01*
X11241568Y-15331460D02*
X11222520Y-15340984D01*
X11222520Y-15340984D02*
X11165377Y-15340984D01*
X11165377Y-15340984D02*
X11146330Y-15331460D01*
X11146330Y-15331460D02*
X11136806Y-15321936D01*
X11498710Y-15340984D02*
X11498710Y-15140984D01*
X11584425Y-15340984D02*
X11584425Y-15236222D01*
X11584425Y-15236222D02*
X11574901Y-15217174D01*
X11574901Y-15217174D02*
X11555853Y-15207650D01*
X11555853Y-15207650D02*
X11527282Y-15207650D01*
X11527282Y-15207650D02*
X11508234Y-15217174D01*
X11508234Y-15217174D02*
X11498710Y-15226698D01*
X11708234Y-15340984D02*
X11689187Y-15331460D01*
X11689187Y-15331460D02*
X11679663Y-15321936D01*
X11679663Y-15321936D02*
X11670139Y-15302888D01*
X11670139Y-15302888D02*
X11670139Y-15245746D01*
X11670139Y-15245746D02*
X11679663Y-15226698D01*
X11679663Y-15226698D02*
X11689187Y-15217174D01*
X11689187Y-15217174D02*
X11708234Y-15207650D01*
X11708234Y-15207650D02*
X11736806Y-15207650D01*
X11736806Y-15207650D02*
X11755853Y-15217174D01*
X11755853Y-15217174D02*
X11765377Y-15226698D01*
X11765377Y-15226698D02*
X11774901Y-15245746D01*
X11774901Y-15245746D02*
X11774901Y-15302888D01*
X11774901Y-15302888D02*
X11765377Y-15321936D01*
X11765377Y-15321936D02*
X11755853Y-15331460D01*
X11755853Y-15331460D02*
X11736806Y-15340984D01*
X11736806Y-15340984D02*
X11708234Y-15340984D01*
X11889187Y-15340984D02*
X11870139Y-15331460D01*
X11870139Y-15331460D02*
X11860615Y-15312412D01*
X11860615Y-15312412D02*
X11860615Y-15140984D01*
X12041568Y-15331460D02*
X12022520Y-15340984D01*
X12022520Y-15340984D02*
X11984425Y-15340984D01*
X11984425Y-15340984D02*
X11965377Y-15331460D01*
X11965377Y-15331460D02*
X11955853Y-15312412D01*
X11955853Y-15312412D02*
X11955853Y-15236222D01*
X11955853Y-15236222D02*
X11965377Y-15217174D01*
X11965377Y-15217174D02*
X11984425Y-15207650D01*
X11984425Y-15207650D02*
X12022520Y-15207650D01*
X12022520Y-15207650D02*
X12041568Y-15217174D01*
X12041568Y-15217174D02*
X12051091Y-15236222D01*
X12051091Y-15236222D02*
X12051091Y-15255269D01*
X12051091Y-15255269D02*
X11955853Y-15274317D01*
X12127282Y-15331460D02*
X12146330Y-15340984D01*
X12146330Y-15340984D02*
X12184425Y-15340984D01*
X12184425Y-15340984D02*
X12203472Y-15331460D01*
X12203472Y-15331460D02*
X12212996Y-15312412D01*
X12212996Y-15312412D02*
X12212996Y-15302888D01*
X12212996Y-15302888D02*
X12203472Y-15283841D01*
X12203472Y-15283841D02*
X12184425Y-15274317D01*
X12184425Y-15274317D02*
X12155853Y-15274317D01*
X12155853Y-15274317D02*
X12136806Y-15264793D01*
X12136806Y-15264793D02*
X12127282Y-15245746D01*
X12127282Y-15245746D02*
X12127282Y-15236222D01*
X12127282Y-15236222D02*
X12136806Y-15217174D01*
X12136806Y-15217174D02*
X12155853Y-15207650D01*
X12155853Y-15207650D02*
X12184425Y-15207650D01*
X12184425Y-15207650D02*
X12203472Y-15217174D01*
X12279663Y-15417174D02*
X12289187Y-15407650D01*
X12289187Y-15407650D02*
X12308234Y-15379079D01*
X12308234Y-15379079D02*
X12317758Y-15360031D01*
X12317758Y-15360031D02*
X12327282Y-15331460D01*
X12327282Y-15331460D02*
X12336806Y-15283841D01*
X12336806Y-15283841D02*
X12336806Y-15245746D01*
X12336806Y-15245746D02*
X12327282Y-15198127D01*
X12327282Y-15198127D02*
X12317758Y-15169555D01*
X12317758Y-15169555D02*
X12308234Y-15150508D01*
X12308234Y-15150508D02*
X12289187Y-15121936D01*
X12289187Y-15121936D02*
X12279663Y-15112412D01*
X12641568Y-15417174D02*
X12632044Y-15407650D01*
X12632044Y-15407650D02*
X12612996Y-15379079D01*
X12612996Y-15379079D02*
X12603472Y-15360031D01*
X12603472Y-15360031D02*
X12593949Y-15331460D01*
X12593949Y-15331460D02*
X12584425Y-15283841D01*
X12584425Y-15283841D02*
X12584425Y-15245746D01*
X12584425Y-15245746D02*
X12593949Y-15198127D01*
X12593949Y-15198127D02*
X12603472Y-15169555D01*
X12603472Y-15169555D02*
X12612996Y-15150508D01*
X12612996Y-15150508D02*
X12632044Y-15121936D01*
X12632044Y-15121936D02*
X12641568Y-15112412D01*
X12717758Y-15207650D02*
X12717758Y-15340984D01*
X12717758Y-15226698D02*
X12727282Y-15217174D01*
X12727282Y-15217174D02*
X12746330Y-15207650D01*
X12746330Y-15207650D02*
X12774901Y-15207650D01*
X12774901Y-15207650D02*
X12793949Y-15217174D01*
X12793949Y-15217174D02*
X12803472Y-15236222D01*
X12803472Y-15236222D02*
X12803472Y-15340984D01*
X12927282Y-15340984D02*
X12908234Y-15331460D01*
X12908234Y-15331460D02*
X12898711Y-15321936D01*
X12898711Y-15321936D02*
X12889187Y-15302888D01*
X12889187Y-15302888D02*
X12889187Y-15245746D01*
X12889187Y-15245746D02*
X12898711Y-15226698D01*
X12898711Y-15226698D02*
X12908234Y-15217174D01*
X12908234Y-15217174D02*
X12927282Y-15207650D01*
X12927282Y-15207650D02*
X12955853Y-15207650D01*
X12955853Y-15207650D02*
X12974901Y-15217174D01*
X12974901Y-15217174D02*
X12984425Y-15226698D01*
X12984425Y-15226698D02*
X12993949Y-15245746D01*
X12993949Y-15245746D02*
X12993949Y-15302888D01*
X12993949Y-15302888D02*
X12984425Y-15321936D01*
X12984425Y-15321936D02*
X12974901Y-15331460D01*
X12974901Y-15331460D02*
X12955853Y-15340984D01*
X12955853Y-15340984D02*
X12927282Y-15340984D01*
X13051092Y-15207650D02*
X13127282Y-15207650D01*
X13079663Y-15140984D02*
X13079663Y-15312412D01*
X13079663Y-15312412D02*
X13089187Y-15331460D01*
X13089187Y-15331460D02*
X13108234Y-15340984D01*
X13108234Y-15340984D02*
X13127282Y-15340984D01*
X13346330Y-15207650D02*
X13346330Y-15407650D01*
X13346330Y-15217174D02*
X13365377Y-15207650D01*
X13365377Y-15207650D02*
X13403473Y-15207650D01*
X13403473Y-15207650D02*
X13422520Y-15217174D01*
X13422520Y-15217174D02*
X13432044Y-15226698D01*
X13432044Y-15226698D02*
X13441568Y-15245746D01*
X13441568Y-15245746D02*
X13441568Y-15302888D01*
X13441568Y-15302888D02*
X13432044Y-15321936D01*
X13432044Y-15321936D02*
X13422520Y-15331460D01*
X13422520Y-15331460D02*
X13403473Y-15340984D01*
X13403473Y-15340984D02*
X13365377Y-15340984D01*
X13365377Y-15340984D02*
X13346330Y-15331460D01*
X13555853Y-15340984D02*
X13536806Y-15331460D01*
X13536806Y-15331460D02*
X13527282Y-15312412D01*
X13527282Y-15312412D02*
X13527282Y-15140984D01*
X13717758Y-15340984D02*
X13717758Y-15236222D01*
X13717758Y-15236222D02*
X13708234Y-15217174D01*
X13708234Y-15217174D02*
X13689187Y-15207650D01*
X13689187Y-15207650D02*
X13651092Y-15207650D01*
X13651092Y-15207650D02*
X13632044Y-15217174D01*
X13717758Y-15331460D02*
X13698711Y-15340984D01*
X13698711Y-15340984D02*
X13651092Y-15340984D01*
X13651092Y-15340984D02*
X13632044Y-15331460D01*
X13632044Y-15331460D02*
X13622520Y-15312412D01*
X13622520Y-15312412D02*
X13622520Y-15293365D01*
X13622520Y-15293365D02*
X13632044Y-15274317D01*
X13632044Y-15274317D02*
X13651092Y-15264793D01*
X13651092Y-15264793D02*
X13698711Y-15264793D01*
X13698711Y-15264793D02*
X13717758Y-15255269D01*
X13784425Y-15207650D02*
X13860615Y-15207650D01*
X13812996Y-15140984D02*
X13812996Y-15312412D01*
X13812996Y-15312412D02*
X13822520Y-15331460D01*
X13822520Y-15331460D02*
X13841568Y-15340984D01*
X13841568Y-15340984D02*
X13860615Y-15340984D01*
X14003473Y-15331460D02*
X13984425Y-15340984D01*
X13984425Y-15340984D02*
X13946330Y-15340984D01*
X13946330Y-15340984D02*
X13927282Y-15331460D01*
X13927282Y-15331460D02*
X13917758Y-15312412D01*
X13917758Y-15312412D02*
X13917758Y-15236222D01*
X13917758Y-15236222D02*
X13927282Y-15217174D01*
X13927282Y-15217174D02*
X13946330Y-15207650D01*
X13946330Y-15207650D02*
X13984425Y-15207650D01*
X13984425Y-15207650D02*
X14003473Y-15217174D01*
X14003473Y-15217174D02*
X14012996Y-15236222D01*
X14012996Y-15236222D02*
X14012996Y-15255269D01*
X14012996Y-15255269D02*
X13917758Y-15274317D01*
X14184425Y-15340984D02*
X14184425Y-15140984D01*
X14184425Y-15331460D02*
X14165377Y-15340984D01*
X14165377Y-15340984D02*
X14127282Y-15340984D01*
X14127282Y-15340984D02*
X14108234Y-15331460D01*
X14108234Y-15331460D02*
X14098711Y-15321936D01*
X14098711Y-15321936D02*
X14089187Y-15302888D01*
X14089187Y-15302888D02*
X14089187Y-15245746D01*
X14089187Y-15245746D02*
X14098711Y-15226698D01*
X14098711Y-15226698D02*
X14108234Y-15217174D01*
X14108234Y-15217174D02*
X14127282Y-15207650D01*
X14127282Y-15207650D02*
X14165377Y-15207650D01*
X14165377Y-15207650D02*
X14184425Y-15217174D01*
X14260615Y-15417174D02*
X14270139Y-15407650D01*
X14270139Y-15407650D02*
X14289187Y-15379079D01*
X14289187Y-15379079D02*
X14298711Y-15360031D01*
X14298711Y-15360031D02*
X14308234Y-15331460D01*
X14308234Y-15331460D02*
X14317758Y-15283841D01*
X14317758Y-15283841D02*
X14317758Y-15245746D01*
X14317758Y-15245746D02*
X14308234Y-15198127D01*
X14308234Y-15198127D02*
X14298711Y-15169555D01*
X14298711Y-15169555D02*
X14289187Y-15150508D01*
X14289187Y-15150508D02*
X14270139Y-15121936D01*
X14270139Y-15121936D02*
X14260615Y-15112412D01*
M02*
