%TF.GenerationSoftware,KiCad,Pcbnew,7.0.5*%
%TF.CreationDate,2024-03-20T17:14:58+08:00*%
%TF.ProjectId,ec11c,65633131-632e-46b6-9963-61645f706362,rev?*%
%TF.SameCoordinates,Original*%
%TF.FileFunction,Copper,L2,Bot*%
%TF.FilePolarity,Positive*%
%FSLAX46Y46*%
G04 Gerber Fmt 4.6, Leading zero omitted, Abs format (unit mm)*
G04 Created by KiCad (PCBNEW 7.0.5) date 2024-03-20 17:14:58*
%MOMM*%
%LPD*%
G01*
G04 APERTURE LIST*
%TA.AperFunction,WasherPad*%
%ADD10C,3.800000*%
%TD*%
G04 APERTURE END LIST*
D10*
%TO.P,H3,*%
%TO.N,*%
X103577000Y-143664000D03*
%TD*%
%TO.P,H1,*%
%TO.N,*%
X79763000Y-136520000D03*
%TD*%
%TO.P,H2,*%
%TO.N,*%
X103577000Y-129376000D03*
%TD*%
%TA.AperFunction,NonConductor*%
G36*
X102746890Y-127015848D02*
G01*
X102792645Y-127068652D01*
X102802589Y-127137810D01*
X102773564Y-127201366D01*
X102719711Y-127237581D01*
X102709212Y-127241144D01*
X102694752Y-127246053D01*
X102694731Y-127246062D01*
X102424286Y-127379431D01*
X102424279Y-127379435D01*
X102173540Y-127546973D01*
X101946810Y-127745810D01*
X101747973Y-127972540D01*
X101580435Y-128223279D01*
X101580431Y-128223286D01*
X101447062Y-128493731D01*
X101447053Y-128493752D01*
X101350122Y-128779301D01*
X101350118Y-128779316D01*
X101291288Y-129075069D01*
X101291287Y-129075081D01*
X101271564Y-129376000D01*
X101291287Y-129676918D01*
X101291288Y-129676930D01*
X101350118Y-129972683D01*
X101350122Y-129972698D01*
X101447053Y-130258247D01*
X101447062Y-130258268D01*
X101580431Y-130528713D01*
X101580435Y-130528720D01*
X101747973Y-130779459D01*
X101946810Y-131006189D01*
X102173540Y-131205026D01*
X102424279Y-131372564D01*
X102424286Y-131372568D01*
X102694731Y-131505937D01*
X102694736Y-131505939D01*
X102694748Y-131505945D01*
X102980309Y-131602880D01*
X103180251Y-131642651D01*
X103276069Y-131661711D01*
X103276070Y-131661711D01*
X103276080Y-131661713D01*
X103577000Y-131681436D01*
X103877920Y-131661713D01*
X104173691Y-131602880D01*
X104459252Y-131505945D01*
X104729718Y-131372566D01*
X104980461Y-131205025D01*
X105207189Y-131006189D01*
X105406025Y-130779461D01*
X105573566Y-130528718D01*
X105706945Y-130258252D01*
X105715994Y-130231594D01*
X105756178Y-130174445D01*
X105820886Y-130148089D01*
X105889571Y-130160902D01*
X105940425Y-130208814D01*
X105957411Y-130271454D01*
X105957494Y-142768785D01*
X105937810Y-142835825D01*
X105885006Y-142881580D01*
X105815848Y-142891524D01*
X105752292Y-142862499D01*
X105716075Y-142808645D01*
X105706946Y-142781752D01*
X105706945Y-142781748D01*
X105700552Y-142768785D01*
X105573568Y-142511286D01*
X105573564Y-142511279D01*
X105406026Y-142260540D01*
X105207189Y-142033810D01*
X104980459Y-141834973D01*
X104729720Y-141667435D01*
X104729713Y-141667431D01*
X104459268Y-141534062D01*
X104459247Y-141534053D01*
X104173698Y-141437122D01*
X104173692Y-141437120D01*
X104173691Y-141437120D01*
X104173689Y-141437119D01*
X104173683Y-141437118D01*
X103877930Y-141378288D01*
X103877921Y-141378287D01*
X103877920Y-141378287D01*
X103577000Y-141358564D01*
X103276080Y-141378287D01*
X103276079Y-141378287D01*
X103276069Y-141378288D01*
X102980316Y-141437118D01*
X102980301Y-141437122D01*
X102694752Y-141534053D01*
X102694731Y-141534062D01*
X102424286Y-141667431D01*
X102424279Y-141667435D01*
X102173540Y-141834973D01*
X101946810Y-142033810D01*
X101747973Y-142260540D01*
X101580435Y-142511279D01*
X101580431Y-142511286D01*
X101447062Y-142781731D01*
X101447053Y-142781752D01*
X101350122Y-143067301D01*
X101350118Y-143067316D01*
X101291288Y-143363069D01*
X101291287Y-143363081D01*
X101271564Y-143664000D01*
X101291287Y-143964918D01*
X101291288Y-143964930D01*
X101350118Y-144260683D01*
X101350122Y-144260698D01*
X101447053Y-144546247D01*
X101447062Y-144546268D01*
X101580431Y-144816713D01*
X101580435Y-144816720D01*
X101747973Y-145067459D01*
X101946810Y-145294189D01*
X102173540Y-145493026D01*
X102424279Y-145660564D01*
X102424286Y-145660568D01*
X102694731Y-145793937D01*
X102694736Y-145793939D01*
X102694748Y-145793945D01*
X102721664Y-145803081D01*
X102778817Y-145843270D01*
X102805170Y-145907979D01*
X102792356Y-145976664D01*
X102744442Y-146027516D01*
X102681804Y-146044500D01*
X82197056Y-146044500D01*
X82130017Y-146024815D01*
X82108792Y-146007594D01*
X75132236Y-138937346D01*
X75099161Y-138875801D01*
X75096500Y-138850252D01*
X75096500Y-136520000D01*
X77457564Y-136520000D01*
X77477287Y-136820918D01*
X77477288Y-136820930D01*
X77536118Y-137116683D01*
X77536122Y-137116698D01*
X77633053Y-137402247D01*
X77633062Y-137402268D01*
X77766431Y-137672713D01*
X77766435Y-137672720D01*
X77933973Y-137923459D01*
X78132810Y-138150189D01*
X78359540Y-138349026D01*
X78610279Y-138516564D01*
X78610286Y-138516568D01*
X78880731Y-138649937D01*
X78880736Y-138649939D01*
X78880748Y-138649945D01*
X79166309Y-138746880D01*
X79366251Y-138786651D01*
X79462069Y-138805711D01*
X79462070Y-138805711D01*
X79462080Y-138805713D01*
X79763000Y-138825436D01*
X80063920Y-138805713D01*
X80359691Y-138746880D01*
X80645252Y-138649945D01*
X80915718Y-138516566D01*
X81166461Y-138349025D01*
X81393189Y-138150189D01*
X81592025Y-137923461D01*
X81759566Y-137672718D01*
X81892945Y-137402252D01*
X81989880Y-137116691D01*
X82048713Y-136820920D01*
X82068436Y-136520000D01*
X88064559Y-136520000D01*
X88084310Y-136896872D01*
X88143346Y-137269607D01*
X88143347Y-137269614D01*
X88241023Y-137634147D01*
X88376267Y-137986468D01*
X88547599Y-138322725D01*
X88753135Y-138639223D01*
X88887955Y-138805712D01*
X88990635Y-138932511D01*
X89257489Y-139199365D01*
X89257493Y-139199368D01*
X89550776Y-139436864D01*
X89859356Y-139637258D01*
X89867279Y-139642403D01*
X90203535Y-139813734D01*
X90555857Y-139948978D01*
X90920387Y-140046653D01*
X91293129Y-140105690D01*
X91649155Y-140124348D01*
X91669999Y-140125441D01*
X91670000Y-140125441D01*
X91670001Y-140125441D01*
X91689752Y-140124405D01*
X92046871Y-140105690D01*
X92419613Y-140046653D01*
X92784143Y-139948978D01*
X93136465Y-139813734D01*
X93472721Y-139642403D01*
X93789225Y-139436863D01*
X94082511Y-139199365D01*
X94349365Y-138932511D01*
X94586863Y-138639225D01*
X94792403Y-138322721D01*
X94963734Y-137986465D01*
X95098978Y-137634143D01*
X95196653Y-137269613D01*
X95255690Y-136896871D01*
X95275441Y-136520000D01*
X95255690Y-136143129D01*
X95196653Y-135770387D01*
X95098978Y-135405857D01*
X94963734Y-135053535D01*
X94792403Y-134717280D01*
X94792400Y-134717275D01*
X94586864Y-134400776D01*
X94452044Y-134234287D01*
X94349365Y-134107489D01*
X94082511Y-133840635D01*
X93789225Y-133603137D01*
X93789223Y-133603135D01*
X93472725Y-133397599D01*
X93136468Y-133226267D01*
X92784147Y-133091023D01*
X92419614Y-132993347D01*
X92419607Y-132993346D01*
X92046872Y-132934310D01*
X91670001Y-132914559D01*
X91669999Y-132914559D01*
X91293127Y-132934310D01*
X90920392Y-132993346D01*
X90920385Y-132993347D01*
X90555852Y-133091023D01*
X90203531Y-133226267D01*
X89867275Y-133397599D01*
X89550776Y-133603135D01*
X89257493Y-133840631D01*
X89257485Y-133840638D01*
X88990638Y-134107485D01*
X88990631Y-134107493D01*
X88753135Y-134400776D01*
X88547599Y-134717275D01*
X88376267Y-135053531D01*
X88241023Y-135405852D01*
X88143347Y-135770385D01*
X88143346Y-135770392D01*
X88084310Y-136143127D01*
X88064559Y-136519999D01*
X88064559Y-136520000D01*
X82068436Y-136520000D01*
X82048713Y-136219080D01*
X81989880Y-135923309D01*
X81892945Y-135637748D01*
X81779494Y-135407693D01*
X81759568Y-135367286D01*
X81759564Y-135367279D01*
X81592026Y-135116540D01*
X81393189Y-134889810D01*
X81166459Y-134690973D01*
X80915720Y-134523435D01*
X80915713Y-134523431D01*
X80645268Y-134390062D01*
X80645247Y-134390053D01*
X80359698Y-134293122D01*
X80359692Y-134293120D01*
X80359691Y-134293120D01*
X80359689Y-134293119D01*
X80359683Y-134293118D01*
X80063930Y-134234288D01*
X80063921Y-134234287D01*
X80063920Y-134234287D01*
X79763000Y-134214564D01*
X79762999Y-134214564D01*
X79612540Y-134224425D01*
X79462080Y-134234287D01*
X79462079Y-134234287D01*
X79462069Y-134234288D01*
X79166316Y-134293118D01*
X79166301Y-134293122D01*
X78880752Y-134390053D01*
X78880731Y-134390062D01*
X78610286Y-134523431D01*
X78610279Y-134523435D01*
X78359540Y-134690973D01*
X78132810Y-134889810D01*
X77933973Y-135116540D01*
X77766435Y-135367279D01*
X77766431Y-135367286D01*
X77633062Y-135637731D01*
X77633053Y-135637752D01*
X77536122Y-135923301D01*
X77536118Y-135923316D01*
X77477288Y-136219069D01*
X77477287Y-136219081D01*
X77457564Y-136520000D01*
X75096500Y-136520000D01*
X75096500Y-129378542D01*
X75096613Y-129374797D01*
X75097014Y-129368152D01*
X75102478Y-129277845D01*
X75115110Y-129085200D01*
X75115990Y-129078098D01*
X75139904Y-128947610D01*
X75171137Y-128790613D01*
X75172744Y-128784299D01*
X75214003Y-128651895D01*
X75214423Y-128650605D01*
X75263710Y-128505418D01*
X75265872Y-128499926D01*
X75323798Y-128371220D01*
X75324710Y-128369288D01*
X75328560Y-128361480D01*
X75391384Y-128234088D01*
X75393895Y-128229501D01*
X75467550Y-128107661D01*
X75469011Y-128105363D01*
X75552157Y-127980928D01*
X75554859Y-127977196D01*
X75642964Y-127864737D01*
X75645111Y-127862146D01*
X75743525Y-127749927D01*
X75746272Y-127746993D01*
X75847316Y-127645947D01*
X75850235Y-127643214D01*
X75962592Y-127544679D01*
X75965205Y-127542512D01*
X76077378Y-127454626D01*
X76081114Y-127451920D01*
X76206066Y-127368430D01*
X76208384Y-127366954D01*
X76329582Y-127293684D01*
X76334155Y-127291181D01*
X76470443Y-127223969D01*
X76472321Y-127223084D01*
X76599937Y-127165645D01*
X76605414Y-127163488D01*
X76752378Y-127113599D01*
X76753816Y-127113130D01*
X76884219Y-127072490D01*
X76890539Y-127070882D01*
X77051205Y-127038919D01*
X77177972Y-127015683D01*
X77185062Y-127014804D01*
X77390195Y-127001353D01*
X77467112Y-126996698D01*
X77474090Y-126996276D01*
X77477836Y-126996163D01*
X102679851Y-126996163D01*
X102746890Y-127015848D01*
G37*
%TD.AperFunction*%
M02*
