%TF.GenerationSoftware,KiCad,Pcbnew,7.0.5*%
%TF.CreationDate,2024-03-20T17:14:55+08:00*%
%TF.ProjectId,ec11c,65633131-632e-46b6-9963-61645f706362,rev?*%
%TF.SameCoordinates,Original*%
%TF.FileFunction,Drillmap*%
%TF.FilePolarity,Positive*%
%FSLAX45Y45*%
G04 Gerber Fmt 4.5, Leading zero omitted, Abs format (unit mm)*
G04 Created by KiCad (PCBNEW 7.0.5) date 2024-03-20 17:14:55*
%MOMM*%
%LPD*%
G01*
G04 APERTURE LIST*
%ADD10C,0.100000*%
%ADD11C,0.200000*%
G04 APERTURE END LIST*
D10*
X10595791Y-12937666D02*
G75*
G03*
X10357691Y-12699566I-238099J2D01*
G01*
X10357691Y-12699566D02*
X7747700Y-12699566D01*
X10595791Y-12937666D02*
X10595800Y-14366400D01*
X7747700Y-12699566D02*
G75*
G03*
X7509600Y-12937666I6J-238106D01*
G01*
X10357700Y-14604500D02*
G75*
G03*
X10595800Y-14366400I0J238100D01*
G01*
X7509600Y-12937666D02*
X7509600Y-13890134D01*
X8214500Y-14604500D02*
X7509600Y-13890134D01*
X10357700Y-14604500D02*
X8214500Y-14604500D01*
D11*
X7765377Y-14920984D02*
X7765377Y-14720984D01*
X7765377Y-14720984D02*
X7812996Y-14720984D01*
X7812996Y-14720984D02*
X7841567Y-14730508D01*
X7841567Y-14730508D02*
X7860615Y-14749555D01*
X7860615Y-14749555D02*
X7870139Y-14768603D01*
X7870139Y-14768603D02*
X7879662Y-14806698D01*
X7879662Y-14806698D02*
X7879662Y-14835269D01*
X7879662Y-14835269D02*
X7870139Y-14873365D01*
X7870139Y-14873365D02*
X7860615Y-14892412D01*
X7860615Y-14892412D02*
X7841567Y-14911460D01*
X7841567Y-14911460D02*
X7812996Y-14920984D01*
X7812996Y-14920984D02*
X7765377Y-14920984D01*
X7965377Y-14920984D02*
X7965377Y-14787650D01*
X7965377Y-14825746D02*
X7974901Y-14806698D01*
X7974901Y-14806698D02*
X7984424Y-14797174D01*
X7984424Y-14797174D02*
X8003472Y-14787650D01*
X8003472Y-14787650D02*
X8022520Y-14787650D01*
X8089186Y-14920984D02*
X8089186Y-14787650D01*
X8089186Y-14720984D02*
X8079662Y-14730508D01*
X8079662Y-14730508D02*
X8089186Y-14740031D01*
X8089186Y-14740031D02*
X8098710Y-14730508D01*
X8098710Y-14730508D02*
X8089186Y-14720984D01*
X8089186Y-14720984D02*
X8089186Y-14740031D01*
X8212996Y-14920984D02*
X8193948Y-14911460D01*
X8193948Y-14911460D02*
X8184424Y-14892412D01*
X8184424Y-14892412D02*
X8184424Y-14720984D01*
X8317758Y-14920984D02*
X8298710Y-14911460D01*
X8298710Y-14911460D02*
X8289186Y-14892412D01*
X8289186Y-14892412D02*
X8289186Y-14720984D01*
X8546329Y-14920984D02*
X8546329Y-14720984D01*
X8546329Y-14720984D02*
X8612996Y-14863841D01*
X8612996Y-14863841D02*
X8679663Y-14720984D01*
X8679663Y-14720984D02*
X8679663Y-14920984D01*
X8860615Y-14920984D02*
X8860615Y-14816222D01*
X8860615Y-14816222D02*
X8851091Y-14797174D01*
X8851091Y-14797174D02*
X8832044Y-14787650D01*
X8832044Y-14787650D02*
X8793948Y-14787650D01*
X8793948Y-14787650D02*
X8774901Y-14797174D01*
X8860615Y-14911460D02*
X8841567Y-14920984D01*
X8841567Y-14920984D02*
X8793948Y-14920984D01*
X8793948Y-14920984D02*
X8774901Y-14911460D01*
X8774901Y-14911460D02*
X8765377Y-14892412D01*
X8765377Y-14892412D02*
X8765377Y-14873365D01*
X8765377Y-14873365D02*
X8774901Y-14854317D01*
X8774901Y-14854317D02*
X8793948Y-14844793D01*
X8793948Y-14844793D02*
X8841567Y-14844793D01*
X8841567Y-14844793D02*
X8860615Y-14835269D01*
X8955853Y-14787650D02*
X8955853Y-14987650D01*
X8955853Y-14797174D02*
X8974901Y-14787650D01*
X8974901Y-14787650D02*
X9012996Y-14787650D01*
X9012996Y-14787650D02*
X9032044Y-14797174D01*
X9032044Y-14797174D02*
X9041567Y-14806698D01*
X9041567Y-14806698D02*
X9051091Y-14825746D01*
X9051091Y-14825746D02*
X9051091Y-14882888D01*
X9051091Y-14882888D02*
X9041567Y-14901936D01*
X9041567Y-14901936D02*
X9032044Y-14911460D01*
X9032044Y-14911460D02*
X9012996Y-14920984D01*
X9012996Y-14920984D02*
X8974901Y-14920984D01*
X8974901Y-14920984D02*
X8955853Y-14911460D01*
X9136805Y-14901936D02*
X9146329Y-14911460D01*
X9146329Y-14911460D02*
X9136805Y-14920984D01*
X9136805Y-14920984D02*
X9127282Y-14911460D01*
X9127282Y-14911460D02*
X9136805Y-14901936D01*
X9136805Y-14901936D02*
X9136805Y-14920984D01*
X9136805Y-14797174D02*
X9146329Y-14806698D01*
X9146329Y-14806698D02*
X9136805Y-14816222D01*
X9136805Y-14816222D02*
X9127282Y-14806698D01*
X9127282Y-14806698D02*
X9136805Y-14797174D01*
X9136805Y-14797174D02*
X9136805Y-14816222D01*
M02*
