%TF.GenerationSoftware,KiCad,Pcbnew,7.0.5*%
%TF.CreationDate,2024-03-20T17:02:27+08:00*%
%TF.ProjectId,mcu,6d63752e-6b69-4636-9164-5f7063625858,rev?*%
%TF.SameCoordinates,Original*%
%TF.FileFunction,Drillmap*%
%TF.FilePolarity,Positive*%
%FSLAX45Y45*%
G04 Gerber Fmt 4.5, Leading zero omitted, Abs format (unit mm)*
G04 Created by KiCad (PCBNEW 7.0.5) date 2024-03-20 17:02:27*
%MOMM*%
%LPD*%
G01*
G04 APERTURE LIST*
%ADD10C,0.200000*%
%ADD11C,0.220000*%
G04 APERTURE END LIST*
D10*
D11*
X14797500Y-4307080D02*
X15017500Y-4527080D01*
X15017500Y-4307080D02*
X14797500Y-4527080D01*
X14797500Y-7062680D02*
X15017500Y-7282680D01*
X15017500Y-7062680D02*
X14797500Y-7282680D01*
D10*
X12863277Y-7700204D02*
X12863277Y-7500204D01*
X12863277Y-7500204D02*
X12910896Y-7500204D01*
X12910896Y-7500204D02*
X12939467Y-7509728D01*
X12939467Y-7509728D02*
X12958515Y-7528775D01*
X12958515Y-7528775D02*
X12968039Y-7547823D01*
X12968039Y-7547823D02*
X12977562Y-7585918D01*
X12977562Y-7585918D02*
X12977562Y-7614489D01*
X12977562Y-7614489D02*
X12968039Y-7652585D01*
X12968039Y-7652585D02*
X12958515Y-7671632D01*
X12958515Y-7671632D02*
X12939467Y-7690680D01*
X12939467Y-7690680D02*
X12910896Y-7700204D01*
X12910896Y-7700204D02*
X12863277Y-7700204D01*
X13063277Y-7700204D02*
X13063277Y-7566870D01*
X13063277Y-7604966D02*
X13072801Y-7585918D01*
X13072801Y-7585918D02*
X13082324Y-7576394D01*
X13082324Y-7576394D02*
X13101372Y-7566870D01*
X13101372Y-7566870D02*
X13120420Y-7566870D01*
X13187086Y-7700204D02*
X13187086Y-7566870D01*
X13187086Y-7500204D02*
X13177562Y-7509728D01*
X13177562Y-7509728D02*
X13187086Y-7519251D01*
X13187086Y-7519251D02*
X13196610Y-7509728D01*
X13196610Y-7509728D02*
X13187086Y-7500204D01*
X13187086Y-7500204D02*
X13187086Y-7519251D01*
X13310896Y-7700204D02*
X13291848Y-7690680D01*
X13291848Y-7690680D02*
X13282324Y-7671632D01*
X13282324Y-7671632D02*
X13282324Y-7500204D01*
X13415658Y-7700204D02*
X13396610Y-7690680D01*
X13396610Y-7690680D02*
X13387086Y-7671632D01*
X13387086Y-7671632D02*
X13387086Y-7500204D01*
X13644229Y-7700204D02*
X13644229Y-7500204D01*
X13644229Y-7500204D02*
X13710896Y-7643061D01*
X13710896Y-7643061D02*
X13777562Y-7500204D01*
X13777562Y-7500204D02*
X13777562Y-7700204D01*
X13958515Y-7700204D02*
X13958515Y-7595442D01*
X13958515Y-7595442D02*
X13948991Y-7576394D01*
X13948991Y-7576394D02*
X13929943Y-7566870D01*
X13929943Y-7566870D02*
X13891848Y-7566870D01*
X13891848Y-7566870D02*
X13872801Y-7576394D01*
X13958515Y-7690680D02*
X13939467Y-7700204D01*
X13939467Y-7700204D02*
X13891848Y-7700204D01*
X13891848Y-7700204D02*
X13872801Y-7690680D01*
X13872801Y-7690680D02*
X13863277Y-7671632D01*
X13863277Y-7671632D02*
X13863277Y-7652585D01*
X13863277Y-7652585D02*
X13872801Y-7633537D01*
X13872801Y-7633537D02*
X13891848Y-7624013D01*
X13891848Y-7624013D02*
X13939467Y-7624013D01*
X13939467Y-7624013D02*
X13958515Y-7614489D01*
X14053753Y-7566870D02*
X14053753Y-7766870D01*
X14053753Y-7576394D02*
X14072801Y-7566870D01*
X14072801Y-7566870D02*
X14110896Y-7566870D01*
X14110896Y-7566870D02*
X14129943Y-7576394D01*
X14129943Y-7576394D02*
X14139467Y-7585918D01*
X14139467Y-7585918D02*
X14148991Y-7604966D01*
X14148991Y-7604966D02*
X14148991Y-7662108D01*
X14148991Y-7662108D02*
X14139467Y-7681156D01*
X14139467Y-7681156D02*
X14129943Y-7690680D01*
X14129943Y-7690680D02*
X14110896Y-7700204D01*
X14110896Y-7700204D02*
X14072801Y-7700204D01*
X14072801Y-7700204D02*
X14053753Y-7690680D01*
X14234705Y-7681156D02*
X14244229Y-7690680D01*
X14244229Y-7690680D02*
X14234705Y-7700204D01*
X14234705Y-7700204D02*
X14225182Y-7690680D01*
X14225182Y-7690680D02*
X14234705Y-7681156D01*
X14234705Y-7681156D02*
X14234705Y-7700204D01*
X14234705Y-7576394D02*
X14244229Y-7585918D01*
X14244229Y-7585918D02*
X14234705Y-7595442D01*
X14234705Y-7595442D02*
X14225182Y-7585918D01*
X14225182Y-7585918D02*
X14234705Y-7576394D01*
X14234705Y-7576394D02*
X14234705Y-7595442D01*
X12402500Y-7928720D02*
X12602500Y-8128720D01*
X12602500Y-7928720D02*
X12402500Y-8128720D01*
X12853753Y-7939251D02*
X12863277Y-7929728D01*
X12863277Y-7929728D02*
X12882324Y-7920204D01*
X12882324Y-7920204D02*
X12929943Y-7920204D01*
X12929943Y-7920204D02*
X12948991Y-7929728D01*
X12948991Y-7929728D02*
X12958515Y-7939251D01*
X12958515Y-7939251D02*
X12968039Y-7958299D01*
X12968039Y-7958299D02*
X12968039Y-7977347D01*
X12968039Y-7977347D02*
X12958515Y-8005918D01*
X12958515Y-8005918D02*
X12844229Y-8120204D01*
X12844229Y-8120204D02*
X12968039Y-8120204D01*
X13053753Y-8101156D02*
X13063277Y-8110680D01*
X13063277Y-8110680D02*
X13053753Y-8120204D01*
X13053753Y-8120204D02*
X13044229Y-8110680D01*
X13044229Y-8110680D02*
X13053753Y-8101156D01*
X13053753Y-8101156D02*
X13053753Y-8120204D01*
X13139467Y-7939251D02*
X13148991Y-7929728D01*
X13148991Y-7929728D02*
X13168039Y-7920204D01*
X13168039Y-7920204D02*
X13215658Y-7920204D01*
X13215658Y-7920204D02*
X13234705Y-7929728D01*
X13234705Y-7929728D02*
X13244229Y-7939251D01*
X13244229Y-7939251D02*
X13253753Y-7958299D01*
X13253753Y-7958299D02*
X13253753Y-7977347D01*
X13253753Y-7977347D02*
X13244229Y-8005918D01*
X13244229Y-8005918D02*
X13129943Y-8120204D01*
X13129943Y-8120204D02*
X13253753Y-8120204D01*
X13377562Y-7920204D02*
X13396610Y-7920204D01*
X13396610Y-7920204D02*
X13415658Y-7929728D01*
X13415658Y-7929728D02*
X13425182Y-7939251D01*
X13425182Y-7939251D02*
X13434705Y-7958299D01*
X13434705Y-7958299D02*
X13444229Y-7996394D01*
X13444229Y-7996394D02*
X13444229Y-8044013D01*
X13444229Y-8044013D02*
X13434705Y-8082108D01*
X13434705Y-8082108D02*
X13425182Y-8101156D01*
X13425182Y-8101156D02*
X13415658Y-8110680D01*
X13415658Y-8110680D02*
X13396610Y-8120204D01*
X13396610Y-8120204D02*
X13377562Y-8120204D01*
X13377562Y-8120204D02*
X13358515Y-8110680D01*
X13358515Y-8110680D02*
X13348991Y-8101156D01*
X13348991Y-8101156D02*
X13339467Y-8082108D01*
X13339467Y-8082108D02*
X13329943Y-8044013D01*
X13329943Y-8044013D02*
X13329943Y-7996394D01*
X13329943Y-7996394D02*
X13339467Y-7958299D01*
X13339467Y-7958299D02*
X13348991Y-7939251D01*
X13348991Y-7939251D02*
X13358515Y-7929728D01*
X13358515Y-7929728D02*
X13377562Y-7920204D01*
X13568039Y-7920204D02*
X13587086Y-7920204D01*
X13587086Y-7920204D02*
X13606134Y-7929728D01*
X13606134Y-7929728D02*
X13615658Y-7939251D01*
X13615658Y-7939251D02*
X13625182Y-7958299D01*
X13625182Y-7958299D02*
X13634705Y-7996394D01*
X13634705Y-7996394D02*
X13634705Y-8044013D01*
X13634705Y-8044013D02*
X13625182Y-8082108D01*
X13625182Y-8082108D02*
X13615658Y-8101156D01*
X13615658Y-8101156D02*
X13606134Y-8110680D01*
X13606134Y-8110680D02*
X13587086Y-8120204D01*
X13587086Y-8120204D02*
X13568039Y-8120204D01*
X13568039Y-8120204D02*
X13548991Y-8110680D01*
X13548991Y-8110680D02*
X13539467Y-8101156D01*
X13539467Y-8101156D02*
X13529943Y-8082108D01*
X13529943Y-8082108D02*
X13520420Y-8044013D01*
X13520420Y-8044013D02*
X13520420Y-7996394D01*
X13520420Y-7996394D02*
X13529943Y-7958299D01*
X13529943Y-7958299D02*
X13539467Y-7939251D01*
X13539467Y-7939251D02*
X13548991Y-7929728D01*
X13548991Y-7929728D02*
X13568039Y-7920204D01*
X13720420Y-8120204D02*
X13720420Y-7986870D01*
X13720420Y-8005918D02*
X13729943Y-7996394D01*
X13729943Y-7996394D02*
X13748991Y-7986870D01*
X13748991Y-7986870D02*
X13777563Y-7986870D01*
X13777563Y-7986870D02*
X13796610Y-7996394D01*
X13796610Y-7996394D02*
X13806134Y-8015442D01*
X13806134Y-8015442D02*
X13806134Y-8120204D01*
X13806134Y-8015442D02*
X13815658Y-7996394D01*
X13815658Y-7996394D02*
X13834705Y-7986870D01*
X13834705Y-7986870D02*
X13863277Y-7986870D01*
X13863277Y-7986870D02*
X13882324Y-7996394D01*
X13882324Y-7996394D02*
X13891848Y-8015442D01*
X13891848Y-8015442D02*
X13891848Y-8120204D01*
X13987086Y-8120204D02*
X13987086Y-7986870D01*
X13987086Y-8005918D02*
X13996610Y-7996394D01*
X13996610Y-7996394D02*
X14015658Y-7986870D01*
X14015658Y-7986870D02*
X14044229Y-7986870D01*
X14044229Y-7986870D02*
X14063277Y-7996394D01*
X14063277Y-7996394D02*
X14072801Y-8015442D01*
X14072801Y-8015442D02*
X14072801Y-8120204D01*
X14072801Y-8015442D02*
X14082324Y-7996394D01*
X14082324Y-7996394D02*
X14101372Y-7986870D01*
X14101372Y-7986870D02*
X14129943Y-7986870D01*
X14129943Y-7986870D02*
X14148991Y-7996394D01*
X14148991Y-7996394D02*
X14158515Y-8015442D01*
X14158515Y-8015442D02*
X14158515Y-8120204D01*
X14548991Y-7910680D02*
X14377563Y-8167823D01*
X14806134Y-7920204D02*
X14825182Y-7920204D01*
X14825182Y-7920204D02*
X14844229Y-7929728D01*
X14844229Y-7929728D02*
X14853753Y-7939251D01*
X14853753Y-7939251D02*
X14863277Y-7958299D01*
X14863277Y-7958299D02*
X14872801Y-7996394D01*
X14872801Y-7996394D02*
X14872801Y-8044013D01*
X14872801Y-8044013D02*
X14863277Y-8082108D01*
X14863277Y-8082108D02*
X14853753Y-8101156D01*
X14853753Y-8101156D02*
X14844229Y-8110680D01*
X14844229Y-8110680D02*
X14825182Y-8120204D01*
X14825182Y-8120204D02*
X14806134Y-8120204D01*
X14806134Y-8120204D02*
X14787086Y-8110680D01*
X14787086Y-8110680D02*
X14777563Y-8101156D01*
X14777563Y-8101156D02*
X14768039Y-8082108D01*
X14768039Y-8082108D02*
X14758515Y-8044013D01*
X14758515Y-8044013D02*
X14758515Y-7996394D01*
X14758515Y-7996394D02*
X14768039Y-7958299D01*
X14768039Y-7958299D02*
X14777563Y-7939251D01*
X14777563Y-7939251D02*
X14787086Y-7929728D01*
X14787086Y-7929728D02*
X14806134Y-7920204D01*
X14958515Y-8101156D02*
X14968039Y-8110680D01*
X14968039Y-8110680D02*
X14958515Y-8120204D01*
X14958515Y-8120204D02*
X14948991Y-8110680D01*
X14948991Y-8110680D02*
X14958515Y-8101156D01*
X14958515Y-8101156D02*
X14958515Y-8120204D01*
X15091848Y-7920204D02*
X15110896Y-7920204D01*
X15110896Y-7920204D02*
X15129944Y-7929728D01*
X15129944Y-7929728D02*
X15139467Y-7939251D01*
X15139467Y-7939251D02*
X15148991Y-7958299D01*
X15148991Y-7958299D02*
X15158515Y-7996394D01*
X15158515Y-7996394D02*
X15158515Y-8044013D01*
X15158515Y-8044013D02*
X15148991Y-8082108D01*
X15148991Y-8082108D02*
X15139467Y-8101156D01*
X15139467Y-8101156D02*
X15129944Y-8110680D01*
X15129944Y-8110680D02*
X15110896Y-8120204D01*
X15110896Y-8120204D02*
X15091848Y-8120204D01*
X15091848Y-8120204D02*
X15072801Y-8110680D01*
X15072801Y-8110680D02*
X15063277Y-8101156D01*
X15063277Y-8101156D02*
X15053753Y-8082108D01*
X15053753Y-8082108D02*
X15044229Y-8044013D01*
X15044229Y-8044013D02*
X15044229Y-7996394D01*
X15044229Y-7996394D02*
X15053753Y-7958299D01*
X15053753Y-7958299D02*
X15063277Y-7939251D01*
X15063277Y-7939251D02*
X15072801Y-7929728D01*
X15072801Y-7929728D02*
X15091848Y-7920204D01*
X15272801Y-8005918D02*
X15253753Y-7996394D01*
X15253753Y-7996394D02*
X15244229Y-7986870D01*
X15244229Y-7986870D02*
X15234706Y-7967823D01*
X15234706Y-7967823D02*
X15234706Y-7958299D01*
X15234706Y-7958299D02*
X15244229Y-7939251D01*
X15244229Y-7939251D02*
X15253753Y-7929728D01*
X15253753Y-7929728D02*
X15272801Y-7920204D01*
X15272801Y-7920204D02*
X15310896Y-7920204D01*
X15310896Y-7920204D02*
X15329944Y-7929728D01*
X15329944Y-7929728D02*
X15339467Y-7939251D01*
X15339467Y-7939251D02*
X15348991Y-7958299D01*
X15348991Y-7958299D02*
X15348991Y-7967823D01*
X15348991Y-7967823D02*
X15339467Y-7986870D01*
X15339467Y-7986870D02*
X15329944Y-7996394D01*
X15329944Y-7996394D02*
X15310896Y-8005918D01*
X15310896Y-8005918D02*
X15272801Y-8005918D01*
X15272801Y-8005918D02*
X15253753Y-8015442D01*
X15253753Y-8015442D02*
X15244229Y-8024966D01*
X15244229Y-8024966D02*
X15234706Y-8044013D01*
X15234706Y-8044013D02*
X15234706Y-8082108D01*
X15234706Y-8082108D02*
X15244229Y-8101156D01*
X15244229Y-8101156D02*
X15253753Y-8110680D01*
X15253753Y-8110680D02*
X15272801Y-8120204D01*
X15272801Y-8120204D02*
X15310896Y-8120204D01*
X15310896Y-8120204D02*
X15329944Y-8110680D01*
X15329944Y-8110680D02*
X15339467Y-8101156D01*
X15339467Y-8101156D02*
X15348991Y-8082108D01*
X15348991Y-8082108D02*
X15348991Y-8044013D01*
X15348991Y-8044013D02*
X15339467Y-8024966D01*
X15339467Y-8024966D02*
X15329944Y-8015442D01*
X15329944Y-8015442D02*
X15310896Y-8005918D01*
X15520420Y-7920204D02*
X15482325Y-7920204D01*
X15482325Y-7920204D02*
X15463277Y-7929728D01*
X15463277Y-7929728D02*
X15453753Y-7939251D01*
X15453753Y-7939251D02*
X15434706Y-7967823D01*
X15434706Y-7967823D02*
X15425182Y-8005918D01*
X15425182Y-8005918D02*
X15425182Y-8082108D01*
X15425182Y-8082108D02*
X15434706Y-8101156D01*
X15434706Y-8101156D02*
X15444229Y-8110680D01*
X15444229Y-8110680D02*
X15463277Y-8120204D01*
X15463277Y-8120204D02*
X15501372Y-8120204D01*
X15501372Y-8120204D02*
X15520420Y-8110680D01*
X15520420Y-8110680D02*
X15529944Y-8101156D01*
X15529944Y-8101156D02*
X15539467Y-8082108D01*
X15539467Y-8082108D02*
X15539467Y-8034489D01*
X15539467Y-8034489D02*
X15529944Y-8015442D01*
X15529944Y-8015442D02*
X15520420Y-8005918D01*
X15520420Y-8005918D02*
X15501372Y-7996394D01*
X15501372Y-7996394D02*
X15463277Y-7996394D01*
X15463277Y-7996394D02*
X15444229Y-8005918D01*
X15444229Y-8005918D02*
X15434706Y-8015442D01*
X15434706Y-8015442D02*
X15425182Y-8034489D01*
X15710896Y-7920204D02*
X15672801Y-7920204D01*
X15672801Y-7920204D02*
X15653753Y-7929728D01*
X15653753Y-7929728D02*
X15644229Y-7939251D01*
X15644229Y-7939251D02*
X15625182Y-7967823D01*
X15625182Y-7967823D02*
X15615658Y-8005918D01*
X15615658Y-8005918D02*
X15615658Y-8082108D01*
X15615658Y-8082108D02*
X15625182Y-8101156D01*
X15625182Y-8101156D02*
X15634706Y-8110680D01*
X15634706Y-8110680D02*
X15653753Y-8120204D01*
X15653753Y-8120204D02*
X15691848Y-8120204D01*
X15691848Y-8120204D02*
X15710896Y-8110680D01*
X15710896Y-8110680D02*
X15720420Y-8101156D01*
X15720420Y-8101156D02*
X15729944Y-8082108D01*
X15729944Y-8082108D02*
X15729944Y-8034489D01*
X15729944Y-8034489D02*
X15720420Y-8015442D01*
X15720420Y-8015442D02*
X15710896Y-8005918D01*
X15710896Y-8005918D02*
X15691848Y-7996394D01*
X15691848Y-7996394D02*
X15653753Y-7996394D01*
X15653753Y-7996394D02*
X15634706Y-8005918D01*
X15634706Y-8005918D02*
X15625182Y-8015442D01*
X15625182Y-8015442D02*
X15615658Y-8034489D01*
X15806134Y-7920204D02*
X15806134Y-7958299D01*
X15882325Y-7920204D02*
X15882325Y-7958299D01*
X16177563Y-8196394D02*
X16168039Y-8186870D01*
X16168039Y-8186870D02*
X16148991Y-8158299D01*
X16148991Y-8158299D02*
X16139468Y-8139251D01*
X16139468Y-8139251D02*
X16129944Y-8110680D01*
X16129944Y-8110680D02*
X16120420Y-8063061D01*
X16120420Y-8063061D02*
X16120420Y-8024966D01*
X16120420Y-8024966D02*
X16129944Y-7977347D01*
X16129944Y-7977347D02*
X16139468Y-7948775D01*
X16139468Y-7948775D02*
X16148991Y-7929728D01*
X16148991Y-7929728D02*
X16168039Y-7901156D01*
X16168039Y-7901156D02*
X16177563Y-7891632D01*
X16244229Y-7939251D02*
X16253753Y-7929728D01*
X16253753Y-7929728D02*
X16272801Y-7920204D01*
X16272801Y-7920204D02*
X16320420Y-7920204D01*
X16320420Y-7920204D02*
X16339468Y-7929728D01*
X16339468Y-7929728D02*
X16348991Y-7939251D01*
X16348991Y-7939251D02*
X16358515Y-7958299D01*
X16358515Y-7958299D02*
X16358515Y-7977347D01*
X16358515Y-7977347D02*
X16348991Y-8005918D01*
X16348991Y-8005918D02*
X16234706Y-8120204D01*
X16234706Y-8120204D02*
X16358515Y-8120204D01*
X16596610Y-8120204D02*
X16596610Y-7920204D01*
X16682325Y-8120204D02*
X16682325Y-8015442D01*
X16682325Y-8015442D02*
X16672801Y-7996394D01*
X16672801Y-7996394D02*
X16653753Y-7986870D01*
X16653753Y-7986870D02*
X16625182Y-7986870D01*
X16625182Y-7986870D02*
X16606134Y-7996394D01*
X16606134Y-7996394D02*
X16596610Y-8005918D01*
X16806134Y-8120204D02*
X16787087Y-8110680D01*
X16787087Y-8110680D02*
X16777563Y-8101156D01*
X16777563Y-8101156D02*
X16768039Y-8082108D01*
X16768039Y-8082108D02*
X16768039Y-8024966D01*
X16768039Y-8024966D02*
X16777563Y-8005918D01*
X16777563Y-8005918D02*
X16787087Y-7996394D01*
X16787087Y-7996394D02*
X16806134Y-7986870D01*
X16806134Y-7986870D02*
X16834706Y-7986870D01*
X16834706Y-7986870D02*
X16853753Y-7996394D01*
X16853753Y-7996394D02*
X16863277Y-8005918D01*
X16863277Y-8005918D02*
X16872801Y-8024966D01*
X16872801Y-8024966D02*
X16872801Y-8082108D01*
X16872801Y-8082108D02*
X16863277Y-8101156D01*
X16863277Y-8101156D02*
X16853753Y-8110680D01*
X16853753Y-8110680D02*
X16834706Y-8120204D01*
X16834706Y-8120204D02*
X16806134Y-8120204D01*
X16987087Y-8120204D02*
X16968039Y-8110680D01*
X16968039Y-8110680D02*
X16958515Y-8091632D01*
X16958515Y-8091632D02*
X16958515Y-7920204D01*
X17139468Y-8110680D02*
X17120420Y-8120204D01*
X17120420Y-8120204D02*
X17082325Y-8120204D01*
X17082325Y-8120204D02*
X17063277Y-8110680D01*
X17063277Y-8110680D02*
X17053753Y-8091632D01*
X17053753Y-8091632D02*
X17053753Y-8015442D01*
X17053753Y-8015442D02*
X17063277Y-7996394D01*
X17063277Y-7996394D02*
X17082325Y-7986870D01*
X17082325Y-7986870D02*
X17120420Y-7986870D01*
X17120420Y-7986870D02*
X17139468Y-7996394D01*
X17139468Y-7996394D02*
X17148992Y-8015442D01*
X17148992Y-8015442D02*
X17148992Y-8034489D01*
X17148992Y-8034489D02*
X17053753Y-8053537D01*
X17225182Y-8110680D02*
X17244230Y-8120204D01*
X17244230Y-8120204D02*
X17282325Y-8120204D01*
X17282325Y-8120204D02*
X17301373Y-8110680D01*
X17301373Y-8110680D02*
X17310896Y-8091632D01*
X17310896Y-8091632D02*
X17310896Y-8082108D01*
X17310896Y-8082108D02*
X17301373Y-8063061D01*
X17301373Y-8063061D02*
X17282325Y-8053537D01*
X17282325Y-8053537D02*
X17253753Y-8053537D01*
X17253753Y-8053537D02*
X17234706Y-8044013D01*
X17234706Y-8044013D02*
X17225182Y-8024966D01*
X17225182Y-8024966D02*
X17225182Y-8015442D01*
X17225182Y-8015442D02*
X17234706Y-7996394D01*
X17234706Y-7996394D02*
X17253753Y-7986870D01*
X17253753Y-7986870D02*
X17282325Y-7986870D01*
X17282325Y-7986870D02*
X17301373Y-7996394D01*
X17377563Y-8196394D02*
X17387087Y-8186870D01*
X17387087Y-8186870D02*
X17406134Y-8158299D01*
X17406134Y-8158299D02*
X17415658Y-8139251D01*
X17415658Y-8139251D02*
X17425182Y-8110680D01*
X17425182Y-8110680D02*
X17434706Y-8063061D01*
X17434706Y-8063061D02*
X17434706Y-8024966D01*
X17434706Y-8024966D02*
X17425182Y-7977347D01*
X17425182Y-7977347D02*
X17415658Y-7948775D01*
X17415658Y-7948775D02*
X17406134Y-7929728D01*
X17406134Y-7929728D02*
X17387087Y-7901156D01*
X17387087Y-7901156D02*
X17377563Y-7891632D01*
X17739468Y-8196394D02*
X17729944Y-8186870D01*
X17729944Y-8186870D02*
X17710896Y-8158299D01*
X17710896Y-8158299D02*
X17701373Y-8139251D01*
X17701373Y-8139251D02*
X17691849Y-8110680D01*
X17691849Y-8110680D02*
X17682325Y-8063061D01*
X17682325Y-8063061D02*
X17682325Y-8024966D01*
X17682325Y-8024966D02*
X17691849Y-7977347D01*
X17691849Y-7977347D02*
X17701373Y-7948775D01*
X17701373Y-7948775D02*
X17710896Y-7929728D01*
X17710896Y-7929728D02*
X17729944Y-7901156D01*
X17729944Y-7901156D02*
X17739468Y-7891632D01*
X17815658Y-7986870D02*
X17815658Y-8120204D01*
X17815658Y-8005918D02*
X17825182Y-7996394D01*
X17825182Y-7996394D02*
X17844230Y-7986870D01*
X17844230Y-7986870D02*
X17872801Y-7986870D01*
X17872801Y-7986870D02*
X17891849Y-7996394D01*
X17891849Y-7996394D02*
X17901373Y-8015442D01*
X17901373Y-8015442D02*
X17901373Y-8120204D01*
X18025182Y-8120204D02*
X18006134Y-8110680D01*
X18006134Y-8110680D02*
X17996611Y-8101156D01*
X17996611Y-8101156D02*
X17987087Y-8082108D01*
X17987087Y-8082108D02*
X17987087Y-8024966D01*
X17987087Y-8024966D02*
X17996611Y-8005918D01*
X17996611Y-8005918D02*
X18006134Y-7996394D01*
X18006134Y-7996394D02*
X18025182Y-7986870D01*
X18025182Y-7986870D02*
X18053754Y-7986870D01*
X18053754Y-7986870D02*
X18072801Y-7996394D01*
X18072801Y-7996394D02*
X18082325Y-8005918D01*
X18082325Y-8005918D02*
X18091849Y-8024966D01*
X18091849Y-8024966D02*
X18091849Y-8082108D01*
X18091849Y-8082108D02*
X18082325Y-8101156D01*
X18082325Y-8101156D02*
X18072801Y-8110680D01*
X18072801Y-8110680D02*
X18053754Y-8120204D01*
X18053754Y-8120204D02*
X18025182Y-8120204D01*
X18148992Y-7986870D02*
X18225182Y-7986870D01*
X18177563Y-7920204D02*
X18177563Y-8091632D01*
X18177563Y-8091632D02*
X18187087Y-8110680D01*
X18187087Y-8110680D02*
X18206134Y-8120204D01*
X18206134Y-8120204D02*
X18225182Y-8120204D01*
X18444230Y-7986870D02*
X18444230Y-8186870D01*
X18444230Y-7996394D02*
X18463277Y-7986870D01*
X18463277Y-7986870D02*
X18501373Y-7986870D01*
X18501373Y-7986870D02*
X18520420Y-7996394D01*
X18520420Y-7996394D02*
X18529944Y-8005918D01*
X18529944Y-8005918D02*
X18539468Y-8024966D01*
X18539468Y-8024966D02*
X18539468Y-8082108D01*
X18539468Y-8082108D02*
X18529944Y-8101156D01*
X18529944Y-8101156D02*
X18520420Y-8110680D01*
X18520420Y-8110680D02*
X18501373Y-8120204D01*
X18501373Y-8120204D02*
X18463277Y-8120204D01*
X18463277Y-8120204D02*
X18444230Y-8110680D01*
X18653754Y-8120204D02*
X18634706Y-8110680D01*
X18634706Y-8110680D02*
X18625182Y-8091632D01*
X18625182Y-8091632D02*
X18625182Y-7920204D01*
X18815658Y-8120204D02*
X18815658Y-8015442D01*
X18815658Y-8015442D02*
X18806135Y-7996394D01*
X18806135Y-7996394D02*
X18787087Y-7986870D01*
X18787087Y-7986870D02*
X18748992Y-7986870D01*
X18748992Y-7986870D02*
X18729944Y-7996394D01*
X18815658Y-8110680D02*
X18796611Y-8120204D01*
X18796611Y-8120204D02*
X18748992Y-8120204D01*
X18748992Y-8120204D02*
X18729944Y-8110680D01*
X18729944Y-8110680D02*
X18720420Y-8091632D01*
X18720420Y-8091632D02*
X18720420Y-8072585D01*
X18720420Y-8072585D02*
X18729944Y-8053537D01*
X18729944Y-8053537D02*
X18748992Y-8044013D01*
X18748992Y-8044013D02*
X18796611Y-8044013D01*
X18796611Y-8044013D02*
X18815658Y-8034489D01*
X18882325Y-7986870D02*
X18958515Y-7986870D01*
X18910896Y-7920204D02*
X18910896Y-8091632D01*
X18910896Y-8091632D02*
X18920420Y-8110680D01*
X18920420Y-8110680D02*
X18939468Y-8120204D01*
X18939468Y-8120204D02*
X18958515Y-8120204D01*
X19101373Y-8110680D02*
X19082325Y-8120204D01*
X19082325Y-8120204D02*
X19044230Y-8120204D01*
X19044230Y-8120204D02*
X19025182Y-8110680D01*
X19025182Y-8110680D02*
X19015658Y-8091632D01*
X19015658Y-8091632D02*
X19015658Y-8015442D01*
X19015658Y-8015442D02*
X19025182Y-7996394D01*
X19025182Y-7996394D02*
X19044230Y-7986870D01*
X19044230Y-7986870D02*
X19082325Y-7986870D01*
X19082325Y-7986870D02*
X19101373Y-7996394D01*
X19101373Y-7996394D02*
X19110896Y-8015442D01*
X19110896Y-8015442D02*
X19110896Y-8034489D01*
X19110896Y-8034489D02*
X19015658Y-8053537D01*
X19282325Y-8120204D02*
X19282325Y-7920204D01*
X19282325Y-8110680D02*
X19263277Y-8120204D01*
X19263277Y-8120204D02*
X19225182Y-8120204D01*
X19225182Y-8120204D02*
X19206135Y-8110680D01*
X19206135Y-8110680D02*
X19196611Y-8101156D01*
X19196611Y-8101156D02*
X19187087Y-8082108D01*
X19187087Y-8082108D02*
X19187087Y-8024966D01*
X19187087Y-8024966D02*
X19196611Y-8005918D01*
X19196611Y-8005918D02*
X19206135Y-7996394D01*
X19206135Y-7996394D02*
X19225182Y-7986870D01*
X19225182Y-7986870D02*
X19263277Y-7986870D01*
X19263277Y-7986870D02*
X19282325Y-7996394D01*
X19358516Y-8196394D02*
X19368039Y-8186870D01*
X19368039Y-8186870D02*
X19387087Y-8158299D01*
X19387087Y-8158299D02*
X19396611Y-8139251D01*
X19396611Y-8139251D02*
X19406135Y-8110680D01*
X19406135Y-8110680D02*
X19415658Y-8063061D01*
X19415658Y-8063061D02*
X19415658Y-8024966D01*
X19415658Y-8024966D02*
X19406135Y-7977347D01*
X19406135Y-7977347D02*
X19396611Y-7948775D01*
X19396611Y-7948775D02*
X19387087Y-7929728D01*
X19387087Y-7929728D02*
X19368039Y-7901156D01*
X19368039Y-7901156D02*
X19358516Y-7891632D01*
M02*
