M48
; DRILL file {KiCad 7.0.5} date Tue Mar 19 12:28:52 2024
; FORMAT={-:-/ absolute / metric / decimal}
; #@! TF.CreationDate,2024-03-19T12:28:52+08:00
; #@! TF.GenerationSoftware,Kicad,Pcbnew,7.0.5
; #@! TF.FileFunction,NonPlated,1,2,NPTH
FMAT,2
METRIC
; #@! TA.AperFunction,NonPlated,NPTH,ComponentDrill
T1C0.600
; #@! TA.AperFunction,NonPlated,NPTH,ComponentDrill
T2C0.800
; #@! TA.AperFunction,NonPlated,NPTH,ComponentDrill
T3C1.000
; #@! TA.AperFunction,NonPlated,NPTH,ComponentDrill
T4C1.100
; #@! TA.AperFunction,NonPlated,NPTH,ComponentDrill
T5C1.200
; #@! TA.AperFunction,NonPlated,NPTH,ComponentDrill
T6C1.500
; #@! TA.AperFunction,NonPlated,NPTH,ComponentDrill
T7C1.900
; #@! TA.AperFunction,NonPlated,NPTH,ComponentDrill
T8C2.200
; #@! TA.AperFunction,NonPlated,NPTH,ComponentDrill
T9C3.500
; #@! TA.AperFunction,NonPlated,NPTH,ComponentDrill
T10C5.050
%
G90
G05
T2
X225.267Y-119.66
X231.611Y-116.702
T3
X240.258Y-121.224
X257.523Y-113.173
X262.375Y-145.757
X280.264Y-132.697
X283.333Y-74.22
X283.333Y-93.27
X283.333Y-112.32
X302.383Y-71.839
X302.383Y-90.889
X302.383Y-109.939
X302.383Y-131.37
X321.433Y-69.458
X321.433Y-88.508
X321.433Y-107.558
X340.483Y-71.839
X340.483Y-90.889
X340.483Y-109.939
X359.533Y-81.364
X359.533Y-100.414
X359.533Y-119.464
X378.583Y-83.745
X378.583Y-102.795
X378.583Y-121.845
T4
X230.098Y-168.625
X231.962Y-144.443
T7
X232.918Y-130.329
X242.888Y-125.68
X250.183Y-122.278
X253.27Y-138.417
X257.918Y-148.386
X260.152Y-117.629
X271.127Y-139.997
X272.833Y-79.37
X272.833Y-98.42
X272.833Y-117.47
X281.867Y-137.617
X283.833Y-79.37
X283.833Y-98.42
X283.833Y-117.47
X291.883Y-76.989
X291.883Y-96.039
X291.883Y-115.089
X291.883Y-136.52
X302.883Y-76.989
X302.883Y-96.039
X302.883Y-115.089
X302.883Y-136.52
X310.933Y-74.608
X310.933Y-93.658
X310.933Y-112.708
X321.933Y-74.608
X321.933Y-93.658
X321.933Y-112.708
X329.983Y-76.989
X329.983Y-96.039
X329.983Y-115.089
X340.983Y-76.989
X340.983Y-96.039
X340.983Y-115.089
X349.033Y-86.514
X349.033Y-105.564
X349.033Y-124.614
X360.033Y-86.514
X360.033Y-105.564
X360.033Y-124.614
X368.083Y-88.895
X368.083Y-107.945
X368.083Y-126.995
X379.083Y-88.895
X379.083Y-107.945
X379.083Y-126.995
T8
X221.694Y-166.25
X224.347Y-146.099
X233.547Y-86.804
X241.845Y-168.903
X245.192Y-111.778
X247.233Y-87.72
X247.233Y-98.07
X314.051Y-129.376
X314.051Y-143.664
X337.865Y-136.52
T9
X250.562Y-132.611
X287.858Y-88.895
X287.858Y-107.945
X309.289Y-136.52
X364.058Y-98.42
X364.058Y-117.47
T10
X237.903Y-128.005
X255.168Y-119.954
X255.594Y-143.402
X276.497Y-138.807
X278.333Y-79.37
X278.333Y-98.42
X278.333Y-117.47
X297.383Y-76.989
X297.383Y-96.039
X297.383Y-115.089
X297.383Y-136.52
X316.433Y-74.608
X316.433Y-93.658
X316.433Y-112.708
X335.483Y-76.989
X335.483Y-96.039
X335.483Y-115.089
X354.533Y-86.514
X354.533Y-105.564
X354.533Y-124.614
X373.583Y-88.895
X373.583Y-107.945
X373.583Y-126.995
T1
X227.532Y-162.652G85X226.68Y-161.542
G05
T5
X264.658Y-87.695G85X266.258Y-87.695
G05
X264.658Y-98.095G85X266.258Y-98.095
G05
T6
X320.358Y-135.87G85X320.358Y-137.17
G05
X331.558Y-135.87G85X331.558Y-137.17
G05
T0
M30
