%TF.GenerationSoftware,KiCad,Pcbnew,7.0.5*%
%TF.CreationDate,2024-03-19T12:28:54+08:00*%
%TF.ProjectId,Prime52right,5072696d-6535-4327-9269-6768742e6b69,rev?*%
%TF.SameCoordinates,Original*%
%TF.FileFunction,Legend,Top*%
%TF.FilePolarity,Positive*%
%FSLAX46Y46*%
G04 Gerber Fmt 4.6, Leading zero omitted, Abs format (unit mm)*
G04 Created by KiCad (PCBNEW 7.0.5) date 2024-03-19 12:28:54*
%MOMM*%
%LPD*%
G01*
G04 APERTURE LIST*
%ADD10C,0.150000*%
%ADD11C,0.120000*%
%ADD12C,0.800000*%
G04 APERTURE END LIST*
D10*
%TO.C,U2*%
X217760747Y-95732259D02*
X217763074Y-95647107D01*
X217763074Y-95647107D02*
X217714774Y-95543529D01*
X217714774Y-95543529D02*
X217631949Y-95456051D01*
X217631949Y-95456051D02*
X217530698Y-95419198D01*
X217530698Y-95419198D02*
X217445546Y-95416871D01*
X217445546Y-95416871D02*
X217291342Y-95446744D01*
X217291342Y-95446744D02*
X217187764Y-95495044D01*
X217187764Y-95495044D02*
X217065760Y-95593969D01*
X217065760Y-95593969D02*
X217012807Y-95660694D01*
X217012807Y-95660694D02*
X216975955Y-95761946D01*
X216975955Y-95761946D02*
X216989728Y-95881623D01*
X216989728Y-95881623D02*
X217021928Y-95950675D01*
X217021928Y-95950675D02*
X217104753Y-96038154D01*
X217104753Y-96038154D02*
X217155379Y-96056580D01*
X217155379Y-96056580D02*
X217397061Y-95943882D01*
X217397061Y-95943882D02*
X217332662Y-95805778D01*
X217231224Y-96399514D02*
X217956271Y-96061419D01*
X217956271Y-96061419D02*
X217424421Y-96813826D01*
X217424421Y-96813826D02*
X218149467Y-96475731D01*
X217585419Y-97159086D02*
X218310465Y-96820991D01*
X218310465Y-96820991D02*
X218390964Y-96993621D01*
X218390964Y-96993621D02*
X218404737Y-97113299D01*
X218404737Y-97113299D02*
X218367884Y-97214550D01*
X218367884Y-97214550D02*
X218314932Y-97281276D01*
X218314932Y-97281276D02*
X218192928Y-97380201D01*
X218192928Y-97380201D02*
X218089350Y-97428500D01*
X218089350Y-97428500D02*
X217935146Y-97458373D01*
X217935146Y-97458373D02*
X217849994Y-97456046D01*
X217849994Y-97456046D02*
X217748743Y-97419194D01*
X217748743Y-97419194D02*
X217665917Y-97331716D01*
X217665917Y-97331716D02*
X217585419Y-97159086D01*
X216915020Y-93828449D02*
X216754023Y-93483189D01*
X216754023Y-93483189D02*
X216392663Y-93609660D01*
X216392663Y-93609660D02*
X216443288Y-93628086D01*
X216443288Y-93628086D02*
X216510014Y-93681039D01*
X216510014Y-93681039D02*
X216590513Y-93853669D01*
X216590513Y-93853669D02*
X216588186Y-93938821D01*
X216588186Y-93938821D02*
X216569760Y-93989446D01*
X216569760Y-93989446D02*
X216516808Y-94056172D01*
X216516808Y-94056172D02*
X216344178Y-94136671D01*
X216344178Y-94136671D02*
X216259026Y-94134344D01*
X216259026Y-94134344D02*
X216208400Y-94115918D01*
X216208400Y-94115918D02*
X216141675Y-94062965D01*
X216141675Y-94062965D02*
X216061176Y-93890335D01*
X216061176Y-93890335D02*
X216063502Y-93805184D01*
X216063502Y-93805184D02*
X216081929Y-93754558D01*
X217027718Y-94070131D02*
X216415370Y-94649908D01*
X216415370Y-94649908D02*
X217253115Y-94553495D01*
X218707726Y-97672920D02*
X218917023Y-98121758D01*
X218917023Y-98121758D02*
X218528117Y-98008874D01*
X218528117Y-98008874D02*
X218576416Y-98112452D01*
X218576416Y-98112452D02*
X218574089Y-98197604D01*
X218574089Y-98197604D02*
X218555663Y-98248230D01*
X218555663Y-98248230D02*
X218502711Y-98314955D01*
X218502711Y-98314955D02*
X218330081Y-98395454D01*
X218330081Y-98395454D02*
X218244929Y-98393127D01*
X218244929Y-98393127D02*
X218194303Y-98374701D01*
X218194303Y-98374701D02*
X218127578Y-98321749D01*
X218127578Y-98321749D02*
X218030979Y-98114593D01*
X218030979Y-98114593D02*
X218033306Y-98029441D01*
X218033306Y-98029441D02*
X218051732Y-97978815D01*
X219013622Y-98328915D02*
X218401274Y-98908691D01*
X218401274Y-98908691D02*
X219239018Y-98812279D01*
X219319517Y-98984908D02*
X219528813Y-99433747D01*
X219528813Y-99433747D02*
X219139907Y-99320862D01*
X219139907Y-99320862D02*
X219188206Y-99424441D01*
X219188206Y-99424441D02*
X219185880Y-99509592D01*
X219185880Y-99509592D02*
X219167453Y-99560218D01*
X219167453Y-99560218D02*
X219114501Y-99626944D01*
X219114501Y-99626944D02*
X218941871Y-99707442D01*
X218941871Y-99707442D02*
X218856719Y-99705116D01*
X218856719Y-99705116D02*
X218806094Y-99686689D01*
X218806094Y-99686689D02*
X218739368Y-99633737D01*
X218739368Y-99633737D02*
X218642770Y-99426581D01*
X218642770Y-99426581D02*
X218645096Y-99341429D01*
X218645096Y-99341429D02*
X218663522Y-99290804D01*
D11*
X213182774Y-93982587D02*
X229396621Y-86421946D01*
X223114303Y-115280820D02*
X213182774Y-93982587D01*
X229396621Y-86421946D02*
X239328150Y-107720179D01*
X239328150Y-107720179D02*
X223114303Y-115280820D01*
%TO.C,RE2*%
X265458000Y-89155000D02*
X265458000Y-96555000D01*
%TO.C,K49*%
X330058000Y-128720000D02*
X330058000Y-129320000D01*
X329758000Y-129020000D02*
X330058000Y-128720000D01*
X330058000Y-129320000D02*
X329758000Y-129020000D01*
X331858000Y-130420000D02*
X320058000Y-130420000D01*
X331858000Y-134520000D02*
X331858000Y-130420000D01*
X320058000Y-134520000D02*
X320058000Y-130420000D01*
X325958000Y-136020000D02*
X325958000Y-137020000D01*
X326458000Y-136520000D02*
X325458000Y-136520000D01*
X331858000Y-138520000D02*
X331858000Y-142620000D01*
X331858000Y-142620000D02*
X329458000Y-142620000D01*
X327258000Y-142620000D02*
X324658000Y-142620000D01*
X322458000Y-142620000D02*
X320058000Y-142620000D01*
X320058000Y-142620000D02*
X320058000Y-138520000D01*
X328958000Y-136520000D02*
G75*
G03*
X328958000Y-136520000I-3000000J0D01*
G01*
%TO.C,K30*%
X228941500Y-167117269D02*
X230091863Y-166234565D01*
X231254794Y-170132012D02*
X232405156Y-169249308D01*
X221082193Y-154492936D02*
X234648536Y-144083115D01*
X232648661Y-169566649D02*
X221082193Y-154492936D01*
X230454956Y-145599324D02*
X231276784Y-146670351D01*
X233469699Y-143286031D02*
X234291527Y-144357058D01*
D12*
X235117085Y-144858009D02*
X236465786Y-143823115D01*
X236334608Y-146444716D02*
X237683309Y-145409822D01*
X237552131Y-148031423D02*
X238900832Y-146996528D01*
X238769654Y-149618129D02*
X240118355Y-148583235D01*
X239987177Y-151204836D02*
X241335878Y-150169942D01*
X241204700Y-152791543D02*
X242553400Y-151756648D01*
D11*
X234648536Y-144083115D02*
X246215003Y-159156829D01*
X246215003Y-159156829D02*
X232648661Y-169566649D01*
X228941500Y-167117269D02*
G75*
G03*
X231254794Y-170132011I1156647J-1507371D01*
G01*
X233469698Y-143286032D02*
G75*
G03*
X230454956Y-145599324I-1507371J-1156646D01*
G01*
X240596000Y-157501000D02*
G75*
G03*
X240596000Y-157501000I-7500000J0D01*
G01*
%TO.C,K27*%
X249608000Y-89995000D02*
X236808000Y-89995000D01*
X249608000Y-89995000D02*
X249608000Y-95795000D01*
X244478000Y-89995000D02*
X246978000Y-92895000D01*
X246978000Y-92895000D02*
X244478000Y-95795000D01*
X249608000Y-95795000D02*
X236808000Y-95795000D01*
X236808000Y-95795000D02*
X236808000Y-89995000D01*
D10*
%TO.C,T2*%
X225317150Y-123198539D02*
X236440266Y-118011745D01*
X225317150Y-123198539D02*
X222588558Y-117347053D01*
X233711673Y-112160260D02*
X236440266Y-118011745D01*
X233711673Y-112160260D02*
X222588558Y-117347053D01*
%TD*%
M02*
