%TF.GenerationSoftware,KiCad,Pcbnew,7.0.5*%
%TF.CreationDate,2024-03-19T12:28:54+08:00*%
%TF.ProjectId,Prime52right,5072696d-6535-4327-9269-6768742e6b69,rev?*%
%TF.SameCoordinates,Original*%
%TF.FileFunction,Profile,NP*%
%FSLAX46Y46*%
G04 Gerber Fmt 4.6, Leading zero omitted, Abs format (unit mm)*
G04 Created by KiCad (PCBNEW 7.0.5) date 2024-03-19 12:28:54*
%MOMM*%
%LPD*%
G01*
G04 APERTURE LIST*
%TA.AperFunction,Profile*%
%ADD10C,0.100000*%
%TD*%
%TA.AperFunction,Profile*%
%ADD11C,0.120000*%
%TD*%
%TA.AperFunction,Profile*%
%ADD12C,0.050000*%
%TD*%
G04 APERTURE END LIST*
D10*
X364057559Y-76988951D02*
X364057559Y-79369951D01*
X287857559Y-67463951D02*
X306907559Y-67463951D01*
X345007559Y-67463951D02*
X345007559Y-76988951D01*
X345007559Y-136519951D02*
X335482559Y-146044951D01*
X383107559Y-136519951D02*
X345007559Y-136519951D01*
X287857559Y-69844951D02*
X268807559Y-69844951D01*
X268807559Y-69844951D02*
X259282559Y-79369951D01*
X269259368Y-150167807D02*
X249847227Y-159219715D01*
X383107559Y-79369951D02*
X383107559Y-136519951D01*
X269258325Y-150166864D02*
X287857559Y-146044951D01*
X364057559Y-79369951D02*
X383107559Y-79369951D01*
X345007559Y-76988951D02*
X364057559Y-76988951D01*
X325957559Y-65081951D02*
X325957559Y-67463951D01*
X211824578Y-94616126D02*
X244527840Y-79369951D01*
X211825380Y-94616517D02*
X231740000Y-137300000D01*
X287857559Y-146044951D02*
X335482559Y-146044951D01*
X222845337Y-144142486D02*
X231740000Y-137300000D01*
X306907559Y-65081951D02*
X325957559Y-65081951D01*
X259282559Y-79369951D02*
X244527840Y-79369951D01*
X306907559Y-67463951D02*
X306907559Y-65081951D01*
X325957559Y-67463951D02*
X345007559Y-67463951D01*
X287857559Y-69844951D02*
X287857559Y-67463951D01*
X222845340Y-144142490D02*
G75*
G03*
X249847227Y-159219715I10251360J-13358310D01*
G01*
D11*
%TO.C,RE2*%
X259758000Y-100895000D02*
X259758000Y-84895000D01*
X259758000Y-100895000D02*
X249758000Y-100895000D01*
X259758000Y-84895000D02*
X249758000Y-84895000D01*
X249758000Y-84895000D02*
X249758000Y-100895000D01*
D12*
%TO.C,L42*%
X352783000Y-99084000D02*
X352783000Y-102184000D01*
X352783000Y-102184000D02*
X356283000Y-102184000D01*
X356283000Y-99084000D02*
X352783000Y-99084000D01*
X356283000Y-102184000D02*
X356283000Y-99084000D01*
%TO.C,L31*%
X299133000Y-73609000D02*
X299133000Y-70509000D01*
X299133000Y-70509000D02*
X295633000Y-70509000D01*
X295633000Y-73609000D02*
X299133000Y-73609000D01*
X295633000Y-70509000D02*
X295633000Y-73609000D01*
%TO.C,L24*%
X233577903Y-122871805D02*
X234888020Y-125681359D01*
X234888020Y-125681359D02*
X238060097Y-124202195D01*
X236749980Y-121392641D02*
X233577903Y-122871805D01*
X238060097Y-124202195D02*
X236749980Y-121392641D01*
%TO.C,L44*%
X375333000Y-85515000D02*
X375333000Y-82415000D01*
X375333000Y-82415000D02*
X371833000Y-82415000D01*
X371833000Y-85515000D02*
X375333000Y-85515000D01*
X371833000Y-82415000D02*
X371833000Y-85515000D01*
%TO.C,L34*%
X295633000Y-130040000D02*
X295633000Y-133140000D01*
X295633000Y-133140000D02*
X299133000Y-133140000D01*
X299133000Y-130040000D02*
X295633000Y-130040000D01*
X299133000Y-133140000D02*
X299133000Y-130040000D01*
%TO.C,L43*%
X352783000Y-80034000D02*
X352783000Y-83134000D01*
X352783000Y-83134000D02*
X356283000Y-83134000D01*
X356283000Y-80034000D02*
X352783000Y-80034000D01*
X356283000Y-83134000D02*
X356283000Y-80034000D01*
%TO.C,L41*%
X352783000Y-118134000D02*
X352783000Y-121234000D01*
X352783000Y-121234000D02*
X356283000Y-121234000D01*
X356283000Y-118134000D02*
X352783000Y-118134000D01*
X356283000Y-121234000D02*
X356283000Y-118134000D01*
%TO.C,L26*%
X260727085Y-139076055D02*
X257917531Y-140386172D01*
X257917531Y-140386172D02*
X259396695Y-143558249D01*
X262206249Y-142248132D02*
X260727085Y-139076055D01*
X259396695Y-143558249D02*
X262206249Y-142248132D01*
%TO.C,L39*%
X337233000Y-92659000D02*
X337233000Y-89559000D01*
X337233000Y-89559000D02*
X333733000Y-89559000D01*
X333733000Y-92659000D02*
X337233000Y-92659000D01*
X333733000Y-89559000D02*
X333733000Y-92659000D01*
%TO.C,L33*%
X299133000Y-111709000D02*
X299133000Y-108609000D01*
X299133000Y-108609000D02*
X295633000Y-108609000D01*
X295633000Y-111709000D02*
X299133000Y-111709000D01*
X295633000Y-108609000D02*
X295633000Y-111709000D01*
%TO.C,L32*%
X299133000Y-92659000D02*
X299133000Y-89559000D01*
X299133000Y-89559000D02*
X295633000Y-89559000D01*
X295633000Y-92659000D02*
X299133000Y-92659000D01*
X295633000Y-89559000D02*
X295633000Y-92659000D01*
%TO.C,L30*%
X276583000Y-72890000D02*
X276583000Y-75990000D01*
X276583000Y-75990000D02*
X280083000Y-75990000D01*
X280083000Y-72890000D02*
X276583000Y-72890000D01*
X280083000Y-75990000D02*
X280083000Y-72890000D01*
%TO.C,L45*%
X375333000Y-104565000D02*
X375333000Y-101465000D01*
X375333000Y-101465000D02*
X371833000Y-101465000D01*
X371833000Y-104565000D02*
X375333000Y-104565000D01*
X371833000Y-101465000D02*
X371833000Y-104565000D01*
%TO.C,L27*%
X273386001Y-132859511D02*
X274056963Y-135886028D01*
X274056963Y-135886028D02*
X277473999Y-135128489D01*
X276803037Y-132101972D02*
X273386001Y-132859511D01*
X277473999Y-135128489D02*
X276803037Y-132101972D01*
%TO.C,L36*%
X314683000Y-87178000D02*
X314683000Y-90278000D01*
X314683000Y-90278000D02*
X318183000Y-90278000D01*
X318183000Y-87178000D02*
X314683000Y-87178000D01*
X318183000Y-90278000D02*
X318183000Y-87178000D01*
%TO.C,L46*%
X375333000Y-123615000D02*
X375333000Y-120515000D01*
X375333000Y-120515000D02*
X371833000Y-120515000D01*
X371833000Y-123615000D02*
X375333000Y-123615000D01*
X371833000Y-120515000D02*
X371833000Y-123615000D01*
%TO.C,L29*%
X276583000Y-91940000D02*
X276583000Y-95040000D01*
X276583000Y-95040000D02*
X280083000Y-95040000D01*
X280083000Y-91940000D02*
X276583000Y-91940000D01*
X280083000Y-95040000D02*
X280083000Y-91940000D01*
%TO.C,L35*%
X314683000Y-106228000D02*
X314683000Y-109328000D01*
X314683000Y-109328000D02*
X318183000Y-109328000D01*
X318183000Y-106228000D02*
X314683000Y-106228000D01*
X318183000Y-109328000D02*
X318183000Y-106228000D01*
%TO.C,L28*%
X276583000Y-110990000D02*
X276583000Y-114090000D01*
X276583000Y-114090000D02*
X280083000Y-114090000D01*
X280083000Y-110990000D02*
X276583000Y-110990000D01*
X280083000Y-114090000D02*
X280083000Y-110990000D01*
%TO.C,L40*%
X337233000Y-111709000D02*
X337233000Y-108609000D01*
X337233000Y-108609000D02*
X333733000Y-108609000D01*
X333733000Y-111709000D02*
X337233000Y-111709000D01*
X333733000Y-108609000D02*
X333733000Y-111709000D01*
%TO.C,L25*%
X250842903Y-114820805D02*
X252153020Y-117630359D01*
X252153020Y-117630359D02*
X255325097Y-116151195D01*
X254014980Y-113341641D02*
X250842903Y-114820805D01*
X255325097Y-116151195D02*
X254014980Y-113341641D01*
%TO.C,L38*%
X337233000Y-73609000D02*
X337233000Y-70509000D01*
X337233000Y-70509000D02*
X333733000Y-70509000D01*
X333733000Y-73609000D02*
X337233000Y-73609000D01*
X333733000Y-70509000D02*
X333733000Y-73609000D01*
%TO.C,L37*%
X314683000Y-68128000D02*
X314683000Y-71228000D01*
X314683000Y-71228000D02*
X318183000Y-71228000D01*
X318183000Y-68128000D02*
X314683000Y-68128000D01*
X318183000Y-71228000D02*
X318183000Y-68128000D01*
%TD*%
M02*
