%TF.GenerationSoftware,KiCad,Pcbnew,7.0.5*%
%TF.CreationDate,2024-03-19T12:28:54+08:00*%
%TF.ProjectId,Prime52right,5072696d-6535-4327-9269-6768742e6b69,rev?*%
%TF.SameCoordinates,Original*%
%TF.FileFunction,Paste,Bot*%
%TF.FilePolarity,Positive*%
%FSLAX46Y46*%
G04 Gerber Fmt 4.6, Leading zero omitted, Abs format (unit mm)*
G04 Created by KiCad (PCBNEW 7.0.5) date 2024-03-19 12:28:54*
%MOMM*%
%LPD*%
G01*
G04 APERTURE LIST*
G04 Aperture macros list*
%AMRoundRect*
0 Rectangle with rounded corners*
0 $1 Rounding radius*
0 $2 $3 $4 $5 $6 $7 $8 $9 X,Y pos of 4 corners*
0 Add a 4 corners polygon primitive as box body*
4,1,4,$2,$3,$4,$5,$6,$7,$8,$9,$2,$3,0*
0 Add four circle primitives for the rounded corners*
1,1,$1+$1,$2,$3*
1,1,$1+$1,$4,$5*
1,1,$1+$1,$6,$7*
1,1,$1+$1,$8,$9*
0 Add four rect primitives between the rounded corners*
20,1,$1+$1,$2,$3,$4,$5,0*
20,1,$1+$1,$4,$5,$6,$7,0*
20,1,$1+$1,$6,$7,$8,$9,0*
20,1,$1+$1,$8,$9,$2,$3,0*%
%AMRotRect*
0 Rectangle, with rotation*
0 The origin of the aperture is its center*
0 $1 length*
0 $2 width*
0 $3 Rotation angle, in degrees counterclockwise*
0 Add horizontal line*
21,1,$1,$2,0,0,$3*%
G04 Aperture macros list end*
%ADD10RoundRect,0.250000X1.000000X1.000000X-1.000000X1.000000X-1.000000X-1.000000X1.000000X-1.000000X0*%
%ADD11RoundRect,0.250000X0.483690X1.328926X-1.328926X0.483690X-0.483690X-1.328926X1.328926X-0.483690X0*%
%ADD12RoundRect,0.250000X0.759856X1.192736X-1.192736X0.759856X-0.759856X-1.192736X1.192736X-0.759856X0*%
%ADD13RoundRect,0.250000X1.328926X-0.483690X0.483690X1.328926X-1.328926X0.483690X-0.483690X-1.328926X0*%
%ADD14RoundRect,0.225000X-0.375000X0.225000X-0.375000X-0.225000X0.375000X-0.225000X0.375000X0.225000X0*%
%ADD15RoundRect,0.225000X-0.434955X0.045437X-0.244776X-0.362401X0.434955X-0.045437X0.244776X0.362401X0*%
%ADD16R,1.800000X0.820000*%
%ADD17RoundRect,0.225000X0.225000X0.375000X-0.225000X0.375000X-0.225000X-0.375000X0.225000X-0.375000X0*%
%ADD18RotRect,1.800000X0.820000X205.000000*%
%ADD19RotRect,1.800000X0.820000X115.000000*%
%ADD20RoundRect,0.225000X0.045437X0.434955X-0.362401X0.244776X-0.045437X-0.434955X0.362401X-0.244776X0*%
%ADD21RotRect,1.800000X0.820000X192.500000*%
%ADD22RoundRect,0.225000X-0.414810X0.138502X-0.317412X-0.300831X0.414810X-0.138502X0.317412X0.300831X0*%
G04 APERTURE END LIST*
D10*
%TO.C,K43*%
X338508000Y-102039000D03*
X327458000Y-99839000D03*
%TD*%
%TO.C,K47*%
X357558000Y-111564000D03*
X346508000Y-109364000D03*
%TD*%
%TO.C,K35*%
X300408000Y-82989000D03*
X289358000Y-80789000D03*
%TD*%
%TO.C,K46*%
X357558000Y-92514000D03*
X346508000Y-90314000D03*
%TD*%
%TO.C,K52*%
X376608000Y-132995000D03*
X365558000Y-130795000D03*
%TD*%
%TO.C,K33*%
X281358000Y-123470000D03*
X270308000Y-121270000D03*
%TD*%
D11*
%TO.C,K28*%
X260444984Y-124113026D03*
X249500522Y-126789081D03*
%TD*%
D10*
%TO.C,K42*%
X338508000Y-82989000D03*
X327458000Y-80789000D03*
%TD*%
D12*
%TO.C,K38*%
X280748933Y-144010046D03*
X269484695Y-144253853D03*
%TD*%
D10*
%TO.C,K44*%
X338508000Y-121089000D03*
X327458000Y-118889000D03*
%TD*%
D13*
%TO.C,K34*%
X251434519Y-148678867D03*
X248758464Y-137734405D03*
%TD*%
D10*
%TO.C,K31*%
X281358000Y-85370000D03*
X270308000Y-83170000D03*
%TD*%
%TO.C,K40*%
X319458000Y-99658000D03*
X308408000Y-97458000D03*
%TD*%
%TO.C,K36*%
X300408000Y-102039000D03*
X289358000Y-99839000D03*
%TD*%
%TO.C,K41*%
X319458000Y-118708000D03*
X308408000Y-116508000D03*
%TD*%
%TO.C,K48*%
X357558000Y-130614000D03*
X346508000Y-128414000D03*
%TD*%
D11*
%TO.C,K29*%
X243180236Y-132164026D03*
X232235774Y-134840081D03*
%TD*%
D10*
%TO.C,K37*%
X300408000Y-121089000D03*
X289358000Y-118889000D03*
%TD*%
%TO.C,K51*%
X376608000Y-113945000D03*
X365558000Y-111745000D03*
%TD*%
%TO.C,K45*%
X300408000Y-142520000D03*
X289358000Y-140320000D03*
%TD*%
%TO.C,K32*%
X281358000Y-104420000D03*
X270308000Y-102220000D03*
%TD*%
%TO.C,K50*%
X376608000Y-94895000D03*
X365558000Y-92695000D03*
%TD*%
%TO.C,K39*%
X319458000Y-80608000D03*
X308408000Y-78408000D03*
%TD*%
D14*
%TO.C,D46*%
X361133000Y-90264000D03*
X361133000Y-93564000D03*
%TD*%
D15*
%TO.C,D28*%
X262733680Y-120562592D03*
X264128320Y-123553408D03*
%TD*%
D16*
%TO.C,L42*%
X357183000Y-101384000D03*
X357183000Y-99884000D03*
X351883000Y-99884000D03*
X351883000Y-101384000D03*
%TD*%
D17*
%TO.C,D27*%
X266658000Y-84770000D03*
X263358000Y-84770000D03*
%TD*%
D16*
%TO.C,L31*%
X294733000Y-71309000D03*
X294733000Y-72809000D03*
X300033000Y-72809000D03*
X300033000Y-71309000D03*
%TD*%
D14*
%TO.C,D52*%
X380183000Y-130745000D03*
X380183000Y-134045000D03*
%TD*%
D18*
%TO.C,L24*%
X238537679Y-123096792D03*
X237903752Y-121737331D03*
X233100321Y-123977208D03*
X233734248Y-125336669D03*
%TD*%
D16*
%TO.C,L44*%
X370933000Y-83215000D03*
X370933000Y-84715000D03*
X376233000Y-84715000D03*
X376233000Y-83215000D03*
%TD*%
%TO.C,L34*%
X300033000Y-132340000D03*
X300033000Y-130840000D03*
X294733000Y-130840000D03*
X294733000Y-132340000D03*
%TD*%
D14*
%TO.C,D49*%
X332558000Y-140270000D03*
X332558000Y-143570000D03*
%TD*%
D16*
%TO.C,L43*%
X357183000Y-82334000D03*
X357183000Y-80834000D03*
X351883000Y-80834000D03*
X351883000Y-82334000D03*
%TD*%
%TO.C,L41*%
X357183000Y-120434000D03*
X357183000Y-118934000D03*
X351883000Y-118934000D03*
X351883000Y-120434000D03*
%TD*%
D19*
%TO.C,L26*%
X260502098Y-144035831D03*
X261861559Y-143401904D03*
X259621682Y-138598473D03*
X258262221Y-139232400D03*
%TD*%
D16*
%TO.C,L39*%
X332833000Y-90359000D03*
X332833000Y-91859000D03*
X338133000Y-91859000D03*
X338133000Y-90359000D03*
%TD*%
D14*
%TO.C,D40*%
X323033000Y-97408000D03*
X323033000Y-100708000D03*
%TD*%
D15*
%TO.C,D29*%
X245469680Y-128613592D03*
X246864320Y-131604408D03*
%TD*%
D14*
%TO.C,D45*%
X303983000Y-140270000D03*
X303983000Y-143570000D03*
%TD*%
%TO.C,D44*%
X342083000Y-118839000D03*
X342083000Y-122139000D03*
%TD*%
D20*
%TO.C,D30*%
X259194408Y-134440680D03*
X256203592Y-135835320D03*
%TD*%
D14*
%TO.C,D39*%
X323033000Y-78358000D03*
X323033000Y-81658000D03*
%TD*%
%TO.C,D42*%
X342083000Y-80739000D03*
X342083000Y-84039000D03*
%TD*%
%TO.C,D33*%
X284933000Y-121220000D03*
X284933000Y-124520000D03*
%TD*%
D16*
%TO.C,L33*%
X294733000Y-109409000D03*
X294733000Y-110909000D03*
X300033000Y-110909000D03*
X300033000Y-109409000D03*
%TD*%
%TO.C,L32*%
X294733000Y-90359000D03*
X294733000Y-91859000D03*
X300033000Y-91859000D03*
X300033000Y-90359000D03*
%TD*%
D14*
%TO.C,D41*%
X323033000Y-116458000D03*
X323033000Y-119758000D03*
%TD*%
D16*
%TO.C,L30*%
X280983000Y-75190000D03*
X280983000Y-73690000D03*
X275683000Y-73690000D03*
X275683000Y-75190000D03*
%TD*%
D14*
%TO.C,D36*%
X303983000Y-99789000D03*
X303983000Y-103089000D03*
%TD*%
%TO.C,D43*%
X342083000Y-99789000D03*
X342083000Y-103089000D03*
%TD*%
D16*
%TO.C,L45*%
X370933000Y-102265000D03*
X370933000Y-103765000D03*
X376233000Y-103765000D03*
X376233000Y-102265000D03*
%TD*%
D21*
%TO.C,L27*%
X278179514Y-134152657D03*
X277854855Y-132688213D03*
X272680486Y-133835343D03*
X273005145Y-135299787D03*
%TD*%
D16*
%TO.C,L36*%
X319083000Y-89478000D03*
X319083000Y-87978000D03*
X313783000Y-87978000D03*
X313783000Y-89478000D03*
%TD*%
%TO.C,L46*%
X370933000Y-121315000D03*
X370933000Y-122815000D03*
X376233000Y-122815000D03*
X376233000Y-121315000D03*
%TD*%
D14*
%TO.C,D31*%
X284933000Y-83120000D03*
X284933000Y-86420000D03*
%TD*%
%TO.C,D37*%
X303983000Y-118839000D03*
X303983000Y-122139000D03*
%TD*%
%TO.C,D51*%
X380183000Y-111695000D03*
X380183000Y-114995000D03*
%TD*%
D16*
%TO.C,L29*%
X280983000Y-94240000D03*
X280983000Y-92740000D03*
X275683000Y-92740000D03*
X275683000Y-94240000D03*
%TD*%
%TO.C,L35*%
X319083000Y-108528000D03*
X319083000Y-107028000D03*
X313783000Y-107028000D03*
X313783000Y-108528000D03*
%TD*%
D14*
%TO.C,D35*%
X303983000Y-80739000D03*
X303983000Y-84039000D03*
%TD*%
D20*
%TO.C,D34*%
X254984816Y-150968360D03*
X251994000Y-152363000D03*
%TD*%
D16*
%TO.C,L28*%
X280983000Y-113290000D03*
X280983000Y-111790000D03*
X275683000Y-111790000D03*
X275683000Y-113290000D03*
%TD*%
%TO.C,L40*%
X332833000Y-109409000D03*
X332833000Y-110909000D03*
X338133000Y-110909000D03*
X338133000Y-109409000D03*
%TD*%
D18*
%TO.C,L25*%
X255802679Y-115045792D03*
X255168752Y-113686331D03*
X250365321Y-115926208D03*
X250999248Y-117285669D03*
%TD*%
D14*
%TO.C,D47*%
X361133000Y-109314000D03*
X361133000Y-112614000D03*
%TD*%
D16*
%TO.C,L38*%
X332833000Y-71309000D03*
X332833000Y-72809000D03*
X338133000Y-72809000D03*
X338133000Y-71309000D03*
%TD*%
%TO.C,L37*%
X319083000Y-70428000D03*
X319083000Y-68928000D03*
X313783000Y-68928000D03*
X313783000Y-70428000D03*
%TD*%
D14*
%TO.C,D32*%
X284933000Y-102170000D03*
X284933000Y-105470000D03*
%TD*%
%TO.C,D50*%
X380183000Y-92645000D03*
X380183000Y-95945000D03*
%TD*%
%TO.C,D48*%
X361133000Y-128364000D03*
X361133000Y-131664000D03*
%TD*%
D22*
%TO.C,D38*%
X283751875Y-141039112D03*
X284466125Y-144260888D03*
%TD*%
M02*
