%TF.GenerationSoftware,KiCad,Pcbnew,7.0.5*%
%TF.CreationDate,2024-03-19T14:27:57+08:00*%
%TF.ProjectId,J-50x,4a2d3530-782e-46b6-9963-61645f706362,rev?*%
%TF.SameCoordinates,Original*%
%TF.FileFunction,Copper,L1,Top*%
%TF.FilePolarity,Positive*%
%FSLAX46Y46*%
G04 Gerber Fmt 4.6, Leading zero omitted, Abs format (unit mm)*
G04 Created by KiCad (PCBNEW 7.0.5) date 2024-03-19 14:27:57*
%MOMM*%
%LPD*%
G01*
G04 APERTURE LIST*
%TA.AperFunction,ComponentPad*%
%ADD10C,3.800000*%
%TD*%
G04 APERTURE END LIST*
D10*
%TO.P,H15,1*%
%TO.N,N/C*%
X129770000Y-107945000D03*
%TD*%
%TO.P,H14,1*%
%TO.N,N/C*%
X129770000Y-88895000D03*
%TD*%
%TO.P,H13,1*%
%TO.N,N/C*%
X167066000Y-132611000D03*
%TD*%
%TO.P,H10,1*%
%TO.N,N/C*%
X53570000Y-117470000D03*
%TD*%
%TO.P,H9,1*%
%TO.N,N/C*%
X53570000Y-98420000D03*
%TD*%
%TO.P,H7,1*%
%TO.N,N/C*%
X108339000Y-136520000D03*
%TD*%
%TA.AperFunction,NonConductor*%
G36*
X110662539Y-65102185D02*
G01*
X110708294Y-65154989D01*
X110719500Y-65206500D01*
X110719500Y-67439467D01*
X110719416Y-67439889D01*
X110719459Y-67464001D01*
X110719544Y-67464206D01*
X110719616Y-67464382D01*
X110719618Y-67464384D01*
X110719808Y-67464462D01*
X110720000Y-67464541D01*
X110720002Y-67464539D01*
X110744616Y-67464524D01*
X110744616Y-67464528D01*
X110744760Y-67464500D01*
X129645500Y-67464500D01*
X129712539Y-67484185D01*
X129758294Y-67536989D01*
X129769500Y-67588500D01*
X129769500Y-69820467D01*
X129769416Y-69820889D01*
X129769459Y-69845001D01*
X129769544Y-69845206D01*
X129769616Y-69845382D01*
X129769618Y-69845384D01*
X129769808Y-69845462D01*
X129770000Y-69845541D01*
X129770002Y-69845539D01*
X129794616Y-69845524D01*
X129794616Y-69845528D01*
X129794760Y-69845500D01*
X148695500Y-69845500D01*
X148762539Y-69865185D01*
X148808294Y-69917989D01*
X148819500Y-69969500D01*
X148819500Y-103078568D01*
X148819464Y-103080113D01*
X148819531Y-103080298D01*
X148819673Y-103080439D01*
X148821112Y-103081069D01*
X164955764Y-110606440D01*
X192268279Y-123345282D01*
X192320715Y-123391459D01*
X192339861Y-123458654D01*
X192328241Y-123510079D01*
X184362998Y-140585971D01*
X184316819Y-140638404D01*
X184252089Y-140657543D01*
X183936205Y-140661281D01*
X183936169Y-140661282D01*
X183484396Y-140687821D01*
X183483014Y-140687887D01*
X183418802Y-140690222D01*
X183412240Y-140692060D01*
X183149078Y-140707520D01*
X182657415Y-140759570D01*
X182656160Y-140759690D01*
X182613956Y-140763292D01*
X182610058Y-140764584D01*
X182365031Y-140790524D01*
X182365023Y-140790525D01*
X182365014Y-140790526D01*
X182365002Y-140790527D01*
X182364978Y-140790531D01*
X181828880Y-140872799D01*
X181813519Y-140874869D01*
X181812278Y-140875347D01*
X181585679Y-140910120D01*
X180812823Y-141066034D01*
X180812788Y-141066042D01*
X180048083Y-141257936D01*
X180048060Y-141257942D01*
X179293125Y-141485412D01*
X178549684Y-141747938D01*
X177819324Y-142044961D01*
X177819305Y-142044969D01*
X177103641Y-142375831D01*
X177103600Y-142375851D01*
X176404240Y-142739807D01*
X175722632Y-143136102D01*
X175722614Y-143136113D01*
X175060281Y-143563866D01*
X175060274Y-143563871D01*
X174418681Y-144022136D01*
X173799232Y-144509909D01*
X173203264Y-145026139D01*
X173203222Y-145026178D01*
X172632103Y-145569675D01*
X172632102Y-145569676D01*
X172087003Y-146139327D01*
X171569114Y-146733892D01*
X171079661Y-147351965D01*
X171079614Y-147352027D01*
X170619632Y-147992289D01*
X170619597Y-147992339D01*
X170494710Y-148184550D01*
X170493936Y-148185213D01*
X170485593Y-148198584D01*
X170190036Y-148653469D01*
X170065590Y-148866159D01*
X170063278Y-148868337D01*
X170042150Y-148906194D01*
X170041524Y-148907289D01*
X169791861Y-149333986D01*
X169669527Y-149567483D01*
X169665851Y-149571287D01*
X169636562Y-149630370D01*
X169635932Y-149631606D01*
X169425962Y-150032374D01*
X169425942Y-150032414D01*
X169259573Y-150389730D01*
X169259574Y-150389731D01*
X169259547Y-150389789D01*
X169259351Y-150390211D01*
X169259307Y-150390305D01*
X165686192Y-158104990D01*
X165640155Y-158157549D01*
X165573011Y-158176875D01*
X165521261Y-158165255D01*
X165392047Y-158104990D01*
X161449478Y-156266186D01*
X148379941Y-150170588D01*
X148378052Y-150169501D01*
X148370193Y-150166032D01*
X148370009Y-150165989D01*
X148362664Y-150164164D01*
X148360179Y-150163823D01*
X137119756Y-147672751D01*
X129770814Y-146044098D01*
X129770812Y-146044098D01*
X129764113Y-146043947D01*
X129757752Y-146044500D01*
X108339878Y-146044500D01*
X108336133Y-146044387D01*
X108239002Y-146038511D01*
X108118394Y-146030606D01*
X108046582Y-146025899D01*
X108039456Y-146025015D01*
X107908607Y-146001036D01*
X107752034Y-145969892D01*
X107745679Y-145968275D01*
X107612940Y-145926911D01*
X107611456Y-145926428D01*
X107466894Y-145877356D01*
X107461375Y-145875183D01*
X107332199Y-145817046D01*
X107330222Y-145816114D01*
X107195625Y-145749738D01*
X107190970Y-145747190D01*
X107068665Y-145673253D01*
X107066294Y-145671746D01*
X106942531Y-145589049D01*
X106938738Y-145586303D01*
X106825745Y-145497779D01*
X106823102Y-145495587D01*
X106711573Y-145397779D01*
X106708612Y-145395005D01*
X106606993Y-145293386D01*
X106604219Y-145290425D01*
X106506411Y-145178896D01*
X106504219Y-145176253D01*
X106415695Y-145063260D01*
X106412949Y-145059467D01*
X106375361Y-145003213D01*
X106330238Y-144935682D01*
X106328745Y-144933333D01*
X106307562Y-144898292D01*
X106254801Y-144811015D01*
X106252260Y-144806373D01*
X106185884Y-144671776D01*
X106184952Y-144669799D01*
X106126815Y-144540623D01*
X106124647Y-144535118D01*
X106075553Y-144390492D01*
X106075087Y-144389058D01*
X106033717Y-144256298D01*
X106032111Y-144249984D01*
X106015036Y-144164146D01*
X132721829Y-144164146D01*
X132721900Y-144164551D01*
X132721901Y-144164553D01*
X132722241Y-144164790D01*
X132722242Y-144164789D01*
X132731769Y-144166861D01*
X139526668Y-145673253D01*
X146463811Y-147211180D01*
X146464316Y-147211403D01*
X146485787Y-147216100D01*
X146487775Y-147216630D01*
X146487971Y-147216595D01*
X146488014Y-147216587D01*
X146488015Y-147216588D01*
X146488119Y-147216569D01*
X146488120Y-147216570D01*
X146488423Y-147216517D01*
X146488660Y-147216177D01*
X146488659Y-147216175D01*
X146491306Y-147204050D01*
X146577013Y-146817453D01*
X146578111Y-146812501D01*
X152663961Y-146812501D01*
X152663962Y-146812503D01*
X152664242Y-146812808D01*
X152664243Y-146812808D01*
X152674267Y-146817436D01*
X159855467Y-150166086D01*
X165420999Y-152761337D01*
X165421667Y-152761825D01*
X165423200Y-152762530D01*
X165424528Y-152763454D01*
X165440956Y-152770702D01*
X165443180Y-152771725D01*
X165443181Y-152771725D01*
X165443182Y-152771726D01*
X165443231Y-152771727D01*
X165443288Y-152771730D01*
X165443289Y-152771731D01*
X165443596Y-152771745D01*
X165443822Y-152771537D01*
X165443822Y-152771536D01*
X165443901Y-152771464D01*
X165443901Y-152771462D01*
X165453527Y-152750721D01*
X171396812Y-140005309D01*
X171402816Y-139992526D01*
X171402819Y-139992524D01*
X171402838Y-139992111D01*
X171402630Y-139991885D01*
X171402629Y-139991884D01*
X171402557Y-139991806D01*
X171402556Y-139991805D01*
X171380442Y-139981501D01*
X171380273Y-139981459D01*
X158645859Y-134043303D01*
X158645713Y-134043196D01*
X158623616Y-134032887D01*
X158623453Y-134032879D01*
X158623205Y-134032868D01*
X158623203Y-134032869D01*
X158622898Y-134033149D01*
X158612617Y-134055147D01*
X158612541Y-134055458D01*
X152674196Y-146790276D01*
X152673817Y-146790798D01*
X152663980Y-146812088D01*
X152663962Y-146812488D01*
X152663961Y-146812501D01*
X146578111Y-146812501D01*
X149538325Y-133459834D01*
X149540456Y-133450405D01*
X149540458Y-133450403D01*
X149540387Y-133449995D01*
X149540386Y-133449994D01*
X149540386Y-133449993D01*
X149540383Y-133449989D01*
X149540048Y-133449758D01*
X149516335Y-133444531D01*
X149516339Y-133444510D01*
X149516161Y-133444503D01*
X145756471Y-132611000D01*
X164760564Y-132611000D01*
X164780287Y-132911918D01*
X164780288Y-132911930D01*
X164839118Y-133207683D01*
X164839122Y-133207698D01*
X164936053Y-133493247D01*
X164936062Y-133493268D01*
X165069431Y-133763713D01*
X165069435Y-133763720D01*
X165236973Y-134014459D01*
X165435810Y-134241189D01*
X165662540Y-134440026D01*
X165913279Y-134607564D01*
X165913286Y-134607568D01*
X166183731Y-134740937D01*
X166183736Y-134740939D01*
X166183748Y-134740945D01*
X166469309Y-134837880D01*
X166669251Y-134877651D01*
X166765069Y-134896711D01*
X166765070Y-134896711D01*
X166765080Y-134896713D01*
X167066000Y-134916436D01*
X167366920Y-134896713D01*
X167662691Y-134837880D01*
X167948252Y-134740945D01*
X168218718Y-134607566D01*
X168469461Y-134440025D01*
X168696189Y-134241189D01*
X168895025Y-134014461D01*
X169062566Y-133763718D01*
X169195945Y-133493252D01*
X169292880Y-133207691D01*
X169351713Y-132911920D01*
X169371436Y-132611000D01*
X169351713Y-132310080D01*
X169292880Y-132014309D01*
X169195945Y-131728748D01*
X169164275Y-131664528D01*
X169062568Y-131458286D01*
X169062564Y-131458279D01*
X169033508Y-131414794D01*
X170353868Y-131414794D01*
X170353869Y-131414796D01*
X170354149Y-131415101D01*
X170354150Y-131415101D01*
X170364174Y-131419729D01*
X177694422Y-134837881D01*
X183110906Y-137363630D01*
X183111574Y-137364118D01*
X183113107Y-137364823D01*
X183114435Y-137365747D01*
X183130863Y-137372995D01*
X183133087Y-137374018D01*
X183133088Y-137374018D01*
X183133089Y-137374019D01*
X183133138Y-137374020D01*
X183133195Y-137374023D01*
X183133196Y-137374024D01*
X183133503Y-137374038D01*
X183133729Y-137373830D01*
X183133729Y-137373829D01*
X183133808Y-137373757D01*
X183133808Y-137373755D01*
X183143434Y-137353014D01*
X189086719Y-124607602D01*
X189092723Y-124594819D01*
X189092726Y-124594817D01*
X189092745Y-124594404D01*
X189092537Y-124594178D01*
X189092536Y-124594177D01*
X189092464Y-124594099D01*
X189092463Y-124594098D01*
X189070349Y-124583794D01*
X189070180Y-124583752D01*
X176335766Y-118645596D01*
X176335620Y-118645489D01*
X176313523Y-118635180D01*
X176313360Y-118635172D01*
X176313112Y-118635161D01*
X176313110Y-118635162D01*
X176312805Y-118635442D01*
X176302524Y-118657440D01*
X176302448Y-118657751D01*
X170364103Y-131392569D01*
X170363724Y-131393091D01*
X170353887Y-131414381D01*
X170353869Y-131414781D01*
X170353868Y-131414794D01*
X169033508Y-131414794D01*
X168895026Y-131207540D01*
X168696189Y-130980810D01*
X168469459Y-130781973D01*
X168218720Y-130614435D01*
X168218713Y-130614431D01*
X167948268Y-130481062D01*
X167948247Y-130481053D01*
X167662698Y-130384122D01*
X167662692Y-130384120D01*
X167662691Y-130384120D01*
X167662689Y-130384119D01*
X167662683Y-130384118D01*
X167366930Y-130325288D01*
X167366921Y-130325287D01*
X167366920Y-130325287D01*
X167066000Y-130305564D01*
X166765080Y-130325287D01*
X166765079Y-130325287D01*
X166765069Y-130325288D01*
X166469316Y-130384118D01*
X166469301Y-130384122D01*
X166183752Y-130481053D01*
X166183731Y-130481062D01*
X165913286Y-130614431D01*
X165913279Y-130614435D01*
X165662540Y-130781973D01*
X165435810Y-130980810D01*
X165236973Y-131207540D01*
X165069435Y-131458279D01*
X165069431Y-131458286D01*
X164936062Y-131728731D01*
X164936053Y-131728752D01*
X164839122Y-132014301D01*
X164839118Y-132014316D01*
X164780288Y-132310069D01*
X164780287Y-132310081D01*
X164760564Y-132611000D01*
X145756471Y-132611000D01*
X135798332Y-130403334D01*
X135798149Y-130403261D01*
X135798143Y-130403290D01*
X135774272Y-130397959D01*
X135774232Y-130397966D01*
X135773866Y-130398030D01*
X135773864Y-130398031D01*
X135773627Y-130398372D01*
X135768357Y-130422085D01*
X135768351Y-130422356D01*
X132727129Y-144140425D01*
X132726947Y-144140842D01*
X132721829Y-144164146D01*
X106015036Y-144164146D01*
X106000968Y-144093424D01*
X105976981Y-143962533D01*
X105976102Y-143955441D01*
X105963493Y-143763081D01*
X105957611Y-143665835D01*
X105957499Y-143662156D01*
X105957498Y-143545889D01*
X113194416Y-143545889D01*
X113194459Y-143570001D01*
X113194544Y-143570206D01*
X113194616Y-143570382D01*
X113194618Y-143570384D01*
X113194808Y-143570462D01*
X113195000Y-143570541D01*
X113195002Y-143570539D01*
X113219616Y-143570524D01*
X113219616Y-143570528D01*
X113219760Y-143570500D01*
X127270240Y-143570500D01*
X127270383Y-143570528D01*
X127270384Y-143570524D01*
X127294997Y-143570539D01*
X127295000Y-143570541D01*
X127295383Y-143570383D01*
X127295500Y-143570099D01*
X127295541Y-143570000D01*
X127295540Y-143569997D01*
X127295583Y-143545889D01*
X127295500Y-143545467D01*
X127295500Y-129494759D01*
X127295528Y-129494616D01*
X127295524Y-129494616D01*
X127295539Y-129470002D01*
X127295541Y-129470000D01*
X127295462Y-129469808D01*
X127295384Y-129469618D01*
X127295383Y-129469617D01*
X127295381Y-129469616D01*
X127295090Y-129469496D01*
X127295001Y-129469459D01*
X127270446Y-129469459D01*
X127270240Y-129469500D01*
X113219760Y-129469500D01*
X113219554Y-129469459D01*
X113194998Y-129469459D01*
X113194909Y-129469496D01*
X113194619Y-129469615D01*
X113194615Y-129469618D01*
X113194459Y-129469999D01*
X113194476Y-129494616D01*
X113194471Y-129494616D01*
X113194500Y-129494759D01*
X113194500Y-143545467D01*
X113194416Y-143545889D01*
X105957498Y-143545889D01*
X105957458Y-137412126D01*
X105977142Y-137345089D01*
X106029946Y-137299334D01*
X106099104Y-137289390D01*
X106162660Y-137318415D01*
X106198876Y-137372267D01*
X106209055Y-137402252D01*
X106209058Y-137402259D01*
X106209062Y-137402268D01*
X106342431Y-137672713D01*
X106342435Y-137672720D01*
X106509973Y-137923459D01*
X106708810Y-138150189D01*
X106935540Y-138349026D01*
X107186279Y-138516564D01*
X107186286Y-138516568D01*
X107456731Y-138649937D01*
X107456736Y-138649939D01*
X107456748Y-138649945D01*
X107742309Y-138746880D01*
X107942251Y-138786651D01*
X108038069Y-138805711D01*
X108038070Y-138805711D01*
X108038080Y-138805713D01*
X108339000Y-138825436D01*
X108639920Y-138805713D01*
X108935691Y-138746880D01*
X109221252Y-138649945D01*
X109491718Y-138516566D01*
X109742461Y-138349025D01*
X109969189Y-138150189D01*
X110168025Y-137923461D01*
X110335566Y-137672718D01*
X110468945Y-137402252D01*
X110565880Y-137116691D01*
X110624713Y-136820920D01*
X110644436Y-136520000D01*
X110624713Y-136219080D01*
X110565880Y-135923309D01*
X110468945Y-135637748D01*
X110464091Y-135627906D01*
X110335568Y-135367286D01*
X110335564Y-135367279D01*
X110168026Y-135116540D01*
X109969189Y-134889810D01*
X109742459Y-134690973D01*
X109491720Y-134523435D01*
X109491713Y-134523431D01*
X109221268Y-134390062D01*
X109221247Y-134390053D01*
X108935698Y-134293122D01*
X108935692Y-134293120D01*
X108935691Y-134293120D01*
X108935689Y-134293119D01*
X108935683Y-134293118D01*
X108639930Y-134234288D01*
X108639921Y-134234287D01*
X108639920Y-134234287D01*
X108339000Y-134214564D01*
X108338999Y-134214564D01*
X108188540Y-134224425D01*
X108038080Y-134234287D01*
X108038079Y-134234287D01*
X108038069Y-134234288D01*
X107742316Y-134293118D01*
X107742301Y-134293122D01*
X107456752Y-134390053D01*
X107456731Y-134390062D01*
X107186286Y-134523431D01*
X107186279Y-134523435D01*
X106935540Y-134690973D01*
X106708810Y-134889810D01*
X106509973Y-135116540D01*
X106342435Y-135367279D01*
X106342431Y-135367286D01*
X106209062Y-135637731D01*
X106209055Y-135637748D01*
X106203574Y-135653896D01*
X106198866Y-135667765D01*
X106158676Y-135724919D01*
X106093967Y-135751271D01*
X106025282Y-135738456D01*
X105974430Y-135690542D01*
X105957447Y-135627906D01*
X105957447Y-135610401D01*
X105957406Y-129428054D01*
X105957437Y-129427947D01*
X105957437Y-129397874D01*
X105958138Y-129395485D01*
X105957570Y-129386804D01*
X105957437Y-129382753D01*
X105957435Y-129232614D01*
X105957435Y-129232610D01*
X105957435Y-129232608D01*
X105936035Y-129056392D01*
X105935718Y-129052989D01*
X105930751Y-128977101D01*
X105924093Y-128958049D01*
X105922703Y-128946600D01*
X105871891Y-128740460D01*
X105871286Y-128737739D01*
X105859285Y-128677409D01*
X105855711Y-128670186D01*
X105854868Y-128670449D01*
X105853753Y-128666874D01*
X105853752Y-128666871D01*
X105853750Y-128666863D01*
X105761591Y-128423868D01*
X105760855Y-128421819D01*
X105753560Y-128400330D01*
X105751956Y-128398190D01*
X105751582Y-128397477D01*
X105617689Y-128142370D01*
X105617685Y-128142365D01*
X105617684Y-128142362D01*
X105615752Y-128139165D01*
X105615835Y-128139114D01*
X105613555Y-128135233D01*
X105610758Y-128132329D01*
X105483466Y-127947919D01*
X105483414Y-127947761D01*
X105482924Y-127947132D01*
X105454028Y-127905271D01*
X105454022Y-127905262D01*
X105441403Y-127891018D01*
X105438693Y-127887505D01*
X105437266Y-127886349D01*
X105288480Y-127718407D01*
X105288183Y-127717775D01*
X105285966Y-127715568D01*
X105262968Y-127689610D01*
X105237014Y-127666617D01*
X105235059Y-127664652D01*
X105234170Y-127664098D01*
X105155986Y-127594833D01*
X105066232Y-127515318D01*
X105065582Y-127514282D01*
X105061559Y-127511179D01*
X105047314Y-127498559D01*
X105005446Y-127469660D01*
X105004873Y-127469213D01*
X105004648Y-127469109D01*
X104820276Y-127341848D01*
X104820237Y-127341821D01*
X104818551Y-127339741D01*
X104813456Y-127336748D01*
X104813407Y-127336831D01*
X104810210Y-127334898D01*
X104750154Y-127303379D01*
X104750143Y-127303372D01*
X104586452Y-127217462D01*
X104555095Y-127201005D01*
X104555093Y-127201004D01*
X104554380Y-127200630D01*
X104552983Y-127199278D01*
X104530757Y-127191734D01*
X104528713Y-127190999D01*
X104422868Y-127150858D01*
X104285712Y-127098841D01*
X104282134Y-127097727D01*
X104282499Y-127096554D01*
X104277831Y-127093836D01*
X104214820Y-127081302D01*
X104212079Y-127080692D01*
X104095317Y-127051913D01*
X104005970Y-127029891D01*
X103994501Y-127028498D01*
X103979705Y-127022129D01*
X103899600Y-127016879D01*
X103896182Y-127016560D01*
X103719964Y-126995163D01*
X103719961Y-126995163D01*
X103576005Y-126995163D01*
X103570319Y-126995163D01*
X103566263Y-126995030D01*
X103561326Y-126994706D01*
X103558851Y-126995163D01*
X77488156Y-126995163D01*
X77487326Y-126994919D01*
X77485642Y-126995030D01*
X77481579Y-126995163D01*
X77463962Y-126995163D01*
X77463584Y-126995200D01*
X77331943Y-126995200D01*
X77155716Y-127016597D01*
X77152305Y-127016916D01*
X77076393Y-127021900D01*
X77057417Y-127028533D01*
X77045942Y-127029926D01*
X77045937Y-127029927D01*
X76839851Y-127080722D01*
X76837110Y-127081332D01*
X76776806Y-127093327D01*
X76769523Y-127096934D01*
X76769781Y-127097761D01*
X76766196Y-127098877D01*
X76523226Y-127191022D01*
X76521172Y-127191761D01*
X76499677Y-127199057D01*
X76497540Y-127200660D01*
X76301763Y-127303410D01*
X76301754Y-127303416D01*
X76241711Y-127334928D01*
X76238515Y-127336861D01*
X76238464Y-127336777D01*
X76234583Y-127339057D01*
X76231687Y-127341848D01*
X76047267Y-127469142D01*
X76047112Y-127469193D01*
X76046468Y-127469695D01*
X76004608Y-127498588D01*
X75990377Y-127511195D01*
X75986856Y-127513910D01*
X75985699Y-127515340D01*
X75817755Y-127664124D01*
X75817120Y-127664422D01*
X75814904Y-127666650D01*
X75788958Y-127689635D01*
X75765978Y-127715574D01*
X75764008Y-127717534D01*
X75763452Y-127718425D01*
X75692867Y-127798099D01*
X75614671Y-127886363D01*
X75613628Y-127887017D01*
X75610513Y-127891055D01*
X75597909Y-127905282D01*
X75597899Y-127905295D01*
X75569008Y-127947152D01*
X75568562Y-127947723D01*
X75568459Y-127947947D01*
X75441172Y-128132348D01*
X75439092Y-128134032D01*
X75436102Y-128139123D01*
X75436186Y-128139174D01*
X75434245Y-128142385D01*
X75402736Y-128202418D01*
X75402729Y-128202428D01*
X75299977Y-128398204D01*
X75298624Y-128399602D01*
X75291070Y-128421853D01*
X75290332Y-128423909D01*
X75198181Y-128666883D01*
X75197067Y-128670459D01*
X75195898Y-128670094D01*
X75193179Y-128674762D01*
X75180650Y-128737741D01*
X75180040Y-128740482D01*
X75129231Y-128946613D01*
X75127839Y-128958079D01*
X75121470Y-128972874D01*
X75116218Y-129052990D01*
X75115899Y-129056408D01*
X75094501Y-129232615D01*
X75094500Y-129376564D01*
X75094500Y-129382236D01*
X75094367Y-129386293D01*
X75094043Y-129391232D01*
X75094500Y-129393701D01*
X75094500Y-134137121D01*
X75094387Y-134140866D01*
X75088509Y-134238021D01*
X75084898Y-134293122D01*
X75075899Y-134430416D01*
X75075015Y-134437542D01*
X75051036Y-134568391D01*
X75019892Y-134724964D01*
X75018275Y-134731319D01*
X74976911Y-134864058D01*
X74976428Y-134865542D01*
X74927356Y-135010104D01*
X74925183Y-135015623D01*
X74867046Y-135144799D01*
X74866114Y-135146776D01*
X74799738Y-135281373D01*
X74797190Y-135286028D01*
X74723253Y-135408333D01*
X74721746Y-135410704D01*
X74639049Y-135534467D01*
X74636303Y-135538260D01*
X74547779Y-135651253D01*
X74545587Y-135653896D01*
X74447779Y-135765425D01*
X74445005Y-135768386D01*
X74343386Y-135870005D01*
X74340425Y-135872779D01*
X74228896Y-135970587D01*
X74226253Y-135972779D01*
X74113260Y-136061303D01*
X74109467Y-136064049D01*
X73985704Y-136146746D01*
X73983333Y-136148253D01*
X73861028Y-136222190D01*
X73856373Y-136224738D01*
X73721776Y-136291114D01*
X73719799Y-136292046D01*
X73590623Y-136350183D01*
X73585104Y-136352356D01*
X73440542Y-136401428D01*
X73439058Y-136401911D01*
X73306319Y-136443275D01*
X73299964Y-136444892D01*
X73143391Y-136476036D01*
X73012542Y-136500015D01*
X73005416Y-136500899D01*
X72897671Y-136507961D01*
X72813021Y-136513509D01*
X72715867Y-136519387D01*
X72712122Y-136519500D01*
X34644500Y-136519500D01*
X34577461Y-136499815D01*
X34531706Y-136447011D01*
X34520500Y-136395500D01*
X34520500Y-134020889D01*
X36994416Y-134020889D01*
X36994459Y-134045001D01*
X36994544Y-134045206D01*
X36994616Y-134045382D01*
X36994618Y-134045384D01*
X36994808Y-134045462D01*
X36995000Y-134045541D01*
X36995002Y-134045539D01*
X37019616Y-134045524D01*
X37019616Y-134045528D01*
X37019760Y-134045500D01*
X51070240Y-134045500D01*
X51070383Y-134045528D01*
X51070384Y-134045524D01*
X51094997Y-134045539D01*
X51095000Y-134045541D01*
X51095383Y-134045383D01*
X51095500Y-134045099D01*
X51095541Y-134045000D01*
X51095540Y-134044997D01*
X51095583Y-134020889D01*
X51095500Y-134020467D01*
X51095500Y-119969759D01*
X51095528Y-119969616D01*
X51095524Y-119969616D01*
X51095539Y-119945002D01*
X51095541Y-119945000D01*
X51095462Y-119944808D01*
X51095384Y-119944618D01*
X51095383Y-119944617D01*
X51095381Y-119944616D01*
X51095090Y-119944496D01*
X51095001Y-119944459D01*
X51070446Y-119944459D01*
X51070240Y-119944500D01*
X37019760Y-119944500D01*
X37019554Y-119944459D01*
X36994998Y-119944459D01*
X36994909Y-119944496D01*
X36994619Y-119944615D01*
X36994615Y-119944618D01*
X36994459Y-119944999D01*
X36994476Y-119969616D01*
X36994471Y-119969616D01*
X36994500Y-119969759D01*
X36994500Y-134020467D01*
X36994416Y-134020889D01*
X34520500Y-134020889D01*
X34520500Y-117470000D01*
X51264564Y-117470000D01*
X51271158Y-117570614D01*
X51284287Y-117770918D01*
X51284288Y-117770930D01*
X51343118Y-118066683D01*
X51343122Y-118066698D01*
X51440053Y-118352247D01*
X51440062Y-118352268D01*
X51573431Y-118622713D01*
X51573435Y-118622720D01*
X51740973Y-118873459D01*
X51939810Y-119100189D01*
X52166540Y-119299026D01*
X52417279Y-119466564D01*
X52417286Y-119466568D01*
X52687731Y-119599937D01*
X52687736Y-119599939D01*
X52687748Y-119599945D01*
X52973309Y-119696880D01*
X53154337Y-119732889D01*
X53269069Y-119755711D01*
X53269070Y-119755711D01*
X53269080Y-119755713D01*
X53570000Y-119775436D01*
X53870920Y-119755713D01*
X54166691Y-119696880D01*
X54452252Y-119599945D01*
X54722718Y-119466566D01*
X54973461Y-119299025D01*
X55200189Y-119100189D01*
X55399025Y-118873461D01*
X55566566Y-118622718D01*
X55699945Y-118352252D01*
X55796880Y-118066691D01*
X55798883Y-118056619D01*
X55831267Y-117994710D01*
X55891982Y-117960136D01*
X55961752Y-117963875D01*
X56018424Y-118004741D01*
X56044006Y-118069759D01*
X56044500Y-118080812D01*
X56044500Y-131639467D01*
X56044416Y-131639889D01*
X56044459Y-131664001D01*
X56044544Y-131664206D01*
X56044616Y-131664382D01*
X56044618Y-131664384D01*
X56044808Y-131664462D01*
X56045000Y-131664541D01*
X56045002Y-131664539D01*
X56069616Y-131664524D01*
X56069616Y-131664528D01*
X56069760Y-131664500D01*
X70120240Y-131664500D01*
X70120383Y-131664528D01*
X70120384Y-131664524D01*
X70144997Y-131664539D01*
X70145000Y-131664541D01*
X70145383Y-131664383D01*
X70145500Y-131664099D01*
X70145541Y-131664000D01*
X70145540Y-131663997D01*
X70145583Y-131639889D01*
X70145500Y-131639467D01*
X70145500Y-124495889D01*
X132244416Y-124495889D01*
X132244459Y-124520001D01*
X132244544Y-124520206D01*
X132244616Y-124520382D01*
X132244618Y-124520384D01*
X132244808Y-124520462D01*
X132245000Y-124520541D01*
X132245002Y-124520539D01*
X132269616Y-124520524D01*
X132269616Y-124520528D01*
X132269760Y-124520500D01*
X146320240Y-124520500D01*
X146320383Y-124520528D01*
X146320384Y-124520524D01*
X146344997Y-124520539D01*
X146345000Y-124520541D01*
X146345383Y-124520383D01*
X146345500Y-124520099D01*
X146345541Y-124520000D01*
X146345540Y-124519997D01*
X146345583Y-124495889D01*
X146345500Y-124495467D01*
X146345500Y-123363794D01*
X153088868Y-123363794D01*
X153088869Y-123363796D01*
X153089149Y-123364101D01*
X153089150Y-123364101D01*
X153099174Y-123368729D01*
X161988540Y-127513910D01*
X165845906Y-129312630D01*
X165846574Y-129313118D01*
X165848107Y-129313823D01*
X165849435Y-129314747D01*
X165865863Y-129321995D01*
X165868087Y-129323018D01*
X165868088Y-129323018D01*
X165868089Y-129323019D01*
X165868138Y-129323020D01*
X165868195Y-129323023D01*
X165868196Y-129323024D01*
X165868503Y-129323038D01*
X165868729Y-129322830D01*
X165868729Y-129322829D01*
X165868808Y-129322757D01*
X165868808Y-129322755D01*
X165878434Y-129302014D01*
X171821719Y-116556602D01*
X171827723Y-116543819D01*
X171827726Y-116543817D01*
X171827745Y-116543404D01*
X171827537Y-116543178D01*
X171827536Y-116543177D01*
X171827464Y-116543099D01*
X171827463Y-116543098D01*
X171805349Y-116532794D01*
X171805180Y-116532752D01*
X159070766Y-110594596D01*
X159070620Y-110594489D01*
X159048523Y-110584180D01*
X159048360Y-110584172D01*
X159048112Y-110584161D01*
X159048110Y-110584162D01*
X159047805Y-110584442D01*
X159037524Y-110606440D01*
X159037448Y-110606751D01*
X153099103Y-123341569D01*
X153098724Y-123342091D01*
X153088887Y-123363381D01*
X153088869Y-123363781D01*
X153088868Y-123363794D01*
X146345500Y-123363794D01*
X146345500Y-110444759D01*
X146345528Y-110444616D01*
X146345524Y-110444616D01*
X146345539Y-110420002D01*
X146345541Y-110420000D01*
X146345462Y-110419808D01*
X146345384Y-110419618D01*
X146345383Y-110419617D01*
X146345381Y-110419616D01*
X146345090Y-110419496D01*
X146345001Y-110419459D01*
X146320446Y-110419459D01*
X146320240Y-110419500D01*
X132269760Y-110419500D01*
X132269554Y-110419459D01*
X132244998Y-110419459D01*
X132244909Y-110419496D01*
X132244619Y-110419615D01*
X132244615Y-110419618D01*
X132244459Y-110419999D01*
X132244476Y-110444616D01*
X132244471Y-110444616D01*
X132244500Y-110444759D01*
X132244500Y-124495467D01*
X132244416Y-124495889D01*
X70145500Y-124495889D01*
X70145500Y-122114889D01*
X75094416Y-122114889D01*
X75094459Y-122139001D01*
X75094544Y-122139206D01*
X75094616Y-122139382D01*
X75094618Y-122139384D01*
X75094808Y-122139462D01*
X75095000Y-122139541D01*
X75095002Y-122139539D01*
X75119616Y-122139524D01*
X75119616Y-122139528D01*
X75119760Y-122139500D01*
X89170240Y-122139500D01*
X89170383Y-122139528D01*
X89170384Y-122139524D01*
X89194997Y-122139539D01*
X89195000Y-122139541D01*
X89195383Y-122139383D01*
X89195500Y-122139099D01*
X89195541Y-122139000D01*
X89195540Y-122138997D01*
X89195583Y-122114889D01*
X113194416Y-122114889D01*
X113194459Y-122139001D01*
X113194544Y-122139206D01*
X113194616Y-122139382D01*
X113194618Y-122139384D01*
X113194808Y-122139462D01*
X113195000Y-122139541D01*
X113195002Y-122139539D01*
X113219616Y-122139524D01*
X113219616Y-122139528D01*
X113219760Y-122139500D01*
X127270240Y-122139500D01*
X127270383Y-122139528D01*
X127270384Y-122139524D01*
X127294997Y-122139539D01*
X127295000Y-122139541D01*
X127295383Y-122139383D01*
X127295500Y-122139099D01*
X127295541Y-122139000D01*
X127295540Y-122138997D01*
X127295583Y-122114889D01*
X127295500Y-122114467D01*
X127295500Y-108555812D01*
X127315185Y-108488773D01*
X127367989Y-108443018D01*
X127437147Y-108433074D01*
X127500703Y-108462099D01*
X127538477Y-108520877D01*
X127541113Y-108531603D01*
X127543120Y-108541691D01*
X127543121Y-108541695D01*
X127543122Y-108541698D01*
X127640053Y-108827247D01*
X127640062Y-108827268D01*
X127773431Y-109097713D01*
X127773435Y-109097720D01*
X127940973Y-109348459D01*
X128139810Y-109575189D01*
X128366540Y-109774026D01*
X128617279Y-109941564D01*
X128617286Y-109941568D01*
X128887731Y-110074937D01*
X128887736Y-110074939D01*
X128887748Y-110074945D01*
X129173309Y-110171880D01*
X129373251Y-110211651D01*
X129469069Y-110230711D01*
X129469070Y-110230711D01*
X129469080Y-110230713D01*
X129770000Y-110250436D01*
X130070920Y-110230713D01*
X130366691Y-110171880D01*
X130652252Y-110074945D01*
X130922718Y-109941566D01*
X131173461Y-109774025D01*
X131400189Y-109575189D01*
X131599025Y-109348461D01*
X131766566Y-109097718D01*
X131899945Y-108827252D01*
X131996880Y-108541691D01*
X132055713Y-108245920D01*
X132075436Y-107945000D01*
X132055713Y-107644080D01*
X131996880Y-107348309D01*
X131899945Y-107062748D01*
X131766566Y-106792282D01*
X131599025Y-106541539D01*
X131400189Y-106314810D01*
X131173459Y-106115973D01*
X130922720Y-105948435D01*
X130922713Y-105948431D01*
X130652268Y-105815062D01*
X130652247Y-105815053D01*
X130366698Y-105718122D01*
X130366692Y-105718120D01*
X130366691Y-105718120D01*
X130366689Y-105718119D01*
X130366683Y-105718118D01*
X130070930Y-105659288D01*
X130070921Y-105659287D01*
X130070920Y-105659287D01*
X129770000Y-105639564D01*
X129769999Y-105639564D01*
X129619539Y-105649425D01*
X129469080Y-105659287D01*
X129469079Y-105659287D01*
X129469069Y-105659288D01*
X129173316Y-105718118D01*
X129173301Y-105718122D01*
X128887752Y-105815053D01*
X128887731Y-105815062D01*
X128617286Y-105948431D01*
X128617279Y-105948435D01*
X128366540Y-106115973D01*
X128139810Y-106314810D01*
X127940973Y-106541540D01*
X127773435Y-106792279D01*
X127773431Y-106792286D01*
X127640062Y-107062731D01*
X127640053Y-107062752D01*
X127543122Y-107348301D01*
X127543118Y-107348316D01*
X127484288Y-107644069D01*
X127484287Y-107644081D01*
X127465436Y-107931696D01*
X127441408Y-107997305D01*
X127385725Y-108039508D01*
X127316064Y-108044907D01*
X127295252Y-108038459D01*
X127270446Y-108038459D01*
X127270240Y-108038500D01*
X113219760Y-108038500D01*
X113219554Y-108038459D01*
X113194998Y-108038459D01*
X113194909Y-108038496D01*
X113194619Y-108038615D01*
X113194615Y-108038618D01*
X113194459Y-108038999D01*
X113194476Y-108063616D01*
X113194471Y-108063616D01*
X113194500Y-108063759D01*
X113194500Y-122114467D01*
X113194416Y-122114889D01*
X89195583Y-122114889D01*
X89195500Y-122114467D01*
X89195500Y-119732889D01*
X94144416Y-119732889D01*
X94144459Y-119757001D01*
X94144544Y-119757206D01*
X94144616Y-119757382D01*
X94144618Y-119757384D01*
X94144808Y-119757462D01*
X94145000Y-119757541D01*
X94145002Y-119757539D01*
X94169616Y-119757524D01*
X94169616Y-119757528D01*
X94169760Y-119757500D01*
X108220240Y-119757500D01*
X108220383Y-119757528D01*
X108220384Y-119757524D01*
X108244997Y-119757539D01*
X108245000Y-119757541D01*
X108245383Y-119757383D01*
X108245500Y-119757099D01*
X108245541Y-119757000D01*
X108245540Y-119756997D01*
X108245583Y-119732889D01*
X108245500Y-119732467D01*
X108245500Y-105681759D01*
X108245528Y-105681616D01*
X108245524Y-105681616D01*
X108245539Y-105657002D01*
X108245541Y-105657000D01*
X108245462Y-105656808D01*
X108245384Y-105656618D01*
X108245383Y-105656617D01*
X108245381Y-105656616D01*
X108245090Y-105656496D01*
X108245001Y-105656459D01*
X108220446Y-105656459D01*
X108220240Y-105656500D01*
X94169760Y-105656500D01*
X94169554Y-105656459D01*
X94144998Y-105656459D01*
X94144909Y-105656496D01*
X94144619Y-105656615D01*
X94144615Y-105656618D01*
X94144459Y-105656999D01*
X94144476Y-105681616D01*
X94144471Y-105681616D01*
X94144500Y-105681759D01*
X94144500Y-119732467D01*
X94144416Y-119732889D01*
X89195500Y-119732889D01*
X89195500Y-108063759D01*
X89195528Y-108063616D01*
X89195524Y-108063616D01*
X89195539Y-108039002D01*
X89195541Y-108039000D01*
X89195462Y-108038808D01*
X89195384Y-108038618D01*
X89195383Y-108038617D01*
X89195381Y-108038616D01*
X89195090Y-108038496D01*
X89195001Y-108038459D01*
X89170446Y-108038459D01*
X89170240Y-108038500D01*
X75119760Y-108038500D01*
X75119554Y-108038459D01*
X75094998Y-108038459D01*
X75094909Y-108038496D01*
X75094619Y-108038615D01*
X75094615Y-108038618D01*
X75094459Y-108038999D01*
X75094476Y-108063616D01*
X75094471Y-108063616D01*
X75094500Y-108063759D01*
X75094500Y-122114467D01*
X75094416Y-122114889D01*
X70145500Y-122114889D01*
X70145500Y-117588759D01*
X70145528Y-117588616D01*
X70145524Y-117588616D01*
X70145539Y-117564002D01*
X70145541Y-117564000D01*
X70145462Y-117563808D01*
X70145384Y-117563618D01*
X70145383Y-117563617D01*
X70145381Y-117563616D01*
X70145090Y-117563496D01*
X70145001Y-117563459D01*
X70120446Y-117563459D01*
X70120240Y-117563500D01*
X56069760Y-117563500D01*
X56069554Y-117563459D01*
X56042881Y-117563459D01*
X55976269Y-117570614D01*
X55913793Y-117539332D01*
X55878147Y-117479240D01*
X55874564Y-117456706D01*
X55855713Y-117169080D01*
X55796880Y-116873309D01*
X55699945Y-116587748D01*
X55684677Y-116556788D01*
X55566568Y-116317286D01*
X55566564Y-116317279D01*
X55399026Y-116066540D01*
X55200189Y-115839810D01*
X54973459Y-115640973D01*
X54722720Y-115473435D01*
X54722713Y-115473431D01*
X54452268Y-115340062D01*
X54452247Y-115340053D01*
X54166698Y-115243122D01*
X54166692Y-115243120D01*
X54166691Y-115243120D01*
X54166689Y-115243119D01*
X54166683Y-115243118D01*
X53870930Y-115184288D01*
X53870921Y-115184287D01*
X53870920Y-115184287D01*
X53570000Y-115164564D01*
X53269080Y-115184287D01*
X53269079Y-115184287D01*
X53269069Y-115184288D01*
X52973316Y-115243118D01*
X52973301Y-115243122D01*
X52687752Y-115340053D01*
X52687731Y-115340062D01*
X52417286Y-115473431D01*
X52417279Y-115473435D01*
X52166540Y-115640973D01*
X51939810Y-115839810D01*
X51740973Y-116066540D01*
X51573435Y-116317279D01*
X51573431Y-116317286D01*
X51440062Y-116587731D01*
X51440053Y-116587752D01*
X51343122Y-116873301D01*
X51343118Y-116873316D01*
X51284288Y-117169069D01*
X51284287Y-117169079D01*
X51284287Y-117169080D01*
X51264564Y-117470000D01*
X34520500Y-117470000D01*
X34520500Y-114970889D01*
X36994416Y-114970889D01*
X36994459Y-114995001D01*
X36994544Y-114995206D01*
X36994616Y-114995382D01*
X36994618Y-114995384D01*
X36994808Y-114995462D01*
X36995000Y-114995541D01*
X36995002Y-114995539D01*
X37019616Y-114995524D01*
X37019616Y-114995528D01*
X37019760Y-114995500D01*
X51070240Y-114995500D01*
X51070383Y-114995528D01*
X51070384Y-114995524D01*
X51094997Y-114995539D01*
X51095000Y-114995541D01*
X51095383Y-114995383D01*
X51095500Y-114995099D01*
X51095541Y-114995000D01*
X51095540Y-114994997D01*
X51095583Y-114970889D01*
X51095500Y-114970467D01*
X51095500Y-100919759D01*
X51095528Y-100919616D01*
X51095524Y-100919616D01*
X51095539Y-100895002D01*
X51095541Y-100895000D01*
X51095462Y-100894808D01*
X51095384Y-100894618D01*
X51095383Y-100894617D01*
X51095381Y-100894616D01*
X51095090Y-100894496D01*
X51095001Y-100894459D01*
X51070446Y-100894459D01*
X51070240Y-100894500D01*
X37019760Y-100894500D01*
X37019554Y-100894459D01*
X36994998Y-100894459D01*
X36994909Y-100894496D01*
X36994619Y-100894615D01*
X36994615Y-100894618D01*
X36994459Y-100894999D01*
X36994476Y-100919616D01*
X36994471Y-100919616D01*
X36994500Y-100919759D01*
X36994500Y-114970467D01*
X36994416Y-114970889D01*
X34520500Y-114970889D01*
X34520500Y-98420000D01*
X51264564Y-98420000D01*
X51271158Y-98520614D01*
X51284287Y-98720918D01*
X51284288Y-98720930D01*
X51343118Y-99016683D01*
X51343122Y-99016698D01*
X51440053Y-99302247D01*
X51440062Y-99302268D01*
X51573431Y-99572713D01*
X51573435Y-99572720D01*
X51740973Y-99823459D01*
X51939810Y-100050189D01*
X52166540Y-100249026D01*
X52417279Y-100416564D01*
X52417286Y-100416568D01*
X52687731Y-100549937D01*
X52687736Y-100549939D01*
X52687748Y-100549945D01*
X52973309Y-100646880D01*
X53154337Y-100682889D01*
X53269069Y-100705711D01*
X53269070Y-100705711D01*
X53269080Y-100705713D01*
X53570000Y-100725436D01*
X53870920Y-100705713D01*
X54166691Y-100646880D01*
X54452252Y-100549945D01*
X54722718Y-100416566D01*
X54973461Y-100249025D01*
X55200189Y-100050189D01*
X55399025Y-99823461D01*
X55566566Y-99572718D01*
X55699945Y-99302252D01*
X55796880Y-99016691D01*
X55798883Y-99006619D01*
X55831267Y-98944710D01*
X55891982Y-98910136D01*
X55961752Y-98913875D01*
X56018424Y-98954741D01*
X56044006Y-99019759D01*
X56044500Y-99030812D01*
X56044500Y-112589467D01*
X56044416Y-112589889D01*
X56044459Y-112614001D01*
X56044544Y-112614206D01*
X56044616Y-112614382D01*
X56044618Y-112614384D01*
X56044808Y-112614462D01*
X56045000Y-112614541D01*
X56045002Y-112614539D01*
X56069616Y-112614524D01*
X56069616Y-112614528D01*
X56069760Y-112614500D01*
X70120240Y-112614500D01*
X70120383Y-112614528D01*
X70120384Y-112614524D01*
X70144997Y-112614539D01*
X70145000Y-112614541D01*
X70145383Y-112614383D01*
X70145500Y-112614099D01*
X70145541Y-112614000D01*
X70145540Y-112613997D01*
X70145583Y-112589889D01*
X70145500Y-112589467D01*
X70145500Y-105445889D01*
X132244416Y-105445889D01*
X132244459Y-105470001D01*
X132244544Y-105470206D01*
X132244616Y-105470382D01*
X132244618Y-105470384D01*
X132244808Y-105470462D01*
X132245000Y-105470541D01*
X132245002Y-105470539D01*
X132269616Y-105470524D01*
X132269616Y-105470528D01*
X132269760Y-105470500D01*
X146320240Y-105470500D01*
X146320383Y-105470528D01*
X146320384Y-105470524D01*
X146344997Y-105470539D01*
X146345000Y-105470541D01*
X146345383Y-105470383D01*
X146345500Y-105470099D01*
X146345541Y-105470000D01*
X146345540Y-105469997D01*
X146345583Y-105445889D01*
X146345500Y-105445467D01*
X146345500Y-91394759D01*
X146345528Y-91394616D01*
X146345524Y-91394616D01*
X146345539Y-91370002D01*
X146345541Y-91370000D01*
X146345462Y-91369808D01*
X146345384Y-91369618D01*
X146345383Y-91369617D01*
X146345381Y-91369616D01*
X146345090Y-91369496D01*
X146345001Y-91369459D01*
X146320446Y-91369459D01*
X146320240Y-91369500D01*
X132269760Y-91369500D01*
X132269554Y-91369459D01*
X132244998Y-91369459D01*
X132244909Y-91369496D01*
X132244619Y-91369615D01*
X132244615Y-91369618D01*
X132244459Y-91369999D01*
X132244476Y-91394616D01*
X132244471Y-91394616D01*
X132244500Y-91394759D01*
X132244500Y-105445467D01*
X132244416Y-105445889D01*
X70145500Y-105445889D01*
X70145500Y-103064889D01*
X75094416Y-103064889D01*
X75094459Y-103089001D01*
X75094544Y-103089206D01*
X75094616Y-103089382D01*
X75094618Y-103089384D01*
X75094808Y-103089462D01*
X75095000Y-103089541D01*
X75095002Y-103089539D01*
X75119616Y-103089524D01*
X75119616Y-103089528D01*
X75119760Y-103089500D01*
X89170240Y-103089500D01*
X89170383Y-103089528D01*
X89170384Y-103089524D01*
X89194997Y-103089539D01*
X89195000Y-103089541D01*
X89195383Y-103089383D01*
X89195500Y-103089099D01*
X89195541Y-103089000D01*
X89195540Y-103088997D01*
X89195583Y-103064889D01*
X113194416Y-103064889D01*
X113194459Y-103089001D01*
X113194544Y-103089206D01*
X113194616Y-103089382D01*
X113194618Y-103089384D01*
X113194808Y-103089462D01*
X113195000Y-103089541D01*
X113195002Y-103089539D01*
X113219616Y-103089524D01*
X113219616Y-103089528D01*
X113219760Y-103089500D01*
X127270240Y-103089500D01*
X127270383Y-103089528D01*
X127270384Y-103089524D01*
X127294997Y-103089539D01*
X127295000Y-103089541D01*
X127295383Y-103089383D01*
X127295500Y-103089099D01*
X127295541Y-103089000D01*
X127295540Y-103088997D01*
X127295583Y-103064889D01*
X127295500Y-103064467D01*
X127295500Y-89505812D01*
X127315185Y-89438773D01*
X127367989Y-89393018D01*
X127437147Y-89383074D01*
X127500703Y-89412099D01*
X127538477Y-89470877D01*
X127541113Y-89481603D01*
X127543120Y-89491691D01*
X127543121Y-89491695D01*
X127543122Y-89491698D01*
X127640053Y-89777247D01*
X127640062Y-89777268D01*
X127773431Y-90047713D01*
X127773435Y-90047720D01*
X127940973Y-90298459D01*
X128139810Y-90525189D01*
X128366540Y-90724026D01*
X128617279Y-90891564D01*
X128617286Y-90891568D01*
X128887731Y-91024937D01*
X128887736Y-91024939D01*
X128887748Y-91024945D01*
X129173309Y-91121880D01*
X129373251Y-91161651D01*
X129469069Y-91180711D01*
X129469070Y-91180711D01*
X129469080Y-91180713D01*
X129770000Y-91200436D01*
X130070920Y-91180713D01*
X130366691Y-91121880D01*
X130652252Y-91024945D01*
X130922718Y-90891566D01*
X131173461Y-90724025D01*
X131400189Y-90525189D01*
X131599025Y-90298461D01*
X131766566Y-90047718D01*
X131899945Y-89777252D01*
X131996880Y-89491691D01*
X132055713Y-89195920D01*
X132075436Y-88895000D01*
X132055713Y-88594080D01*
X131996880Y-88298309D01*
X131899945Y-88012748D01*
X131766566Y-87742282D01*
X131599025Y-87491539D01*
X131400189Y-87264810D01*
X131173459Y-87065973D01*
X130922720Y-86898435D01*
X130922713Y-86898431D01*
X130652268Y-86765062D01*
X130652247Y-86765053D01*
X130366698Y-86668122D01*
X130366692Y-86668120D01*
X130366691Y-86668120D01*
X130366689Y-86668119D01*
X130366683Y-86668118D01*
X130070930Y-86609288D01*
X130070921Y-86609287D01*
X130070920Y-86609287D01*
X129770000Y-86589564D01*
X129469080Y-86609287D01*
X129469079Y-86609287D01*
X129469069Y-86609288D01*
X129173316Y-86668118D01*
X129173301Y-86668122D01*
X128887752Y-86765053D01*
X128887731Y-86765062D01*
X128617286Y-86898431D01*
X128617279Y-86898435D01*
X128366540Y-87065973D01*
X128139810Y-87264810D01*
X127940973Y-87491540D01*
X127773435Y-87742279D01*
X127773431Y-87742286D01*
X127640062Y-88012731D01*
X127640053Y-88012752D01*
X127543122Y-88298301D01*
X127543118Y-88298316D01*
X127484288Y-88594069D01*
X127484287Y-88594081D01*
X127465436Y-88881696D01*
X127441408Y-88947305D01*
X127385725Y-88989508D01*
X127316064Y-88994907D01*
X127295252Y-88988459D01*
X127270446Y-88988459D01*
X127270240Y-88988500D01*
X113219760Y-88988500D01*
X113219554Y-88988459D01*
X113194998Y-88988459D01*
X113194909Y-88988496D01*
X113194619Y-88988615D01*
X113194615Y-88988618D01*
X113194459Y-88988999D01*
X113194476Y-89013616D01*
X113194471Y-89013616D01*
X113194500Y-89013759D01*
X113194500Y-103064467D01*
X113194416Y-103064889D01*
X89195583Y-103064889D01*
X89195500Y-103064467D01*
X89195500Y-100682889D01*
X94144416Y-100682889D01*
X94144459Y-100707001D01*
X94144544Y-100707206D01*
X94144616Y-100707382D01*
X94144618Y-100707384D01*
X94144808Y-100707462D01*
X94145000Y-100707541D01*
X94145002Y-100707539D01*
X94169616Y-100707524D01*
X94169616Y-100707528D01*
X94169760Y-100707500D01*
X108220240Y-100707500D01*
X108220383Y-100707528D01*
X108220384Y-100707524D01*
X108244997Y-100707539D01*
X108245000Y-100707541D01*
X108245383Y-100707383D01*
X108245500Y-100707099D01*
X108245541Y-100707000D01*
X108245540Y-100706997D01*
X108245583Y-100682889D01*
X108245500Y-100682467D01*
X108245500Y-86631759D01*
X108245528Y-86631616D01*
X108245524Y-86631616D01*
X108245539Y-86607002D01*
X108245541Y-86607000D01*
X108245462Y-86606808D01*
X108245384Y-86606618D01*
X108245383Y-86606617D01*
X108245381Y-86606616D01*
X108245090Y-86606496D01*
X108245001Y-86606459D01*
X108220446Y-86606459D01*
X108220240Y-86606500D01*
X94169760Y-86606500D01*
X94169554Y-86606459D01*
X94144998Y-86606459D01*
X94144909Y-86606496D01*
X94144619Y-86606615D01*
X94144615Y-86606618D01*
X94144459Y-86606999D01*
X94144476Y-86631616D01*
X94144471Y-86631616D01*
X94144500Y-86631759D01*
X94144500Y-100682467D01*
X94144416Y-100682889D01*
X89195500Y-100682889D01*
X89195500Y-89013759D01*
X89195528Y-89013616D01*
X89195524Y-89013616D01*
X89195539Y-88989002D01*
X89195541Y-88989000D01*
X89195462Y-88988808D01*
X89195384Y-88988618D01*
X89195383Y-88988617D01*
X89195381Y-88988616D01*
X89195090Y-88988496D01*
X89195001Y-88988459D01*
X89170446Y-88988459D01*
X89170240Y-88988500D01*
X75119760Y-88988500D01*
X75119554Y-88988459D01*
X75094998Y-88988459D01*
X75094909Y-88988496D01*
X75094619Y-88988615D01*
X75094615Y-88988618D01*
X75094459Y-88988999D01*
X75094476Y-89013616D01*
X75094471Y-89013616D01*
X75094500Y-89013759D01*
X75094500Y-103064467D01*
X75094416Y-103064889D01*
X70145500Y-103064889D01*
X70145500Y-98538759D01*
X70145528Y-98538616D01*
X70145524Y-98538616D01*
X70145539Y-98514002D01*
X70145541Y-98514000D01*
X70145462Y-98513808D01*
X70145384Y-98513618D01*
X70145383Y-98513617D01*
X70145381Y-98513616D01*
X70145090Y-98513496D01*
X70145001Y-98513459D01*
X70120446Y-98513459D01*
X70120240Y-98513500D01*
X56069760Y-98513500D01*
X56069554Y-98513459D01*
X56042881Y-98513459D01*
X55976269Y-98520614D01*
X55913793Y-98489332D01*
X55878147Y-98429240D01*
X55874564Y-98406706D01*
X55855713Y-98119080D01*
X55796880Y-97823309D01*
X55699945Y-97537748D01*
X55566566Y-97267282D01*
X55399025Y-97016539D01*
X55200189Y-96789810D01*
X54973459Y-96590973D01*
X54722720Y-96423435D01*
X54722713Y-96423431D01*
X54452268Y-96290062D01*
X54452247Y-96290053D01*
X54166698Y-96193122D01*
X54166692Y-96193120D01*
X54166691Y-96193120D01*
X54166689Y-96193119D01*
X54166683Y-96193118D01*
X53870930Y-96134288D01*
X53870921Y-96134287D01*
X53870920Y-96134287D01*
X53570000Y-96114564D01*
X53569999Y-96114564D01*
X53419540Y-96124425D01*
X53269080Y-96134287D01*
X53269079Y-96134287D01*
X53269069Y-96134288D01*
X52973316Y-96193118D01*
X52973301Y-96193122D01*
X52687752Y-96290053D01*
X52687731Y-96290062D01*
X52417286Y-96423431D01*
X52417279Y-96423435D01*
X52166540Y-96590973D01*
X51939810Y-96789810D01*
X51740973Y-97016540D01*
X51573435Y-97267279D01*
X51573431Y-97267286D01*
X51440062Y-97537731D01*
X51440053Y-97537752D01*
X51343122Y-97823301D01*
X51343118Y-97823316D01*
X51284288Y-98119069D01*
X51284287Y-98119079D01*
X51284287Y-98119080D01*
X51264564Y-98420000D01*
X34520500Y-98420000D01*
X34520500Y-95920889D01*
X36994416Y-95920889D01*
X36994459Y-95945001D01*
X36994544Y-95945206D01*
X36994616Y-95945382D01*
X36994618Y-95945384D01*
X36994808Y-95945462D01*
X36995000Y-95945541D01*
X36995002Y-95945539D01*
X37019616Y-95945524D01*
X37019616Y-95945528D01*
X37019760Y-95945500D01*
X51070240Y-95945500D01*
X51070383Y-95945528D01*
X51070384Y-95945524D01*
X51094997Y-95945539D01*
X51095000Y-95945541D01*
X51095383Y-95945383D01*
X51095500Y-95945099D01*
X51095541Y-95945000D01*
X51095540Y-95944997D01*
X51095583Y-95920889D01*
X51095500Y-95920467D01*
X51095500Y-93539889D01*
X56044416Y-93539889D01*
X56044459Y-93564001D01*
X56044544Y-93564206D01*
X56044616Y-93564382D01*
X56044618Y-93564384D01*
X56044808Y-93564462D01*
X56045000Y-93564541D01*
X56045002Y-93564539D01*
X56069616Y-93564524D01*
X56069616Y-93564528D01*
X56069760Y-93564500D01*
X70120240Y-93564500D01*
X70120383Y-93564528D01*
X70120384Y-93564524D01*
X70144997Y-93564539D01*
X70145000Y-93564541D01*
X70145383Y-93564383D01*
X70145500Y-93564099D01*
X70145541Y-93564000D01*
X70145540Y-93563997D01*
X70145583Y-93539889D01*
X70145500Y-93539467D01*
X70145500Y-86395889D01*
X132244416Y-86395889D01*
X132244459Y-86420001D01*
X132244544Y-86420206D01*
X132244616Y-86420382D01*
X132244618Y-86420384D01*
X132244808Y-86420462D01*
X132245000Y-86420541D01*
X132245002Y-86420539D01*
X132269616Y-86420524D01*
X132269616Y-86420528D01*
X132269760Y-86420500D01*
X146320240Y-86420500D01*
X146320383Y-86420528D01*
X146320384Y-86420524D01*
X146344997Y-86420539D01*
X146345000Y-86420541D01*
X146345383Y-86420383D01*
X146345500Y-86420099D01*
X146345541Y-86420000D01*
X146345540Y-86419997D01*
X146345583Y-86395889D01*
X146345500Y-86395467D01*
X146345500Y-72344759D01*
X146345528Y-72344616D01*
X146345524Y-72344616D01*
X146345539Y-72320002D01*
X146345541Y-72320000D01*
X146345462Y-72319808D01*
X146345384Y-72319618D01*
X146345383Y-72319617D01*
X146345381Y-72319616D01*
X146345090Y-72319496D01*
X146345001Y-72319459D01*
X146320446Y-72319459D01*
X146320240Y-72319500D01*
X132269760Y-72319500D01*
X132269554Y-72319459D01*
X132244998Y-72319459D01*
X132244909Y-72319496D01*
X132244619Y-72319615D01*
X132244615Y-72319618D01*
X132244459Y-72319999D01*
X132244476Y-72344616D01*
X132244471Y-72344616D01*
X132244500Y-72344759D01*
X132244500Y-86395467D01*
X132244416Y-86395889D01*
X70145500Y-86395889D01*
X70145500Y-84014889D01*
X75094416Y-84014889D01*
X75094459Y-84039001D01*
X75094544Y-84039206D01*
X75094616Y-84039382D01*
X75094618Y-84039384D01*
X75094808Y-84039462D01*
X75095000Y-84039541D01*
X75095002Y-84039539D01*
X75119616Y-84039524D01*
X75119616Y-84039528D01*
X75119760Y-84039500D01*
X89170240Y-84039500D01*
X89170383Y-84039528D01*
X89170384Y-84039524D01*
X89194997Y-84039539D01*
X89195000Y-84039541D01*
X89195383Y-84039383D01*
X89195500Y-84039099D01*
X89195541Y-84039000D01*
X89195540Y-84038997D01*
X89195583Y-84014889D01*
X113194416Y-84014889D01*
X113194459Y-84039001D01*
X113194544Y-84039206D01*
X113194616Y-84039382D01*
X113194618Y-84039384D01*
X113194808Y-84039462D01*
X113195000Y-84039541D01*
X113195002Y-84039539D01*
X113219616Y-84039524D01*
X113219616Y-84039528D01*
X113219760Y-84039500D01*
X127270240Y-84039500D01*
X127270383Y-84039528D01*
X127270384Y-84039524D01*
X127294997Y-84039539D01*
X127295000Y-84039541D01*
X127295383Y-84039383D01*
X127295500Y-84039099D01*
X127295541Y-84039000D01*
X127295540Y-84038997D01*
X127295583Y-84014889D01*
X127295500Y-84014467D01*
X127295500Y-69963759D01*
X127295528Y-69963616D01*
X127295524Y-69963616D01*
X127295539Y-69939002D01*
X127295541Y-69939000D01*
X127295462Y-69938808D01*
X127295384Y-69938618D01*
X127295383Y-69938617D01*
X127295381Y-69938616D01*
X127295090Y-69938496D01*
X127295001Y-69938459D01*
X127270446Y-69938459D01*
X127270240Y-69938500D01*
X113219760Y-69938500D01*
X113219554Y-69938459D01*
X113194998Y-69938459D01*
X113194909Y-69938496D01*
X113194619Y-69938615D01*
X113194615Y-69938618D01*
X113194459Y-69938999D01*
X113194476Y-69963616D01*
X113194471Y-69963616D01*
X113194500Y-69963759D01*
X113194500Y-84014467D01*
X113194416Y-84014889D01*
X89195583Y-84014889D01*
X89195500Y-84014467D01*
X89195500Y-81632889D01*
X94144416Y-81632889D01*
X94144459Y-81657001D01*
X94144544Y-81657206D01*
X94144616Y-81657382D01*
X94144618Y-81657384D01*
X94144808Y-81657462D01*
X94145000Y-81657541D01*
X94145002Y-81657539D01*
X94169616Y-81657524D01*
X94169616Y-81657528D01*
X94169760Y-81657500D01*
X108220240Y-81657500D01*
X108220383Y-81657528D01*
X108220384Y-81657524D01*
X108244997Y-81657539D01*
X108245000Y-81657541D01*
X108245383Y-81657383D01*
X108245500Y-81657099D01*
X108245541Y-81657000D01*
X108245540Y-81656997D01*
X108245583Y-81632889D01*
X108245500Y-81632467D01*
X108245500Y-67581759D01*
X108245528Y-67581616D01*
X108245524Y-67581616D01*
X108245539Y-67557002D01*
X108245541Y-67557000D01*
X108245462Y-67556808D01*
X108245384Y-67556618D01*
X108245383Y-67556617D01*
X108245381Y-67556616D01*
X108245090Y-67556496D01*
X108245001Y-67556459D01*
X108220446Y-67556459D01*
X108220240Y-67556500D01*
X94169760Y-67556500D01*
X94169554Y-67556459D01*
X94144998Y-67556459D01*
X94144909Y-67556496D01*
X94144619Y-67556615D01*
X94144615Y-67556618D01*
X94144459Y-67556999D01*
X94144476Y-67581616D01*
X94144471Y-67581616D01*
X94144500Y-67581759D01*
X94144500Y-81632467D01*
X94144416Y-81632889D01*
X89195500Y-81632889D01*
X89195500Y-69963759D01*
X89195528Y-69963616D01*
X89195524Y-69963616D01*
X89195539Y-69939002D01*
X89195541Y-69939000D01*
X89195462Y-69938808D01*
X89195384Y-69938618D01*
X89195383Y-69938617D01*
X89195381Y-69938616D01*
X89195090Y-69938496D01*
X89195001Y-69938459D01*
X89170446Y-69938459D01*
X89170240Y-69938500D01*
X75119760Y-69938500D01*
X75119554Y-69938459D01*
X75094998Y-69938459D01*
X75094909Y-69938496D01*
X75094619Y-69938615D01*
X75094615Y-69938618D01*
X75094459Y-69938999D01*
X75094476Y-69963616D01*
X75094471Y-69963616D01*
X75094500Y-69963759D01*
X75094500Y-84014467D01*
X75094416Y-84014889D01*
X70145500Y-84014889D01*
X70145500Y-79488759D01*
X70145528Y-79488616D01*
X70145524Y-79488616D01*
X70145539Y-79464002D01*
X70145541Y-79464000D01*
X70145462Y-79463808D01*
X70145384Y-79463618D01*
X70145383Y-79463617D01*
X70145381Y-79463616D01*
X70145090Y-79463496D01*
X70145001Y-79463459D01*
X70120446Y-79463459D01*
X70120240Y-79463500D01*
X56069760Y-79463500D01*
X56069554Y-79463459D01*
X56044998Y-79463459D01*
X56044909Y-79463496D01*
X56044619Y-79463615D01*
X56044615Y-79463618D01*
X56044459Y-79463999D01*
X56044476Y-79488616D01*
X56044471Y-79488616D01*
X56044500Y-79488759D01*
X56044500Y-93539467D01*
X56044416Y-93539889D01*
X51095500Y-93539889D01*
X51095500Y-81869759D01*
X51095528Y-81869616D01*
X51095524Y-81869616D01*
X51095539Y-81845002D01*
X51095541Y-81845000D01*
X51095462Y-81844808D01*
X51095384Y-81844618D01*
X51095383Y-81844617D01*
X51095381Y-81844616D01*
X51095090Y-81844496D01*
X51095001Y-81844459D01*
X51070446Y-81844459D01*
X51070240Y-81844500D01*
X37019760Y-81844500D01*
X37019554Y-81844459D01*
X36994998Y-81844459D01*
X36994909Y-81844496D01*
X36994619Y-81844615D01*
X36994615Y-81844618D01*
X36994459Y-81844999D01*
X36994476Y-81869616D01*
X36994471Y-81869616D01*
X36994500Y-81869759D01*
X36994500Y-95920467D01*
X36994416Y-95920889D01*
X34520500Y-95920889D01*
X34520500Y-79494500D01*
X34540185Y-79427461D01*
X34592989Y-79381706D01*
X34644500Y-79370500D01*
X53545240Y-79370500D01*
X53545383Y-79370528D01*
X53545384Y-79370524D01*
X53569997Y-79370539D01*
X53570000Y-79370541D01*
X53570383Y-79370383D01*
X53570500Y-79370099D01*
X53570541Y-79370000D01*
X53570540Y-79369997D01*
X53570583Y-79345889D01*
X53570500Y-79345467D01*
X53570500Y-77113500D01*
X53590185Y-77046461D01*
X53642989Y-77000706D01*
X53694500Y-76989500D01*
X72595240Y-76989500D01*
X72595383Y-76989528D01*
X72595384Y-76989524D01*
X72619997Y-76989539D01*
X72620000Y-76989541D01*
X72620383Y-76989383D01*
X72620500Y-76989099D01*
X72620541Y-76989000D01*
X72620540Y-76988997D01*
X72620583Y-76964889D01*
X72620500Y-76964467D01*
X72620500Y-67588500D01*
X72640185Y-67521461D01*
X72692989Y-67475706D01*
X72744500Y-67464500D01*
X91645240Y-67464500D01*
X91645383Y-67464528D01*
X91645384Y-67464524D01*
X91669997Y-67464539D01*
X91670000Y-67464541D01*
X91670383Y-67464383D01*
X91670500Y-67464099D01*
X91670541Y-67464000D01*
X91670540Y-67463997D01*
X91670583Y-67439889D01*
X91670500Y-67439467D01*
X91670500Y-65206500D01*
X91690185Y-65139461D01*
X91742989Y-65093706D01*
X91794500Y-65082500D01*
X110595500Y-65082500D01*
X110662539Y-65102185D01*
G37*
%TD.AperFunction*%
M02*
