%TF.GenerationSoftware,KiCad,Pcbnew,7.0.5*%
%TF.CreationDate,2024-03-19T14:27:57+08:00*%
%TF.ProjectId,J-50x,4a2d3530-782e-46b6-9963-61645f706362,rev?*%
%TF.SameCoordinates,Original*%
%TF.FileFunction,Profile,NP*%
%FSLAX46Y46*%
G04 Gerber Fmt 4.6, Leading zero omitted, Abs format (unit mm)*
G04 Created by KiCad (PCBNEW 7.0.5) date 2024-03-19 14:27:57*
%MOMM*%
%LPD*%
G01*
G04 APERTURE LIST*
%TA.AperFunction,Profile*%
%ADD10C,0.100000*%
%TD*%
G04 APERTURE END LIST*
D10*
X129770000Y-69845000D02*
X129770000Y-67464000D01*
X91670000Y-65082000D02*
X91670000Y-67464000D01*
X34520000Y-136520000D02*
X72714000Y-136520000D01*
X129770000Y-67464000D02*
X110720000Y-67464000D01*
X72714000Y-136520000D02*
G75*
G03*
X75095000Y-134139000I0J2381000D01*
G01*
X77476000Y-126995700D02*
G75*
G03*
X75095000Y-129376663I0J-2381000D01*
G01*
X192381328Y-123397457D02*
X184330384Y-140657075D01*
X192381328Y-123397457D02*
X148820000Y-103080000D01*
X53570000Y-76989000D02*
X53570000Y-79370000D01*
X110720000Y-65082000D02*
X91670000Y-65082000D01*
X34520000Y-79370000D02*
X34520000Y-136520000D01*
X105957000Y-143664000D02*
G75*
G03*
X108338000Y-146045000I2381000J0D01*
G01*
X148370036Y-150166521D02*
X165634183Y-158218473D01*
X148820000Y-69845000D02*
X129770000Y-69845000D01*
X110720000Y-67464000D02*
X110720000Y-65082000D01*
X148370036Y-150166521D02*
X129770802Y-146044608D01*
X72620000Y-67464000D02*
X72620000Y-76989000D01*
X184330385Y-140657118D02*
G75*
G03*
X169260001Y-150390000I200115J-16843782D01*
G01*
X148820000Y-69845000D02*
X148820000Y-103080000D01*
X75095000Y-129376663D02*
X75095000Y-134139000D01*
X105956906Y-129376663D02*
X105957000Y-143664000D01*
X53570000Y-79370000D02*
X34520000Y-79370000D01*
X105956937Y-129376663D02*
G75*
G03*
X103575906Y-126995663I-2381037J-37D01*
G01*
X129770000Y-146045000D02*
X108338000Y-146045000D01*
X91670000Y-67464000D02*
X72620000Y-67464000D01*
X103575906Y-126995663D02*
X77476000Y-126995663D01*
X165634183Y-158218473D02*
X169260000Y-150390000D01*
X72620000Y-76989000D02*
X53570000Y-76989000D01*
%TO.C,K25*%
X183133318Y-137373529D02*
X170354378Y-131414611D01*
X170354378Y-131414611D02*
X176313296Y-118635671D01*
X176313296Y-118635671D02*
X189092236Y-124594589D01*
X189092236Y-124594589D02*
X183133318Y-137373529D01*
%TO.C,K4*%
X70145000Y-93564000D02*
X56045000Y-93564000D01*
X56045000Y-93564000D02*
X56045000Y-79464000D01*
X56045000Y-79464000D02*
X70145000Y-79464000D01*
X70145000Y-79464000D02*
X70145000Y-93564000D01*
%TO.C,K20*%
X146345000Y-105470000D02*
X132245000Y-105470000D01*
X132245000Y-105470000D02*
X132245000Y-91370000D01*
X132245000Y-91370000D02*
X146345000Y-91370000D01*
X146345000Y-91370000D02*
X146345000Y-105470000D01*
%TO.C,K3*%
X51095000Y-134045000D02*
X36995000Y-134045000D01*
X36995000Y-134045000D02*
X36995000Y-119945000D01*
X36995000Y-119945000D02*
X51095000Y-119945000D01*
X51095000Y-119945000D02*
X51095000Y-134045000D01*
%TO.C,K10*%
X89195000Y-122139000D02*
X75095000Y-122139000D01*
X75095000Y-122139000D02*
X75095000Y-108039000D01*
X75095000Y-108039000D02*
X89195000Y-108039000D01*
X89195000Y-108039000D02*
X89195000Y-122139000D01*
%TO.C,K24*%
X165868318Y-129322529D02*
X153089378Y-123363611D01*
X153089378Y-123363611D02*
X159048296Y-110584671D01*
X159048296Y-110584671D02*
X171827236Y-116543589D01*
X171827236Y-116543589D02*
X165868318Y-129322529D01*
%TO.C,K22*%
X171402329Y-139992296D02*
X165443411Y-152771236D01*
X165443411Y-152771236D02*
X152664471Y-146812318D01*
X152664471Y-146812318D02*
X158623389Y-134033378D01*
X158623389Y-134033378D02*
X171402329Y-139992296D01*
%TO.C,K18*%
X146488132Y-147216060D02*
X132722358Y-144164262D01*
X132722358Y-144164262D02*
X135774156Y-130398488D01*
X135774156Y-130398488D02*
X149539930Y-133450286D01*
X149539930Y-133450286D02*
X146488132Y-147216060D01*
%TO.C,K12*%
X108245000Y-81657000D02*
X94145000Y-81657000D01*
X94145000Y-81657000D02*
X94145000Y-67557000D01*
X94145000Y-67557000D02*
X108245000Y-67557000D01*
X108245000Y-67557000D02*
X108245000Y-81657000D01*
%TO.C,K15*%
X127295000Y-84039000D02*
X113195000Y-84039000D01*
X113195000Y-84039000D02*
X113195000Y-69939000D01*
X113195000Y-69939000D02*
X127295000Y-69939000D01*
X127295000Y-69939000D02*
X127295000Y-84039000D01*
%TO.C,K9*%
X89195000Y-103089000D02*
X75095000Y-103089000D01*
X75095000Y-103089000D02*
X75095000Y-88989000D01*
X75095000Y-88989000D02*
X89195000Y-88989000D01*
X89195000Y-88989000D02*
X89195000Y-103089000D01*
%TO.C,K6*%
X70145000Y-131664000D02*
X56045000Y-131664000D01*
X56045000Y-131664000D02*
X56045000Y-117564000D01*
X56045000Y-117564000D02*
X70145000Y-117564000D01*
X70145000Y-117564000D02*
X70145000Y-131664000D01*
%TO.C,K17*%
X127295000Y-122139000D02*
X113195000Y-122139000D01*
X113195000Y-122139000D02*
X113195000Y-108039000D01*
X113195000Y-108039000D02*
X127295000Y-108039000D01*
X127295000Y-108039000D02*
X127295000Y-122139000D01*
%TO.C,K21*%
X146345000Y-124520000D02*
X132245000Y-124520000D01*
X132245000Y-124520000D02*
X132245000Y-110420000D01*
X132245000Y-110420000D02*
X146345000Y-110420000D01*
X146345000Y-110420000D02*
X146345000Y-124520000D01*
%TO.C,K1*%
X51095000Y-95945000D02*
X36995000Y-95945000D01*
X36995000Y-95945000D02*
X36995000Y-81845000D01*
X36995000Y-81845000D02*
X51095000Y-81845000D01*
X51095000Y-81845000D02*
X51095000Y-95945000D01*
%TO.C,K19*%
X146345000Y-86420000D02*
X132245000Y-86420000D01*
X132245000Y-86420000D02*
X132245000Y-72320000D01*
X132245000Y-72320000D02*
X146345000Y-72320000D01*
X146345000Y-72320000D02*
X146345000Y-86420000D01*
%TO.C,K16*%
X127295000Y-103089000D02*
X113195000Y-103089000D01*
X113195000Y-103089000D02*
X113195000Y-88989000D01*
X113195000Y-88989000D02*
X127295000Y-88989000D01*
X127295000Y-88989000D02*
X127295000Y-103089000D01*
%TO.C,K2*%
X51095000Y-114995000D02*
X36995000Y-114995000D01*
X36995000Y-114995000D02*
X36995000Y-100895000D01*
X36995000Y-100895000D02*
X51095000Y-100895000D01*
X51095000Y-100895000D02*
X51095000Y-114995000D01*
%TO.C,K5*%
X70145000Y-112614000D02*
X56045000Y-112614000D01*
X56045000Y-112614000D02*
X56045000Y-98514000D01*
X56045000Y-98514000D02*
X70145000Y-98514000D01*
X70145000Y-98514000D02*
X70145000Y-112614000D01*
%TO.C,K13*%
X108245000Y-100707000D02*
X94145000Y-100707000D01*
X94145000Y-100707000D02*
X94145000Y-86607000D01*
X94145000Y-86607000D02*
X108245000Y-86607000D01*
X108245000Y-86607000D02*
X108245000Y-100707000D01*
%TO.C,K8*%
X89195000Y-84039000D02*
X75095000Y-84039000D01*
X75095000Y-84039000D02*
X75095000Y-69939000D01*
X75095000Y-69939000D02*
X89195000Y-69939000D01*
X89195000Y-69939000D02*
X89195000Y-84039000D01*
%TO.C,K11*%
X127295000Y-143570000D02*
X113195000Y-143570000D01*
X113195000Y-143570000D02*
X113195000Y-129470000D01*
X113195000Y-129470000D02*
X127295000Y-129470000D01*
X127295000Y-129470000D02*
X127295000Y-143570000D01*
%TO.C,K14*%
X108245000Y-119757000D02*
X94145000Y-119757000D01*
X94145000Y-119757000D02*
X94145000Y-105657000D01*
X94145000Y-105657000D02*
X108245000Y-105657000D01*
X108245000Y-105657000D02*
X108245000Y-119757000D01*
%TD*%
M02*
