%TF.GenerationSoftware,KiCad,Pcbnew,7.0.5*%
%TF.CreationDate,2024-03-19T14:27:55+08:00*%
%TF.ProjectId,J-50x,4a2d3530-782e-46b6-9963-61645f706362,rev?*%
%TF.SameCoordinates,Original*%
%TF.FileFunction,Drillmap*%
%TF.FilePolarity,Positive*%
%FSLAX45Y45*%
G04 Gerber Fmt 4.5, Leading zero omitted, Abs format (unit mm)*
G04 Created by KiCad (PCBNEW 7.0.5) date 2024-03-19 14:27:55*
%MOMM*%
%LPD*%
G01*
G04 APERTURE LIST*
%ADD10C,0.100000*%
%ADD11C,0.200000*%
G04 APERTURE END LIST*
D10*
X12977000Y-6984500D02*
X12977000Y-6746400D01*
X9167000Y-6508200D02*
X9167000Y-6746400D01*
X3452000Y-13652000D02*
X7271400Y-13652000D01*
X12977000Y-6746400D02*
X11072000Y-6746400D01*
X7271400Y-13652000D02*
G75*
G03*
X7509500Y-13413900I0J238100D01*
G01*
X7747600Y-12699570D02*
G75*
G03*
X7509500Y-12937666I0J-238100D01*
G01*
X19238133Y-12339746D02*
X18433038Y-14065707D01*
X19238133Y-12339746D02*
X14882000Y-10308000D01*
X5357000Y-7698900D02*
X5357000Y-7937000D01*
X11072000Y-6508200D02*
X9167000Y-6508200D01*
X3452000Y-7937000D02*
X3452000Y-13652000D01*
X10595700Y-14366400D02*
G75*
G03*
X10833800Y-14604500I238100J0D01*
G01*
X14837004Y-15016652D02*
X16563418Y-15821847D01*
X14882000Y-6984500D02*
X12977000Y-6984500D01*
X11072000Y-6746400D02*
X11072000Y-6508200D01*
X14837004Y-15016652D02*
X12977080Y-14604461D01*
X7262000Y-6746400D02*
X7262000Y-7698900D01*
X18433039Y-14065712D02*
G75*
G03*
X16926000Y-15039000I20012J-1684378D01*
G01*
X14882000Y-6984500D02*
X14882000Y-10308000D01*
X7509500Y-12937666D02*
X7509500Y-13413900D01*
X10595691Y-12937666D02*
X10595700Y-14366400D01*
X5357000Y-7937000D02*
X3452000Y-7937000D01*
X10595694Y-12937666D02*
G75*
G03*
X10357591Y-12699566I-238104J-4D01*
G01*
X12977000Y-14604500D02*
X10833800Y-14604500D01*
X9167000Y-6746400D02*
X7262000Y-6746400D01*
X10357591Y-12699566D02*
X7747600Y-12699566D01*
X16563418Y-15821847D02*
X16926000Y-15039000D01*
X7262000Y-7698900D02*
X5357000Y-7698900D01*
D11*
X3707777Y-16138331D02*
X3707777Y-15938331D01*
X3707777Y-15938331D02*
X3755396Y-15938331D01*
X3755396Y-15938331D02*
X3783967Y-15947855D01*
X3783967Y-15947855D02*
X3803015Y-15966902D01*
X3803015Y-15966902D02*
X3812539Y-15985950D01*
X3812539Y-15985950D02*
X3822062Y-16024045D01*
X3822062Y-16024045D02*
X3822062Y-16052617D01*
X3822062Y-16052617D02*
X3812539Y-16090712D01*
X3812539Y-16090712D02*
X3803015Y-16109760D01*
X3803015Y-16109760D02*
X3783967Y-16128807D01*
X3783967Y-16128807D02*
X3755396Y-16138331D01*
X3755396Y-16138331D02*
X3707777Y-16138331D01*
X3907777Y-16138331D02*
X3907777Y-16004998D01*
X3907777Y-16043093D02*
X3917301Y-16024045D01*
X3917301Y-16024045D02*
X3926824Y-16014521D01*
X3926824Y-16014521D02*
X3945872Y-16004998D01*
X3945872Y-16004998D02*
X3964920Y-16004998D01*
X4031586Y-16138331D02*
X4031586Y-16004998D01*
X4031586Y-15938331D02*
X4022062Y-15947855D01*
X4022062Y-15947855D02*
X4031586Y-15957379D01*
X4031586Y-15957379D02*
X4041110Y-15947855D01*
X4041110Y-15947855D02*
X4031586Y-15938331D01*
X4031586Y-15938331D02*
X4031586Y-15957379D01*
X4155396Y-16138331D02*
X4136348Y-16128807D01*
X4136348Y-16128807D02*
X4126824Y-16109760D01*
X4126824Y-16109760D02*
X4126824Y-15938331D01*
X4260158Y-16138331D02*
X4241110Y-16128807D01*
X4241110Y-16128807D02*
X4231586Y-16109760D01*
X4231586Y-16109760D02*
X4231586Y-15938331D01*
X4488729Y-16138331D02*
X4488729Y-15938331D01*
X4488729Y-15938331D02*
X4555396Y-16081188D01*
X4555396Y-16081188D02*
X4622063Y-15938331D01*
X4622063Y-15938331D02*
X4622063Y-16138331D01*
X4803015Y-16138331D02*
X4803015Y-16033569D01*
X4803015Y-16033569D02*
X4793491Y-16014521D01*
X4793491Y-16014521D02*
X4774444Y-16004998D01*
X4774444Y-16004998D02*
X4736348Y-16004998D01*
X4736348Y-16004998D02*
X4717301Y-16014521D01*
X4803015Y-16128807D02*
X4783967Y-16138331D01*
X4783967Y-16138331D02*
X4736348Y-16138331D01*
X4736348Y-16138331D02*
X4717301Y-16128807D01*
X4717301Y-16128807D02*
X4707777Y-16109760D01*
X4707777Y-16109760D02*
X4707777Y-16090712D01*
X4707777Y-16090712D02*
X4717301Y-16071664D01*
X4717301Y-16071664D02*
X4736348Y-16062141D01*
X4736348Y-16062141D02*
X4783967Y-16062141D01*
X4783967Y-16062141D02*
X4803015Y-16052617D01*
X4898253Y-16004998D02*
X4898253Y-16204998D01*
X4898253Y-16014521D02*
X4917301Y-16004998D01*
X4917301Y-16004998D02*
X4955396Y-16004998D01*
X4955396Y-16004998D02*
X4974444Y-16014521D01*
X4974444Y-16014521D02*
X4983967Y-16024045D01*
X4983967Y-16024045D02*
X4993491Y-16043093D01*
X4993491Y-16043093D02*
X4993491Y-16100236D01*
X4993491Y-16100236D02*
X4983967Y-16119283D01*
X4983967Y-16119283D02*
X4974444Y-16128807D01*
X4974444Y-16128807D02*
X4955396Y-16138331D01*
X4955396Y-16138331D02*
X4917301Y-16138331D01*
X4917301Y-16138331D02*
X4898253Y-16128807D01*
X5079205Y-16119283D02*
X5088729Y-16128807D01*
X5088729Y-16128807D02*
X5079205Y-16138331D01*
X5079205Y-16138331D02*
X5069682Y-16128807D01*
X5069682Y-16128807D02*
X5079205Y-16119283D01*
X5079205Y-16119283D02*
X5079205Y-16138331D01*
X5079205Y-16014521D02*
X5088729Y-16024045D01*
X5088729Y-16024045D02*
X5079205Y-16033569D01*
X5079205Y-16033569D02*
X5069682Y-16024045D01*
X5069682Y-16024045D02*
X5079205Y-16014521D01*
X5079205Y-16014521D02*
X5079205Y-16033569D01*
M02*
