%TF.GenerationSoftware,KiCad,Pcbnew,7.0.5*%
%TF.CreationDate,2024-03-22T16:24:41+08:00*%
%TF.ProjectId,wheel,77686565-6c2e-46b6-9963-61645f706362,rev?*%
%TF.SameCoordinates,Original*%
%TF.FileFunction,Copper,L2,Bot*%
%TF.FilePolarity,Positive*%
%FSLAX46Y46*%
G04 Gerber Fmt 4.6, Leading zero omitted, Abs format (unit mm)*
G04 Created by KiCad (PCBNEW 7.0.5) date 2024-03-22 16:24:41*
%MOMM*%
%LPD*%
G01*
G04 APERTURE LIST*
%TA.AperFunction,WasherPad*%
%ADD10C,3.800000*%
%TD*%
G04 APERTURE END LIST*
D10*
%TO.P,RE1,*%
%TO.N,*%
X170395000Y-98070000D03*
X170395000Y-87720000D03*
%TD*%
%TA.AperFunction,NonConductor*%
G36*
X179721867Y-75845613D02*
G01*
X179728349Y-75846005D01*
X179818958Y-75851485D01*
X179988683Y-75862610D01*
X179995780Y-75863490D01*
X180119257Y-75886118D01*
X180260854Y-75914284D01*
X180267142Y-75915884D01*
X180391388Y-75954601D01*
X180392735Y-75955039D01*
X180524294Y-75999698D01*
X180529813Y-76001871D01*
X180545164Y-76008779D01*
X180650305Y-76056099D01*
X180652132Y-76056960D01*
X180774955Y-76117530D01*
X180779602Y-76120074D01*
X180893450Y-76188898D01*
X180895805Y-76190395D01*
X180957015Y-76231295D01*
X181008818Y-76265909D01*
X181012606Y-76268651D01*
X181117710Y-76350995D01*
X181120353Y-76353187D01*
X181222227Y-76442528D01*
X181225189Y-76445302D01*
X181319696Y-76539809D01*
X181322470Y-76542771D01*
X181411811Y-76644645D01*
X181414003Y-76647288D01*
X181496343Y-76752387D01*
X181499089Y-76756180D01*
X181574593Y-76869178D01*
X181576100Y-76871548D01*
X181644921Y-76985391D01*
X181647470Y-76990047D01*
X181682056Y-77060179D01*
X181708015Y-77112818D01*
X181708923Y-77114745D01*
X181720396Y-77140236D01*
X181763127Y-77235185D01*
X181765300Y-77240704D01*
X181809937Y-77372198D01*
X181810420Y-77373682D01*
X181849107Y-77497831D01*
X181850722Y-77504177D01*
X181878885Y-77645767D01*
X181901507Y-77769214D01*
X181902391Y-77776340D01*
X181913504Y-77945896D01*
X181919387Y-78043131D01*
X181919500Y-78046877D01*
X181919500Y-102693122D01*
X181919387Y-102696868D01*
X181913504Y-102794102D01*
X181902391Y-102963658D01*
X181901507Y-102970784D01*
X181878885Y-103094231D01*
X181850722Y-103235821D01*
X181849105Y-103242176D01*
X181810420Y-103366316D01*
X181809937Y-103367800D01*
X181765300Y-103499294D01*
X181763127Y-103504813D01*
X181708935Y-103625228D01*
X181708003Y-103627205D01*
X181647470Y-103749951D01*
X181644921Y-103754607D01*
X181576100Y-103868450D01*
X181574593Y-103870820D01*
X181499089Y-103983818D01*
X181496343Y-103987611D01*
X181414003Y-104092710D01*
X181411811Y-104095353D01*
X181322470Y-104197227D01*
X181319696Y-104200189D01*
X181225189Y-104294696D01*
X181222227Y-104297470D01*
X181120353Y-104386811D01*
X181117710Y-104389003D01*
X181012611Y-104471343D01*
X181008818Y-104474089D01*
X180895820Y-104549593D01*
X180893450Y-104551100D01*
X180779607Y-104619921D01*
X180774951Y-104622470D01*
X180652205Y-104683003D01*
X180650228Y-104683935D01*
X180529813Y-104738127D01*
X180524294Y-104740300D01*
X180392800Y-104784937D01*
X180391316Y-104785420D01*
X180267176Y-104824105D01*
X180260821Y-104825722D01*
X180119231Y-104853885D01*
X179995784Y-104876507D01*
X179988658Y-104877391D01*
X179819102Y-104888504D01*
X179721868Y-104894387D01*
X179718122Y-104894500D01*
X169571878Y-104894500D01*
X169568133Y-104894387D01*
X169470896Y-104888504D01*
X169301340Y-104877391D01*
X169294214Y-104876507D01*
X169170767Y-104853885D01*
X169063618Y-104832572D01*
X169029172Y-104825720D01*
X169022831Y-104824107D01*
X168944516Y-104799703D01*
X168898682Y-104785420D01*
X168897198Y-104784937D01*
X168765704Y-104740300D01*
X168760185Y-104738127D01*
X168673604Y-104699161D01*
X168639745Y-104683923D01*
X168637818Y-104683015D01*
X168585179Y-104657056D01*
X168515047Y-104622470D01*
X168510391Y-104619921D01*
X168396548Y-104551100D01*
X168394178Y-104549593D01*
X168281180Y-104474089D01*
X168277387Y-104471343D01*
X168172288Y-104389003D01*
X168169645Y-104386811D01*
X168067771Y-104297470D01*
X168064809Y-104294696D01*
X167970302Y-104200189D01*
X167967528Y-104197227D01*
X167878187Y-104095353D01*
X167875995Y-104092710D01*
X167793655Y-103987611D01*
X167790909Y-103983818D01*
X167715405Y-103870820D01*
X167713898Y-103868450D01*
X167645077Y-103754607D01*
X167642528Y-103749951D01*
X167581960Y-103627132D01*
X167581099Y-103625305D01*
X167526871Y-103504813D01*
X167524698Y-103499294D01*
X167480039Y-103367735D01*
X167479601Y-103366388D01*
X167440884Y-103242142D01*
X167439284Y-103235854D01*
X167411113Y-103094231D01*
X167388490Y-102970780D01*
X167387610Y-102963683D01*
X167376485Y-102793958D01*
X167370613Y-102696866D01*
X167370500Y-102693123D01*
X167370500Y-98070000D01*
X168089564Y-98070000D01*
X168109287Y-98370918D01*
X168109288Y-98370930D01*
X168168118Y-98666683D01*
X168168122Y-98666698D01*
X168265053Y-98952247D01*
X168265062Y-98952268D01*
X168398431Y-99222713D01*
X168398435Y-99222720D01*
X168565973Y-99473459D01*
X168764810Y-99700189D01*
X168991540Y-99899026D01*
X169242279Y-100066564D01*
X169242286Y-100066568D01*
X169512731Y-100199937D01*
X169512736Y-100199939D01*
X169512748Y-100199945D01*
X169798309Y-100296880D01*
X169998251Y-100336651D01*
X170094069Y-100355711D01*
X170094070Y-100355711D01*
X170094080Y-100355713D01*
X170395000Y-100375436D01*
X170695920Y-100355713D01*
X170991691Y-100296880D01*
X171277252Y-100199945D01*
X171547718Y-100066566D01*
X171798461Y-99899025D01*
X172025189Y-99700189D01*
X172224025Y-99473461D01*
X172391566Y-99222718D01*
X172524945Y-98952252D01*
X172621880Y-98666691D01*
X172680713Y-98370920D01*
X172700436Y-98070000D01*
X172680713Y-97769080D01*
X172621880Y-97473309D01*
X172524945Y-97187748D01*
X172391566Y-96917282D01*
X172224025Y-96666539D01*
X172025189Y-96439810D01*
X171798459Y-96240973D01*
X171547720Y-96073435D01*
X171547713Y-96073431D01*
X171277268Y-95940062D01*
X171277247Y-95940053D01*
X170991698Y-95843122D01*
X170991692Y-95843120D01*
X170991691Y-95843120D01*
X170991689Y-95843119D01*
X170991683Y-95843118D01*
X170695930Y-95784288D01*
X170695921Y-95784287D01*
X170695920Y-95784287D01*
X170395000Y-95764564D01*
X170094080Y-95784287D01*
X170094079Y-95784287D01*
X170094069Y-95784288D01*
X169798316Y-95843118D01*
X169798301Y-95843122D01*
X169512752Y-95940053D01*
X169512731Y-95940062D01*
X169242286Y-96073431D01*
X169242279Y-96073435D01*
X168991540Y-96240973D01*
X168764810Y-96439810D01*
X168565973Y-96666540D01*
X168398435Y-96917279D01*
X168398431Y-96917286D01*
X168265062Y-97187731D01*
X168265053Y-97187752D01*
X168168122Y-97473301D01*
X168168118Y-97473316D01*
X168109288Y-97769069D01*
X168109287Y-97769081D01*
X168089564Y-98070000D01*
X167370500Y-98070000D01*
X167370500Y-87719999D01*
X168089564Y-87719999D01*
X168109287Y-88020918D01*
X168109288Y-88020930D01*
X168168118Y-88316683D01*
X168168122Y-88316698D01*
X168265053Y-88602247D01*
X168265062Y-88602268D01*
X168398431Y-88872713D01*
X168398435Y-88872720D01*
X168565973Y-89123459D01*
X168764810Y-89350189D01*
X168991540Y-89549026D01*
X169242279Y-89716564D01*
X169242286Y-89716568D01*
X169512731Y-89849937D01*
X169512736Y-89849939D01*
X169512748Y-89849945D01*
X169798309Y-89946880D01*
X169998251Y-89986651D01*
X170094069Y-90005711D01*
X170094070Y-90005711D01*
X170094080Y-90005713D01*
X170395000Y-90025436D01*
X170695920Y-90005713D01*
X170991691Y-89946880D01*
X171277252Y-89849945D01*
X171547718Y-89716566D01*
X171798461Y-89549025D01*
X172025189Y-89350189D01*
X172224025Y-89123461D01*
X172391566Y-88872718D01*
X172524945Y-88602252D01*
X172621880Y-88316691D01*
X172680713Y-88020920D01*
X172700436Y-87720000D01*
X172680713Y-87419080D01*
X172621880Y-87123309D01*
X172524945Y-86837748D01*
X172391566Y-86567282D01*
X172224025Y-86316539D01*
X172025189Y-86089810D01*
X171798459Y-85890973D01*
X171547720Y-85723435D01*
X171547713Y-85723431D01*
X171277268Y-85590062D01*
X171277247Y-85590053D01*
X170991698Y-85493122D01*
X170991692Y-85493120D01*
X170991691Y-85493120D01*
X170991689Y-85493119D01*
X170991683Y-85493118D01*
X170695930Y-85434288D01*
X170695921Y-85434287D01*
X170695920Y-85434287D01*
X170395000Y-85414564D01*
X170094080Y-85434287D01*
X170094079Y-85434287D01*
X170094069Y-85434288D01*
X169798316Y-85493118D01*
X169798301Y-85493122D01*
X169512752Y-85590053D01*
X169512731Y-85590062D01*
X169242286Y-85723431D01*
X169242279Y-85723435D01*
X168991540Y-85890973D01*
X168764810Y-86089810D01*
X168565973Y-86316540D01*
X168398435Y-86567279D01*
X168398431Y-86567286D01*
X168265062Y-86837731D01*
X168265053Y-86837752D01*
X168168122Y-87123301D01*
X168168118Y-87123316D01*
X168109288Y-87419069D01*
X168109287Y-87419081D01*
X168089564Y-87719999D01*
X167370500Y-87719999D01*
X167370500Y-81962095D01*
X167375073Y-81946520D01*
X167370799Y-81903120D01*
X167370500Y-81897040D01*
X167370500Y-81807472D01*
X167370500Y-81807468D01*
X167359371Y-81744352D01*
X167360687Y-81732552D01*
X167353657Y-81709379D01*
X167351928Y-81702140D01*
X167351926Y-81702131D01*
X167340101Y-81635062D01*
X167311836Y-81557407D01*
X167311007Y-81544359D01*
X167302874Y-81529143D01*
X167295709Y-81513098D01*
X167295707Y-81513092D01*
X167280225Y-81470555D01*
X167280222Y-81470550D01*
X167280221Y-81470547D01*
X167231421Y-81386025D01*
X167227942Y-81371688D01*
X167218206Y-81359824D01*
X167206675Y-81343163D01*
X167192692Y-81318945D01*
X167189586Y-81314509D01*
X167189961Y-81314245D01*
X167180627Y-81300438D01*
X167178745Y-81296918D01*
X167160297Y-81280337D01*
X167121085Y-81233606D01*
X167114513Y-81218590D01*
X167104070Y-81210020D01*
X167087744Y-81193872D01*
X167080163Y-81184837D01*
X167071125Y-81177253D01*
X167054977Y-81160928D01*
X167050853Y-81155903D01*
X167031393Y-81143914D01*
X166984661Y-81104702D01*
X166974762Y-81089824D01*
X166964560Y-81084371D01*
X166950754Y-81075038D01*
X166950491Y-81075414D01*
X166946057Y-81072310D01*
X166946055Y-81072308D01*
X166934174Y-81065448D01*
X166921838Y-81058326D01*
X166905173Y-81046792D01*
X166898232Y-81041096D01*
X166878974Y-81033578D01*
X166794449Y-80984777D01*
X166794448Y-80984776D01*
X166786230Y-80981785D01*
X166751900Y-80969289D01*
X166735862Y-80962128D01*
X166725669Y-80956679D01*
X166707592Y-80953162D01*
X166629940Y-80924899D01*
X166562866Y-80913072D01*
X166555629Y-80911343D01*
X166537463Y-80905832D01*
X166520646Y-80905628D01*
X166457536Y-80894500D01*
X166457532Y-80894500D01*
X166370099Y-80894500D01*
X166367968Y-80894500D01*
X166361888Y-80894201D01*
X166325701Y-80890637D01*
X166302903Y-80894500D01*
X159437096Y-80894500D01*
X159421519Y-80889926D01*
X159378111Y-80894201D01*
X159372031Y-80894500D01*
X159282463Y-80894500D01*
X159219352Y-80905628D01*
X159207550Y-80904311D01*
X159184368Y-80911344D01*
X159177131Y-80913073D01*
X159110062Y-80924898D01*
X159032407Y-80953163D01*
X159019355Y-80953992D01*
X159004133Y-80962129D01*
X158988092Y-80969292D01*
X158945558Y-80984773D01*
X158945550Y-80984777D01*
X158861024Y-81033579D01*
X158846686Y-81037057D01*
X158834818Y-81046797D01*
X158818158Y-81058327D01*
X158793949Y-81072304D01*
X158789509Y-81075414D01*
X158789246Y-81075039D01*
X158775444Y-81084368D01*
X158771918Y-81086252D01*
X158755339Y-81104700D01*
X158708606Y-81143914D01*
X158693590Y-81150485D01*
X158685017Y-81160932D01*
X158668874Y-81177253D01*
X158659836Y-81184836D01*
X158652253Y-81193874D01*
X158635932Y-81210017D01*
X158630904Y-81214143D01*
X158618914Y-81233606D01*
X158579700Y-81280339D01*
X158564824Y-81290235D01*
X158559368Y-81300444D01*
X158550039Y-81314246D01*
X158550414Y-81314509D01*
X158547304Y-81318949D01*
X158533327Y-81343158D01*
X158521797Y-81359818D01*
X158516096Y-81366763D01*
X158508579Y-81386024D01*
X158459777Y-81470550D01*
X158459773Y-81470558D01*
X158444292Y-81513092D01*
X158437129Y-81529133D01*
X158431678Y-81539329D01*
X158428163Y-81557407D01*
X158399898Y-81635062D01*
X158388073Y-81702131D01*
X158386344Y-81709368D01*
X158380831Y-81727541D01*
X158380628Y-81744352D01*
X158369500Y-81807463D01*
X158369500Y-81897026D01*
X158369201Y-81903106D01*
X158365636Y-81939300D01*
X158369500Y-81962101D01*
X158369500Y-102693122D01*
X158369387Y-102696868D01*
X158363504Y-102794102D01*
X158352391Y-102963658D01*
X158351507Y-102970784D01*
X158328885Y-103094231D01*
X158300722Y-103235821D01*
X158299105Y-103242176D01*
X158260420Y-103366316D01*
X158259937Y-103367800D01*
X158215300Y-103499294D01*
X158213127Y-103504813D01*
X158158935Y-103625228D01*
X158158003Y-103627205D01*
X158097470Y-103749951D01*
X158094921Y-103754607D01*
X158026100Y-103868450D01*
X158024593Y-103870820D01*
X157949089Y-103983818D01*
X157946343Y-103987611D01*
X157864003Y-104092710D01*
X157861811Y-104095353D01*
X157772470Y-104197227D01*
X157769696Y-104200189D01*
X157675189Y-104294696D01*
X157672227Y-104297470D01*
X157570353Y-104386811D01*
X157567710Y-104389003D01*
X157462611Y-104471343D01*
X157458818Y-104474089D01*
X157345820Y-104549593D01*
X157343450Y-104551100D01*
X157229607Y-104619921D01*
X157224951Y-104622470D01*
X157102205Y-104683003D01*
X157100228Y-104683935D01*
X156979813Y-104738127D01*
X156974294Y-104740300D01*
X156842800Y-104784937D01*
X156841316Y-104785420D01*
X156717176Y-104824105D01*
X156710821Y-104825722D01*
X156569231Y-104853885D01*
X156445784Y-104876507D01*
X156438658Y-104877391D01*
X156269102Y-104888504D01*
X156171868Y-104894387D01*
X156168122Y-104894500D01*
X151021878Y-104894500D01*
X151018133Y-104894387D01*
X150920896Y-104888504D01*
X150751340Y-104877391D01*
X150744214Y-104876507D01*
X150620767Y-104853885D01*
X150513618Y-104832572D01*
X150479172Y-104825720D01*
X150472831Y-104824107D01*
X150394516Y-104799703D01*
X150348682Y-104785420D01*
X150347198Y-104784937D01*
X150215704Y-104740300D01*
X150210185Y-104738127D01*
X150123604Y-104699161D01*
X150089745Y-104683923D01*
X150087818Y-104683015D01*
X150035179Y-104657056D01*
X149965047Y-104622470D01*
X149960391Y-104619921D01*
X149846548Y-104551100D01*
X149844178Y-104549593D01*
X149731180Y-104474089D01*
X149727387Y-104471343D01*
X149622288Y-104389003D01*
X149619645Y-104386811D01*
X149517771Y-104297470D01*
X149514809Y-104294696D01*
X149420302Y-104200189D01*
X149417528Y-104197227D01*
X149328187Y-104095353D01*
X149325995Y-104092710D01*
X149243655Y-103987611D01*
X149240909Y-103983818D01*
X149165405Y-103870820D01*
X149163898Y-103868450D01*
X149095077Y-103754607D01*
X149092528Y-103749951D01*
X149031960Y-103627132D01*
X149031099Y-103625305D01*
X148976871Y-103504813D01*
X148974698Y-103499294D01*
X148930039Y-103367735D01*
X148929601Y-103366388D01*
X148890884Y-103242142D01*
X148889284Y-103235854D01*
X148861113Y-103094231D01*
X148838490Y-102970780D01*
X148837610Y-102963683D01*
X148826485Y-102793958D01*
X148820613Y-102696866D01*
X148820500Y-102693123D01*
X148820500Y-78046876D01*
X148820613Y-78043133D01*
X148820855Y-78039126D01*
X148826495Y-77945896D01*
X148837610Y-77776312D01*
X148838489Y-77769223D01*
X148861113Y-77645766D01*
X148889286Y-77504136D01*
X148890881Y-77497866D01*
X148929615Y-77373566D01*
X148930024Y-77372311D01*
X148974703Y-77240689D01*
X148976866Y-77235196D01*
X149031119Y-77114649D01*
X149031939Y-77112910D01*
X149092540Y-76990023D01*
X149095062Y-76985416D01*
X149163927Y-76871501D01*
X149165369Y-76869234D01*
X149240921Y-76756163D01*
X149243632Y-76752417D01*
X149326027Y-76647248D01*
X149328160Y-76644677D01*
X149417549Y-76542748D01*
X149420272Y-76539840D01*
X149514840Y-76445272D01*
X149517748Y-76442549D01*
X149619677Y-76353160D01*
X149622248Y-76351027D01*
X149727417Y-76268632D01*
X149731163Y-76265921D01*
X149844234Y-76190369D01*
X149846501Y-76188927D01*
X149960416Y-76120062D01*
X149965023Y-76117540D01*
X150087910Y-76056939D01*
X150089649Y-76056119D01*
X150210196Y-76001866D01*
X150215689Y-75999703D01*
X150347311Y-75955024D01*
X150348566Y-75954615D01*
X150472866Y-75915881D01*
X150479136Y-75914286D01*
X150620766Y-75886113D01*
X150744223Y-75863489D01*
X150751312Y-75862610D01*
X150920944Y-75851491D01*
X151014126Y-75845855D01*
X151018133Y-75845613D01*
X151021876Y-75845500D01*
X179718124Y-75845500D01*
X179721867Y-75845613D01*
G37*
%TD.AperFunction*%
M02*
