%TF.GenerationSoftware,KiCad,Pcbnew,7.0.5*%
%TF.CreationDate,2024-03-22T16:24:40+08:00*%
%TF.ProjectId,wheel,77686565-6c2e-46b6-9963-61645f706362,rev?*%
%TF.SameCoordinates,Original*%
%TF.FileFunction,Drillmap*%
%TF.FilePolarity,Positive*%
%FSLAX45Y45*%
G04 Gerber Fmt 4.5, Leading zero omitted, Abs format (unit mm)*
G04 Created by KiCad (PCBNEW 7.0.5) date 2024-03-22 16:24:40*
%MOMM*%
%LPD*%
G01*
G04 APERTURE LIST*
%ADD10C,0.100000*%
%ADD11C,0.200000*%
G04 APERTURE END LIST*
D10*
X16957000Y-10489500D02*
X17972000Y-10489500D01*
X16737000Y-10269500D02*
G75*
G03*
X16957000Y-10489500I220000J0D01*
G01*
X15617000Y-10489500D02*
G75*
G03*
X15837000Y-10269500I0J220000D01*
G01*
X14882000Y-10269500D02*
G75*
G03*
X15102000Y-10489500I220000J0D01*
G01*
X17972000Y-10489500D02*
G75*
G03*
X18192000Y-10269500I0J220000D01*
G01*
X15102000Y-7584500D02*
X17972000Y-7584500D01*
X14882000Y-7804500D02*
X14882000Y-10269500D01*
X15102000Y-7584500D02*
G75*
G03*
X14882000Y-7804500I0J-220000D01*
G01*
X18192000Y-7804500D02*
X18192000Y-10269500D01*
X15102000Y-10489500D02*
X15617000Y-10489500D01*
X18192000Y-7804500D02*
G75*
G03*
X17972000Y-7584500I-220000J0D01*
G01*
D11*
X15137777Y-10805984D02*
X15137777Y-10605984D01*
X15137777Y-10605984D02*
X15185396Y-10605984D01*
X15185396Y-10605984D02*
X15213967Y-10615508D01*
X15213967Y-10615508D02*
X15233015Y-10634555D01*
X15233015Y-10634555D02*
X15242539Y-10653603D01*
X15242539Y-10653603D02*
X15252062Y-10691698D01*
X15252062Y-10691698D02*
X15252062Y-10720270D01*
X15252062Y-10720270D02*
X15242539Y-10758365D01*
X15242539Y-10758365D02*
X15233015Y-10777412D01*
X15233015Y-10777412D02*
X15213967Y-10796460D01*
X15213967Y-10796460D02*
X15185396Y-10805984D01*
X15185396Y-10805984D02*
X15137777Y-10805984D01*
X15337777Y-10805984D02*
X15337777Y-10672650D01*
X15337777Y-10710746D02*
X15347301Y-10691698D01*
X15347301Y-10691698D02*
X15356824Y-10682174D01*
X15356824Y-10682174D02*
X15375872Y-10672650D01*
X15375872Y-10672650D02*
X15394920Y-10672650D01*
X15461586Y-10805984D02*
X15461586Y-10672650D01*
X15461586Y-10605984D02*
X15452062Y-10615508D01*
X15452062Y-10615508D02*
X15461586Y-10625031D01*
X15461586Y-10625031D02*
X15471110Y-10615508D01*
X15471110Y-10615508D02*
X15461586Y-10605984D01*
X15461586Y-10605984D02*
X15461586Y-10625031D01*
X15585396Y-10805984D02*
X15566348Y-10796460D01*
X15566348Y-10796460D02*
X15556824Y-10777412D01*
X15556824Y-10777412D02*
X15556824Y-10605984D01*
X15690158Y-10805984D02*
X15671110Y-10796460D01*
X15671110Y-10796460D02*
X15661586Y-10777412D01*
X15661586Y-10777412D02*
X15661586Y-10605984D01*
X15918729Y-10805984D02*
X15918729Y-10605984D01*
X15918729Y-10605984D02*
X15985396Y-10748841D01*
X15985396Y-10748841D02*
X16052062Y-10605984D01*
X16052062Y-10605984D02*
X16052062Y-10805984D01*
X16233015Y-10805984D02*
X16233015Y-10701222D01*
X16233015Y-10701222D02*
X16223491Y-10682174D01*
X16223491Y-10682174D02*
X16204443Y-10672650D01*
X16204443Y-10672650D02*
X16166348Y-10672650D01*
X16166348Y-10672650D02*
X16147301Y-10682174D01*
X16233015Y-10796460D02*
X16213967Y-10805984D01*
X16213967Y-10805984D02*
X16166348Y-10805984D01*
X16166348Y-10805984D02*
X16147301Y-10796460D01*
X16147301Y-10796460D02*
X16137777Y-10777412D01*
X16137777Y-10777412D02*
X16137777Y-10758365D01*
X16137777Y-10758365D02*
X16147301Y-10739317D01*
X16147301Y-10739317D02*
X16166348Y-10729793D01*
X16166348Y-10729793D02*
X16213967Y-10729793D01*
X16213967Y-10729793D02*
X16233015Y-10720270D01*
X16328253Y-10672650D02*
X16328253Y-10872650D01*
X16328253Y-10682174D02*
X16347301Y-10672650D01*
X16347301Y-10672650D02*
X16385396Y-10672650D01*
X16385396Y-10672650D02*
X16404443Y-10682174D01*
X16404443Y-10682174D02*
X16413967Y-10691698D01*
X16413967Y-10691698D02*
X16423491Y-10710746D01*
X16423491Y-10710746D02*
X16423491Y-10767889D01*
X16423491Y-10767889D02*
X16413967Y-10786936D01*
X16413967Y-10786936D02*
X16404443Y-10796460D01*
X16404443Y-10796460D02*
X16385396Y-10805984D01*
X16385396Y-10805984D02*
X16347301Y-10805984D01*
X16347301Y-10805984D02*
X16328253Y-10796460D01*
X16509205Y-10786936D02*
X16518729Y-10796460D01*
X16518729Y-10796460D02*
X16509205Y-10805984D01*
X16509205Y-10805984D02*
X16499682Y-10796460D01*
X16499682Y-10796460D02*
X16509205Y-10786936D01*
X16509205Y-10786936D02*
X16509205Y-10805984D01*
X16509205Y-10682174D02*
X16518729Y-10691698D01*
X16518729Y-10691698D02*
X16509205Y-10701222D01*
X16509205Y-10701222D02*
X16499682Y-10691698D01*
X16499682Y-10691698D02*
X16509205Y-10682174D01*
X16509205Y-10682174D02*
X16509205Y-10701222D01*
M02*
