%TF.GenerationSoftware,KiCad,Pcbnew,7.0.5*%
%TF.CreationDate,2024-03-22T16:24:40+08:00*%
%TF.ProjectId,wheel,77686565-6c2e-46b6-9963-61645f706362,rev?*%
%TF.SameCoordinates,Original*%
%TF.FileFunction,Drillmap*%
%TF.FilePolarity,Positive*%
%FSLAX45Y45*%
G04 Gerber Fmt 4.5, Leading zero omitted, Abs format (unit mm)*
G04 Created by KiCad (PCBNEW 7.0.5) date 2024-03-22 16:24:40*
%MOMM*%
%LPD*%
G01*
G04 APERTURE LIST*
%ADD10C,0.100000*%
%ADD11C,0.200000*%
%ADD12C,0.220000*%
G04 APERTURE END LIST*
D10*
X16957000Y-10489500D02*
X17972000Y-10489500D01*
X16737000Y-10269500D02*
G75*
G03*
X16957000Y-10489500I220000J0D01*
G01*
X15617000Y-10489500D02*
G75*
G03*
X15837000Y-10269500I0J220000D01*
G01*
X14882000Y-10269500D02*
G75*
G03*
X15102000Y-10489500I220000J0D01*
G01*
X17972000Y-10489500D02*
G75*
G03*
X18192000Y-10269500I0J220000D01*
G01*
X15102000Y-7584500D02*
X17972000Y-7584500D01*
X14882000Y-7804500D02*
X14882000Y-10269500D01*
X15102000Y-7584500D02*
G75*
G03*
X14882000Y-7804500I0J-220000D01*
G01*
X18192000Y-7804500D02*
X18192000Y-10269500D01*
X15102000Y-10489500D02*
X15617000Y-10489500D01*
X18192000Y-7804500D02*
G75*
G03*
X17972000Y-7584500I-220000J0D01*
G01*
D11*
D12*
X16929500Y-8662000D02*
X17149500Y-8882000D01*
X17149500Y-8662000D02*
X16929500Y-8882000D01*
X16929500Y-9697000D02*
X17149500Y-9917000D01*
X17149500Y-9697000D02*
X16929500Y-9917000D01*
D11*
X15137777Y-10805984D02*
X15137777Y-10605984D01*
X15137777Y-10605984D02*
X15185396Y-10605984D01*
X15185396Y-10605984D02*
X15213967Y-10615508D01*
X15213967Y-10615508D02*
X15233015Y-10634555D01*
X15233015Y-10634555D02*
X15242539Y-10653603D01*
X15242539Y-10653603D02*
X15252062Y-10691698D01*
X15252062Y-10691698D02*
X15252062Y-10720270D01*
X15252062Y-10720270D02*
X15242539Y-10758365D01*
X15242539Y-10758365D02*
X15233015Y-10777412D01*
X15233015Y-10777412D02*
X15213967Y-10796460D01*
X15213967Y-10796460D02*
X15185396Y-10805984D01*
X15185396Y-10805984D02*
X15137777Y-10805984D01*
X15337777Y-10805984D02*
X15337777Y-10672650D01*
X15337777Y-10710746D02*
X15347301Y-10691698D01*
X15347301Y-10691698D02*
X15356824Y-10682174D01*
X15356824Y-10682174D02*
X15375872Y-10672650D01*
X15375872Y-10672650D02*
X15394920Y-10672650D01*
X15461586Y-10805984D02*
X15461586Y-10672650D01*
X15461586Y-10605984D02*
X15452062Y-10615508D01*
X15452062Y-10615508D02*
X15461586Y-10625031D01*
X15461586Y-10625031D02*
X15471110Y-10615508D01*
X15471110Y-10615508D02*
X15461586Y-10605984D01*
X15461586Y-10605984D02*
X15461586Y-10625031D01*
X15585396Y-10805984D02*
X15566348Y-10796460D01*
X15566348Y-10796460D02*
X15556824Y-10777412D01*
X15556824Y-10777412D02*
X15556824Y-10605984D01*
X15690158Y-10805984D02*
X15671110Y-10796460D01*
X15671110Y-10796460D02*
X15661586Y-10777412D01*
X15661586Y-10777412D02*
X15661586Y-10605984D01*
X15918729Y-10805984D02*
X15918729Y-10605984D01*
X15918729Y-10605984D02*
X15985396Y-10748841D01*
X15985396Y-10748841D02*
X16052062Y-10605984D01*
X16052062Y-10605984D02*
X16052062Y-10805984D01*
X16233015Y-10805984D02*
X16233015Y-10701222D01*
X16233015Y-10701222D02*
X16223491Y-10682174D01*
X16223491Y-10682174D02*
X16204443Y-10672650D01*
X16204443Y-10672650D02*
X16166348Y-10672650D01*
X16166348Y-10672650D02*
X16147301Y-10682174D01*
X16233015Y-10796460D02*
X16213967Y-10805984D01*
X16213967Y-10805984D02*
X16166348Y-10805984D01*
X16166348Y-10805984D02*
X16147301Y-10796460D01*
X16147301Y-10796460D02*
X16137777Y-10777412D01*
X16137777Y-10777412D02*
X16137777Y-10758365D01*
X16137777Y-10758365D02*
X16147301Y-10739317D01*
X16147301Y-10739317D02*
X16166348Y-10729793D01*
X16166348Y-10729793D02*
X16213967Y-10729793D01*
X16213967Y-10729793D02*
X16233015Y-10720270D01*
X16328253Y-10672650D02*
X16328253Y-10872650D01*
X16328253Y-10682174D02*
X16347301Y-10672650D01*
X16347301Y-10672650D02*
X16385396Y-10672650D01*
X16385396Y-10672650D02*
X16404443Y-10682174D01*
X16404443Y-10682174D02*
X16413967Y-10691698D01*
X16413967Y-10691698D02*
X16423491Y-10710746D01*
X16423491Y-10710746D02*
X16423491Y-10767889D01*
X16423491Y-10767889D02*
X16413967Y-10786936D01*
X16413967Y-10786936D02*
X16404443Y-10796460D01*
X16404443Y-10796460D02*
X16385396Y-10805984D01*
X16385396Y-10805984D02*
X16347301Y-10805984D01*
X16347301Y-10805984D02*
X16328253Y-10796460D01*
X16509205Y-10786936D02*
X16518729Y-10796460D01*
X16518729Y-10796460D02*
X16509205Y-10805984D01*
X16509205Y-10805984D02*
X16499682Y-10796460D01*
X16499682Y-10796460D02*
X16509205Y-10786936D01*
X16509205Y-10786936D02*
X16509205Y-10805984D01*
X16509205Y-10682174D02*
X16518729Y-10691698D01*
X16518729Y-10691698D02*
X16509205Y-10701222D01*
X16509205Y-10701222D02*
X16499682Y-10691698D01*
X16499682Y-10691698D02*
X16509205Y-10682174D01*
X16509205Y-10682174D02*
X16509205Y-10701222D01*
X14677000Y-11034500D02*
X14877000Y-11234500D01*
X14877000Y-11034500D02*
X14677000Y-11234500D01*
X15128253Y-11045031D02*
X15137777Y-11035508D01*
X15137777Y-11035508D02*
X15156824Y-11025984D01*
X15156824Y-11025984D02*
X15204443Y-11025984D01*
X15204443Y-11025984D02*
X15223491Y-11035508D01*
X15223491Y-11035508D02*
X15233015Y-11045031D01*
X15233015Y-11045031D02*
X15242539Y-11064079D01*
X15242539Y-11064079D02*
X15242539Y-11083127D01*
X15242539Y-11083127D02*
X15233015Y-11111698D01*
X15233015Y-11111698D02*
X15118729Y-11225984D01*
X15118729Y-11225984D02*
X15242539Y-11225984D01*
X15328253Y-11206936D02*
X15337777Y-11216460D01*
X15337777Y-11216460D02*
X15328253Y-11225984D01*
X15328253Y-11225984D02*
X15318729Y-11216460D01*
X15318729Y-11216460D02*
X15328253Y-11206936D01*
X15328253Y-11206936D02*
X15328253Y-11225984D01*
X15413967Y-11045031D02*
X15423491Y-11035508D01*
X15423491Y-11035508D02*
X15442539Y-11025984D01*
X15442539Y-11025984D02*
X15490158Y-11025984D01*
X15490158Y-11025984D02*
X15509205Y-11035508D01*
X15509205Y-11035508D02*
X15518729Y-11045031D01*
X15518729Y-11045031D02*
X15528253Y-11064079D01*
X15528253Y-11064079D02*
X15528253Y-11083127D01*
X15528253Y-11083127D02*
X15518729Y-11111698D01*
X15518729Y-11111698D02*
X15404443Y-11225984D01*
X15404443Y-11225984D02*
X15528253Y-11225984D01*
X15652062Y-11025984D02*
X15671110Y-11025984D01*
X15671110Y-11025984D02*
X15690158Y-11035508D01*
X15690158Y-11035508D02*
X15699682Y-11045031D01*
X15699682Y-11045031D02*
X15709205Y-11064079D01*
X15709205Y-11064079D02*
X15718729Y-11102174D01*
X15718729Y-11102174D02*
X15718729Y-11149793D01*
X15718729Y-11149793D02*
X15709205Y-11187888D01*
X15709205Y-11187888D02*
X15699682Y-11206936D01*
X15699682Y-11206936D02*
X15690158Y-11216460D01*
X15690158Y-11216460D02*
X15671110Y-11225984D01*
X15671110Y-11225984D02*
X15652062Y-11225984D01*
X15652062Y-11225984D02*
X15633015Y-11216460D01*
X15633015Y-11216460D02*
X15623491Y-11206936D01*
X15623491Y-11206936D02*
X15613967Y-11187888D01*
X15613967Y-11187888D02*
X15604443Y-11149793D01*
X15604443Y-11149793D02*
X15604443Y-11102174D01*
X15604443Y-11102174D02*
X15613967Y-11064079D01*
X15613967Y-11064079D02*
X15623491Y-11045031D01*
X15623491Y-11045031D02*
X15633015Y-11035508D01*
X15633015Y-11035508D02*
X15652062Y-11025984D01*
X15842539Y-11025984D02*
X15861586Y-11025984D01*
X15861586Y-11025984D02*
X15880634Y-11035508D01*
X15880634Y-11035508D02*
X15890158Y-11045031D01*
X15890158Y-11045031D02*
X15899682Y-11064079D01*
X15899682Y-11064079D02*
X15909205Y-11102174D01*
X15909205Y-11102174D02*
X15909205Y-11149793D01*
X15909205Y-11149793D02*
X15899682Y-11187888D01*
X15899682Y-11187888D02*
X15890158Y-11206936D01*
X15890158Y-11206936D02*
X15880634Y-11216460D01*
X15880634Y-11216460D02*
X15861586Y-11225984D01*
X15861586Y-11225984D02*
X15842539Y-11225984D01*
X15842539Y-11225984D02*
X15823491Y-11216460D01*
X15823491Y-11216460D02*
X15813967Y-11206936D01*
X15813967Y-11206936D02*
X15804443Y-11187888D01*
X15804443Y-11187888D02*
X15794920Y-11149793D01*
X15794920Y-11149793D02*
X15794920Y-11102174D01*
X15794920Y-11102174D02*
X15804443Y-11064079D01*
X15804443Y-11064079D02*
X15813967Y-11045031D01*
X15813967Y-11045031D02*
X15823491Y-11035508D01*
X15823491Y-11035508D02*
X15842539Y-11025984D01*
X15994920Y-11225984D02*
X15994920Y-11092650D01*
X15994920Y-11111698D02*
X16004443Y-11102174D01*
X16004443Y-11102174D02*
X16023491Y-11092650D01*
X16023491Y-11092650D02*
X16052063Y-11092650D01*
X16052063Y-11092650D02*
X16071110Y-11102174D01*
X16071110Y-11102174D02*
X16080634Y-11121222D01*
X16080634Y-11121222D02*
X16080634Y-11225984D01*
X16080634Y-11121222D02*
X16090158Y-11102174D01*
X16090158Y-11102174D02*
X16109205Y-11092650D01*
X16109205Y-11092650D02*
X16137777Y-11092650D01*
X16137777Y-11092650D02*
X16156824Y-11102174D01*
X16156824Y-11102174D02*
X16166348Y-11121222D01*
X16166348Y-11121222D02*
X16166348Y-11225984D01*
X16261586Y-11225984D02*
X16261586Y-11092650D01*
X16261586Y-11111698D02*
X16271110Y-11102174D01*
X16271110Y-11102174D02*
X16290158Y-11092650D01*
X16290158Y-11092650D02*
X16318729Y-11092650D01*
X16318729Y-11092650D02*
X16337777Y-11102174D01*
X16337777Y-11102174D02*
X16347301Y-11121222D01*
X16347301Y-11121222D02*
X16347301Y-11225984D01*
X16347301Y-11121222D02*
X16356824Y-11102174D01*
X16356824Y-11102174D02*
X16375872Y-11092650D01*
X16375872Y-11092650D02*
X16404443Y-11092650D01*
X16404443Y-11092650D02*
X16423491Y-11102174D01*
X16423491Y-11102174D02*
X16433015Y-11121222D01*
X16433015Y-11121222D02*
X16433015Y-11225984D01*
X16823491Y-11016460D02*
X16652063Y-11273603D01*
X17080634Y-11025984D02*
X17099682Y-11025984D01*
X17099682Y-11025984D02*
X17118729Y-11035508D01*
X17118729Y-11035508D02*
X17128253Y-11045031D01*
X17128253Y-11045031D02*
X17137777Y-11064079D01*
X17137777Y-11064079D02*
X17147301Y-11102174D01*
X17147301Y-11102174D02*
X17147301Y-11149793D01*
X17147301Y-11149793D02*
X17137777Y-11187888D01*
X17137777Y-11187888D02*
X17128253Y-11206936D01*
X17128253Y-11206936D02*
X17118729Y-11216460D01*
X17118729Y-11216460D02*
X17099682Y-11225984D01*
X17099682Y-11225984D02*
X17080634Y-11225984D01*
X17080634Y-11225984D02*
X17061587Y-11216460D01*
X17061587Y-11216460D02*
X17052063Y-11206936D01*
X17052063Y-11206936D02*
X17042539Y-11187888D01*
X17042539Y-11187888D02*
X17033015Y-11149793D01*
X17033015Y-11149793D02*
X17033015Y-11102174D01*
X17033015Y-11102174D02*
X17042539Y-11064079D01*
X17042539Y-11064079D02*
X17052063Y-11045031D01*
X17052063Y-11045031D02*
X17061587Y-11035508D01*
X17061587Y-11035508D02*
X17080634Y-11025984D01*
X17233015Y-11206936D02*
X17242539Y-11216460D01*
X17242539Y-11216460D02*
X17233015Y-11225984D01*
X17233015Y-11225984D02*
X17223491Y-11216460D01*
X17223491Y-11216460D02*
X17233015Y-11206936D01*
X17233015Y-11206936D02*
X17233015Y-11225984D01*
X17366348Y-11025984D02*
X17385396Y-11025984D01*
X17385396Y-11025984D02*
X17404444Y-11035508D01*
X17404444Y-11035508D02*
X17413968Y-11045031D01*
X17413968Y-11045031D02*
X17423491Y-11064079D01*
X17423491Y-11064079D02*
X17433015Y-11102174D01*
X17433015Y-11102174D02*
X17433015Y-11149793D01*
X17433015Y-11149793D02*
X17423491Y-11187888D01*
X17423491Y-11187888D02*
X17413968Y-11206936D01*
X17413968Y-11206936D02*
X17404444Y-11216460D01*
X17404444Y-11216460D02*
X17385396Y-11225984D01*
X17385396Y-11225984D02*
X17366348Y-11225984D01*
X17366348Y-11225984D02*
X17347301Y-11216460D01*
X17347301Y-11216460D02*
X17337777Y-11206936D01*
X17337777Y-11206936D02*
X17328253Y-11187888D01*
X17328253Y-11187888D02*
X17318729Y-11149793D01*
X17318729Y-11149793D02*
X17318729Y-11102174D01*
X17318729Y-11102174D02*
X17328253Y-11064079D01*
X17328253Y-11064079D02*
X17337777Y-11045031D01*
X17337777Y-11045031D02*
X17347301Y-11035508D01*
X17347301Y-11035508D02*
X17366348Y-11025984D01*
X17547301Y-11111698D02*
X17528253Y-11102174D01*
X17528253Y-11102174D02*
X17518729Y-11092650D01*
X17518729Y-11092650D02*
X17509206Y-11073603D01*
X17509206Y-11073603D02*
X17509206Y-11064079D01*
X17509206Y-11064079D02*
X17518729Y-11045031D01*
X17518729Y-11045031D02*
X17528253Y-11035508D01*
X17528253Y-11035508D02*
X17547301Y-11025984D01*
X17547301Y-11025984D02*
X17585396Y-11025984D01*
X17585396Y-11025984D02*
X17604444Y-11035508D01*
X17604444Y-11035508D02*
X17613968Y-11045031D01*
X17613968Y-11045031D02*
X17623491Y-11064079D01*
X17623491Y-11064079D02*
X17623491Y-11073603D01*
X17623491Y-11073603D02*
X17613968Y-11092650D01*
X17613968Y-11092650D02*
X17604444Y-11102174D01*
X17604444Y-11102174D02*
X17585396Y-11111698D01*
X17585396Y-11111698D02*
X17547301Y-11111698D01*
X17547301Y-11111698D02*
X17528253Y-11121222D01*
X17528253Y-11121222D02*
X17518729Y-11130746D01*
X17518729Y-11130746D02*
X17509206Y-11149793D01*
X17509206Y-11149793D02*
X17509206Y-11187888D01*
X17509206Y-11187888D02*
X17518729Y-11206936D01*
X17518729Y-11206936D02*
X17528253Y-11216460D01*
X17528253Y-11216460D02*
X17547301Y-11225984D01*
X17547301Y-11225984D02*
X17585396Y-11225984D01*
X17585396Y-11225984D02*
X17604444Y-11216460D01*
X17604444Y-11216460D02*
X17613968Y-11206936D01*
X17613968Y-11206936D02*
X17623491Y-11187888D01*
X17623491Y-11187888D02*
X17623491Y-11149793D01*
X17623491Y-11149793D02*
X17613968Y-11130746D01*
X17613968Y-11130746D02*
X17604444Y-11121222D01*
X17604444Y-11121222D02*
X17585396Y-11111698D01*
X17794920Y-11025984D02*
X17756825Y-11025984D01*
X17756825Y-11025984D02*
X17737777Y-11035508D01*
X17737777Y-11035508D02*
X17728253Y-11045031D01*
X17728253Y-11045031D02*
X17709206Y-11073603D01*
X17709206Y-11073603D02*
X17699682Y-11111698D01*
X17699682Y-11111698D02*
X17699682Y-11187888D01*
X17699682Y-11187888D02*
X17709206Y-11206936D01*
X17709206Y-11206936D02*
X17718729Y-11216460D01*
X17718729Y-11216460D02*
X17737777Y-11225984D01*
X17737777Y-11225984D02*
X17775872Y-11225984D01*
X17775872Y-11225984D02*
X17794920Y-11216460D01*
X17794920Y-11216460D02*
X17804444Y-11206936D01*
X17804444Y-11206936D02*
X17813968Y-11187888D01*
X17813968Y-11187888D02*
X17813968Y-11140270D01*
X17813968Y-11140270D02*
X17804444Y-11121222D01*
X17804444Y-11121222D02*
X17794920Y-11111698D01*
X17794920Y-11111698D02*
X17775872Y-11102174D01*
X17775872Y-11102174D02*
X17737777Y-11102174D01*
X17737777Y-11102174D02*
X17718729Y-11111698D01*
X17718729Y-11111698D02*
X17709206Y-11121222D01*
X17709206Y-11121222D02*
X17699682Y-11140270D01*
X17985396Y-11025984D02*
X17947301Y-11025984D01*
X17947301Y-11025984D02*
X17928253Y-11035508D01*
X17928253Y-11035508D02*
X17918729Y-11045031D01*
X17918729Y-11045031D02*
X17899682Y-11073603D01*
X17899682Y-11073603D02*
X17890158Y-11111698D01*
X17890158Y-11111698D02*
X17890158Y-11187888D01*
X17890158Y-11187888D02*
X17899682Y-11206936D01*
X17899682Y-11206936D02*
X17909206Y-11216460D01*
X17909206Y-11216460D02*
X17928253Y-11225984D01*
X17928253Y-11225984D02*
X17966349Y-11225984D01*
X17966349Y-11225984D02*
X17985396Y-11216460D01*
X17985396Y-11216460D02*
X17994920Y-11206936D01*
X17994920Y-11206936D02*
X18004444Y-11187888D01*
X18004444Y-11187888D02*
X18004444Y-11140270D01*
X18004444Y-11140270D02*
X17994920Y-11121222D01*
X17994920Y-11121222D02*
X17985396Y-11111698D01*
X17985396Y-11111698D02*
X17966349Y-11102174D01*
X17966349Y-11102174D02*
X17928253Y-11102174D01*
X17928253Y-11102174D02*
X17909206Y-11111698D01*
X17909206Y-11111698D02*
X17899682Y-11121222D01*
X17899682Y-11121222D02*
X17890158Y-11140270D01*
X18080634Y-11025984D02*
X18080634Y-11064079D01*
X18156825Y-11025984D02*
X18156825Y-11064079D01*
X18452063Y-11302174D02*
X18442539Y-11292650D01*
X18442539Y-11292650D02*
X18423491Y-11264079D01*
X18423491Y-11264079D02*
X18413968Y-11245031D01*
X18413968Y-11245031D02*
X18404444Y-11216460D01*
X18404444Y-11216460D02*
X18394920Y-11168841D01*
X18394920Y-11168841D02*
X18394920Y-11130746D01*
X18394920Y-11130746D02*
X18404444Y-11083127D01*
X18404444Y-11083127D02*
X18413968Y-11054555D01*
X18413968Y-11054555D02*
X18423491Y-11035508D01*
X18423491Y-11035508D02*
X18442539Y-11006936D01*
X18442539Y-11006936D02*
X18452063Y-10997412D01*
X18518730Y-11045031D02*
X18528253Y-11035508D01*
X18528253Y-11035508D02*
X18547301Y-11025984D01*
X18547301Y-11025984D02*
X18594920Y-11025984D01*
X18594920Y-11025984D02*
X18613968Y-11035508D01*
X18613968Y-11035508D02*
X18623491Y-11045031D01*
X18623491Y-11045031D02*
X18633015Y-11064079D01*
X18633015Y-11064079D02*
X18633015Y-11083127D01*
X18633015Y-11083127D02*
X18623491Y-11111698D01*
X18623491Y-11111698D02*
X18509206Y-11225984D01*
X18509206Y-11225984D02*
X18633015Y-11225984D01*
X18871111Y-11225984D02*
X18871111Y-11025984D01*
X18956825Y-11225984D02*
X18956825Y-11121222D01*
X18956825Y-11121222D02*
X18947301Y-11102174D01*
X18947301Y-11102174D02*
X18928253Y-11092650D01*
X18928253Y-11092650D02*
X18899682Y-11092650D01*
X18899682Y-11092650D02*
X18880634Y-11102174D01*
X18880634Y-11102174D02*
X18871111Y-11111698D01*
X19080634Y-11225984D02*
X19061587Y-11216460D01*
X19061587Y-11216460D02*
X19052063Y-11206936D01*
X19052063Y-11206936D02*
X19042539Y-11187888D01*
X19042539Y-11187888D02*
X19042539Y-11130746D01*
X19042539Y-11130746D02*
X19052063Y-11111698D01*
X19052063Y-11111698D02*
X19061587Y-11102174D01*
X19061587Y-11102174D02*
X19080634Y-11092650D01*
X19080634Y-11092650D02*
X19109206Y-11092650D01*
X19109206Y-11092650D02*
X19128253Y-11102174D01*
X19128253Y-11102174D02*
X19137777Y-11111698D01*
X19137777Y-11111698D02*
X19147301Y-11130746D01*
X19147301Y-11130746D02*
X19147301Y-11187888D01*
X19147301Y-11187888D02*
X19137777Y-11206936D01*
X19137777Y-11206936D02*
X19128253Y-11216460D01*
X19128253Y-11216460D02*
X19109206Y-11225984D01*
X19109206Y-11225984D02*
X19080634Y-11225984D01*
X19261587Y-11225984D02*
X19242539Y-11216460D01*
X19242539Y-11216460D02*
X19233015Y-11197412D01*
X19233015Y-11197412D02*
X19233015Y-11025984D01*
X19413968Y-11216460D02*
X19394920Y-11225984D01*
X19394920Y-11225984D02*
X19356825Y-11225984D01*
X19356825Y-11225984D02*
X19337777Y-11216460D01*
X19337777Y-11216460D02*
X19328253Y-11197412D01*
X19328253Y-11197412D02*
X19328253Y-11121222D01*
X19328253Y-11121222D02*
X19337777Y-11102174D01*
X19337777Y-11102174D02*
X19356825Y-11092650D01*
X19356825Y-11092650D02*
X19394920Y-11092650D01*
X19394920Y-11092650D02*
X19413968Y-11102174D01*
X19413968Y-11102174D02*
X19423492Y-11121222D01*
X19423492Y-11121222D02*
X19423492Y-11140270D01*
X19423492Y-11140270D02*
X19328253Y-11159317D01*
X19499682Y-11216460D02*
X19518730Y-11225984D01*
X19518730Y-11225984D02*
X19556825Y-11225984D01*
X19556825Y-11225984D02*
X19575873Y-11216460D01*
X19575873Y-11216460D02*
X19585396Y-11197412D01*
X19585396Y-11197412D02*
X19585396Y-11187888D01*
X19585396Y-11187888D02*
X19575873Y-11168841D01*
X19575873Y-11168841D02*
X19556825Y-11159317D01*
X19556825Y-11159317D02*
X19528253Y-11159317D01*
X19528253Y-11159317D02*
X19509206Y-11149793D01*
X19509206Y-11149793D02*
X19499682Y-11130746D01*
X19499682Y-11130746D02*
X19499682Y-11121222D01*
X19499682Y-11121222D02*
X19509206Y-11102174D01*
X19509206Y-11102174D02*
X19528253Y-11092650D01*
X19528253Y-11092650D02*
X19556825Y-11092650D01*
X19556825Y-11092650D02*
X19575873Y-11102174D01*
X19652063Y-11302174D02*
X19661587Y-11292650D01*
X19661587Y-11292650D02*
X19680634Y-11264079D01*
X19680634Y-11264079D02*
X19690158Y-11245031D01*
X19690158Y-11245031D02*
X19699682Y-11216460D01*
X19699682Y-11216460D02*
X19709206Y-11168841D01*
X19709206Y-11168841D02*
X19709206Y-11130746D01*
X19709206Y-11130746D02*
X19699682Y-11083127D01*
X19699682Y-11083127D02*
X19690158Y-11054555D01*
X19690158Y-11054555D02*
X19680634Y-11035508D01*
X19680634Y-11035508D02*
X19661587Y-11006936D01*
X19661587Y-11006936D02*
X19652063Y-10997412D01*
X20013968Y-11302174D02*
X20004444Y-11292650D01*
X20004444Y-11292650D02*
X19985396Y-11264079D01*
X19985396Y-11264079D02*
X19975873Y-11245031D01*
X19975873Y-11245031D02*
X19966349Y-11216460D01*
X19966349Y-11216460D02*
X19956825Y-11168841D01*
X19956825Y-11168841D02*
X19956825Y-11130746D01*
X19956825Y-11130746D02*
X19966349Y-11083127D01*
X19966349Y-11083127D02*
X19975873Y-11054555D01*
X19975873Y-11054555D02*
X19985396Y-11035508D01*
X19985396Y-11035508D02*
X20004444Y-11006936D01*
X20004444Y-11006936D02*
X20013968Y-10997412D01*
X20090158Y-11092650D02*
X20090158Y-11225984D01*
X20090158Y-11111698D02*
X20099682Y-11102174D01*
X20099682Y-11102174D02*
X20118730Y-11092650D01*
X20118730Y-11092650D02*
X20147301Y-11092650D01*
X20147301Y-11092650D02*
X20166349Y-11102174D01*
X20166349Y-11102174D02*
X20175873Y-11121222D01*
X20175873Y-11121222D02*
X20175873Y-11225984D01*
X20299682Y-11225984D02*
X20280634Y-11216460D01*
X20280634Y-11216460D02*
X20271111Y-11206936D01*
X20271111Y-11206936D02*
X20261587Y-11187888D01*
X20261587Y-11187888D02*
X20261587Y-11130746D01*
X20261587Y-11130746D02*
X20271111Y-11111698D01*
X20271111Y-11111698D02*
X20280634Y-11102174D01*
X20280634Y-11102174D02*
X20299682Y-11092650D01*
X20299682Y-11092650D02*
X20328254Y-11092650D01*
X20328254Y-11092650D02*
X20347301Y-11102174D01*
X20347301Y-11102174D02*
X20356825Y-11111698D01*
X20356825Y-11111698D02*
X20366349Y-11130746D01*
X20366349Y-11130746D02*
X20366349Y-11187888D01*
X20366349Y-11187888D02*
X20356825Y-11206936D01*
X20356825Y-11206936D02*
X20347301Y-11216460D01*
X20347301Y-11216460D02*
X20328254Y-11225984D01*
X20328254Y-11225984D02*
X20299682Y-11225984D01*
X20423492Y-11092650D02*
X20499682Y-11092650D01*
X20452063Y-11025984D02*
X20452063Y-11197412D01*
X20452063Y-11197412D02*
X20461587Y-11216460D01*
X20461587Y-11216460D02*
X20480634Y-11225984D01*
X20480634Y-11225984D02*
X20499682Y-11225984D01*
X20718730Y-11092650D02*
X20718730Y-11292650D01*
X20718730Y-11102174D02*
X20737777Y-11092650D01*
X20737777Y-11092650D02*
X20775873Y-11092650D01*
X20775873Y-11092650D02*
X20794920Y-11102174D01*
X20794920Y-11102174D02*
X20804444Y-11111698D01*
X20804444Y-11111698D02*
X20813968Y-11130746D01*
X20813968Y-11130746D02*
X20813968Y-11187888D01*
X20813968Y-11187888D02*
X20804444Y-11206936D01*
X20804444Y-11206936D02*
X20794920Y-11216460D01*
X20794920Y-11216460D02*
X20775873Y-11225984D01*
X20775873Y-11225984D02*
X20737777Y-11225984D01*
X20737777Y-11225984D02*
X20718730Y-11216460D01*
X20928254Y-11225984D02*
X20909206Y-11216460D01*
X20909206Y-11216460D02*
X20899682Y-11197412D01*
X20899682Y-11197412D02*
X20899682Y-11025984D01*
X21090158Y-11225984D02*
X21090158Y-11121222D01*
X21090158Y-11121222D02*
X21080635Y-11102174D01*
X21080635Y-11102174D02*
X21061587Y-11092650D01*
X21061587Y-11092650D02*
X21023492Y-11092650D01*
X21023492Y-11092650D02*
X21004444Y-11102174D01*
X21090158Y-11216460D02*
X21071111Y-11225984D01*
X21071111Y-11225984D02*
X21023492Y-11225984D01*
X21023492Y-11225984D02*
X21004444Y-11216460D01*
X21004444Y-11216460D02*
X20994920Y-11197412D01*
X20994920Y-11197412D02*
X20994920Y-11178365D01*
X20994920Y-11178365D02*
X21004444Y-11159317D01*
X21004444Y-11159317D02*
X21023492Y-11149793D01*
X21023492Y-11149793D02*
X21071111Y-11149793D01*
X21071111Y-11149793D02*
X21090158Y-11140270D01*
X21156825Y-11092650D02*
X21233015Y-11092650D01*
X21185396Y-11025984D02*
X21185396Y-11197412D01*
X21185396Y-11197412D02*
X21194920Y-11216460D01*
X21194920Y-11216460D02*
X21213968Y-11225984D01*
X21213968Y-11225984D02*
X21233015Y-11225984D01*
X21375873Y-11216460D02*
X21356825Y-11225984D01*
X21356825Y-11225984D02*
X21318730Y-11225984D01*
X21318730Y-11225984D02*
X21299682Y-11216460D01*
X21299682Y-11216460D02*
X21290158Y-11197412D01*
X21290158Y-11197412D02*
X21290158Y-11121222D01*
X21290158Y-11121222D02*
X21299682Y-11102174D01*
X21299682Y-11102174D02*
X21318730Y-11092650D01*
X21318730Y-11092650D02*
X21356825Y-11092650D01*
X21356825Y-11092650D02*
X21375873Y-11102174D01*
X21375873Y-11102174D02*
X21385396Y-11121222D01*
X21385396Y-11121222D02*
X21385396Y-11140270D01*
X21385396Y-11140270D02*
X21290158Y-11159317D01*
X21556825Y-11225984D02*
X21556825Y-11025984D01*
X21556825Y-11216460D02*
X21537777Y-11225984D01*
X21537777Y-11225984D02*
X21499682Y-11225984D01*
X21499682Y-11225984D02*
X21480635Y-11216460D01*
X21480635Y-11216460D02*
X21471111Y-11206936D01*
X21471111Y-11206936D02*
X21461587Y-11187888D01*
X21461587Y-11187888D02*
X21461587Y-11130746D01*
X21461587Y-11130746D02*
X21471111Y-11111698D01*
X21471111Y-11111698D02*
X21480635Y-11102174D01*
X21480635Y-11102174D02*
X21499682Y-11092650D01*
X21499682Y-11092650D02*
X21537777Y-11092650D01*
X21537777Y-11092650D02*
X21556825Y-11102174D01*
X21633016Y-11302174D02*
X21642539Y-11292650D01*
X21642539Y-11292650D02*
X21661587Y-11264079D01*
X21661587Y-11264079D02*
X21671111Y-11245031D01*
X21671111Y-11245031D02*
X21680635Y-11216460D01*
X21680635Y-11216460D02*
X21690158Y-11168841D01*
X21690158Y-11168841D02*
X21690158Y-11130746D01*
X21690158Y-11130746D02*
X21680635Y-11083127D01*
X21680635Y-11083127D02*
X21671111Y-11054555D01*
X21671111Y-11054555D02*
X21661587Y-11035508D01*
X21661587Y-11035508D02*
X21642539Y-11006936D01*
X21642539Y-11006936D02*
X21633016Y-10997412D01*
M02*
