%TF.GenerationSoftware,KiCad,Pcbnew,7.0.5*%
%TF.CreationDate,2024-03-22T00:08:29+08:00*%
%TF.ProjectId,joy-con,6a6f792d-636f-46e2-9e6b-696361645f70,rev?*%
%TF.SameCoordinates,Original*%
%TF.FileFunction,Drillmap*%
%TF.FilePolarity,Positive*%
%FSLAX45Y45*%
G04 Gerber Fmt 4.5, Leading zero omitted, Abs format (unit mm)*
G04 Created by KiCad (PCBNEW 7.0.5) date 2024-03-22 00:08:29*
%MOMM*%
%LPD*%
G01*
G04 APERTURE LIST*
%ADD10C,0.200000*%
G04 APERTURE END LIST*
D10*
X6528746Y-7900345D02*
X6528746Y-7700345D01*
X6528746Y-7700345D02*
X6576365Y-7700345D01*
X6576365Y-7700345D02*
X6604937Y-7709869D01*
X6604937Y-7709869D02*
X6623984Y-7728916D01*
X6623984Y-7728916D02*
X6633508Y-7747964D01*
X6633508Y-7747964D02*
X6643032Y-7786059D01*
X6643032Y-7786059D02*
X6643032Y-7814631D01*
X6643032Y-7814631D02*
X6633508Y-7852726D01*
X6633508Y-7852726D02*
X6623984Y-7871773D01*
X6623984Y-7871773D02*
X6604937Y-7890821D01*
X6604937Y-7890821D02*
X6576365Y-7900345D01*
X6576365Y-7900345D02*
X6528746Y-7900345D01*
X6728746Y-7900345D02*
X6728746Y-7767011D01*
X6728746Y-7805107D02*
X6738270Y-7786059D01*
X6738270Y-7786059D02*
X6747794Y-7776535D01*
X6747794Y-7776535D02*
X6766842Y-7767011D01*
X6766842Y-7767011D02*
X6785889Y-7767011D01*
X6852556Y-7900345D02*
X6852556Y-7767011D01*
X6852556Y-7700345D02*
X6843032Y-7709869D01*
X6843032Y-7709869D02*
X6852556Y-7719392D01*
X6852556Y-7719392D02*
X6862080Y-7709869D01*
X6862080Y-7709869D02*
X6852556Y-7700345D01*
X6852556Y-7700345D02*
X6852556Y-7719392D01*
X6976365Y-7900345D02*
X6957318Y-7890821D01*
X6957318Y-7890821D02*
X6947794Y-7871773D01*
X6947794Y-7871773D02*
X6947794Y-7700345D01*
X7081127Y-7900345D02*
X7062080Y-7890821D01*
X7062080Y-7890821D02*
X7052556Y-7871773D01*
X7052556Y-7871773D02*
X7052556Y-7700345D01*
X7309699Y-7900345D02*
X7309699Y-7700345D01*
X7309699Y-7700345D02*
X7376365Y-7843202D01*
X7376365Y-7843202D02*
X7443032Y-7700345D01*
X7443032Y-7700345D02*
X7443032Y-7900345D01*
X7623984Y-7900345D02*
X7623984Y-7795583D01*
X7623984Y-7795583D02*
X7614461Y-7776535D01*
X7614461Y-7776535D02*
X7595413Y-7767011D01*
X7595413Y-7767011D02*
X7557318Y-7767011D01*
X7557318Y-7767011D02*
X7538270Y-7776535D01*
X7623984Y-7890821D02*
X7604937Y-7900345D01*
X7604937Y-7900345D02*
X7557318Y-7900345D01*
X7557318Y-7900345D02*
X7538270Y-7890821D01*
X7538270Y-7890821D02*
X7528746Y-7871773D01*
X7528746Y-7871773D02*
X7528746Y-7852726D01*
X7528746Y-7852726D02*
X7538270Y-7833678D01*
X7538270Y-7833678D02*
X7557318Y-7824154D01*
X7557318Y-7824154D02*
X7604937Y-7824154D01*
X7604937Y-7824154D02*
X7623984Y-7814631D01*
X7719223Y-7767011D02*
X7719223Y-7967011D01*
X7719223Y-7776535D02*
X7738270Y-7767011D01*
X7738270Y-7767011D02*
X7776365Y-7767011D01*
X7776365Y-7767011D02*
X7795413Y-7776535D01*
X7795413Y-7776535D02*
X7804937Y-7786059D01*
X7804937Y-7786059D02*
X7814461Y-7805107D01*
X7814461Y-7805107D02*
X7814461Y-7862250D01*
X7814461Y-7862250D02*
X7804937Y-7881297D01*
X7804937Y-7881297D02*
X7795413Y-7890821D01*
X7795413Y-7890821D02*
X7776365Y-7900345D01*
X7776365Y-7900345D02*
X7738270Y-7900345D01*
X7738270Y-7900345D02*
X7719223Y-7890821D01*
X7900175Y-7881297D02*
X7909699Y-7890821D01*
X7909699Y-7890821D02*
X7900175Y-7900345D01*
X7900175Y-7900345D02*
X7890651Y-7890821D01*
X7890651Y-7890821D02*
X7900175Y-7881297D01*
X7900175Y-7881297D02*
X7900175Y-7900345D01*
X7900175Y-7776535D02*
X7909699Y-7786059D01*
X7909699Y-7786059D02*
X7900175Y-7795583D01*
X7900175Y-7795583D02*
X7890651Y-7786059D01*
X7890651Y-7786059D02*
X7900175Y-7776535D01*
X7900175Y-7776535D02*
X7900175Y-7795583D01*
M02*
