%TF.GenerationSoftware,KiCad,Pcbnew,7.0.5*%
%TF.CreationDate,2024-03-22T00:08:29+08:00*%
%TF.ProjectId,joy-con,6a6f792d-636f-46e2-9e6b-696361645f70,rev?*%
%TF.SameCoordinates,Original*%
%TF.FileFunction,Drillmap*%
%TF.FilePolarity,Positive*%
%FSLAX45Y45*%
G04 Gerber Fmt 4.5, Leading zero omitted, Abs format (unit mm)*
G04 Created by KiCad (PCBNEW 7.0.5) date 2024-03-22 00:08:29*
%MOMM*%
%LPD*%
G01*
G04 APERTURE LIST*
%ADD10C,0.200000*%
%ADD11C,0.220000*%
G04 APERTURE END LIST*
D10*
D11*
X6410593Y-5789088D02*
X6630593Y-6009088D01*
X6630593Y-5789088D02*
X6410593Y-6009088D01*
X7847793Y-4351888D02*
X8067793Y-4571888D01*
X8067793Y-4351888D02*
X7847793Y-4571888D01*
X7847793Y-7226288D02*
X8067793Y-7446288D01*
X8067793Y-7226288D02*
X7847793Y-7446288D01*
D10*
X6528746Y-7900345D02*
X6528746Y-7700345D01*
X6528746Y-7700345D02*
X6576365Y-7700345D01*
X6576365Y-7700345D02*
X6604937Y-7709869D01*
X6604937Y-7709869D02*
X6623984Y-7728916D01*
X6623984Y-7728916D02*
X6633508Y-7747964D01*
X6633508Y-7747964D02*
X6643032Y-7786059D01*
X6643032Y-7786059D02*
X6643032Y-7814631D01*
X6643032Y-7814631D02*
X6633508Y-7852726D01*
X6633508Y-7852726D02*
X6623984Y-7871773D01*
X6623984Y-7871773D02*
X6604937Y-7890821D01*
X6604937Y-7890821D02*
X6576365Y-7900345D01*
X6576365Y-7900345D02*
X6528746Y-7900345D01*
X6728746Y-7900345D02*
X6728746Y-7767011D01*
X6728746Y-7805107D02*
X6738270Y-7786059D01*
X6738270Y-7786059D02*
X6747794Y-7776535D01*
X6747794Y-7776535D02*
X6766842Y-7767011D01*
X6766842Y-7767011D02*
X6785889Y-7767011D01*
X6852556Y-7900345D02*
X6852556Y-7767011D01*
X6852556Y-7700345D02*
X6843032Y-7709869D01*
X6843032Y-7709869D02*
X6852556Y-7719392D01*
X6852556Y-7719392D02*
X6862080Y-7709869D01*
X6862080Y-7709869D02*
X6852556Y-7700345D01*
X6852556Y-7700345D02*
X6852556Y-7719392D01*
X6976365Y-7900345D02*
X6957318Y-7890821D01*
X6957318Y-7890821D02*
X6947794Y-7871773D01*
X6947794Y-7871773D02*
X6947794Y-7700345D01*
X7081127Y-7900345D02*
X7062080Y-7890821D01*
X7062080Y-7890821D02*
X7052556Y-7871773D01*
X7052556Y-7871773D02*
X7052556Y-7700345D01*
X7309699Y-7900345D02*
X7309699Y-7700345D01*
X7309699Y-7700345D02*
X7376365Y-7843202D01*
X7376365Y-7843202D02*
X7443032Y-7700345D01*
X7443032Y-7700345D02*
X7443032Y-7900345D01*
X7623984Y-7900345D02*
X7623984Y-7795583D01*
X7623984Y-7795583D02*
X7614461Y-7776535D01*
X7614461Y-7776535D02*
X7595413Y-7767011D01*
X7595413Y-7767011D02*
X7557318Y-7767011D01*
X7557318Y-7767011D02*
X7538270Y-7776535D01*
X7623984Y-7890821D02*
X7604937Y-7900345D01*
X7604937Y-7900345D02*
X7557318Y-7900345D01*
X7557318Y-7900345D02*
X7538270Y-7890821D01*
X7538270Y-7890821D02*
X7528746Y-7871773D01*
X7528746Y-7871773D02*
X7528746Y-7852726D01*
X7528746Y-7852726D02*
X7538270Y-7833678D01*
X7538270Y-7833678D02*
X7557318Y-7824154D01*
X7557318Y-7824154D02*
X7604937Y-7824154D01*
X7604937Y-7824154D02*
X7623984Y-7814631D01*
X7719223Y-7767011D02*
X7719223Y-7967011D01*
X7719223Y-7776535D02*
X7738270Y-7767011D01*
X7738270Y-7767011D02*
X7776365Y-7767011D01*
X7776365Y-7767011D02*
X7795413Y-7776535D01*
X7795413Y-7776535D02*
X7804937Y-7786059D01*
X7804937Y-7786059D02*
X7814461Y-7805107D01*
X7814461Y-7805107D02*
X7814461Y-7862250D01*
X7814461Y-7862250D02*
X7804937Y-7881297D01*
X7804937Y-7881297D02*
X7795413Y-7890821D01*
X7795413Y-7890821D02*
X7776365Y-7900345D01*
X7776365Y-7900345D02*
X7738270Y-7900345D01*
X7738270Y-7900345D02*
X7719223Y-7890821D01*
X7900175Y-7881297D02*
X7909699Y-7890821D01*
X7909699Y-7890821D02*
X7900175Y-7900345D01*
X7900175Y-7900345D02*
X7890651Y-7890821D01*
X7890651Y-7890821D02*
X7900175Y-7881297D01*
X7900175Y-7881297D02*
X7900175Y-7900345D01*
X7900175Y-7776535D02*
X7909699Y-7786059D01*
X7909699Y-7786059D02*
X7900175Y-7795583D01*
X7900175Y-7795583D02*
X7890651Y-7786059D01*
X7890651Y-7786059D02*
X7900175Y-7776535D01*
X7900175Y-7776535D02*
X7900175Y-7795583D01*
X6067970Y-8128861D02*
X6267970Y-8328861D01*
X6267970Y-8128861D02*
X6067970Y-8328861D01*
X6519223Y-8139392D02*
X6528746Y-8129869D01*
X6528746Y-8129869D02*
X6547794Y-8120345D01*
X6547794Y-8120345D02*
X6595413Y-8120345D01*
X6595413Y-8120345D02*
X6614461Y-8129869D01*
X6614461Y-8129869D02*
X6623984Y-8139392D01*
X6623984Y-8139392D02*
X6633508Y-8158440D01*
X6633508Y-8158440D02*
X6633508Y-8177488D01*
X6633508Y-8177488D02*
X6623984Y-8206059D01*
X6623984Y-8206059D02*
X6509699Y-8320345D01*
X6509699Y-8320345D02*
X6633508Y-8320345D01*
X6719223Y-8301297D02*
X6728746Y-8310821D01*
X6728746Y-8310821D02*
X6719223Y-8320345D01*
X6719223Y-8320345D02*
X6709699Y-8310821D01*
X6709699Y-8310821D02*
X6719223Y-8301297D01*
X6719223Y-8301297D02*
X6719223Y-8320345D01*
X6804937Y-8139392D02*
X6814461Y-8129869D01*
X6814461Y-8129869D02*
X6833508Y-8120345D01*
X6833508Y-8120345D02*
X6881127Y-8120345D01*
X6881127Y-8120345D02*
X6900175Y-8129869D01*
X6900175Y-8129869D02*
X6909699Y-8139392D01*
X6909699Y-8139392D02*
X6919223Y-8158440D01*
X6919223Y-8158440D02*
X6919223Y-8177488D01*
X6919223Y-8177488D02*
X6909699Y-8206059D01*
X6909699Y-8206059D02*
X6795413Y-8320345D01*
X6795413Y-8320345D02*
X6919223Y-8320345D01*
X7043032Y-8120345D02*
X7062080Y-8120345D01*
X7062080Y-8120345D02*
X7081127Y-8129869D01*
X7081127Y-8129869D02*
X7090651Y-8139392D01*
X7090651Y-8139392D02*
X7100175Y-8158440D01*
X7100175Y-8158440D02*
X7109699Y-8196535D01*
X7109699Y-8196535D02*
X7109699Y-8244154D01*
X7109699Y-8244154D02*
X7100175Y-8282250D01*
X7100175Y-8282250D02*
X7090651Y-8301297D01*
X7090651Y-8301297D02*
X7081127Y-8310821D01*
X7081127Y-8310821D02*
X7062080Y-8320345D01*
X7062080Y-8320345D02*
X7043032Y-8320345D01*
X7043032Y-8320345D02*
X7023984Y-8310821D01*
X7023984Y-8310821D02*
X7014461Y-8301297D01*
X7014461Y-8301297D02*
X7004937Y-8282250D01*
X7004937Y-8282250D02*
X6995413Y-8244154D01*
X6995413Y-8244154D02*
X6995413Y-8196535D01*
X6995413Y-8196535D02*
X7004937Y-8158440D01*
X7004937Y-8158440D02*
X7014461Y-8139392D01*
X7014461Y-8139392D02*
X7023984Y-8129869D01*
X7023984Y-8129869D02*
X7043032Y-8120345D01*
X7233508Y-8120345D02*
X7252556Y-8120345D01*
X7252556Y-8120345D02*
X7271604Y-8129869D01*
X7271604Y-8129869D02*
X7281127Y-8139392D01*
X7281127Y-8139392D02*
X7290651Y-8158440D01*
X7290651Y-8158440D02*
X7300175Y-8196535D01*
X7300175Y-8196535D02*
X7300175Y-8244154D01*
X7300175Y-8244154D02*
X7290651Y-8282250D01*
X7290651Y-8282250D02*
X7281127Y-8301297D01*
X7281127Y-8301297D02*
X7271604Y-8310821D01*
X7271604Y-8310821D02*
X7252556Y-8320345D01*
X7252556Y-8320345D02*
X7233508Y-8320345D01*
X7233508Y-8320345D02*
X7214461Y-8310821D01*
X7214461Y-8310821D02*
X7204937Y-8301297D01*
X7204937Y-8301297D02*
X7195413Y-8282250D01*
X7195413Y-8282250D02*
X7185889Y-8244154D01*
X7185889Y-8244154D02*
X7185889Y-8196535D01*
X7185889Y-8196535D02*
X7195413Y-8158440D01*
X7195413Y-8158440D02*
X7204937Y-8139392D01*
X7204937Y-8139392D02*
X7214461Y-8129869D01*
X7214461Y-8129869D02*
X7233508Y-8120345D01*
X7385889Y-8320345D02*
X7385889Y-8187011D01*
X7385889Y-8206059D02*
X7395413Y-8196535D01*
X7395413Y-8196535D02*
X7414461Y-8187011D01*
X7414461Y-8187011D02*
X7443032Y-8187011D01*
X7443032Y-8187011D02*
X7462080Y-8196535D01*
X7462080Y-8196535D02*
X7471604Y-8215583D01*
X7471604Y-8215583D02*
X7471604Y-8320345D01*
X7471604Y-8215583D02*
X7481127Y-8196535D01*
X7481127Y-8196535D02*
X7500175Y-8187011D01*
X7500175Y-8187011D02*
X7528746Y-8187011D01*
X7528746Y-8187011D02*
X7547794Y-8196535D01*
X7547794Y-8196535D02*
X7557318Y-8215583D01*
X7557318Y-8215583D02*
X7557318Y-8320345D01*
X7652556Y-8320345D02*
X7652556Y-8187011D01*
X7652556Y-8206059D02*
X7662080Y-8196535D01*
X7662080Y-8196535D02*
X7681127Y-8187011D01*
X7681127Y-8187011D02*
X7709699Y-8187011D01*
X7709699Y-8187011D02*
X7728746Y-8196535D01*
X7728746Y-8196535D02*
X7738270Y-8215583D01*
X7738270Y-8215583D02*
X7738270Y-8320345D01*
X7738270Y-8215583D02*
X7747794Y-8196535D01*
X7747794Y-8196535D02*
X7766842Y-8187011D01*
X7766842Y-8187011D02*
X7795413Y-8187011D01*
X7795413Y-8187011D02*
X7814461Y-8196535D01*
X7814461Y-8196535D02*
X7823985Y-8215583D01*
X7823985Y-8215583D02*
X7823985Y-8320345D01*
X8214461Y-8110821D02*
X8043032Y-8367964D01*
X8471604Y-8120345D02*
X8490651Y-8120345D01*
X8490651Y-8120345D02*
X8509699Y-8129869D01*
X8509699Y-8129869D02*
X8519223Y-8139392D01*
X8519223Y-8139392D02*
X8528747Y-8158440D01*
X8528747Y-8158440D02*
X8538270Y-8196535D01*
X8538270Y-8196535D02*
X8538270Y-8244154D01*
X8538270Y-8244154D02*
X8528747Y-8282250D01*
X8528747Y-8282250D02*
X8519223Y-8301297D01*
X8519223Y-8301297D02*
X8509699Y-8310821D01*
X8509699Y-8310821D02*
X8490651Y-8320345D01*
X8490651Y-8320345D02*
X8471604Y-8320345D01*
X8471604Y-8320345D02*
X8452556Y-8310821D01*
X8452556Y-8310821D02*
X8443032Y-8301297D01*
X8443032Y-8301297D02*
X8433509Y-8282250D01*
X8433509Y-8282250D02*
X8423985Y-8244154D01*
X8423985Y-8244154D02*
X8423985Y-8196535D01*
X8423985Y-8196535D02*
X8433509Y-8158440D01*
X8433509Y-8158440D02*
X8443032Y-8139392D01*
X8443032Y-8139392D02*
X8452556Y-8129869D01*
X8452556Y-8129869D02*
X8471604Y-8120345D01*
X8623985Y-8301297D02*
X8633509Y-8310821D01*
X8633509Y-8310821D02*
X8623985Y-8320345D01*
X8623985Y-8320345D02*
X8614461Y-8310821D01*
X8614461Y-8310821D02*
X8623985Y-8301297D01*
X8623985Y-8301297D02*
X8623985Y-8320345D01*
X8757318Y-8120345D02*
X8776366Y-8120345D01*
X8776366Y-8120345D02*
X8795413Y-8129869D01*
X8795413Y-8129869D02*
X8804937Y-8139392D01*
X8804937Y-8139392D02*
X8814461Y-8158440D01*
X8814461Y-8158440D02*
X8823985Y-8196535D01*
X8823985Y-8196535D02*
X8823985Y-8244154D01*
X8823985Y-8244154D02*
X8814461Y-8282250D01*
X8814461Y-8282250D02*
X8804937Y-8301297D01*
X8804937Y-8301297D02*
X8795413Y-8310821D01*
X8795413Y-8310821D02*
X8776366Y-8320345D01*
X8776366Y-8320345D02*
X8757318Y-8320345D01*
X8757318Y-8320345D02*
X8738270Y-8310821D01*
X8738270Y-8310821D02*
X8728747Y-8301297D01*
X8728747Y-8301297D02*
X8719223Y-8282250D01*
X8719223Y-8282250D02*
X8709699Y-8244154D01*
X8709699Y-8244154D02*
X8709699Y-8196535D01*
X8709699Y-8196535D02*
X8719223Y-8158440D01*
X8719223Y-8158440D02*
X8728747Y-8139392D01*
X8728747Y-8139392D02*
X8738270Y-8129869D01*
X8738270Y-8129869D02*
X8757318Y-8120345D01*
X8938270Y-8206059D02*
X8919223Y-8196535D01*
X8919223Y-8196535D02*
X8909699Y-8187011D01*
X8909699Y-8187011D02*
X8900175Y-8167964D01*
X8900175Y-8167964D02*
X8900175Y-8158440D01*
X8900175Y-8158440D02*
X8909699Y-8139392D01*
X8909699Y-8139392D02*
X8919223Y-8129869D01*
X8919223Y-8129869D02*
X8938270Y-8120345D01*
X8938270Y-8120345D02*
X8976366Y-8120345D01*
X8976366Y-8120345D02*
X8995413Y-8129869D01*
X8995413Y-8129869D02*
X9004937Y-8139392D01*
X9004937Y-8139392D02*
X9014461Y-8158440D01*
X9014461Y-8158440D02*
X9014461Y-8167964D01*
X9014461Y-8167964D02*
X9004937Y-8187011D01*
X9004937Y-8187011D02*
X8995413Y-8196535D01*
X8995413Y-8196535D02*
X8976366Y-8206059D01*
X8976366Y-8206059D02*
X8938270Y-8206059D01*
X8938270Y-8206059D02*
X8919223Y-8215583D01*
X8919223Y-8215583D02*
X8909699Y-8225107D01*
X8909699Y-8225107D02*
X8900175Y-8244154D01*
X8900175Y-8244154D02*
X8900175Y-8282250D01*
X8900175Y-8282250D02*
X8909699Y-8301297D01*
X8909699Y-8301297D02*
X8919223Y-8310821D01*
X8919223Y-8310821D02*
X8938270Y-8320345D01*
X8938270Y-8320345D02*
X8976366Y-8320345D01*
X8976366Y-8320345D02*
X8995413Y-8310821D01*
X8995413Y-8310821D02*
X9004937Y-8301297D01*
X9004937Y-8301297D02*
X9014461Y-8282250D01*
X9014461Y-8282250D02*
X9014461Y-8244154D01*
X9014461Y-8244154D02*
X9004937Y-8225107D01*
X9004937Y-8225107D02*
X8995413Y-8215583D01*
X8995413Y-8215583D02*
X8976366Y-8206059D01*
X9185890Y-8120345D02*
X9147794Y-8120345D01*
X9147794Y-8120345D02*
X9128747Y-8129869D01*
X9128747Y-8129869D02*
X9119223Y-8139392D01*
X9119223Y-8139392D02*
X9100175Y-8167964D01*
X9100175Y-8167964D02*
X9090651Y-8206059D01*
X9090651Y-8206059D02*
X9090651Y-8282250D01*
X9090651Y-8282250D02*
X9100175Y-8301297D01*
X9100175Y-8301297D02*
X9109699Y-8310821D01*
X9109699Y-8310821D02*
X9128747Y-8320345D01*
X9128747Y-8320345D02*
X9166842Y-8320345D01*
X9166842Y-8320345D02*
X9185890Y-8310821D01*
X9185890Y-8310821D02*
X9195413Y-8301297D01*
X9195413Y-8301297D02*
X9204937Y-8282250D01*
X9204937Y-8282250D02*
X9204937Y-8234631D01*
X9204937Y-8234631D02*
X9195413Y-8215583D01*
X9195413Y-8215583D02*
X9185890Y-8206059D01*
X9185890Y-8206059D02*
X9166842Y-8196535D01*
X9166842Y-8196535D02*
X9128747Y-8196535D01*
X9128747Y-8196535D02*
X9109699Y-8206059D01*
X9109699Y-8206059D02*
X9100175Y-8215583D01*
X9100175Y-8215583D02*
X9090651Y-8234631D01*
X9376366Y-8120345D02*
X9338270Y-8120345D01*
X9338270Y-8120345D02*
X9319223Y-8129869D01*
X9319223Y-8129869D02*
X9309699Y-8139392D01*
X9309699Y-8139392D02*
X9290651Y-8167964D01*
X9290651Y-8167964D02*
X9281128Y-8206059D01*
X9281128Y-8206059D02*
X9281128Y-8282250D01*
X9281128Y-8282250D02*
X9290651Y-8301297D01*
X9290651Y-8301297D02*
X9300175Y-8310821D01*
X9300175Y-8310821D02*
X9319223Y-8320345D01*
X9319223Y-8320345D02*
X9357318Y-8320345D01*
X9357318Y-8320345D02*
X9376366Y-8310821D01*
X9376366Y-8310821D02*
X9385890Y-8301297D01*
X9385890Y-8301297D02*
X9395413Y-8282250D01*
X9395413Y-8282250D02*
X9395413Y-8234631D01*
X9395413Y-8234631D02*
X9385890Y-8215583D01*
X9385890Y-8215583D02*
X9376366Y-8206059D01*
X9376366Y-8206059D02*
X9357318Y-8196535D01*
X9357318Y-8196535D02*
X9319223Y-8196535D01*
X9319223Y-8196535D02*
X9300175Y-8206059D01*
X9300175Y-8206059D02*
X9290651Y-8215583D01*
X9290651Y-8215583D02*
X9281128Y-8234631D01*
X9471604Y-8120345D02*
X9471604Y-8158440D01*
X9547794Y-8120345D02*
X9547794Y-8158440D01*
X9843033Y-8396535D02*
X9833509Y-8387011D01*
X9833509Y-8387011D02*
X9814461Y-8358440D01*
X9814461Y-8358440D02*
X9804937Y-8339392D01*
X9804937Y-8339392D02*
X9795413Y-8310821D01*
X9795413Y-8310821D02*
X9785890Y-8263202D01*
X9785890Y-8263202D02*
X9785890Y-8225107D01*
X9785890Y-8225107D02*
X9795413Y-8177488D01*
X9795413Y-8177488D02*
X9804937Y-8148916D01*
X9804937Y-8148916D02*
X9814461Y-8129869D01*
X9814461Y-8129869D02*
X9833509Y-8101297D01*
X9833509Y-8101297D02*
X9843033Y-8091773D01*
X9900175Y-8120345D02*
X10023985Y-8120345D01*
X10023985Y-8120345D02*
X9957318Y-8196535D01*
X9957318Y-8196535D02*
X9985890Y-8196535D01*
X9985890Y-8196535D02*
X10004937Y-8206059D01*
X10004937Y-8206059D02*
X10014461Y-8215583D01*
X10014461Y-8215583D02*
X10023985Y-8234631D01*
X10023985Y-8234631D02*
X10023985Y-8282250D01*
X10023985Y-8282250D02*
X10014461Y-8301297D01*
X10014461Y-8301297D02*
X10004937Y-8310821D01*
X10004937Y-8310821D02*
X9985890Y-8320345D01*
X9985890Y-8320345D02*
X9928747Y-8320345D01*
X9928747Y-8320345D02*
X9909699Y-8310821D01*
X9909699Y-8310821D02*
X9900175Y-8301297D01*
X10262080Y-8320345D02*
X10262080Y-8120345D01*
X10347794Y-8320345D02*
X10347794Y-8215583D01*
X10347794Y-8215583D02*
X10338271Y-8196535D01*
X10338271Y-8196535D02*
X10319223Y-8187011D01*
X10319223Y-8187011D02*
X10290652Y-8187011D01*
X10290652Y-8187011D02*
X10271604Y-8196535D01*
X10271604Y-8196535D02*
X10262080Y-8206059D01*
X10471604Y-8320345D02*
X10452556Y-8310821D01*
X10452556Y-8310821D02*
X10443033Y-8301297D01*
X10443033Y-8301297D02*
X10433509Y-8282250D01*
X10433509Y-8282250D02*
X10433509Y-8225107D01*
X10433509Y-8225107D02*
X10443033Y-8206059D01*
X10443033Y-8206059D02*
X10452556Y-8196535D01*
X10452556Y-8196535D02*
X10471604Y-8187011D01*
X10471604Y-8187011D02*
X10500175Y-8187011D01*
X10500175Y-8187011D02*
X10519223Y-8196535D01*
X10519223Y-8196535D02*
X10528747Y-8206059D01*
X10528747Y-8206059D02*
X10538271Y-8225107D01*
X10538271Y-8225107D02*
X10538271Y-8282250D01*
X10538271Y-8282250D02*
X10528747Y-8301297D01*
X10528747Y-8301297D02*
X10519223Y-8310821D01*
X10519223Y-8310821D02*
X10500175Y-8320345D01*
X10500175Y-8320345D02*
X10471604Y-8320345D01*
X10652556Y-8320345D02*
X10633509Y-8310821D01*
X10633509Y-8310821D02*
X10623985Y-8291773D01*
X10623985Y-8291773D02*
X10623985Y-8120345D01*
X10804937Y-8310821D02*
X10785890Y-8320345D01*
X10785890Y-8320345D02*
X10747794Y-8320345D01*
X10747794Y-8320345D02*
X10728747Y-8310821D01*
X10728747Y-8310821D02*
X10719223Y-8291773D01*
X10719223Y-8291773D02*
X10719223Y-8215583D01*
X10719223Y-8215583D02*
X10728747Y-8196535D01*
X10728747Y-8196535D02*
X10747794Y-8187011D01*
X10747794Y-8187011D02*
X10785890Y-8187011D01*
X10785890Y-8187011D02*
X10804937Y-8196535D01*
X10804937Y-8196535D02*
X10814461Y-8215583D01*
X10814461Y-8215583D02*
X10814461Y-8234631D01*
X10814461Y-8234631D02*
X10719223Y-8253678D01*
X10890652Y-8310821D02*
X10909699Y-8320345D01*
X10909699Y-8320345D02*
X10947794Y-8320345D01*
X10947794Y-8320345D02*
X10966842Y-8310821D01*
X10966842Y-8310821D02*
X10976366Y-8291773D01*
X10976366Y-8291773D02*
X10976366Y-8282250D01*
X10976366Y-8282250D02*
X10966842Y-8263202D01*
X10966842Y-8263202D02*
X10947794Y-8253678D01*
X10947794Y-8253678D02*
X10919223Y-8253678D01*
X10919223Y-8253678D02*
X10900175Y-8244154D01*
X10900175Y-8244154D02*
X10890652Y-8225107D01*
X10890652Y-8225107D02*
X10890652Y-8215583D01*
X10890652Y-8215583D02*
X10900175Y-8196535D01*
X10900175Y-8196535D02*
X10919223Y-8187011D01*
X10919223Y-8187011D02*
X10947794Y-8187011D01*
X10947794Y-8187011D02*
X10966842Y-8196535D01*
X11043033Y-8396535D02*
X11052556Y-8387011D01*
X11052556Y-8387011D02*
X11071604Y-8358440D01*
X11071604Y-8358440D02*
X11081128Y-8339392D01*
X11081128Y-8339392D02*
X11090652Y-8310821D01*
X11090652Y-8310821D02*
X11100175Y-8263202D01*
X11100175Y-8263202D02*
X11100175Y-8225107D01*
X11100175Y-8225107D02*
X11090652Y-8177488D01*
X11090652Y-8177488D02*
X11081128Y-8148916D01*
X11081128Y-8148916D02*
X11071604Y-8129869D01*
X11071604Y-8129869D02*
X11052556Y-8101297D01*
X11052556Y-8101297D02*
X11043033Y-8091773D01*
X11404937Y-8396535D02*
X11395413Y-8387011D01*
X11395413Y-8387011D02*
X11376366Y-8358440D01*
X11376366Y-8358440D02*
X11366842Y-8339392D01*
X11366842Y-8339392D02*
X11357318Y-8310821D01*
X11357318Y-8310821D02*
X11347794Y-8263202D01*
X11347794Y-8263202D02*
X11347794Y-8225107D01*
X11347794Y-8225107D02*
X11357318Y-8177488D01*
X11357318Y-8177488D02*
X11366842Y-8148916D01*
X11366842Y-8148916D02*
X11376366Y-8129869D01*
X11376366Y-8129869D02*
X11395413Y-8101297D01*
X11395413Y-8101297D02*
X11404937Y-8091773D01*
X11481128Y-8187011D02*
X11481128Y-8320345D01*
X11481128Y-8206059D02*
X11490652Y-8196535D01*
X11490652Y-8196535D02*
X11509699Y-8187011D01*
X11509699Y-8187011D02*
X11538271Y-8187011D01*
X11538271Y-8187011D02*
X11557318Y-8196535D01*
X11557318Y-8196535D02*
X11566842Y-8215583D01*
X11566842Y-8215583D02*
X11566842Y-8320345D01*
X11690652Y-8320345D02*
X11671604Y-8310821D01*
X11671604Y-8310821D02*
X11662080Y-8301297D01*
X11662080Y-8301297D02*
X11652556Y-8282250D01*
X11652556Y-8282250D02*
X11652556Y-8225107D01*
X11652556Y-8225107D02*
X11662080Y-8206059D01*
X11662080Y-8206059D02*
X11671604Y-8196535D01*
X11671604Y-8196535D02*
X11690652Y-8187011D01*
X11690652Y-8187011D02*
X11719223Y-8187011D01*
X11719223Y-8187011D02*
X11738271Y-8196535D01*
X11738271Y-8196535D02*
X11747794Y-8206059D01*
X11747794Y-8206059D02*
X11757318Y-8225107D01*
X11757318Y-8225107D02*
X11757318Y-8282250D01*
X11757318Y-8282250D02*
X11747794Y-8301297D01*
X11747794Y-8301297D02*
X11738271Y-8310821D01*
X11738271Y-8310821D02*
X11719223Y-8320345D01*
X11719223Y-8320345D02*
X11690652Y-8320345D01*
X11814461Y-8187011D02*
X11890652Y-8187011D01*
X11843033Y-8120345D02*
X11843033Y-8291773D01*
X11843033Y-8291773D02*
X11852556Y-8310821D01*
X11852556Y-8310821D02*
X11871604Y-8320345D01*
X11871604Y-8320345D02*
X11890652Y-8320345D01*
X12109699Y-8187011D02*
X12109699Y-8387011D01*
X12109699Y-8196535D02*
X12128747Y-8187011D01*
X12128747Y-8187011D02*
X12166842Y-8187011D01*
X12166842Y-8187011D02*
X12185890Y-8196535D01*
X12185890Y-8196535D02*
X12195414Y-8206059D01*
X12195414Y-8206059D02*
X12204937Y-8225107D01*
X12204937Y-8225107D02*
X12204937Y-8282250D01*
X12204937Y-8282250D02*
X12195414Y-8301297D01*
X12195414Y-8301297D02*
X12185890Y-8310821D01*
X12185890Y-8310821D02*
X12166842Y-8320345D01*
X12166842Y-8320345D02*
X12128747Y-8320345D01*
X12128747Y-8320345D02*
X12109699Y-8310821D01*
X12319223Y-8320345D02*
X12300175Y-8310821D01*
X12300175Y-8310821D02*
X12290652Y-8291773D01*
X12290652Y-8291773D02*
X12290652Y-8120345D01*
X12481128Y-8320345D02*
X12481128Y-8215583D01*
X12481128Y-8215583D02*
X12471604Y-8196535D01*
X12471604Y-8196535D02*
X12452556Y-8187011D01*
X12452556Y-8187011D02*
X12414461Y-8187011D01*
X12414461Y-8187011D02*
X12395414Y-8196535D01*
X12481128Y-8310821D02*
X12462080Y-8320345D01*
X12462080Y-8320345D02*
X12414461Y-8320345D01*
X12414461Y-8320345D02*
X12395414Y-8310821D01*
X12395414Y-8310821D02*
X12385890Y-8291773D01*
X12385890Y-8291773D02*
X12385890Y-8272726D01*
X12385890Y-8272726D02*
X12395414Y-8253678D01*
X12395414Y-8253678D02*
X12414461Y-8244154D01*
X12414461Y-8244154D02*
X12462080Y-8244154D01*
X12462080Y-8244154D02*
X12481128Y-8234631D01*
X12547795Y-8187011D02*
X12623985Y-8187011D01*
X12576366Y-8120345D02*
X12576366Y-8291773D01*
X12576366Y-8291773D02*
X12585890Y-8310821D01*
X12585890Y-8310821D02*
X12604937Y-8320345D01*
X12604937Y-8320345D02*
X12623985Y-8320345D01*
X12766842Y-8310821D02*
X12747795Y-8320345D01*
X12747795Y-8320345D02*
X12709699Y-8320345D01*
X12709699Y-8320345D02*
X12690652Y-8310821D01*
X12690652Y-8310821D02*
X12681128Y-8291773D01*
X12681128Y-8291773D02*
X12681128Y-8215583D01*
X12681128Y-8215583D02*
X12690652Y-8196535D01*
X12690652Y-8196535D02*
X12709699Y-8187011D01*
X12709699Y-8187011D02*
X12747795Y-8187011D01*
X12747795Y-8187011D02*
X12766842Y-8196535D01*
X12766842Y-8196535D02*
X12776366Y-8215583D01*
X12776366Y-8215583D02*
X12776366Y-8234631D01*
X12776366Y-8234631D02*
X12681128Y-8253678D01*
X12947795Y-8320345D02*
X12947795Y-8120345D01*
X12947795Y-8310821D02*
X12928747Y-8320345D01*
X12928747Y-8320345D02*
X12890652Y-8320345D01*
X12890652Y-8320345D02*
X12871604Y-8310821D01*
X12871604Y-8310821D02*
X12862080Y-8301297D01*
X12862080Y-8301297D02*
X12852556Y-8282250D01*
X12852556Y-8282250D02*
X12852556Y-8225107D01*
X12852556Y-8225107D02*
X12862080Y-8206059D01*
X12862080Y-8206059D02*
X12871604Y-8196535D01*
X12871604Y-8196535D02*
X12890652Y-8187011D01*
X12890652Y-8187011D02*
X12928747Y-8187011D01*
X12928747Y-8187011D02*
X12947795Y-8196535D01*
X13023985Y-8396535D02*
X13033509Y-8387011D01*
X13033509Y-8387011D02*
X13052556Y-8358440D01*
X13052556Y-8358440D02*
X13062080Y-8339392D01*
X13062080Y-8339392D02*
X13071604Y-8310821D01*
X13071604Y-8310821D02*
X13081128Y-8263202D01*
X13081128Y-8263202D02*
X13081128Y-8225107D01*
X13081128Y-8225107D02*
X13071604Y-8177488D01*
X13071604Y-8177488D02*
X13062080Y-8148916D01*
X13062080Y-8148916D02*
X13052556Y-8129869D01*
X13052556Y-8129869D02*
X13033509Y-8101297D01*
X13033509Y-8101297D02*
X13023985Y-8091773D01*
M02*
