%TF.GenerationSoftware,KiCad,Pcbnew,7.0.5*%
%TF.CreationDate,2024-03-22T00:08:30+08:00*%
%TF.ProjectId,joy-con,6a6f792d-636f-46e2-9e6b-696361645f70,rev?*%
%TF.SameCoordinates,Original*%
%TF.FileFunction,Copper,L2,Bot*%
%TF.FilePolarity,Positive*%
%FSLAX46Y46*%
G04 Gerber Fmt 4.6, Leading zero omitted, Abs format (unit mm)*
G04 Created by KiCad (PCBNEW 7.0.5) date 2024-03-22 00:08:30*
%MOMM*%
%LPD*%
G01*
G04 APERTURE LIST*
%TA.AperFunction,WasherPad*%
%ADD10C,3.800000*%
%TD*%
G04 APERTURE END LIST*
D10*
%TO.P,K26,*%
%TO.N,*%
X65205926Y-58990881D03*
X79577926Y-44618881D03*
X79577926Y-73362881D03*
%TD*%
%TA.AperFunction,NonConductor*%
G36*
X80284506Y-42172576D02*
G01*
X80711526Y-42193232D01*
X80713789Y-42193384D01*
X80781723Y-42199188D01*
X81069599Y-42223785D01*
X81524831Y-42267927D01*
X81526952Y-42268172D01*
X81879786Y-42315717D01*
X82333439Y-42381960D01*
X82335676Y-42382330D01*
X82684502Y-42446761D01*
X83135586Y-42535072D01*
X83137876Y-42535565D01*
X83481857Y-42616599D01*
X83929399Y-42726908D01*
X83931644Y-42727507D01*
X84269903Y-42824798D01*
X84713037Y-42957032D01*
X84715207Y-42957725D01*
X85046800Y-43070849D01*
X85484518Y-43224862D01*
X85486739Y-43225693D01*
X85810857Y-43354203D01*
X85938230Y-43406063D01*
X86242107Y-43529789D01*
X86244358Y-43530757D01*
X86560075Y-43674097D01*
X86984038Y-43871101D01*
X86986237Y-43872176D01*
X87292876Y-44029830D01*
X87708565Y-44248001D01*
X87710737Y-44249197D01*
X87986680Y-44408513D01*
X88007387Y-44420468D01*
X88413950Y-44659585D01*
X88416096Y-44660906D01*
X88701953Y-44845063D01*
X89098600Y-45104925D01*
X89100633Y-45106317D01*
X89242424Y-45207760D01*
X89374984Y-45302599D01*
X89760795Y-45582907D01*
X89762805Y-45584432D01*
X90024902Y-45791960D01*
X90399050Y-46092451D01*
X90401019Y-46094102D01*
X90650083Y-46311855D01*
X91011847Y-46632350D01*
X91013752Y-46634110D01*
X91249147Y-46861060D01*
X91597742Y-47201331D01*
X91599589Y-47203212D01*
X91719397Y-47330546D01*
X91820654Y-47438162D01*
X92155377Y-47798076D01*
X92157137Y-47800052D01*
X92363363Y-48041810D01*
X92683413Y-48421158D01*
X92685068Y-48423207D01*
X92747845Y-48504506D01*
X92875762Y-48670165D01*
X93180619Y-49069123D01*
X93182215Y-49071309D01*
X93356803Y-49321727D01*
X93536852Y-49582572D01*
X93645804Y-49740416D01*
X93647305Y-49742696D01*
X93805438Y-49994850D01*
X94077897Y-50433494D01*
X94079298Y-50435864D01*
X94220408Y-50687297D01*
X94410478Y-51029107D01*
X94475706Y-51146410D01*
X94475874Y-51146711D01*
X94477168Y-51149167D01*
X94600911Y-51397231D01*
X94838800Y-51878401D01*
X94839984Y-51880937D01*
X94945957Y-52122111D01*
X95165824Y-52626845D01*
X95166892Y-52629457D01*
X95254597Y-52858770D01*
X95456169Y-53390272D01*
X95457116Y-53392955D01*
X95526225Y-53603902D01*
X95526210Y-53603906D01*
X95526320Y-53604189D01*
X95709144Y-54166868D01*
X95709967Y-54169616D01*
X95760400Y-54353349D01*
X95760434Y-54353606D01*
X95760468Y-54353597D01*
X95924169Y-54954842D01*
X95924863Y-54957649D01*
X95956391Y-55099187D01*
X95956414Y-55099397D01*
X95956437Y-55099392D01*
X96100720Y-55752285D01*
X96101282Y-55755145D01*
X96113757Y-55827610D01*
X96238216Y-56556318D01*
X96238649Y-56559283D01*
X96336372Y-57364100D01*
X96336661Y-57367083D01*
X96352664Y-57587421D01*
X96390517Y-58108633D01*
X96395385Y-58175650D01*
X96395530Y-58178644D01*
X96415119Y-58989133D01*
X96415119Y-58992129D01*
X96395530Y-59802617D01*
X96395385Y-59805611D01*
X96336661Y-60614178D01*
X96336372Y-60617161D01*
X96238649Y-61421978D01*
X96238216Y-61424943D01*
X96113757Y-62153651D01*
X96101282Y-62226115D01*
X96100720Y-62228975D01*
X95956414Y-62881971D01*
X95924863Y-63023611D01*
X95924169Y-63026418D01*
X95760434Y-63627787D01*
X95709967Y-63811644D01*
X95709144Y-63814392D01*
X95526276Y-64377206D01*
X95457116Y-64588306D01*
X95456169Y-64590989D01*
X95254597Y-65122491D01*
X95166892Y-65351803D01*
X95165824Y-65354415D01*
X94945957Y-65859150D01*
X94839984Y-66100323D01*
X94838800Y-66102859D01*
X94600915Y-66584023D01*
X94477168Y-66832093D01*
X94475873Y-66834549D01*
X94220408Y-67293963D01*
X94079298Y-67545396D01*
X94077897Y-67547766D01*
X93805438Y-67986410D01*
X93647305Y-68238564D01*
X93645804Y-68240844D01*
X93356790Y-68659554D01*
X93182215Y-68909951D01*
X93180619Y-68912137D01*
X92875762Y-69311095D01*
X92685081Y-69558037D01*
X92683395Y-69560125D01*
X92363348Y-69939469D01*
X92157146Y-70181198D01*
X92155377Y-70183184D01*
X91820695Y-70543054D01*
X91599589Y-70778048D01*
X91597742Y-70779929D01*
X91249186Y-71120163D01*
X91013767Y-71347136D01*
X91011847Y-71348910D01*
X90650180Y-71669320D01*
X90401019Y-71887158D01*
X90399034Y-71888822D01*
X90024918Y-72189288D01*
X89762805Y-72396828D01*
X89760760Y-72398380D01*
X89375033Y-72678626D01*
X89100656Y-72874927D01*
X89098557Y-72876364D01*
X88701969Y-73136187D01*
X88416096Y-73320354D01*
X88413950Y-73321675D01*
X88007387Y-73560792D01*
X87710753Y-73732054D01*
X87708565Y-73733259D01*
X87292826Y-73951456D01*
X86986261Y-74109072D01*
X86984038Y-74110159D01*
X86560075Y-74307163D01*
X86244358Y-74450503D01*
X86242107Y-74451471D01*
X85810833Y-74627067D01*
X85486746Y-74755564D01*
X85484473Y-74756415D01*
X85046798Y-74910412D01*
X84715289Y-75023508D01*
X84712999Y-75024240D01*
X84269927Y-75156455D01*
X83931672Y-75253745D01*
X83929371Y-75254359D01*
X83481838Y-75364666D01*
X83137891Y-75445691D01*
X83135586Y-75446188D01*
X82684467Y-75534506D01*
X82335716Y-75598923D01*
X82333413Y-75599304D01*
X81879783Y-75665544D01*
X81527040Y-75713077D01*
X81524744Y-75713343D01*
X81069626Y-75757474D01*
X80713789Y-75787876D01*
X80711507Y-75788029D01*
X80286608Y-75808582D01*
X80218696Y-75792160D01*
X80170443Y-75741628D01*
X80157170Y-75673031D01*
X80183090Y-75608147D01*
X80239975Y-75567577D01*
X80240542Y-75567382D01*
X80460178Y-75492826D01*
X80730644Y-75359447D01*
X80981387Y-75191906D01*
X81208115Y-74993070D01*
X81406951Y-74766342D01*
X81574492Y-74515599D01*
X81707871Y-74245133D01*
X81804806Y-73959572D01*
X81863639Y-73663801D01*
X81883362Y-73362881D01*
X81863639Y-73061961D01*
X81804806Y-72766190D01*
X81707871Y-72480629D01*
X81667310Y-72398380D01*
X81574494Y-72210167D01*
X81574490Y-72210160D01*
X81406952Y-71959421D01*
X81208115Y-71732691D01*
X80981385Y-71533854D01*
X80730646Y-71366316D01*
X80730639Y-71366312D01*
X80460194Y-71232943D01*
X80460173Y-71232934D01*
X80174624Y-71136003D01*
X80174618Y-71136001D01*
X80174617Y-71136001D01*
X80174615Y-71136000D01*
X80174609Y-71135999D01*
X79878856Y-71077169D01*
X79878847Y-71077168D01*
X79878846Y-71077168D01*
X79577926Y-71057445D01*
X79277006Y-71077168D01*
X79277005Y-71077168D01*
X79276995Y-71077169D01*
X78981242Y-71135999D01*
X78981227Y-71136003D01*
X78695678Y-71232934D01*
X78695657Y-71232943D01*
X78425212Y-71366312D01*
X78425205Y-71366316D01*
X78174466Y-71533854D01*
X77947736Y-71732691D01*
X77748899Y-71959421D01*
X77581361Y-72210160D01*
X77581357Y-72210167D01*
X77447988Y-72480612D01*
X77447979Y-72480633D01*
X77351048Y-72766182D01*
X77351044Y-72766197D01*
X77292214Y-73061950D01*
X77292213Y-73061960D01*
X77292213Y-73061961D01*
X77272490Y-73362881D01*
X77290927Y-73644187D01*
X77292213Y-73663799D01*
X77292214Y-73663811D01*
X77351044Y-73959564D01*
X77351048Y-73959579D01*
X77447979Y-74245128D01*
X77447988Y-74245149D01*
X77581357Y-74515594D01*
X77581361Y-74515601D01*
X77748899Y-74766340D01*
X77947736Y-74993070D01*
X78174466Y-75191907D01*
X78425205Y-75359445D01*
X78425212Y-75359449D01*
X78695657Y-75492818D01*
X78695660Y-75492819D01*
X78695674Y-75492826D01*
X78915174Y-75567336D01*
X78972329Y-75607525D01*
X78998682Y-75672234D01*
X78985868Y-75740918D01*
X78937954Y-75791771D01*
X78870153Y-75808647D01*
X78869325Y-75808610D01*
X78625193Y-75796802D01*
X78265767Y-75774892D01*
X78263555Y-75774717D01*
X77812216Y-75730953D01*
X77453378Y-75691469D01*
X77451200Y-75691190D01*
X77003277Y-75625784D01*
X76646002Y-75568750D01*
X76643863Y-75568371D01*
X76200343Y-75481542D01*
X75845534Y-75407027D01*
X75843439Y-75406549D01*
X75405298Y-75298557D01*
X75053824Y-75206669D01*
X75051777Y-75206096D01*
X74620064Y-75077271D01*
X74352061Y-74993070D01*
X74272821Y-74968174D01*
X74270841Y-74967514D01*
X73846302Y-74818137D01*
X73504293Y-74692082D01*
X73502354Y-74691331D01*
X73086042Y-74521828D01*
X72750044Y-74379045D01*
X72748212Y-74378231D01*
X72543884Y-74283285D01*
X72341055Y-74189035D01*
X72011883Y-74029809D01*
X72010068Y-74028894D01*
X71612976Y-73820484D01*
X71291505Y-73645177D01*
X71289757Y-73644187D01*
X70903657Y-73417106D01*
X70590647Y-73226078D01*
X70588968Y-73225017D01*
X70214594Y-72979746D01*
X70060276Y-72874927D01*
X69910933Y-72773486D01*
X69909346Y-72772371D01*
X69547615Y-72509558D01*
X69253991Y-72288484D01*
X69252460Y-72287293D01*
X68904101Y-72007512D01*
X68621338Y-71772195D01*
X68619884Y-71770947D01*
X68576702Y-71732691D01*
X68285702Y-71474887D01*
X68014473Y-71225845D01*
X68013102Y-71224546D01*
X67693814Y-70912882D01*
X67679783Y-70898679D01*
X67434795Y-70650690D01*
X67433550Y-70649392D01*
X67254987Y-70457390D01*
X67129886Y-70322873D01*
X66883716Y-70048133D01*
X66882553Y-70046795D01*
X66595150Y-69706144D01*
X66362527Y-69419592D01*
X66361399Y-69418160D01*
X66090941Y-69064218D01*
X65872416Y-68766505D01*
X65871399Y-68765077D01*
X65618461Y-68398634D01*
X65414521Y-68090378D01*
X65413562Y-68088882D01*
X65349912Y-67986410D01*
X65179109Y-67711427D01*
X65178476Y-67710384D01*
X65104959Y-67586555D01*
X64989971Y-67392875D01*
X64989110Y-67391377D01*
X64773270Y-67003222D01*
X64772666Y-67002109D01*
X64683921Y-66834549D01*
X64599759Y-66675642D01*
X64598974Y-66674106D01*
X64402217Y-66276135D01*
X64401658Y-66274973D01*
X64267177Y-65988101D01*
X64244748Y-65940255D01*
X64244091Y-65938800D01*
X64066799Y-65531805D01*
X64066364Y-65530778D01*
X63925858Y-65188625D01*
X63925260Y-65187107D01*
X63767889Y-64772155D01*
X63767491Y-64771069D01*
X63643759Y-64422336D01*
X63643272Y-64420901D01*
X63506164Y-63998924D01*
X63505829Y-63997856D01*
X63399194Y-63643416D01*
X63398754Y-63641878D01*
X63315310Y-63335408D01*
X63282239Y-63213943D01*
X63281896Y-63212622D01*
X63192643Y-62853408D01*
X63192319Y-62852025D01*
X63126192Y-62552798D01*
X63096622Y-62418987D01*
X63096334Y-62417612D01*
X63068959Y-62278885D01*
X63024663Y-62054408D01*
X63024397Y-62052963D01*
X62949750Y-61615907D01*
X62949543Y-61614609D01*
X62895627Y-61248258D01*
X62895422Y-61246722D01*
X62889214Y-61195592D01*
X62841979Y-60806578D01*
X62841845Y-60805368D01*
X62805820Y-60436717D01*
X62805699Y-60435300D01*
X62773578Y-59993021D01*
X62773506Y-59991827D01*
X62759099Y-59696286D01*
X62775496Y-59628372D01*
X62826010Y-59580100D01*
X62894603Y-59566802D01*
X62959496Y-59592698D01*
X63000087Y-59649567D01*
X63000371Y-59650394D01*
X63075979Y-59873128D01*
X63075988Y-59873149D01*
X63209357Y-60143594D01*
X63209361Y-60143601D01*
X63376899Y-60394340D01*
X63575736Y-60621070D01*
X63802466Y-60819907D01*
X64053205Y-60987445D01*
X64053212Y-60987449D01*
X64323657Y-61120818D01*
X64323662Y-61120820D01*
X64323674Y-61120826D01*
X64609235Y-61217761D01*
X64809177Y-61257532D01*
X64904995Y-61276592D01*
X64904996Y-61276592D01*
X64905006Y-61276594D01*
X65205926Y-61296317D01*
X65506846Y-61276594D01*
X65802617Y-61217761D01*
X66088178Y-61120826D01*
X66358644Y-60987447D01*
X66609387Y-60819906D01*
X66836115Y-60621070D01*
X67034951Y-60394342D01*
X67202492Y-60143599D01*
X67335871Y-59873133D01*
X67432806Y-59587572D01*
X67491639Y-59291801D01*
X67511362Y-58990881D01*
X67511346Y-58990643D01*
X71572299Y-58990643D01*
X71591798Y-59549040D01*
X71591799Y-59549051D01*
X71595847Y-59587564D01*
X71650207Y-60104764D01*
X71650208Y-60104771D01*
X71650209Y-60104778D01*
X71747234Y-60655034D01*
X71882414Y-61197213D01*
X71882419Y-61197229D01*
X72055082Y-61728632D01*
X72264402Y-62246716D01*
X72509340Y-62748914D01*
X72509347Y-62748928D01*
X72788724Y-63232823D01*
X72788727Y-63232827D01*
X72788731Y-63232834D01*
X73101190Y-63696074D01*
X73101194Y-63696079D01*
X73101200Y-63696088D01*
X73445187Y-64136372D01*
X73445203Y-64136391D01*
X73819088Y-64551631D01*
X73819090Y-64551633D01*
X73857066Y-64588306D01*
X74221019Y-64939772D01*
X74221025Y-64939777D01*
X74221033Y-64939785D01*
X74221044Y-64939794D01*
X74649054Y-65298938D01*
X74649083Y-65298961D01*
X74771101Y-65387612D01*
X75094420Y-65622517D01*
X75101129Y-65627391D01*
X75101130Y-65627392D01*
X75472020Y-65859150D01*
X75574987Y-65923491D01*
X75715638Y-65998276D01*
X75885245Y-66088458D01*
X76068350Y-66185816D01*
X76396716Y-66332014D01*
X76396758Y-66332049D01*
X76397340Y-66332292D01*
X76578809Y-66413087D01*
X76919444Y-66537068D01*
X76919613Y-66537192D01*
X76921887Y-66537957D01*
X77103878Y-66604197D01*
X77455275Y-66704958D01*
X77455656Y-66705199D01*
X77456647Y-66705431D01*
X77459612Y-66706202D01*
X77641000Y-66758214D01*
X78001551Y-66834851D01*
X78002193Y-66835197D01*
X78004660Y-66835593D01*
X78007712Y-66836160D01*
X78155562Y-66867587D01*
X78187542Y-66874385D01*
X78187545Y-66874385D01*
X78187557Y-66874388D01*
X78555623Y-66926116D01*
X78556540Y-66926532D01*
X78560466Y-66926879D01*
X78563609Y-66927239D01*
X78740886Y-66952154D01*
X79114036Y-66978246D01*
X79114740Y-66978296D01*
X79115940Y-66978741D01*
X79121241Y-66978835D01*
X79124444Y-66978974D01*
X79298292Y-66991131D01*
X79298304Y-66991131D01*
X79676131Y-66991131D01*
X79677628Y-66991570D01*
X79684283Y-66991218D01*
X79687564Y-66991131D01*
X79857048Y-66991131D01*
X79857060Y-66991131D01*
X80237048Y-66964560D01*
X80238836Y-66964952D01*
X80246714Y-66963974D01*
X80250018Y-66963653D01*
X80414466Y-66952154D01*
X80794728Y-66898711D01*
X80796810Y-66899017D01*
X80805830Y-66897243D01*
X80809134Y-66896686D01*
X80967795Y-66874388D01*
X81346414Y-66793910D01*
X81348776Y-66794090D01*
X81358780Y-66791378D01*
X81362084Y-66790579D01*
X81514352Y-66758214D01*
X81534237Y-66752512D01*
X81889408Y-66650669D01*
X81892045Y-66650685D01*
X81902923Y-66646894D01*
X81906214Y-66645849D01*
X82051474Y-66604197D01*
X82421028Y-66469689D01*
X82423928Y-66469505D01*
X82435540Y-66464515D01*
X82438818Y-66463215D01*
X82450040Y-66459130D01*
X82576543Y-66413087D01*
X82938650Y-66251866D01*
X82941795Y-66251444D01*
X82953996Y-66245146D01*
X82957200Y-66243607D01*
X83087002Y-66185816D01*
X83439716Y-65998275D01*
X83443081Y-65997582D01*
X83455696Y-65989897D01*
X83458792Y-65988131D01*
X83580365Y-65923491D01*
X83921749Y-65710169D01*
X83925314Y-65709171D01*
X83938179Y-65700031D01*
X83941236Y-65697993D01*
X84054226Y-65627389D01*
X84382418Y-65388942D01*
X84386148Y-65387612D01*
X84399084Y-65376972D01*
X84402000Y-65374715D01*
X84506278Y-65298954D01*
X84819420Y-65036196D01*
X84823290Y-65034502D01*
X84836137Y-65022318D01*
X84838927Y-65019827D01*
X84934319Y-64939785D01*
X85230590Y-64653678D01*
X85234563Y-64651598D01*
X85247134Y-64637866D01*
X85249799Y-64635129D01*
X85295508Y-64590989D01*
X85336262Y-64551633D01*
X85339938Y-64547551D01*
X85613936Y-64243245D01*
X85617970Y-64240759D01*
X85630084Y-64225491D01*
X85632566Y-64222554D01*
X85710151Y-64136388D01*
X85817483Y-63999010D01*
X85967558Y-63806922D01*
X85971618Y-63804011D01*
X85983107Y-63787221D01*
X85985407Y-63784076D01*
X86054162Y-63696074D01*
X86289700Y-63346873D01*
X86293745Y-63343522D01*
X86304442Y-63325244D01*
X86306538Y-63321910D01*
X86366621Y-63232834D01*
X86578781Y-62865360D01*
X86582766Y-62861560D01*
X86592503Y-62841853D01*
X86594389Y-62838327D01*
X86646004Y-62748928D01*
X86833376Y-62364758D01*
X86837253Y-62360506D01*
X86845866Y-62339453D01*
X86847507Y-62335784D01*
X86890952Y-62246711D01*
X87052242Y-61847503D01*
X87055972Y-61842791D01*
X87063315Y-61820462D01*
X87064719Y-61816621D01*
X87100270Y-61728631D01*
X87234280Y-61316186D01*
X87237814Y-61311019D01*
X87243743Y-61287514D01*
X87244885Y-61283548D01*
X87272938Y-61197212D01*
X87378604Y-60773407D01*
X87381896Y-60767788D01*
X87386279Y-60743215D01*
X87387150Y-60739128D01*
X87408116Y-60655042D01*
X87505145Y-60104764D01*
X87563552Y-59549058D01*
X87563553Y-59549040D01*
X87583053Y-58990643D01*
X87583053Y-58990618D01*
X87563553Y-58432221D01*
X87563552Y-58432210D01*
X87563552Y-58432204D01*
X87505145Y-57876498D01*
X87408116Y-57326220D01*
X87387152Y-57242139D01*
X87386279Y-57238047D01*
X87382282Y-57215638D01*
X87378604Y-57207855D01*
X87272938Y-56784050D01*
X87244889Y-56697724D01*
X87243744Y-56693750D01*
X87238332Y-56672295D01*
X87234281Y-56665076D01*
X87199147Y-56556944D01*
X87100270Y-56252631D01*
X87064725Y-56164654D01*
X87063317Y-56160805D01*
X87056608Y-56140402D01*
X87052242Y-56133758D01*
X86899497Y-55755701D01*
X86890952Y-55734551D01*
X86847523Y-55645510D01*
X86845871Y-55641817D01*
X86837993Y-55622559D01*
X86833376Y-55616504D01*
X86646004Y-55232334D01*
X86636760Y-55216323D01*
X86594401Y-55142954D01*
X86592508Y-55139416D01*
X86583590Y-55121368D01*
X86578781Y-55115900D01*
X86366627Y-54748438D01*
X86366625Y-54748436D01*
X86366621Y-54748428D01*
X86306548Y-54659367D01*
X86304449Y-54656029D01*
X86294640Y-54639267D01*
X86289697Y-54634384D01*
X86100304Y-54353597D01*
X86054162Y-54285188D01*
X85985413Y-54197194D01*
X85983114Y-54194050D01*
X85972572Y-54178644D01*
X85967558Y-54174339D01*
X85710164Y-53844889D01*
X85710148Y-53844870D01*
X85632589Y-53758733D01*
X85630093Y-53755780D01*
X85618969Y-53741758D01*
X85613936Y-53738017D01*
X85336263Y-53429630D01*
X85249816Y-53346148D01*
X85247153Y-53343413D01*
X85235593Y-53330785D01*
X85230591Y-53327583D01*
X84934332Y-53041489D01*
X84934325Y-53041483D01*
X84934319Y-53041477D01*
X84928884Y-53036916D01*
X84838961Y-52961461D01*
X84836149Y-52958952D01*
X84824329Y-52947742D01*
X84819420Y-52945065D01*
X84506297Y-52682323D01*
X84506268Y-52682300D01*
X84402047Y-52606580D01*
X84399104Y-52604303D01*
X84387182Y-52594498D01*
X84382416Y-52592316D01*
X84054222Y-52353870D01*
X84054221Y-52353869D01*
X83941252Y-52283279D01*
X83938195Y-52281241D01*
X83926334Y-52272813D01*
X83921750Y-52271092D01*
X83580373Y-52057775D01*
X83524096Y-52027852D01*
X83458848Y-51993159D01*
X83455708Y-51991370D01*
X83444076Y-51984284D01*
X83439714Y-51982986D01*
X83087012Y-51795451D01*
X83086996Y-51795443D01*
X82957248Y-51737676D01*
X82954025Y-51736128D01*
X82942753Y-51730309D01*
X82938648Y-51729394D01*
X82715261Y-51629936D01*
X82576543Y-51568175D01*
X82552406Y-51559390D01*
X82438830Y-51518051D01*
X82435553Y-51516751D01*
X82424832Y-51512143D01*
X82421030Y-51511572D01*
X82051465Y-51377061D01*
X81906263Y-51335426D01*
X81902948Y-51334374D01*
X81892890Y-51330869D01*
X81889409Y-51330593D01*
X81514373Y-51223053D01*
X81514355Y-51223048D01*
X81514352Y-51223048D01*
X81362128Y-51190691D01*
X81358809Y-51189890D01*
X81349558Y-51187382D01*
X81346415Y-51187352D01*
X81147587Y-51145090D01*
X80967795Y-51106874D01*
X80967780Y-51106871D01*
X80967775Y-51106871D01*
X80809190Y-51084583D01*
X80805858Y-51084022D01*
X80797512Y-51082381D01*
X80794729Y-51082550D01*
X80414463Y-51029107D01*
X80250052Y-51017611D01*
X80246738Y-51017289D01*
X80239460Y-51016385D01*
X80237049Y-51016702D01*
X79857072Y-50990131D01*
X79857060Y-50990131D01*
X79687548Y-50990131D01*
X79684266Y-50990044D01*
X79678147Y-50989719D01*
X79676131Y-50990131D01*
X79298277Y-50990131D01*
X79124517Y-51002282D01*
X79121289Y-51002423D01*
X79116379Y-51002510D01*
X79114742Y-51002965D01*
X78740888Y-51029107D01*
X78616845Y-51046540D01*
X78563641Y-51054018D01*
X78560489Y-51054379D01*
X78556887Y-51054697D01*
X78555624Y-51055145D01*
X78187575Y-51106871D01*
X78187563Y-51106873D01*
X78187557Y-51106874D01*
X78187548Y-51106875D01*
X78187542Y-51106877D01*
X78007763Y-51145090D01*
X78004683Y-51145664D01*
X78002436Y-51146024D01*
X78001550Y-51146410D01*
X77641013Y-51223045D01*
X77641006Y-51223046D01*
X77641000Y-51223048D01*
X77640993Y-51223049D01*
X77640997Y-51223049D01*
X77459668Y-51275043D01*
X77456688Y-51275818D01*
X77455810Y-51276023D01*
X77455273Y-51276303D01*
X77103886Y-51377061D01*
X76921952Y-51443280D01*
X76919695Y-51444039D01*
X76919445Y-51444193D01*
X76578811Y-51568174D01*
X76397425Y-51648932D01*
X76396780Y-51649200D01*
X76396715Y-51649247D01*
X76068368Y-51795437D01*
X76068338Y-51795452D01*
X75888704Y-51890964D01*
X75888691Y-51890970D01*
X75574993Y-52057767D01*
X75574990Y-52057769D01*
X75101130Y-52353869D01*
X75101129Y-52353870D01*
X74649083Y-52682300D01*
X74649054Y-52682323D01*
X74221044Y-53041467D01*
X74221019Y-53041489D01*
X73819088Y-53429630D01*
X73445203Y-53844870D01*
X73445187Y-53844889D01*
X73101200Y-54285173D01*
X73101194Y-54285182D01*
X72788729Y-54748431D01*
X72788724Y-54748438D01*
X72509347Y-55232333D01*
X72509340Y-55232347D01*
X72264402Y-55734545D01*
X72055082Y-56252629D01*
X71882419Y-56784032D01*
X71882414Y-56784048D01*
X71747234Y-57326227D01*
X71650209Y-57876483D01*
X71591799Y-58432210D01*
X71591798Y-58432221D01*
X71572299Y-58990618D01*
X71572299Y-58990643D01*
X67511346Y-58990643D01*
X67491639Y-58689961D01*
X67432806Y-58394190D01*
X67335871Y-58108629D01*
X67202492Y-57838163D01*
X67034951Y-57587420D01*
X66997361Y-57544557D01*
X66836115Y-57360691D01*
X66609385Y-57161854D01*
X66358646Y-56994316D01*
X66358639Y-56994312D01*
X66088194Y-56860943D01*
X66088173Y-56860934D01*
X65802624Y-56764003D01*
X65802618Y-56764001D01*
X65802617Y-56764001D01*
X65802615Y-56764000D01*
X65802609Y-56763999D01*
X65506856Y-56705169D01*
X65506847Y-56705168D01*
X65506846Y-56705168D01*
X65205926Y-56685445D01*
X65205925Y-56685445D01*
X65079214Y-56693750D01*
X64905006Y-56705168D01*
X64905005Y-56705168D01*
X64904995Y-56705169D01*
X64609242Y-56763999D01*
X64609227Y-56764003D01*
X64323678Y-56860934D01*
X64323657Y-56860943D01*
X64053212Y-56994312D01*
X64053205Y-56994316D01*
X63802466Y-57161854D01*
X63575736Y-57360691D01*
X63376899Y-57587421D01*
X63209361Y-57838160D01*
X63209357Y-57838167D01*
X63075988Y-58108612D01*
X63075979Y-58108634D01*
X63000342Y-58331451D01*
X62960153Y-58388605D01*
X62895443Y-58414958D01*
X62826759Y-58402143D01*
X62775906Y-58354229D01*
X62759031Y-58286428D01*
X62759053Y-58285930D01*
X62773506Y-57989423D01*
X62773576Y-57988261D01*
X62805700Y-57545944D01*
X62805818Y-57544557D01*
X62841847Y-57175875D01*
X62841976Y-57174702D01*
X62895423Y-56734523D01*
X62895624Y-56733023D01*
X62949547Y-56366626D01*
X62949745Y-56365384D01*
X63024402Y-55928266D01*
X63024657Y-55926881D01*
X63096344Y-55563596D01*
X63096622Y-55562273D01*
X63102805Y-55534293D01*
X63192326Y-55129202D01*
X63192635Y-55127887D01*
X63281913Y-54768569D01*
X63282227Y-54767365D01*
X63398754Y-54339379D01*
X63399182Y-54337885D01*
X63505845Y-53983354D01*
X63506147Y-53982389D01*
X63643288Y-53560313D01*
X63643744Y-53558969D01*
X63767512Y-53210131D01*
X63767863Y-53209176D01*
X63925285Y-52794087D01*
X63925838Y-52792685D01*
X64066392Y-52450417D01*
X64066770Y-52449524D01*
X64244117Y-52042401D01*
X64244723Y-52041059D01*
X64401668Y-51706265D01*
X64402170Y-51705220D01*
X64598988Y-51307125D01*
X64599729Y-51305675D01*
X64772711Y-50979066D01*
X64773200Y-50978165D01*
X64989147Y-50589817D01*
X64989935Y-50588446D01*
X65178541Y-50270767D01*
X65179048Y-50269933D01*
X65413618Y-49892289D01*
X65414472Y-49890957D01*
X65618435Y-49582665D01*
X65871447Y-49216114D01*
X65872361Y-49214830D01*
X66090912Y-48917080D01*
X66361446Y-48563040D01*
X66362472Y-48561737D01*
X66595136Y-48275133D01*
X66882614Y-47934394D01*
X66883646Y-47933206D01*
X67129825Y-47658453D01*
X67433615Y-47331800D01*
X67434730Y-47330637D01*
X67693821Y-47068371D01*
X68013149Y-46756668D01*
X68014404Y-46755480D01*
X68285669Y-46506403D01*
X68619962Y-46210245D01*
X68621277Y-46209116D01*
X68904107Y-45973743D01*
X69252524Y-45693916D01*
X69253902Y-45692844D01*
X69547568Y-45471737D01*
X69909437Y-45208824D01*
X69910848Y-45207832D01*
X70214597Y-45001513D01*
X70589046Y-44756193D01*
X70590647Y-44755182D01*
X70903574Y-44564204D01*
X71289826Y-44337033D01*
X71291470Y-44336102D01*
X71612956Y-44160787D01*
X72010130Y-43952334D01*
X72011775Y-43951505D01*
X72341032Y-43792236D01*
X72748314Y-43602983D01*
X72749939Y-43602261D01*
X73086017Y-43459442D01*
X73502422Y-43289902D01*
X73504255Y-43289192D01*
X73846267Y-43163134D01*
X74270904Y-43013724D01*
X74272717Y-43013120D01*
X74619991Y-42904012D01*
X75051841Y-42775145D01*
X75053787Y-42774601D01*
X75405287Y-42682706D01*
X75843498Y-42574697D01*
X75845488Y-42574243D01*
X76200272Y-42499733D01*
X76643925Y-42412877D01*
X76646002Y-42412510D01*
X76712039Y-42401967D01*
X77003245Y-42355481D01*
X77451237Y-42290065D01*
X77453308Y-42289799D01*
X77812154Y-42250314D01*
X78263637Y-42206536D01*
X78265659Y-42206376D01*
X78625166Y-42184460D01*
X78871050Y-42172567D01*
X78938958Y-42188988D01*
X78987211Y-42239520D01*
X79000484Y-42308117D01*
X78974564Y-42373001D01*
X78917680Y-42413571D01*
X78916896Y-42413840D01*
X78695679Y-42488934D01*
X78695657Y-42488943D01*
X78425212Y-42622312D01*
X78425205Y-42622316D01*
X78174466Y-42789854D01*
X77947736Y-42988691D01*
X77748899Y-43215421D01*
X77581361Y-43466160D01*
X77581357Y-43466167D01*
X77447988Y-43736612D01*
X77447979Y-43736633D01*
X77351048Y-44022182D01*
X77351044Y-44022197D01*
X77292214Y-44317950D01*
X77292213Y-44317960D01*
X77292213Y-44317961D01*
X77272490Y-44618881D01*
X77281423Y-44755182D01*
X77292213Y-44919799D01*
X77292214Y-44919811D01*
X77351044Y-45215564D01*
X77351048Y-45215579D01*
X77447979Y-45501128D01*
X77447988Y-45501149D01*
X77581357Y-45771594D01*
X77581361Y-45771601D01*
X77748899Y-46022340D01*
X77947736Y-46249070D01*
X78174466Y-46447907D01*
X78425205Y-46615445D01*
X78425212Y-46615449D01*
X78695657Y-46748818D01*
X78695662Y-46748820D01*
X78695674Y-46748826D01*
X78981235Y-46845761D01*
X79181177Y-46885532D01*
X79276995Y-46904592D01*
X79276996Y-46904592D01*
X79277006Y-46904594D01*
X79577926Y-46924317D01*
X79878846Y-46904594D01*
X80174617Y-46845761D01*
X80460178Y-46748826D01*
X80730644Y-46615447D01*
X80981387Y-46447906D01*
X81208115Y-46249070D01*
X81406951Y-46022342D01*
X81574492Y-45771599D01*
X81707871Y-45501133D01*
X81804806Y-45215572D01*
X81863639Y-44919801D01*
X81883362Y-44618881D01*
X81863639Y-44317961D01*
X81804806Y-44022190D01*
X81707871Y-43736629D01*
X81574492Y-43466163D01*
X81569971Y-43459397D01*
X81406952Y-43215421D01*
X81208115Y-42988691D01*
X80981385Y-42789854D01*
X80730646Y-42622316D01*
X80730639Y-42622312D01*
X80460194Y-42488943D01*
X80460173Y-42488934D01*
X80239037Y-42413868D01*
X80181883Y-42373679D01*
X80155530Y-42308970D01*
X80168345Y-42240285D01*
X80216259Y-42189432D01*
X80284060Y-42172557D01*
X80284506Y-42172576D01*
G37*
%TD.AperFunction*%
M02*
