%TF.GenerationSoftware,KiCad,Pcbnew,7.0.5*%
%TF.CreationDate,2024-03-19T12:27:32+08:00*%
%TF.ProjectId,Prime52left,5072696d-6535-4326-9c65-66742e6b6963,rev?*%
%TF.SameCoordinates,Original*%
%TF.FileFunction,Drillmap*%
%TF.FilePolarity,Positive*%
%FSLAX45Y45*%
G04 Gerber Fmt 4.5, Leading zero omitted, Abs format (unit mm)*
G04 Created by KiCad (PCBNEW 7.0.5) date 2024-03-19 12:27:32*
%MOMM*%
%LPD*%
G01*
G04 APERTURE LIST*
%ADD10C,0.100000*%
%ADD11C,0.200000*%
%ADD12C,0.040000*%
%ADD13C,0.090000*%
%ADD14C,0.110000*%
%ADD15C,0.305000*%
G04 APERTURE END LIST*
D10*
X12977000Y-6984500D02*
X12977000Y-6746400D01*
X9167000Y-6508200D02*
X9167000Y-6746400D01*
X3452000Y-13652000D02*
X7262000Y-13652000D01*
X12977000Y-6746400D02*
X11072000Y-6746400D01*
X20580402Y-9461523D02*
X18588940Y-13729871D01*
X5357000Y-7698900D02*
X5357000Y-7937000D01*
X11072000Y-6508200D02*
X9167000Y-6508200D01*
X3452000Y-7937000D02*
X3452000Y-13652000D01*
X16778217Y-15921843D02*
G75*
G03*
X19478407Y-14414120I1675053J171892D01*
G01*
X7262000Y-13652000D02*
X8214500Y-14604500D01*
X14837004Y-15016652D02*
X16778218Y-15921843D01*
X14882000Y-6984500D02*
X12977000Y-6984500D01*
X11072000Y-6746400D02*
X11072000Y-6508200D01*
X14837004Y-15016652D02*
X12977080Y-14604461D01*
X7262000Y-6746400D02*
X7262000Y-7698900D01*
X15834500Y-7937000D02*
X17309972Y-7937000D01*
X14882000Y-6984500D02*
X15834500Y-7937000D01*
X20580298Y-9461618D02*
X17309972Y-7937000D01*
X5357000Y-7937000D02*
X3452000Y-7937000D01*
X12977000Y-14604500D02*
X8214500Y-14604500D01*
X9167000Y-6746400D02*
X7262000Y-6746400D01*
X19478407Y-14414120D02*
X18588940Y-13729871D01*
X7262000Y-7698900D02*
X5357000Y-7698900D01*
D11*
D12*
X3810000Y-10206500D02*
X3850000Y-10246500D01*
X3850000Y-10206500D02*
X3810000Y-10246500D01*
X3811000Y-12048000D02*
X3851000Y-12088000D01*
X3851000Y-12048000D02*
X3811000Y-12088000D01*
X3970000Y-8302000D02*
X4010000Y-8342000D01*
X4010000Y-8302000D02*
X3970000Y-8342000D01*
X4119000Y-10458000D02*
X4159000Y-10498000D01*
X4159000Y-10458000D02*
X4119000Y-10498000D01*
X4120000Y-8553000D02*
X4160000Y-8593000D01*
X4160000Y-8553000D02*
X4120000Y-8593000D01*
X4649000Y-12010000D02*
X4689000Y-12050000D01*
X4689000Y-12010000D02*
X4649000Y-12050000D01*
X4651000Y-10105000D02*
X4691000Y-10145000D01*
X4691000Y-10105000D02*
X4651000Y-10145000D01*
X5105000Y-8539000D02*
X5145000Y-8579000D01*
X5145000Y-8539000D02*
X5105000Y-8579000D01*
X5335000Y-10444000D02*
X5375000Y-10484000D01*
X5375000Y-10444000D02*
X5335000Y-10484000D01*
X5335000Y-12348000D02*
X5375000Y-12388000D01*
X5375000Y-12348000D02*
X5335000Y-12388000D01*
X5864000Y-11372000D02*
X5904000Y-11412000D01*
X5904000Y-11372000D02*
X5864000Y-11412000D01*
X5864000Y-12023000D02*
X5904000Y-12063000D01*
X5904000Y-12023000D02*
X5864000Y-12063000D01*
X6024000Y-10199000D02*
X6064000Y-10239000D01*
X6064000Y-10199000D02*
X6024000Y-10239000D01*
X6025000Y-8314000D02*
X6065000Y-8354000D01*
X6065000Y-8314000D02*
X6025000Y-8354000D01*
X6554000Y-11772000D02*
X6594000Y-11812000D01*
X6594000Y-11772000D02*
X6554000Y-11812000D01*
X6555000Y-8335000D02*
X6595000Y-8375000D01*
X6595000Y-8335000D02*
X6555000Y-8375000D01*
X6555000Y-9867000D02*
X6595000Y-9907000D01*
X6595000Y-9867000D02*
X6555000Y-9907000D01*
X6642000Y-12187000D02*
X6682000Y-12227000D01*
X6682000Y-12187000D02*
X6642000Y-12227000D01*
X6643000Y-9762000D02*
X6683000Y-9802000D01*
X6683000Y-9762000D02*
X6643000Y-9802000D01*
X6643000Y-10274000D02*
X6683000Y-10314000D01*
X6683000Y-10274000D02*
X6643000Y-10314000D01*
X7239000Y-9468000D02*
X7279000Y-9508000D01*
X7279000Y-9468000D02*
X7239000Y-9508000D01*
X7241000Y-12106000D02*
X7281000Y-12146000D01*
X7281000Y-12106000D02*
X7241000Y-12146000D01*
X7241000Y-12746000D02*
X7281000Y-12786000D01*
X7281000Y-12746000D02*
X7241000Y-12786000D01*
X7242000Y-8293000D02*
X7282000Y-8333000D01*
X7282000Y-8293000D02*
X7242000Y-8333000D01*
X7243000Y-8936000D02*
X7283000Y-8976000D01*
X7283000Y-8936000D02*
X7243000Y-8976000D01*
X7243000Y-10198000D02*
X7283000Y-10238000D01*
X7283000Y-10198000D02*
X7243000Y-10238000D01*
X7243000Y-10840000D02*
X7283000Y-10880000D01*
X7283000Y-10840000D02*
X7243000Y-10880000D01*
X7314450Y-8511000D02*
X7354450Y-8551000D01*
X7354450Y-8511000D02*
X7314450Y-8551000D01*
X7606000Y-9015900D02*
X7646000Y-9055900D01*
X7646000Y-9015900D02*
X7606000Y-9055900D01*
X7617000Y-10920900D02*
X7657000Y-10960900D01*
X7657000Y-10920900D02*
X7617000Y-10960900D01*
X7694500Y-8658000D02*
X7734500Y-8698000D01*
X7734500Y-8658000D02*
X7694500Y-8698000D01*
X7779000Y-7111000D02*
X7819000Y-7151000D01*
X7819000Y-7111000D02*
X7779000Y-7151000D01*
X7929000Y-7362000D02*
X7969000Y-7402000D01*
X7969000Y-7362000D02*
X7929000Y-7402000D01*
X7929000Y-9267000D02*
X7969000Y-9307000D01*
X7969000Y-9267000D02*
X7929000Y-9307000D01*
X8459000Y-10820000D02*
X8499000Y-10860000D01*
X8499000Y-10820000D02*
X8459000Y-10860000D01*
X8461000Y-8914000D02*
X8501000Y-8954000D01*
X8501000Y-8914000D02*
X8461000Y-8954000D01*
X9147000Y-7112000D02*
X9187000Y-7152000D01*
X9187000Y-7112000D02*
X9147000Y-7152000D01*
X9147000Y-8999000D02*
X9187000Y-9039000D01*
X9187000Y-8999000D02*
X9147000Y-9039000D01*
X9147000Y-10926000D02*
X9187000Y-10966000D01*
X9187000Y-10926000D02*
X9147000Y-10966000D01*
X9147000Y-12602000D02*
X9187000Y-12642000D01*
X9187000Y-12602000D02*
X9147000Y-12642000D01*
X9599500Y-10033000D02*
X9639500Y-10073000D01*
X9639500Y-10033000D02*
X9599500Y-10073000D01*
X9834000Y-9028000D02*
X9874000Y-9068000D01*
X9874000Y-9028000D02*
X9834000Y-9068000D01*
X9835000Y-7124000D02*
X9875000Y-7164000D01*
X9875000Y-7124000D02*
X9835000Y-7164000D01*
X9835000Y-10934000D02*
X9875000Y-10974000D01*
X9875000Y-10934000D02*
X9835000Y-10974000D01*
X9862000Y-13214000D02*
X9902000Y-13254000D01*
X9902000Y-13214000D02*
X9862000Y-13254000D01*
X10364000Y-10581000D02*
X10404000Y-10621000D01*
X10404000Y-10581000D02*
X10364000Y-10621000D01*
X10365000Y-8677000D02*
X10405000Y-8717000D01*
X10405000Y-8677000D02*
X10365000Y-8717000D01*
X11078000Y-13064000D02*
X11118000Y-13104000D01*
X11118000Y-13064000D02*
X11078000Y-13104000D01*
X11429000Y-10918000D02*
X11469000Y-10958000D01*
X11469000Y-10918000D02*
X11429000Y-10958000D01*
X11431000Y-9015900D02*
X11471000Y-9055900D01*
X11471000Y-9015900D02*
X11431000Y-9055900D01*
X11504500Y-10272000D02*
X11544500Y-10312000D01*
X11544500Y-10272000D02*
X11504500Y-10312000D01*
X11589000Y-7111000D02*
X11629000Y-7151000D01*
X11629000Y-7111000D02*
X11589000Y-7151000D01*
X11739000Y-7362000D02*
X11779000Y-7402000D01*
X11779000Y-7362000D02*
X11739000Y-7402000D01*
X11739000Y-11192000D02*
X11779000Y-11232000D01*
X11779000Y-11192000D02*
X11739000Y-11232000D01*
X11740000Y-9267000D02*
X11780000Y-9307000D01*
X11780000Y-9267000D02*
X11740000Y-9307000D01*
X12268000Y-7410000D02*
X12308000Y-7450000D01*
X12308000Y-7410000D02*
X12268000Y-7450000D01*
X12269000Y-9315000D02*
X12309000Y-9355000D01*
X12309000Y-9315000D02*
X12269000Y-9355000D01*
X12269000Y-13314000D02*
X12309000Y-13354000D01*
X12309000Y-13314000D02*
X12269000Y-13354000D01*
X12270000Y-8914000D02*
X12310000Y-8954000D01*
X12310000Y-8914000D02*
X12270000Y-8954000D01*
X12270000Y-10801000D02*
X12310000Y-10841000D01*
X12310000Y-10801000D02*
X12270000Y-10841000D01*
X12271000Y-11203000D02*
X12311000Y-11243000D01*
X12311000Y-11203000D02*
X12271000Y-11243000D01*
X12271000Y-12943000D02*
X12311000Y-12983000D01*
X12311000Y-12943000D02*
X12271000Y-12983000D01*
X12364000Y-12603000D02*
X12404000Y-12643000D01*
X12404000Y-12603000D02*
X12364000Y-12643000D01*
X13409500Y-10554450D02*
X13449500Y-10594450D01*
X13449500Y-10554450D02*
X13409500Y-10594450D01*
X13643000Y-11413000D02*
X13683000Y-11453000D01*
X13683000Y-11413000D02*
X13643000Y-11453000D01*
X13644000Y-7600000D02*
X13684000Y-7640000D01*
X13684000Y-7600000D02*
X13644000Y-7640000D01*
X13644500Y-9505000D02*
X13684500Y-9545000D01*
X13684500Y-9505000D02*
X13644500Y-9545000D01*
X13778000Y-13360000D02*
X13818000Y-13400000D01*
X13818000Y-13360000D02*
X13778000Y-13400000D01*
X13811000Y-13213000D02*
X13851000Y-13253000D01*
X13851000Y-13213000D02*
X13811000Y-13253000D01*
X14174000Y-9152000D02*
X14214000Y-9192000D01*
X14214000Y-9152000D02*
X14174000Y-9192000D01*
X14175000Y-11059000D02*
X14215000Y-11099000D01*
X14215000Y-11059000D02*
X14175000Y-11099000D01*
X14176000Y-7600000D02*
X14216000Y-7640000D01*
X14216000Y-7600000D02*
X14176000Y-7640000D01*
X14263000Y-9593000D02*
X14303000Y-9633000D01*
X14303000Y-9593000D02*
X14263000Y-9633000D01*
X14263000Y-11469000D02*
X14303000Y-11509000D01*
X14303000Y-11469000D02*
X14263000Y-11509000D01*
X14476000Y-13710000D02*
X14516000Y-13750000D01*
X14516000Y-13710000D02*
X14476000Y-13750000D01*
X14654000Y-12604000D02*
X14694000Y-12644000D01*
X14694000Y-12604000D02*
X14654000Y-12644000D01*
X14692000Y-12102000D02*
X14732000Y-12142000D01*
X14732000Y-12102000D02*
X14692000Y-12142000D01*
X14692550Y-10341931D02*
X14732550Y-10381931D01*
X14732550Y-10341931D02*
X14692550Y-10381931D01*
X14715560Y-8897450D02*
X14755560Y-8937450D01*
X14755560Y-8897450D02*
X14715560Y-8937450D01*
X14764500Y-10868000D02*
X14804500Y-10908000D01*
X14804500Y-10868000D02*
X14764500Y-10908000D01*
X14764500Y-12601000D02*
X14804500Y-12641000D01*
X14804500Y-12601000D02*
X14764500Y-12641000D01*
X14765000Y-10415000D02*
X14805000Y-10455000D01*
X14805000Y-10415000D02*
X14765000Y-10455000D01*
X14788550Y-8825000D02*
X14828550Y-8865000D01*
X14828550Y-8825000D02*
X14788550Y-8865000D01*
X14838000Y-10936000D02*
X14878000Y-10976000D01*
X14878000Y-10936000D02*
X14838000Y-10976000D01*
X14838000Y-12678000D02*
X14878000Y-12718000D01*
X14878000Y-12678000D02*
X14838000Y-12718000D01*
X14861000Y-8752000D02*
X14901000Y-8792000D01*
X14901000Y-8752000D02*
X14861000Y-8792000D01*
X14861000Y-10066000D02*
X14901000Y-10106000D01*
X14901000Y-10066000D02*
X14861000Y-10106000D01*
X14862000Y-10269450D02*
X14902000Y-10309450D01*
X14902000Y-10269450D02*
X14862000Y-10309450D01*
X14940139Y-9995050D02*
X14980139Y-10035050D01*
X14980139Y-9995050D02*
X14940139Y-10035050D01*
X14941000Y-8505000D02*
X14981000Y-8545000D01*
X14981000Y-8505000D02*
X14941000Y-8545000D01*
X15023000Y-14257000D02*
X15063000Y-14297000D01*
X15063000Y-14257000D02*
X15023000Y-14297000D01*
X15187000Y-13711000D02*
X15227000Y-13751000D01*
X15227000Y-13711000D02*
X15187000Y-13751000D01*
X15367000Y-14130918D02*
X15407000Y-14170918D01*
X15407000Y-14130918D02*
X15367000Y-14170918D01*
X15391000Y-10430000D02*
X15431000Y-10470000D01*
X15431000Y-10430000D02*
X15391000Y-10470000D01*
X15468000Y-10503000D02*
X15508000Y-10543000D01*
X15508000Y-10503000D02*
X15468000Y-10543000D01*
X15575144Y-14501144D02*
X15615144Y-14541144D01*
X15615144Y-14501144D02*
X15575144Y-14541144D01*
X15667000Y-13722000D02*
X15707000Y-13762000D01*
X15707000Y-13722000D02*
X15667000Y-13762000D01*
X15718000Y-11465000D02*
X15758000Y-11505000D01*
X15758000Y-11465000D02*
X15718000Y-11505000D01*
X16007000Y-11485000D02*
X16047000Y-11525000D01*
X16047000Y-11485000D02*
X16007000Y-11525000D01*
X16861000Y-11596000D02*
X16901000Y-11636000D01*
X16901000Y-11596000D02*
X16861000Y-11636000D01*
X17026000Y-12531000D02*
X17066000Y-12571000D01*
X17066000Y-12531000D02*
X17026000Y-12571000D01*
X17102000Y-12103000D02*
X17142000Y-12143000D01*
X17142000Y-12103000D02*
X17102000Y-12143000D01*
X17140000Y-10175000D02*
X17180000Y-10215000D01*
X17180000Y-10175000D02*
X17140000Y-10215000D01*
X17147770Y-11640230D02*
X17187770Y-11680230D01*
X17187770Y-11640230D02*
X17147770Y-11680230D01*
X17208500Y-11474500D02*
X17248500Y-11514500D01*
X17248500Y-11474500D02*
X17208500Y-11514500D01*
X17223000Y-14074000D02*
X17263000Y-14114000D01*
X17263000Y-14074000D02*
X17223000Y-14114000D01*
X17299000Y-13999000D02*
X17339000Y-14039000D01*
X17339000Y-13999000D02*
X17299000Y-14039000D01*
X17374500Y-14201500D02*
X17414500Y-14241500D01*
X17414500Y-14201500D02*
X17374500Y-14241500D01*
X17441000Y-11880000D02*
X17481000Y-11920000D01*
X17481000Y-11880000D02*
X17441000Y-11920000D01*
X17480000Y-11497050D02*
X17520000Y-11537050D01*
X17520000Y-11497050D02*
X17480000Y-11537050D01*
X17481000Y-11364000D02*
X17521000Y-11404000D01*
X17521000Y-11364000D02*
X17481000Y-11404000D01*
X17995000Y-10942000D02*
X18035000Y-10982000D01*
X18035000Y-10942000D02*
X17995000Y-10982000D01*
X18027000Y-11291000D02*
X18067000Y-11331000D01*
X18067000Y-11291000D02*
X18027000Y-11331000D01*
X18190000Y-10601000D02*
X18230000Y-10641000D01*
X18230000Y-10601000D02*
X18190000Y-10641000D01*
X18193000Y-10475000D02*
X18233000Y-10515000D01*
X18233000Y-10475000D02*
X18193000Y-10515000D01*
X18230000Y-11066000D02*
X18270000Y-11106000D01*
X18270000Y-11066000D02*
X18230000Y-11106000D01*
X18230000Y-11168000D02*
X18270000Y-11208000D01*
X18270000Y-11168000D02*
X18230000Y-11208000D01*
X18291000Y-10382000D02*
X18331000Y-10422000D01*
X18331000Y-10382000D02*
X18291000Y-10422000D01*
X18299000Y-10246000D02*
X18339000Y-10286000D01*
X18339000Y-10246000D02*
X18299000Y-10286000D01*
X18367000Y-10600000D02*
X18407000Y-10640000D01*
X18407000Y-10600000D02*
X18367000Y-10640000D01*
X18385000Y-10145000D02*
X18425000Y-10185000D01*
X18425000Y-10145000D02*
X18385000Y-10185000D01*
X18406000Y-10017000D02*
X18446000Y-10057000D01*
X18446000Y-10017000D02*
X18406000Y-10057000D01*
X18472000Y-10600000D02*
X18512000Y-10640000D01*
X18512000Y-10600000D02*
X18472000Y-10640000D01*
X18578000Y-10599000D02*
X18618000Y-10639000D01*
X18618000Y-10599000D02*
X18578000Y-10639000D01*
X18766550Y-9751000D02*
X18806550Y-9791000D01*
X18806550Y-9751000D02*
X18766550Y-9791000D01*
X18770000Y-12659000D02*
X18810000Y-12699000D01*
X18810000Y-12659000D02*
X18770000Y-12699000D01*
X18839000Y-9579000D02*
X18879000Y-9619000D01*
X18879000Y-9579000D02*
X18839000Y-9619000D01*
X19012000Y-9173000D02*
X19052000Y-9213000D01*
X19052000Y-9173000D02*
X19012000Y-9213000D01*
X19098000Y-9662000D02*
X19138000Y-9702000D01*
X19138000Y-9662000D02*
X19098000Y-9702000D01*
X19115000Y-8953000D02*
X19155000Y-8993000D01*
X19155000Y-8953000D02*
X19115000Y-8993000D01*
X19174000Y-9581000D02*
X19214000Y-9621000D01*
X19214000Y-9581000D02*
X19174000Y-9621000D01*
D13*
X18404314Y-11810959D02*
G75*
G03*
X18404314Y-11810959I-45000J0D01*
G01*
D11*
X18396458Y-11778628D02*
X18360206Y-11761723D01*
X18360206Y-11761723D02*
G75*
G03*
X18322170Y-11843291I-19018J-40784D01*
G01*
X18322170Y-11843291D02*
X18358423Y-11860195D01*
X18358423Y-11860195D02*
G75*
G03*
X18396458Y-11778628I19018J40784D01*
G01*
D13*
X18499025Y-11347570D02*
G75*
G03*
X18499025Y-11347570I-45000J0D01*
G01*
D11*
X18491169Y-11315238D02*
X18454917Y-11298333D01*
X18454916Y-11298333D02*
G75*
G03*
X18416881Y-11379901I-19018J-40784D01*
G01*
X18416881Y-11379901D02*
X18453133Y-11396806D01*
X18453133Y-11396806D02*
G75*
G03*
X18491169Y-11315238I19018J40784D01*
G01*
D13*
X18766837Y-11980006D02*
G75*
G03*
X18766837Y-11980006I-45000J0D01*
G01*
D11*
X18758981Y-11947675D02*
X18722729Y-11930770D01*
X18722729Y-11930770D02*
G75*
G03*
X18684693Y-12012338I-19018J-40784D01*
G01*
X18684693Y-12012338D02*
X18720946Y-12029243D01*
X18720946Y-12029243D02*
G75*
G03*
X18758981Y-11947675I19018J40784D01*
G01*
D13*
X19043080Y-12108820D02*
G75*
G03*
X19043080Y-12108820I-45000J0D01*
G01*
D11*
X19035224Y-12076489D02*
X18998972Y-12059584D01*
X18998972Y-12059584D02*
G75*
G03*
X18960936Y-12141152I-19018J-40784D01*
G01*
X18960936Y-12141152D02*
X18997188Y-12158057D01*
X18997188Y-12158057D02*
G75*
G03*
X19035224Y-12076489I19018J40784D01*
G01*
D10*
X8917000Y-12852000D02*
X8917000Y-12952000D01*
X8867000Y-12902000D02*
X8967000Y-12902000D01*
X8917000Y-14302000D02*
X8917000Y-14402000D01*
X8867000Y-14352000D02*
X8967000Y-14352000D01*
X9167000Y-12852000D02*
X9167000Y-12952000D01*
X9117000Y-12902000D02*
X9217000Y-12902000D01*
X9417000Y-12852000D02*
X9417000Y-12952000D01*
X9367000Y-12902000D02*
X9467000Y-12902000D01*
X9417000Y-14302000D02*
X9417000Y-14402000D01*
X9367000Y-14352000D02*
X9467000Y-14352000D01*
X15417000Y-8993500D02*
X15417000Y-9093500D01*
X15367000Y-9043500D02*
X15467000Y-9043500D01*
X15417000Y-9243500D02*
X15417000Y-9343500D01*
X15367000Y-9293500D02*
X15467000Y-9293500D01*
X15417000Y-9493500D02*
X15417000Y-9593500D01*
X15367000Y-9543500D02*
X15467000Y-9543500D01*
X16917713Y-15631163D02*
X16917713Y-15731163D01*
X16867713Y-15681163D02*
X16967713Y-15681163D01*
X17039465Y-15472493D02*
X17039465Y-15572493D01*
X16989465Y-15522493D02*
X17089465Y-15522493D01*
X17161217Y-15313822D02*
X17161217Y-15413822D01*
X17111217Y-15363822D02*
X17211217Y-15363822D01*
X17282970Y-15155151D02*
X17282970Y-15255151D01*
X17232970Y-15205151D02*
X17332970Y-15205151D01*
X17404722Y-14996481D02*
X17404722Y-15096481D01*
X17354722Y-15046481D02*
X17454722Y-15046481D01*
X17526474Y-14837810D02*
X17526474Y-14937810D01*
X17476474Y-14887810D02*
X17576474Y-14887810D01*
D14*
X16972891Y-9328391D02*
X16972891Y-9250609D01*
X16895109Y-9250609D01*
X16895109Y-9328391D01*
X16972891Y-9328391D01*
X17480891Y-9328391D02*
X17480891Y-9250609D01*
X17403109Y-9250609D01*
X17403109Y-9328391D01*
X17480891Y-9328391D01*
X17988891Y-9328391D02*
X17988891Y-9250609D01*
X17911109Y-9250609D01*
X17911109Y-9328391D01*
X17988891Y-9328391D01*
D15*
X3904500Y-9422000D02*
X4057000Y-9269500D01*
X3904500Y-9117000D01*
X3752000Y-9269500D01*
X3904500Y-9422000D01*
X3904500Y-11327000D02*
X4057000Y-11174500D01*
X3904500Y-11022000D01*
X3752000Y-11174500D01*
X3904500Y-11327000D01*
X3904500Y-13232000D02*
X4057000Y-13079500D01*
X3904500Y-12927000D01*
X3752000Y-13079500D01*
X3904500Y-13232000D01*
X4404500Y-9632000D02*
X4557000Y-9479500D01*
X4404500Y-9327000D01*
X4252000Y-9479500D01*
X4404500Y-9632000D01*
X4404500Y-11537000D02*
X4557000Y-11384500D01*
X4404500Y-11232000D01*
X4252000Y-11384500D01*
X4404500Y-11537000D01*
X4404500Y-13442000D02*
X4557000Y-13289500D01*
X4404500Y-13137000D01*
X4252000Y-13289500D01*
X4404500Y-13442000D01*
X5809500Y-9183900D02*
X5962000Y-9031400D01*
X5809500Y-8878900D01*
X5657000Y-9031400D01*
X5809500Y-9183900D01*
X5809500Y-11088900D02*
X5962000Y-10936400D01*
X5809500Y-10783900D01*
X5657000Y-10936400D01*
X5809500Y-11088900D01*
X5809500Y-12993900D02*
X5962000Y-12841400D01*
X5809500Y-12688900D01*
X5657000Y-12841400D01*
X5809500Y-12993900D01*
X6309500Y-9393900D02*
X6462000Y-9241400D01*
X6309500Y-9088900D01*
X6157000Y-9241400D01*
X6309500Y-9393900D01*
X6309500Y-11298900D02*
X6462000Y-11146400D01*
X6309500Y-10993900D01*
X6157000Y-11146400D01*
X6309500Y-11298900D01*
X6309500Y-13203900D02*
X6462000Y-13051400D01*
X6309500Y-12898900D01*
X6157000Y-13051400D01*
X6309500Y-13203900D01*
X7714500Y-8231400D02*
X7867000Y-8078900D01*
X7714500Y-7926400D01*
X7562000Y-8078900D01*
X7714500Y-8231400D01*
X7714500Y-10136400D02*
X7867000Y-9983900D01*
X7714500Y-9831400D01*
X7562000Y-9983900D01*
X7714500Y-10136400D01*
X7714500Y-12041400D02*
X7867000Y-11888900D01*
X7714500Y-11736400D01*
X7562000Y-11888900D01*
X7714500Y-12041400D01*
X8214500Y-8441400D02*
X8367000Y-8288900D01*
X8214500Y-8136400D01*
X8062000Y-8288900D01*
X8214500Y-8441400D01*
X8214500Y-10346400D02*
X8367000Y-10193900D01*
X8214500Y-10041400D01*
X8062000Y-10193900D01*
X8214500Y-10346400D01*
X8214500Y-12251400D02*
X8367000Y-12098900D01*
X8214500Y-11946400D01*
X8062000Y-12098900D01*
X8214500Y-12251400D01*
X9619500Y-7993200D02*
X9772000Y-7840700D01*
X9619500Y-7688200D01*
X9467000Y-7840700D01*
X9619500Y-7993200D01*
X9619500Y-9898200D02*
X9772000Y-9745700D01*
X9619500Y-9593200D01*
X9467000Y-9745700D01*
X9619500Y-9898200D01*
X9619500Y-11803200D02*
X9772000Y-11650700D01*
X9619500Y-11498200D01*
X9467000Y-11650700D01*
X9619500Y-11803200D01*
X10119500Y-8203200D02*
X10272000Y-8050700D01*
X10119500Y-7898200D01*
X9967000Y-8050700D01*
X10119500Y-8203200D01*
X10119500Y-10108200D02*
X10272000Y-9955700D01*
X10119500Y-9803200D01*
X9967000Y-9955700D01*
X10119500Y-10108200D01*
X10119500Y-12013200D02*
X10272000Y-11860700D01*
X10119500Y-11708200D01*
X9967000Y-11860700D01*
X10119500Y-12013200D01*
X11524500Y-8231400D02*
X11677000Y-8078900D01*
X11524500Y-7926400D01*
X11372000Y-8078900D01*
X11524500Y-8231400D01*
X11524500Y-10136400D02*
X11677000Y-9983900D01*
X11524500Y-9831400D01*
X11372000Y-9983900D01*
X11524500Y-10136400D01*
X11524500Y-12041400D02*
X11677000Y-11888900D01*
X11524500Y-11736400D01*
X11372000Y-11888900D01*
X11524500Y-12041400D01*
X11524500Y-14184500D02*
X11677000Y-14032000D01*
X11524500Y-13879500D01*
X11372000Y-14032000D01*
X11524500Y-14184500D01*
X12024500Y-8441400D02*
X12177000Y-8288900D01*
X12024500Y-8136400D01*
X11872000Y-8288900D01*
X12024500Y-8441400D01*
X12024500Y-10346400D02*
X12177000Y-10193900D01*
X12024500Y-10041400D01*
X11872000Y-10193900D01*
X12024500Y-10346400D01*
X12024500Y-12251400D02*
X12177000Y-12098900D01*
X12024500Y-11946400D01*
X11872000Y-12098900D01*
X12024500Y-12251400D01*
X12024500Y-14394500D02*
X12177000Y-14242000D01*
X12024500Y-14089500D01*
X11872000Y-14242000D01*
X12024500Y-14394500D01*
X13429500Y-8469500D02*
X13582000Y-8317000D01*
X13429500Y-8164500D01*
X13277000Y-8317000D01*
X13429500Y-8469500D01*
X13429500Y-10374500D02*
X13582000Y-10222000D01*
X13429500Y-10069500D01*
X13277000Y-10222000D01*
X13429500Y-10374500D01*
X13429500Y-12279500D02*
X13582000Y-12127000D01*
X13429500Y-11974500D01*
X13277000Y-12127000D01*
X13429500Y-12279500D01*
X13542719Y-14296000D02*
X13695219Y-14143500D01*
X13542719Y-13991000D01*
X13390219Y-14143500D01*
X13542719Y-14296000D01*
X13929500Y-8679500D02*
X14082000Y-8527000D01*
X13929500Y-8374500D01*
X13777000Y-8527000D01*
X13929500Y-8679500D01*
X13929500Y-10584500D02*
X14082000Y-10432000D01*
X13929500Y-10279500D01*
X13777000Y-10432000D01*
X13929500Y-10584500D01*
X13929500Y-12489500D02*
X14082000Y-12337000D01*
X13929500Y-12184500D01*
X13777000Y-12337000D01*
X13929500Y-12489500D01*
X13985415Y-14609242D02*
X14137915Y-14456742D01*
X13985415Y-14304242D01*
X13832915Y-14456742D01*
X13985415Y-14609242D01*
X15632082Y-12280948D02*
X15784582Y-12128448D01*
X15632082Y-11975948D01*
X15479582Y-12128448D01*
X15632082Y-12280948D01*
X15996486Y-12682582D02*
X16148986Y-12530082D01*
X15996486Y-12377582D01*
X15843986Y-12530082D01*
X15996486Y-12682582D01*
X16336428Y-15106479D02*
X16488928Y-14953979D01*
X16336428Y-14801479D01*
X16183928Y-14953979D01*
X16336428Y-15106479D01*
X16738062Y-14742075D02*
X16890562Y-14589575D01*
X16738062Y-14437075D01*
X16585562Y-14589575D01*
X16738062Y-14742075D01*
X17358582Y-13086048D02*
X17511082Y-12933548D01*
X17358582Y-12781048D01*
X17206082Y-12933548D01*
X17358582Y-13086048D01*
X17722986Y-13487682D02*
X17875486Y-13335182D01*
X17722986Y-13182682D01*
X17570486Y-13335182D01*
X17722986Y-13487682D01*
D11*
X3707777Y-17750285D02*
X3707777Y-17550285D01*
X3707777Y-17550285D02*
X3755396Y-17550285D01*
X3755396Y-17550285D02*
X3783967Y-17559808D01*
X3783967Y-17559808D02*
X3803015Y-17578856D01*
X3803015Y-17578856D02*
X3812539Y-17597904D01*
X3812539Y-17597904D02*
X3822062Y-17635999D01*
X3822062Y-17635999D02*
X3822062Y-17664570D01*
X3822062Y-17664570D02*
X3812539Y-17702665D01*
X3812539Y-17702665D02*
X3803015Y-17721713D01*
X3803015Y-17721713D02*
X3783967Y-17740761D01*
X3783967Y-17740761D02*
X3755396Y-17750285D01*
X3755396Y-17750285D02*
X3707777Y-17750285D01*
X3907777Y-17750285D02*
X3907777Y-17616951D01*
X3907777Y-17655046D02*
X3917301Y-17635999D01*
X3917301Y-17635999D02*
X3926824Y-17626475D01*
X3926824Y-17626475D02*
X3945872Y-17616951D01*
X3945872Y-17616951D02*
X3964920Y-17616951D01*
X4031586Y-17750285D02*
X4031586Y-17616951D01*
X4031586Y-17550285D02*
X4022062Y-17559808D01*
X4022062Y-17559808D02*
X4031586Y-17569332D01*
X4031586Y-17569332D02*
X4041110Y-17559808D01*
X4041110Y-17559808D02*
X4031586Y-17550285D01*
X4031586Y-17550285D02*
X4031586Y-17569332D01*
X4155396Y-17750285D02*
X4136348Y-17740761D01*
X4136348Y-17740761D02*
X4126824Y-17721713D01*
X4126824Y-17721713D02*
X4126824Y-17550285D01*
X4260158Y-17750285D02*
X4241110Y-17740761D01*
X4241110Y-17740761D02*
X4231586Y-17721713D01*
X4231586Y-17721713D02*
X4231586Y-17550285D01*
X4488729Y-17750285D02*
X4488729Y-17550285D01*
X4488729Y-17550285D02*
X4555396Y-17693142D01*
X4555396Y-17693142D02*
X4622063Y-17550285D01*
X4622063Y-17550285D02*
X4622063Y-17750285D01*
X4803015Y-17750285D02*
X4803015Y-17645523D01*
X4803015Y-17645523D02*
X4793491Y-17626475D01*
X4793491Y-17626475D02*
X4774444Y-17616951D01*
X4774444Y-17616951D02*
X4736348Y-17616951D01*
X4736348Y-17616951D02*
X4717301Y-17626475D01*
X4803015Y-17740761D02*
X4783967Y-17750285D01*
X4783967Y-17750285D02*
X4736348Y-17750285D01*
X4736348Y-17750285D02*
X4717301Y-17740761D01*
X4717301Y-17740761D02*
X4707777Y-17721713D01*
X4707777Y-17721713D02*
X4707777Y-17702665D01*
X4707777Y-17702665D02*
X4717301Y-17683618D01*
X4717301Y-17683618D02*
X4736348Y-17674094D01*
X4736348Y-17674094D02*
X4783967Y-17674094D01*
X4783967Y-17674094D02*
X4803015Y-17664570D01*
X4898253Y-17616951D02*
X4898253Y-17816951D01*
X4898253Y-17626475D02*
X4917301Y-17616951D01*
X4917301Y-17616951D02*
X4955396Y-17616951D01*
X4955396Y-17616951D02*
X4974444Y-17626475D01*
X4974444Y-17626475D02*
X4983967Y-17635999D01*
X4983967Y-17635999D02*
X4993491Y-17655046D01*
X4993491Y-17655046D02*
X4993491Y-17712189D01*
X4993491Y-17712189D02*
X4983967Y-17731237D01*
X4983967Y-17731237D02*
X4974444Y-17740761D01*
X4974444Y-17740761D02*
X4955396Y-17750285D01*
X4955396Y-17750285D02*
X4917301Y-17750285D01*
X4917301Y-17750285D02*
X4898253Y-17740761D01*
X5079205Y-17731237D02*
X5088729Y-17740761D01*
X5088729Y-17740761D02*
X5079205Y-17750285D01*
X5079205Y-17750285D02*
X5069682Y-17740761D01*
X5069682Y-17740761D02*
X5079205Y-17731237D01*
X5079205Y-17731237D02*
X5079205Y-17750285D01*
X5079205Y-17626475D02*
X5088729Y-17635999D01*
X5088729Y-17635999D02*
X5079205Y-17645523D01*
X5079205Y-17645523D02*
X5069682Y-17635999D01*
X5069682Y-17635999D02*
X5079205Y-17626475D01*
X5079205Y-17626475D02*
X5079205Y-17645523D01*
D12*
X3407000Y-18058801D02*
X3447000Y-18098801D01*
X3447000Y-18058801D02*
X3407000Y-18098801D01*
D11*
X3745872Y-17970285D02*
X3764920Y-17970285D01*
X3764920Y-17970285D02*
X3783967Y-17979808D01*
X3783967Y-17979808D02*
X3793491Y-17989332D01*
X3793491Y-17989332D02*
X3803015Y-18008380D01*
X3803015Y-18008380D02*
X3812539Y-18046475D01*
X3812539Y-18046475D02*
X3812539Y-18094094D01*
X3812539Y-18094094D02*
X3803015Y-18132189D01*
X3803015Y-18132189D02*
X3793491Y-18151237D01*
X3793491Y-18151237D02*
X3783967Y-18160761D01*
X3783967Y-18160761D02*
X3764920Y-18170285D01*
X3764920Y-18170285D02*
X3745872Y-18170285D01*
X3745872Y-18170285D02*
X3726824Y-18160761D01*
X3726824Y-18160761D02*
X3717301Y-18151237D01*
X3717301Y-18151237D02*
X3707777Y-18132189D01*
X3707777Y-18132189D02*
X3698253Y-18094094D01*
X3698253Y-18094094D02*
X3698253Y-18046475D01*
X3698253Y-18046475D02*
X3707777Y-18008380D01*
X3707777Y-18008380D02*
X3717301Y-17989332D01*
X3717301Y-17989332D02*
X3726824Y-17979808D01*
X3726824Y-17979808D02*
X3745872Y-17970285D01*
X3898253Y-18151237D02*
X3907777Y-18160761D01*
X3907777Y-18160761D02*
X3898253Y-18170285D01*
X3898253Y-18170285D02*
X3888729Y-18160761D01*
X3888729Y-18160761D02*
X3898253Y-18151237D01*
X3898253Y-18151237D02*
X3898253Y-18170285D01*
X4079205Y-18036951D02*
X4079205Y-18170285D01*
X4031586Y-17960761D02*
X3983967Y-18103618D01*
X3983967Y-18103618D02*
X4107777Y-18103618D01*
X4222063Y-17970285D02*
X4241110Y-17970285D01*
X4241110Y-17970285D02*
X4260158Y-17979808D01*
X4260158Y-17979808D02*
X4269682Y-17989332D01*
X4269682Y-17989332D02*
X4279205Y-18008380D01*
X4279205Y-18008380D02*
X4288729Y-18046475D01*
X4288729Y-18046475D02*
X4288729Y-18094094D01*
X4288729Y-18094094D02*
X4279205Y-18132189D01*
X4279205Y-18132189D02*
X4269682Y-18151237D01*
X4269682Y-18151237D02*
X4260158Y-18160761D01*
X4260158Y-18160761D02*
X4241110Y-18170285D01*
X4241110Y-18170285D02*
X4222063Y-18170285D01*
X4222063Y-18170285D02*
X4203015Y-18160761D01*
X4203015Y-18160761D02*
X4193491Y-18151237D01*
X4193491Y-18151237D02*
X4183967Y-18132189D01*
X4183967Y-18132189D02*
X4174443Y-18094094D01*
X4174443Y-18094094D02*
X4174443Y-18046475D01*
X4174443Y-18046475D02*
X4183967Y-18008380D01*
X4183967Y-18008380D02*
X4193491Y-17989332D01*
X4193491Y-17989332D02*
X4203015Y-17979808D01*
X4203015Y-17979808D02*
X4222063Y-17970285D01*
X4412539Y-17970285D02*
X4431586Y-17970285D01*
X4431586Y-17970285D02*
X4450634Y-17979808D01*
X4450634Y-17979808D02*
X4460158Y-17989332D01*
X4460158Y-17989332D02*
X4469682Y-18008380D01*
X4469682Y-18008380D02*
X4479205Y-18046475D01*
X4479205Y-18046475D02*
X4479205Y-18094094D01*
X4479205Y-18094094D02*
X4469682Y-18132189D01*
X4469682Y-18132189D02*
X4460158Y-18151237D01*
X4460158Y-18151237D02*
X4450634Y-18160761D01*
X4450634Y-18160761D02*
X4431586Y-18170285D01*
X4431586Y-18170285D02*
X4412539Y-18170285D01*
X4412539Y-18170285D02*
X4393491Y-18160761D01*
X4393491Y-18160761D02*
X4383967Y-18151237D01*
X4383967Y-18151237D02*
X4374444Y-18132189D01*
X4374444Y-18132189D02*
X4364920Y-18094094D01*
X4364920Y-18094094D02*
X4364920Y-18046475D01*
X4364920Y-18046475D02*
X4374444Y-18008380D01*
X4374444Y-18008380D02*
X4383967Y-17989332D01*
X4383967Y-17989332D02*
X4393491Y-17979808D01*
X4393491Y-17979808D02*
X4412539Y-17970285D01*
X4564920Y-18170285D02*
X4564920Y-18036951D01*
X4564920Y-18055999D02*
X4574444Y-18046475D01*
X4574444Y-18046475D02*
X4593491Y-18036951D01*
X4593491Y-18036951D02*
X4622063Y-18036951D01*
X4622063Y-18036951D02*
X4641110Y-18046475D01*
X4641110Y-18046475D02*
X4650634Y-18065523D01*
X4650634Y-18065523D02*
X4650634Y-18170285D01*
X4650634Y-18065523D02*
X4660158Y-18046475D01*
X4660158Y-18046475D02*
X4679205Y-18036951D01*
X4679205Y-18036951D02*
X4707777Y-18036951D01*
X4707777Y-18036951D02*
X4726825Y-18046475D01*
X4726825Y-18046475D02*
X4736348Y-18065523D01*
X4736348Y-18065523D02*
X4736348Y-18170285D01*
X4831586Y-18170285D02*
X4831586Y-18036951D01*
X4831586Y-18055999D02*
X4841110Y-18046475D01*
X4841110Y-18046475D02*
X4860158Y-18036951D01*
X4860158Y-18036951D02*
X4888729Y-18036951D01*
X4888729Y-18036951D02*
X4907777Y-18046475D01*
X4907777Y-18046475D02*
X4917301Y-18065523D01*
X4917301Y-18065523D02*
X4917301Y-18170285D01*
X4917301Y-18065523D02*
X4926825Y-18046475D01*
X4926825Y-18046475D02*
X4945872Y-18036951D01*
X4945872Y-18036951D02*
X4974444Y-18036951D01*
X4974444Y-18036951D02*
X4993491Y-18046475D01*
X4993491Y-18046475D02*
X5003015Y-18065523D01*
X5003015Y-18065523D02*
X5003015Y-18170285D01*
X5393491Y-17960761D02*
X5222063Y-18217904D01*
X5650634Y-17970285D02*
X5669682Y-17970285D01*
X5669682Y-17970285D02*
X5688729Y-17979808D01*
X5688729Y-17979808D02*
X5698253Y-17989332D01*
X5698253Y-17989332D02*
X5707777Y-18008380D01*
X5707777Y-18008380D02*
X5717301Y-18046475D01*
X5717301Y-18046475D02*
X5717301Y-18094094D01*
X5717301Y-18094094D02*
X5707777Y-18132189D01*
X5707777Y-18132189D02*
X5698253Y-18151237D01*
X5698253Y-18151237D02*
X5688729Y-18160761D01*
X5688729Y-18160761D02*
X5669682Y-18170285D01*
X5669682Y-18170285D02*
X5650634Y-18170285D01*
X5650634Y-18170285D02*
X5631586Y-18160761D01*
X5631586Y-18160761D02*
X5622063Y-18151237D01*
X5622063Y-18151237D02*
X5612539Y-18132189D01*
X5612539Y-18132189D02*
X5603015Y-18094094D01*
X5603015Y-18094094D02*
X5603015Y-18046475D01*
X5603015Y-18046475D02*
X5612539Y-18008380D01*
X5612539Y-18008380D02*
X5622063Y-17989332D01*
X5622063Y-17989332D02*
X5631586Y-17979808D01*
X5631586Y-17979808D02*
X5650634Y-17970285D01*
X5803015Y-18151237D02*
X5812539Y-18160761D01*
X5812539Y-18160761D02*
X5803015Y-18170285D01*
X5803015Y-18170285D02*
X5793491Y-18160761D01*
X5793491Y-18160761D02*
X5803015Y-18151237D01*
X5803015Y-18151237D02*
X5803015Y-18170285D01*
X5936348Y-17970285D02*
X5955396Y-17970285D01*
X5955396Y-17970285D02*
X5974444Y-17979808D01*
X5974444Y-17979808D02*
X5983967Y-17989332D01*
X5983967Y-17989332D02*
X5993491Y-18008380D01*
X5993491Y-18008380D02*
X6003015Y-18046475D01*
X6003015Y-18046475D02*
X6003015Y-18094094D01*
X6003015Y-18094094D02*
X5993491Y-18132189D01*
X5993491Y-18132189D02*
X5983967Y-18151237D01*
X5983967Y-18151237D02*
X5974444Y-18160761D01*
X5974444Y-18160761D02*
X5955396Y-18170285D01*
X5955396Y-18170285D02*
X5936348Y-18170285D01*
X5936348Y-18170285D02*
X5917301Y-18160761D01*
X5917301Y-18160761D02*
X5907777Y-18151237D01*
X5907777Y-18151237D02*
X5898253Y-18132189D01*
X5898253Y-18132189D02*
X5888729Y-18094094D01*
X5888729Y-18094094D02*
X5888729Y-18046475D01*
X5888729Y-18046475D02*
X5898253Y-18008380D01*
X5898253Y-18008380D02*
X5907777Y-17989332D01*
X5907777Y-17989332D02*
X5917301Y-17979808D01*
X5917301Y-17979808D02*
X5936348Y-17970285D01*
X6193491Y-18170285D02*
X6079206Y-18170285D01*
X6136348Y-18170285D02*
X6136348Y-17970285D01*
X6136348Y-17970285D02*
X6117301Y-17998856D01*
X6117301Y-17998856D02*
X6098253Y-18017904D01*
X6098253Y-18017904D02*
X6079206Y-18027427D01*
X6374444Y-17970285D02*
X6279206Y-17970285D01*
X6279206Y-17970285D02*
X6269682Y-18065523D01*
X6269682Y-18065523D02*
X6279206Y-18055999D01*
X6279206Y-18055999D02*
X6298253Y-18046475D01*
X6298253Y-18046475D02*
X6345872Y-18046475D01*
X6345872Y-18046475D02*
X6364920Y-18055999D01*
X6364920Y-18055999D02*
X6374444Y-18065523D01*
X6374444Y-18065523D02*
X6383967Y-18084570D01*
X6383967Y-18084570D02*
X6383967Y-18132189D01*
X6383967Y-18132189D02*
X6374444Y-18151237D01*
X6374444Y-18151237D02*
X6364920Y-18160761D01*
X6364920Y-18160761D02*
X6345872Y-18170285D01*
X6345872Y-18170285D02*
X6298253Y-18170285D01*
X6298253Y-18170285D02*
X6279206Y-18160761D01*
X6279206Y-18160761D02*
X6269682Y-18151237D01*
X6450634Y-17970285D02*
X6583967Y-17970285D01*
X6583967Y-17970285D02*
X6498253Y-18170285D01*
X6650634Y-17970285D02*
X6650634Y-18008380D01*
X6726825Y-17970285D02*
X6726825Y-18008380D01*
X7022063Y-18246475D02*
X7012539Y-18236951D01*
X7012539Y-18236951D02*
X6993491Y-18208380D01*
X6993491Y-18208380D02*
X6983968Y-18189332D01*
X6983968Y-18189332D02*
X6974444Y-18160761D01*
X6974444Y-18160761D02*
X6964920Y-18113142D01*
X6964920Y-18113142D02*
X6964920Y-18075046D01*
X6964920Y-18075046D02*
X6974444Y-18027427D01*
X6974444Y-18027427D02*
X6983968Y-17998856D01*
X6983968Y-17998856D02*
X6993491Y-17979808D01*
X6993491Y-17979808D02*
X7012539Y-17951237D01*
X7012539Y-17951237D02*
X7022063Y-17941713D01*
X7203015Y-18170285D02*
X7088729Y-18170285D01*
X7145872Y-18170285D02*
X7145872Y-17970285D01*
X7145872Y-17970285D02*
X7126825Y-17998856D01*
X7126825Y-17998856D02*
X7107777Y-18017904D01*
X7107777Y-18017904D02*
X7088729Y-18027427D01*
X7269682Y-17970285D02*
X7393491Y-17970285D01*
X7393491Y-17970285D02*
X7326825Y-18046475D01*
X7326825Y-18046475D02*
X7355396Y-18046475D01*
X7355396Y-18046475D02*
X7374444Y-18055999D01*
X7374444Y-18055999D02*
X7383968Y-18065523D01*
X7383968Y-18065523D02*
X7393491Y-18084570D01*
X7393491Y-18084570D02*
X7393491Y-18132189D01*
X7393491Y-18132189D02*
X7383968Y-18151237D01*
X7383968Y-18151237D02*
X7374444Y-18160761D01*
X7374444Y-18160761D02*
X7355396Y-18170285D01*
X7355396Y-18170285D02*
X7298253Y-18170285D01*
X7298253Y-18170285D02*
X7279206Y-18160761D01*
X7279206Y-18160761D02*
X7269682Y-18151237D01*
X7583968Y-18170285D02*
X7469682Y-18170285D01*
X7526825Y-18170285D02*
X7526825Y-17970285D01*
X7526825Y-17970285D02*
X7507777Y-17998856D01*
X7507777Y-17998856D02*
X7488729Y-18017904D01*
X7488729Y-18017904D02*
X7469682Y-18027427D01*
X7822063Y-18170285D02*
X7822063Y-17970285D01*
X7907777Y-18170285D02*
X7907777Y-18065523D01*
X7907777Y-18065523D02*
X7898253Y-18046475D01*
X7898253Y-18046475D02*
X7879206Y-18036951D01*
X7879206Y-18036951D02*
X7850634Y-18036951D01*
X7850634Y-18036951D02*
X7831587Y-18046475D01*
X7831587Y-18046475D02*
X7822063Y-18055999D01*
X8031587Y-18170285D02*
X8012539Y-18160761D01*
X8012539Y-18160761D02*
X8003015Y-18151237D01*
X8003015Y-18151237D02*
X7993491Y-18132189D01*
X7993491Y-18132189D02*
X7993491Y-18075046D01*
X7993491Y-18075046D02*
X8003015Y-18055999D01*
X8003015Y-18055999D02*
X8012539Y-18046475D01*
X8012539Y-18046475D02*
X8031587Y-18036951D01*
X8031587Y-18036951D02*
X8060158Y-18036951D01*
X8060158Y-18036951D02*
X8079206Y-18046475D01*
X8079206Y-18046475D02*
X8088730Y-18055999D01*
X8088730Y-18055999D02*
X8098253Y-18075046D01*
X8098253Y-18075046D02*
X8098253Y-18132189D01*
X8098253Y-18132189D02*
X8088730Y-18151237D01*
X8088730Y-18151237D02*
X8079206Y-18160761D01*
X8079206Y-18160761D02*
X8060158Y-18170285D01*
X8060158Y-18170285D02*
X8031587Y-18170285D01*
X8212539Y-18170285D02*
X8193491Y-18160761D01*
X8193491Y-18160761D02*
X8183968Y-18141713D01*
X8183968Y-18141713D02*
X8183968Y-17970285D01*
X8364920Y-18160761D02*
X8345872Y-18170285D01*
X8345872Y-18170285D02*
X8307777Y-18170285D01*
X8307777Y-18170285D02*
X8288730Y-18160761D01*
X8288730Y-18160761D02*
X8279206Y-18141713D01*
X8279206Y-18141713D02*
X8279206Y-18065523D01*
X8279206Y-18065523D02*
X8288730Y-18046475D01*
X8288730Y-18046475D02*
X8307777Y-18036951D01*
X8307777Y-18036951D02*
X8345872Y-18036951D01*
X8345872Y-18036951D02*
X8364920Y-18046475D01*
X8364920Y-18046475D02*
X8374444Y-18065523D01*
X8374444Y-18065523D02*
X8374444Y-18084570D01*
X8374444Y-18084570D02*
X8279206Y-18103618D01*
X8450634Y-18160761D02*
X8469682Y-18170285D01*
X8469682Y-18170285D02*
X8507777Y-18170285D01*
X8507777Y-18170285D02*
X8526825Y-18160761D01*
X8526825Y-18160761D02*
X8536349Y-18141713D01*
X8536349Y-18141713D02*
X8536349Y-18132189D01*
X8536349Y-18132189D02*
X8526825Y-18113142D01*
X8526825Y-18113142D02*
X8507777Y-18103618D01*
X8507777Y-18103618D02*
X8479206Y-18103618D01*
X8479206Y-18103618D02*
X8460158Y-18094094D01*
X8460158Y-18094094D02*
X8450634Y-18075046D01*
X8450634Y-18075046D02*
X8450634Y-18065523D01*
X8450634Y-18065523D02*
X8460158Y-18046475D01*
X8460158Y-18046475D02*
X8479206Y-18036951D01*
X8479206Y-18036951D02*
X8507777Y-18036951D01*
X8507777Y-18036951D02*
X8526825Y-18046475D01*
X8603015Y-18246475D02*
X8612539Y-18236951D01*
X8612539Y-18236951D02*
X8631587Y-18208380D01*
X8631587Y-18208380D02*
X8641111Y-18189332D01*
X8641111Y-18189332D02*
X8650634Y-18160761D01*
X8650634Y-18160761D02*
X8660158Y-18113142D01*
X8660158Y-18113142D02*
X8660158Y-18075046D01*
X8660158Y-18075046D02*
X8650634Y-18027427D01*
X8650634Y-18027427D02*
X8641111Y-17998856D01*
X8641111Y-17998856D02*
X8631587Y-17979808D01*
X8631587Y-17979808D02*
X8612539Y-17951237D01*
X8612539Y-17951237D02*
X8603015Y-17941713D01*
D13*
X3447000Y-18342801D02*
G75*
G03*
X3447000Y-18342801I-45000J0D01*
G01*
D11*
X3745872Y-18234285D02*
X3764920Y-18234285D01*
X3764920Y-18234285D02*
X3783967Y-18243808D01*
X3783967Y-18243808D02*
X3793491Y-18253332D01*
X3793491Y-18253332D02*
X3803015Y-18272380D01*
X3803015Y-18272380D02*
X3812539Y-18310475D01*
X3812539Y-18310475D02*
X3812539Y-18358094D01*
X3812539Y-18358094D02*
X3803015Y-18396189D01*
X3803015Y-18396189D02*
X3793491Y-18415237D01*
X3793491Y-18415237D02*
X3783967Y-18424761D01*
X3783967Y-18424761D02*
X3764920Y-18434285D01*
X3764920Y-18434285D02*
X3745872Y-18434285D01*
X3745872Y-18434285D02*
X3726824Y-18424761D01*
X3726824Y-18424761D02*
X3717301Y-18415237D01*
X3717301Y-18415237D02*
X3707777Y-18396189D01*
X3707777Y-18396189D02*
X3698253Y-18358094D01*
X3698253Y-18358094D02*
X3698253Y-18310475D01*
X3698253Y-18310475D02*
X3707777Y-18272380D01*
X3707777Y-18272380D02*
X3717301Y-18253332D01*
X3717301Y-18253332D02*
X3726824Y-18243808D01*
X3726824Y-18243808D02*
X3745872Y-18234285D01*
X3898253Y-18415237D02*
X3907777Y-18424761D01*
X3907777Y-18424761D02*
X3898253Y-18434285D01*
X3898253Y-18434285D02*
X3888729Y-18424761D01*
X3888729Y-18424761D02*
X3898253Y-18415237D01*
X3898253Y-18415237D02*
X3898253Y-18434285D01*
X4003015Y-18434285D02*
X4041110Y-18434285D01*
X4041110Y-18434285D02*
X4060158Y-18424761D01*
X4060158Y-18424761D02*
X4069682Y-18415237D01*
X4069682Y-18415237D02*
X4088729Y-18386665D01*
X4088729Y-18386665D02*
X4098253Y-18348570D01*
X4098253Y-18348570D02*
X4098253Y-18272380D01*
X4098253Y-18272380D02*
X4088729Y-18253332D01*
X4088729Y-18253332D02*
X4079205Y-18243808D01*
X4079205Y-18243808D02*
X4060158Y-18234285D01*
X4060158Y-18234285D02*
X4022062Y-18234285D01*
X4022062Y-18234285D02*
X4003015Y-18243808D01*
X4003015Y-18243808D02*
X3993491Y-18253332D01*
X3993491Y-18253332D02*
X3983967Y-18272380D01*
X3983967Y-18272380D02*
X3983967Y-18319999D01*
X3983967Y-18319999D02*
X3993491Y-18339046D01*
X3993491Y-18339046D02*
X4003015Y-18348570D01*
X4003015Y-18348570D02*
X4022062Y-18358094D01*
X4022062Y-18358094D02*
X4060158Y-18358094D01*
X4060158Y-18358094D02*
X4079205Y-18348570D01*
X4079205Y-18348570D02*
X4088729Y-18339046D01*
X4088729Y-18339046D02*
X4098253Y-18319999D01*
X4222063Y-18234285D02*
X4241110Y-18234285D01*
X4241110Y-18234285D02*
X4260158Y-18243808D01*
X4260158Y-18243808D02*
X4269682Y-18253332D01*
X4269682Y-18253332D02*
X4279205Y-18272380D01*
X4279205Y-18272380D02*
X4288729Y-18310475D01*
X4288729Y-18310475D02*
X4288729Y-18358094D01*
X4288729Y-18358094D02*
X4279205Y-18396189D01*
X4279205Y-18396189D02*
X4269682Y-18415237D01*
X4269682Y-18415237D02*
X4260158Y-18424761D01*
X4260158Y-18424761D02*
X4241110Y-18434285D01*
X4241110Y-18434285D02*
X4222063Y-18434285D01*
X4222063Y-18434285D02*
X4203015Y-18424761D01*
X4203015Y-18424761D02*
X4193491Y-18415237D01*
X4193491Y-18415237D02*
X4183967Y-18396189D01*
X4183967Y-18396189D02*
X4174443Y-18358094D01*
X4174443Y-18358094D02*
X4174443Y-18310475D01*
X4174443Y-18310475D02*
X4183967Y-18272380D01*
X4183967Y-18272380D02*
X4193491Y-18253332D01*
X4193491Y-18253332D02*
X4203015Y-18243808D01*
X4203015Y-18243808D02*
X4222063Y-18234285D01*
X4412539Y-18234285D02*
X4431586Y-18234285D01*
X4431586Y-18234285D02*
X4450634Y-18243808D01*
X4450634Y-18243808D02*
X4460158Y-18253332D01*
X4460158Y-18253332D02*
X4469682Y-18272380D01*
X4469682Y-18272380D02*
X4479205Y-18310475D01*
X4479205Y-18310475D02*
X4479205Y-18358094D01*
X4479205Y-18358094D02*
X4469682Y-18396189D01*
X4469682Y-18396189D02*
X4460158Y-18415237D01*
X4460158Y-18415237D02*
X4450634Y-18424761D01*
X4450634Y-18424761D02*
X4431586Y-18434285D01*
X4431586Y-18434285D02*
X4412539Y-18434285D01*
X4412539Y-18434285D02*
X4393491Y-18424761D01*
X4393491Y-18424761D02*
X4383967Y-18415237D01*
X4383967Y-18415237D02*
X4374444Y-18396189D01*
X4374444Y-18396189D02*
X4364920Y-18358094D01*
X4364920Y-18358094D02*
X4364920Y-18310475D01*
X4364920Y-18310475D02*
X4374444Y-18272380D01*
X4374444Y-18272380D02*
X4383967Y-18253332D01*
X4383967Y-18253332D02*
X4393491Y-18243808D01*
X4393491Y-18243808D02*
X4412539Y-18234285D01*
X4564920Y-18434285D02*
X4564920Y-18300951D01*
X4564920Y-18319999D02*
X4574444Y-18310475D01*
X4574444Y-18310475D02*
X4593491Y-18300951D01*
X4593491Y-18300951D02*
X4622063Y-18300951D01*
X4622063Y-18300951D02*
X4641110Y-18310475D01*
X4641110Y-18310475D02*
X4650634Y-18329523D01*
X4650634Y-18329523D02*
X4650634Y-18434285D01*
X4650634Y-18329523D02*
X4660158Y-18310475D01*
X4660158Y-18310475D02*
X4679205Y-18300951D01*
X4679205Y-18300951D02*
X4707777Y-18300951D01*
X4707777Y-18300951D02*
X4726825Y-18310475D01*
X4726825Y-18310475D02*
X4736348Y-18329523D01*
X4736348Y-18329523D02*
X4736348Y-18434285D01*
X4831586Y-18434285D02*
X4831586Y-18300951D01*
X4831586Y-18319999D02*
X4841110Y-18310475D01*
X4841110Y-18310475D02*
X4860158Y-18300951D01*
X4860158Y-18300951D02*
X4888729Y-18300951D01*
X4888729Y-18300951D02*
X4907777Y-18310475D01*
X4907777Y-18310475D02*
X4917301Y-18329523D01*
X4917301Y-18329523D02*
X4917301Y-18434285D01*
X4917301Y-18329523D02*
X4926825Y-18310475D01*
X4926825Y-18310475D02*
X4945872Y-18300951D01*
X4945872Y-18300951D02*
X4974444Y-18300951D01*
X4974444Y-18300951D02*
X4993491Y-18310475D01*
X4993491Y-18310475D02*
X5003015Y-18329523D01*
X5003015Y-18329523D02*
X5003015Y-18434285D01*
X5393491Y-18224761D02*
X5222063Y-18481904D01*
X5650634Y-18234285D02*
X5669682Y-18234285D01*
X5669682Y-18234285D02*
X5688729Y-18243808D01*
X5688729Y-18243808D02*
X5698253Y-18253332D01*
X5698253Y-18253332D02*
X5707777Y-18272380D01*
X5707777Y-18272380D02*
X5717301Y-18310475D01*
X5717301Y-18310475D02*
X5717301Y-18358094D01*
X5717301Y-18358094D02*
X5707777Y-18396189D01*
X5707777Y-18396189D02*
X5698253Y-18415237D01*
X5698253Y-18415237D02*
X5688729Y-18424761D01*
X5688729Y-18424761D02*
X5669682Y-18434285D01*
X5669682Y-18434285D02*
X5650634Y-18434285D01*
X5650634Y-18434285D02*
X5631586Y-18424761D01*
X5631586Y-18424761D02*
X5622063Y-18415237D01*
X5622063Y-18415237D02*
X5612539Y-18396189D01*
X5612539Y-18396189D02*
X5603015Y-18358094D01*
X5603015Y-18358094D02*
X5603015Y-18310475D01*
X5603015Y-18310475D02*
X5612539Y-18272380D01*
X5612539Y-18272380D02*
X5622063Y-18253332D01*
X5622063Y-18253332D02*
X5631586Y-18243808D01*
X5631586Y-18243808D02*
X5650634Y-18234285D01*
X5803015Y-18415237D02*
X5812539Y-18424761D01*
X5812539Y-18424761D02*
X5803015Y-18434285D01*
X5803015Y-18434285D02*
X5793491Y-18424761D01*
X5793491Y-18424761D02*
X5803015Y-18415237D01*
X5803015Y-18415237D02*
X5803015Y-18434285D01*
X5936348Y-18234285D02*
X5955396Y-18234285D01*
X5955396Y-18234285D02*
X5974444Y-18243808D01*
X5974444Y-18243808D02*
X5983967Y-18253332D01*
X5983967Y-18253332D02*
X5993491Y-18272380D01*
X5993491Y-18272380D02*
X6003015Y-18310475D01*
X6003015Y-18310475D02*
X6003015Y-18358094D01*
X6003015Y-18358094D02*
X5993491Y-18396189D01*
X5993491Y-18396189D02*
X5983967Y-18415237D01*
X5983967Y-18415237D02*
X5974444Y-18424761D01*
X5974444Y-18424761D02*
X5955396Y-18434285D01*
X5955396Y-18434285D02*
X5936348Y-18434285D01*
X5936348Y-18434285D02*
X5917301Y-18424761D01*
X5917301Y-18424761D02*
X5907777Y-18415237D01*
X5907777Y-18415237D02*
X5898253Y-18396189D01*
X5898253Y-18396189D02*
X5888729Y-18358094D01*
X5888729Y-18358094D02*
X5888729Y-18310475D01*
X5888729Y-18310475D02*
X5898253Y-18272380D01*
X5898253Y-18272380D02*
X5907777Y-18253332D01*
X5907777Y-18253332D02*
X5917301Y-18243808D01*
X5917301Y-18243808D02*
X5936348Y-18234285D01*
X6069682Y-18234285D02*
X6193491Y-18234285D01*
X6193491Y-18234285D02*
X6126825Y-18310475D01*
X6126825Y-18310475D02*
X6155396Y-18310475D01*
X6155396Y-18310475D02*
X6174444Y-18319999D01*
X6174444Y-18319999D02*
X6183967Y-18329523D01*
X6183967Y-18329523D02*
X6193491Y-18348570D01*
X6193491Y-18348570D02*
X6193491Y-18396189D01*
X6193491Y-18396189D02*
X6183967Y-18415237D01*
X6183967Y-18415237D02*
X6174444Y-18424761D01*
X6174444Y-18424761D02*
X6155396Y-18434285D01*
X6155396Y-18434285D02*
X6098253Y-18434285D01*
X6098253Y-18434285D02*
X6079206Y-18424761D01*
X6079206Y-18424761D02*
X6069682Y-18415237D01*
X6374444Y-18234285D02*
X6279206Y-18234285D01*
X6279206Y-18234285D02*
X6269682Y-18329523D01*
X6269682Y-18329523D02*
X6279206Y-18319999D01*
X6279206Y-18319999D02*
X6298253Y-18310475D01*
X6298253Y-18310475D02*
X6345872Y-18310475D01*
X6345872Y-18310475D02*
X6364920Y-18319999D01*
X6364920Y-18319999D02*
X6374444Y-18329523D01*
X6374444Y-18329523D02*
X6383967Y-18348570D01*
X6383967Y-18348570D02*
X6383967Y-18396189D01*
X6383967Y-18396189D02*
X6374444Y-18415237D01*
X6374444Y-18415237D02*
X6364920Y-18424761D01*
X6364920Y-18424761D02*
X6345872Y-18434285D01*
X6345872Y-18434285D02*
X6298253Y-18434285D01*
X6298253Y-18434285D02*
X6279206Y-18424761D01*
X6279206Y-18424761D02*
X6269682Y-18415237D01*
X6555396Y-18300951D02*
X6555396Y-18434285D01*
X6507777Y-18224761D02*
X6460158Y-18367618D01*
X6460158Y-18367618D02*
X6583967Y-18367618D01*
X6650634Y-18234285D02*
X6650634Y-18272380D01*
X6726825Y-18234285D02*
X6726825Y-18272380D01*
X7022063Y-18510475D02*
X7012539Y-18500951D01*
X7012539Y-18500951D02*
X6993491Y-18472380D01*
X6993491Y-18472380D02*
X6983968Y-18453332D01*
X6983968Y-18453332D02*
X6974444Y-18424761D01*
X6974444Y-18424761D02*
X6964920Y-18377142D01*
X6964920Y-18377142D02*
X6964920Y-18339046D01*
X6964920Y-18339046D02*
X6974444Y-18291427D01*
X6974444Y-18291427D02*
X6983968Y-18262856D01*
X6983968Y-18262856D02*
X6993491Y-18243808D01*
X6993491Y-18243808D02*
X7012539Y-18215237D01*
X7012539Y-18215237D02*
X7022063Y-18205713D01*
X7136348Y-18234285D02*
X7155396Y-18234285D01*
X7155396Y-18234285D02*
X7174444Y-18243808D01*
X7174444Y-18243808D02*
X7183968Y-18253332D01*
X7183968Y-18253332D02*
X7193491Y-18272380D01*
X7193491Y-18272380D02*
X7203015Y-18310475D01*
X7203015Y-18310475D02*
X7203015Y-18358094D01*
X7203015Y-18358094D02*
X7193491Y-18396189D01*
X7193491Y-18396189D02*
X7183968Y-18415237D01*
X7183968Y-18415237D02*
X7174444Y-18424761D01*
X7174444Y-18424761D02*
X7155396Y-18434285D01*
X7155396Y-18434285D02*
X7136348Y-18434285D01*
X7136348Y-18434285D02*
X7117301Y-18424761D01*
X7117301Y-18424761D02*
X7107777Y-18415237D01*
X7107777Y-18415237D02*
X7098253Y-18396189D01*
X7098253Y-18396189D02*
X7088729Y-18358094D01*
X7088729Y-18358094D02*
X7088729Y-18310475D01*
X7088729Y-18310475D02*
X7098253Y-18272380D01*
X7098253Y-18272380D02*
X7107777Y-18253332D01*
X7107777Y-18253332D02*
X7117301Y-18243808D01*
X7117301Y-18243808D02*
X7136348Y-18234285D01*
X7441110Y-18434285D02*
X7441110Y-18234285D01*
X7526825Y-18434285D02*
X7526825Y-18329523D01*
X7526825Y-18329523D02*
X7517301Y-18310475D01*
X7517301Y-18310475D02*
X7498253Y-18300951D01*
X7498253Y-18300951D02*
X7469682Y-18300951D01*
X7469682Y-18300951D02*
X7450634Y-18310475D01*
X7450634Y-18310475D02*
X7441110Y-18319999D01*
X7650634Y-18434285D02*
X7631587Y-18424761D01*
X7631587Y-18424761D02*
X7622063Y-18415237D01*
X7622063Y-18415237D02*
X7612539Y-18396189D01*
X7612539Y-18396189D02*
X7612539Y-18339046D01*
X7612539Y-18339046D02*
X7622063Y-18319999D01*
X7622063Y-18319999D02*
X7631587Y-18310475D01*
X7631587Y-18310475D02*
X7650634Y-18300951D01*
X7650634Y-18300951D02*
X7679206Y-18300951D01*
X7679206Y-18300951D02*
X7698253Y-18310475D01*
X7698253Y-18310475D02*
X7707777Y-18319999D01*
X7707777Y-18319999D02*
X7717301Y-18339046D01*
X7717301Y-18339046D02*
X7717301Y-18396189D01*
X7717301Y-18396189D02*
X7707777Y-18415237D01*
X7707777Y-18415237D02*
X7698253Y-18424761D01*
X7698253Y-18424761D02*
X7679206Y-18434285D01*
X7679206Y-18434285D02*
X7650634Y-18434285D01*
X7831587Y-18434285D02*
X7812539Y-18424761D01*
X7812539Y-18424761D02*
X7803015Y-18405713D01*
X7803015Y-18405713D02*
X7803015Y-18234285D01*
X7983968Y-18424761D02*
X7964920Y-18434285D01*
X7964920Y-18434285D02*
X7926825Y-18434285D01*
X7926825Y-18434285D02*
X7907777Y-18424761D01*
X7907777Y-18424761D02*
X7898253Y-18405713D01*
X7898253Y-18405713D02*
X7898253Y-18329523D01*
X7898253Y-18329523D02*
X7907777Y-18310475D01*
X7907777Y-18310475D02*
X7926825Y-18300951D01*
X7926825Y-18300951D02*
X7964920Y-18300951D01*
X7964920Y-18300951D02*
X7983968Y-18310475D01*
X7983968Y-18310475D02*
X7993491Y-18329523D01*
X7993491Y-18329523D02*
X7993491Y-18348570D01*
X7993491Y-18348570D02*
X7898253Y-18367618D01*
X8069682Y-18424761D02*
X8088730Y-18434285D01*
X8088730Y-18434285D02*
X8126825Y-18434285D01*
X8126825Y-18434285D02*
X8145872Y-18424761D01*
X8145872Y-18424761D02*
X8155396Y-18405713D01*
X8155396Y-18405713D02*
X8155396Y-18396189D01*
X8155396Y-18396189D02*
X8145872Y-18377142D01*
X8145872Y-18377142D02*
X8126825Y-18367618D01*
X8126825Y-18367618D02*
X8098253Y-18367618D01*
X8098253Y-18367618D02*
X8079206Y-18358094D01*
X8079206Y-18358094D02*
X8069682Y-18339046D01*
X8069682Y-18339046D02*
X8069682Y-18329523D01*
X8069682Y-18329523D02*
X8079206Y-18310475D01*
X8079206Y-18310475D02*
X8098253Y-18300951D01*
X8098253Y-18300951D02*
X8126825Y-18300951D01*
X8126825Y-18300951D02*
X8145872Y-18310475D01*
X8393492Y-18358094D02*
X8545873Y-18358094D01*
X8469682Y-18434285D02*
X8469682Y-18281904D01*
X8879206Y-18300951D02*
X8879206Y-18434285D01*
X8831587Y-18224761D02*
X8783968Y-18367618D01*
X8783968Y-18367618D02*
X8907777Y-18367618D01*
X9126825Y-18424761D02*
X9145873Y-18434285D01*
X9145873Y-18434285D02*
X9183968Y-18434285D01*
X9183968Y-18434285D02*
X9203016Y-18424761D01*
X9203016Y-18424761D02*
X9212539Y-18405713D01*
X9212539Y-18405713D02*
X9212539Y-18396189D01*
X9212539Y-18396189D02*
X9203016Y-18377142D01*
X9203016Y-18377142D02*
X9183968Y-18367618D01*
X9183968Y-18367618D02*
X9155396Y-18367618D01*
X9155396Y-18367618D02*
X9136349Y-18358094D01*
X9136349Y-18358094D02*
X9126825Y-18339046D01*
X9126825Y-18339046D02*
X9126825Y-18329523D01*
X9126825Y-18329523D02*
X9136349Y-18310475D01*
X9136349Y-18310475D02*
X9155396Y-18300951D01*
X9155396Y-18300951D02*
X9183968Y-18300951D01*
X9183968Y-18300951D02*
X9203016Y-18310475D01*
X9326825Y-18434285D02*
X9307777Y-18424761D01*
X9307777Y-18424761D02*
X9298254Y-18405713D01*
X9298254Y-18405713D02*
X9298254Y-18234285D01*
X9431587Y-18434285D02*
X9412539Y-18424761D01*
X9412539Y-18424761D02*
X9403016Y-18415237D01*
X9403016Y-18415237D02*
X9393492Y-18396189D01*
X9393492Y-18396189D02*
X9393492Y-18339046D01*
X9393492Y-18339046D02*
X9403016Y-18319999D01*
X9403016Y-18319999D02*
X9412539Y-18310475D01*
X9412539Y-18310475D02*
X9431587Y-18300951D01*
X9431587Y-18300951D02*
X9460158Y-18300951D01*
X9460158Y-18300951D02*
X9479206Y-18310475D01*
X9479206Y-18310475D02*
X9488730Y-18319999D01*
X9488730Y-18319999D02*
X9498254Y-18339046D01*
X9498254Y-18339046D02*
X9498254Y-18396189D01*
X9498254Y-18396189D02*
X9488730Y-18415237D01*
X9488730Y-18415237D02*
X9479206Y-18424761D01*
X9479206Y-18424761D02*
X9460158Y-18434285D01*
X9460158Y-18434285D02*
X9431587Y-18434285D01*
X9555397Y-18300951D02*
X9631587Y-18300951D01*
X9583968Y-18234285D02*
X9583968Y-18405713D01*
X9583968Y-18405713D02*
X9593492Y-18424761D01*
X9593492Y-18424761D02*
X9612539Y-18434285D01*
X9612539Y-18434285D02*
X9631587Y-18434285D01*
X9688730Y-18424761D02*
X9707777Y-18434285D01*
X9707777Y-18434285D02*
X9745873Y-18434285D01*
X9745873Y-18434285D02*
X9764920Y-18424761D01*
X9764920Y-18424761D02*
X9774444Y-18405713D01*
X9774444Y-18405713D02*
X9774444Y-18396189D01*
X9774444Y-18396189D02*
X9764920Y-18377142D01*
X9764920Y-18377142D02*
X9745873Y-18367618D01*
X9745873Y-18367618D02*
X9717301Y-18367618D01*
X9717301Y-18367618D02*
X9698254Y-18358094D01*
X9698254Y-18358094D02*
X9688730Y-18339046D01*
X9688730Y-18339046D02*
X9688730Y-18329523D01*
X9688730Y-18329523D02*
X9698254Y-18310475D01*
X9698254Y-18310475D02*
X9717301Y-18300951D01*
X9717301Y-18300951D02*
X9745873Y-18300951D01*
X9745873Y-18300951D02*
X9764920Y-18310475D01*
X9841111Y-18510475D02*
X9850635Y-18500951D01*
X9850635Y-18500951D02*
X9869682Y-18472380D01*
X9869682Y-18472380D02*
X9879206Y-18453332D01*
X9879206Y-18453332D02*
X9888730Y-18424761D01*
X9888730Y-18424761D02*
X9898254Y-18377142D01*
X9898254Y-18377142D02*
X9898254Y-18339046D01*
X9898254Y-18339046D02*
X9888730Y-18291427D01*
X9888730Y-18291427D02*
X9879206Y-18262856D01*
X9879206Y-18262856D02*
X9869682Y-18243808D01*
X9869682Y-18243808D02*
X9850635Y-18215237D01*
X9850635Y-18215237D02*
X9841111Y-18205713D01*
D10*
X3397000Y-18556801D02*
X3397000Y-18656801D01*
X3347000Y-18606801D02*
X3447000Y-18606801D01*
D11*
X3812539Y-18698285D02*
X3698253Y-18698285D01*
X3755396Y-18698285D02*
X3755396Y-18498285D01*
X3755396Y-18498285D02*
X3736348Y-18526856D01*
X3736348Y-18526856D02*
X3717301Y-18545904D01*
X3717301Y-18545904D02*
X3698253Y-18555427D01*
X3898253Y-18679237D02*
X3907777Y-18688761D01*
X3907777Y-18688761D02*
X3898253Y-18698285D01*
X3898253Y-18698285D02*
X3888729Y-18688761D01*
X3888729Y-18688761D02*
X3898253Y-18679237D01*
X3898253Y-18679237D02*
X3898253Y-18698285D01*
X4031586Y-18498285D02*
X4050634Y-18498285D01*
X4050634Y-18498285D02*
X4069682Y-18507808D01*
X4069682Y-18507808D02*
X4079205Y-18517332D01*
X4079205Y-18517332D02*
X4088729Y-18536380D01*
X4088729Y-18536380D02*
X4098253Y-18574475D01*
X4098253Y-18574475D02*
X4098253Y-18622094D01*
X4098253Y-18622094D02*
X4088729Y-18660189D01*
X4088729Y-18660189D02*
X4079205Y-18679237D01*
X4079205Y-18679237D02*
X4069682Y-18688761D01*
X4069682Y-18688761D02*
X4050634Y-18698285D01*
X4050634Y-18698285D02*
X4031586Y-18698285D01*
X4031586Y-18698285D02*
X4012539Y-18688761D01*
X4012539Y-18688761D02*
X4003015Y-18679237D01*
X4003015Y-18679237D02*
X3993491Y-18660189D01*
X3993491Y-18660189D02*
X3983967Y-18622094D01*
X3983967Y-18622094D02*
X3983967Y-18574475D01*
X3983967Y-18574475D02*
X3993491Y-18536380D01*
X3993491Y-18536380D02*
X4003015Y-18517332D01*
X4003015Y-18517332D02*
X4012539Y-18507808D01*
X4012539Y-18507808D02*
X4031586Y-18498285D01*
X4222063Y-18498285D02*
X4241110Y-18498285D01*
X4241110Y-18498285D02*
X4260158Y-18507808D01*
X4260158Y-18507808D02*
X4269682Y-18517332D01*
X4269682Y-18517332D02*
X4279205Y-18536380D01*
X4279205Y-18536380D02*
X4288729Y-18574475D01*
X4288729Y-18574475D02*
X4288729Y-18622094D01*
X4288729Y-18622094D02*
X4279205Y-18660189D01*
X4279205Y-18660189D02*
X4269682Y-18679237D01*
X4269682Y-18679237D02*
X4260158Y-18688761D01*
X4260158Y-18688761D02*
X4241110Y-18698285D01*
X4241110Y-18698285D02*
X4222063Y-18698285D01*
X4222063Y-18698285D02*
X4203015Y-18688761D01*
X4203015Y-18688761D02*
X4193491Y-18679237D01*
X4193491Y-18679237D02*
X4183967Y-18660189D01*
X4183967Y-18660189D02*
X4174443Y-18622094D01*
X4174443Y-18622094D02*
X4174443Y-18574475D01*
X4174443Y-18574475D02*
X4183967Y-18536380D01*
X4183967Y-18536380D02*
X4193491Y-18517332D01*
X4193491Y-18517332D02*
X4203015Y-18507808D01*
X4203015Y-18507808D02*
X4222063Y-18498285D01*
X4412539Y-18498285D02*
X4431586Y-18498285D01*
X4431586Y-18498285D02*
X4450634Y-18507808D01*
X4450634Y-18507808D02*
X4460158Y-18517332D01*
X4460158Y-18517332D02*
X4469682Y-18536380D01*
X4469682Y-18536380D02*
X4479205Y-18574475D01*
X4479205Y-18574475D02*
X4479205Y-18622094D01*
X4479205Y-18622094D02*
X4469682Y-18660189D01*
X4469682Y-18660189D02*
X4460158Y-18679237D01*
X4460158Y-18679237D02*
X4450634Y-18688761D01*
X4450634Y-18688761D02*
X4431586Y-18698285D01*
X4431586Y-18698285D02*
X4412539Y-18698285D01*
X4412539Y-18698285D02*
X4393491Y-18688761D01*
X4393491Y-18688761D02*
X4383967Y-18679237D01*
X4383967Y-18679237D02*
X4374444Y-18660189D01*
X4374444Y-18660189D02*
X4364920Y-18622094D01*
X4364920Y-18622094D02*
X4364920Y-18574475D01*
X4364920Y-18574475D02*
X4374444Y-18536380D01*
X4374444Y-18536380D02*
X4383967Y-18517332D01*
X4383967Y-18517332D02*
X4393491Y-18507808D01*
X4393491Y-18507808D02*
X4412539Y-18498285D01*
X4564920Y-18698285D02*
X4564920Y-18564951D01*
X4564920Y-18583999D02*
X4574444Y-18574475D01*
X4574444Y-18574475D02*
X4593491Y-18564951D01*
X4593491Y-18564951D02*
X4622063Y-18564951D01*
X4622063Y-18564951D02*
X4641110Y-18574475D01*
X4641110Y-18574475D02*
X4650634Y-18593523D01*
X4650634Y-18593523D02*
X4650634Y-18698285D01*
X4650634Y-18593523D02*
X4660158Y-18574475D01*
X4660158Y-18574475D02*
X4679205Y-18564951D01*
X4679205Y-18564951D02*
X4707777Y-18564951D01*
X4707777Y-18564951D02*
X4726825Y-18574475D01*
X4726825Y-18574475D02*
X4736348Y-18593523D01*
X4736348Y-18593523D02*
X4736348Y-18698285D01*
X4831586Y-18698285D02*
X4831586Y-18564951D01*
X4831586Y-18583999D02*
X4841110Y-18574475D01*
X4841110Y-18574475D02*
X4860158Y-18564951D01*
X4860158Y-18564951D02*
X4888729Y-18564951D01*
X4888729Y-18564951D02*
X4907777Y-18574475D01*
X4907777Y-18574475D02*
X4917301Y-18593523D01*
X4917301Y-18593523D02*
X4917301Y-18698285D01*
X4917301Y-18593523D02*
X4926825Y-18574475D01*
X4926825Y-18574475D02*
X4945872Y-18564951D01*
X4945872Y-18564951D02*
X4974444Y-18564951D01*
X4974444Y-18564951D02*
X4993491Y-18574475D01*
X4993491Y-18574475D02*
X5003015Y-18593523D01*
X5003015Y-18593523D02*
X5003015Y-18698285D01*
X5393491Y-18488761D02*
X5222063Y-18745904D01*
X5650634Y-18498285D02*
X5669682Y-18498285D01*
X5669682Y-18498285D02*
X5688729Y-18507808D01*
X5688729Y-18507808D02*
X5698253Y-18517332D01*
X5698253Y-18517332D02*
X5707777Y-18536380D01*
X5707777Y-18536380D02*
X5717301Y-18574475D01*
X5717301Y-18574475D02*
X5717301Y-18622094D01*
X5717301Y-18622094D02*
X5707777Y-18660189D01*
X5707777Y-18660189D02*
X5698253Y-18679237D01*
X5698253Y-18679237D02*
X5688729Y-18688761D01*
X5688729Y-18688761D02*
X5669682Y-18698285D01*
X5669682Y-18698285D02*
X5650634Y-18698285D01*
X5650634Y-18698285D02*
X5631586Y-18688761D01*
X5631586Y-18688761D02*
X5622063Y-18679237D01*
X5622063Y-18679237D02*
X5612539Y-18660189D01*
X5612539Y-18660189D02*
X5603015Y-18622094D01*
X5603015Y-18622094D02*
X5603015Y-18574475D01*
X5603015Y-18574475D02*
X5612539Y-18536380D01*
X5612539Y-18536380D02*
X5622063Y-18517332D01*
X5622063Y-18517332D02*
X5631586Y-18507808D01*
X5631586Y-18507808D02*
X5650634Y-18498285D01*
X5803015Y-18679237D02*
X5812539Y-18688761D01*
X5812539Y-18688761D02*
X5803015Y-18698285D01*
X5803015Y-18698285D02*
X5793491Y-18688761D01*
X5793491Y-18688761D02*
X5803015Y-18679237D01*
X5803015Y-18679237D02*
X5803015Y-18698285D01*
X5936348Y-18498285D02*
X5955396Y-18498285D01*
X5955396Y-18498285D02*
X5974444Y-18507808D01*
X5974444Y-18507808D02*
X5983967Y-18517332D01*
X5983967Y-18517332D02*
X5993491Y-18536380D01*
X5993491Y-18536380D02*
X6003015Y-18574475D01*
X6003015Y-18574475D02*
X6003015Y-18622094D01*
X6003015Y-18622094D02*
X5993491Y-18660189D01*
X5993491Y-18660189D02*
X5983967Y-18679237D01*
X5983967Y-18679237D02*
X5974444Y-18688761D01*
X5974444Y-18688761D02*
X5955396Y-18698285D01*
X5955396Y-18698285D02*
X5936348Y-18698285D01*
X5936348Y-18698285D02*
X5917301Y-18688761D01*
X5917301Y-18688761D02*
X5907777Y-18679237D01*
X5907777Y-18679237D02*
X5898253Y-18660189D01*
X5898253Y-18660189D02*
X5888729Y-18622094D01*
X5888729Y-18622094D02*
X5888729Y-18574475D01*
X5888729Y-18574475D02*
X5898253Y-18536380D01*
X5898253Y-18536380D02*
X5907777Y-18517332D01*
X5907777Y-18517332D02*
X5917301Y-18507808D01*
X5917301Y-18507808D02*
X5936348Y-18498285D01*
X6069682Y-18498285D02*
X6193491Y-18498285D01*
X6193491Y-18498285D02*
X6126825Y-18574475D01*
X6126825Y-18574475D02*
X6155396Y-18574475D01*
X6155396Y-18574475D02*
X6174444Y-18583999D01*
X6174444Y-18583999D02*
X6183967Y-18593523D01*
X6183967Y-18593523D02*
X6193491Y-18612570D01*
X6193491Y-18612570D02*
X6193491Y-18660189D01*
X6193491Y-18660189D02*
X6183967Y-18679237D01*
X6183967Y-18679237D02*
X6174444Y-18688761D01*
X6174444Y-18688761D02*
X6155396Y-18698285D01*
X6155396Y-18698285D02*
X6098253Y-18698285D01*
X6098253Y-18698285D02*
X6079206Y-18688761D01*
X6079206Y-18688761D02*
X6069682Y-18679237D01*
X6288729Y-18698285D02*
X6326825Y-18698285D01*
X6326825Y-18698285D02*
X6345872Y-18688761D01*
X6345872Y-18688761D02*
X6355396Y-18679237D01*
X6355396Y-18679237D02*
X6374444Y-18650665D01*
X6374444Y-18650665D02*
X6383967Y-18612570D01*
X6383967Y-18612570D02*
X6383967Y-18536380D01*
X6383967Y-18536380D02*
X6374444Y-18517332D01*
X6374444Y-18517332D02*
X6364920Y-18507808D01*
X6364920Y-18507808D02*
X6345872Y-18498285D01*
X6345872Y-18498285D02*
X6307777Y-18498285D01*
X6307777Y-18498285D02*
X6288729Y-18507808D01*
X6288729Y-18507808D02*
X6279206Y-18517332D01*
X6279206Y-18517332D02*
X6269682Y-18536380D01*
X6269682Y-18536380D02*
X6269682Y-18583999D01*
X6269682Y-18583999D02*
X6279206Y-18603046D01*
X6279206Y-18603046D02*
X6288729Y-18612570D01*
X6288729Y-18612570D02*
X6307777Y-18622094D01*
X6307777Y-18622094D02*
X6345872Y-18622094D01*
X6345872Y-18622094D02*
X6364920Y-18612570D01*
X6364920Y-18612570D02*
X6374444Y-18603046D01*
X6374444Y-18603046D02*
X6383967Y-18583999D01*
X6555396Y-18564951D02*
X6555396Y-18698285D01*
X6507777Y-18488761D02*
X6460158Y-18631618D01*
X6460158Y-18631618D02*
X6583967Y-18631618D01*
X6650634Y-18498285D02*
X6650634Y-18536380D01*
X6726825Y-18498285D02*
X6726825Y-18536380D01*
X7022063Y-18774475D02*
X7012539Y-18764951D01*
X7012539Y-18764951D02*
X6993491Y-18736380D01*
X6993491Y-18736380D02*
X6983968Y-18717332D01*
X6983968Y-18717332D02*
X6974444Y-18688761D01*
X6974444Y-18688761D02*
X6964920Y-18641142D01*
X6964920Y-18641142D02*
X6964920Y-18603046D01*
X6964920Y-18603046D02*
X6974444Y-18555427D01*
X6974444Y-18555427D02*
X6983968Y-18526856D01*
X6983968Y-18526856D02*
X6993491Y-18507808D01*
X6993491Y-18507808D02*
X7012539Y-18479237D01*
X7012539Y-18479237D02*
X7022063Y-18469713D01*
X7203015Y-18698285D02*
X7088729Y-18698285D01*
X7145872Y-18698285D02*
X7145872Y-18498285D01*
X7145872Y-18498285D02*
X7126825Y-18526856D01*
X7126825Y-18526856D02*
X7107777Y-18545904D01*
X7107777Y-18545904D02*
X7088729Y-18555427D01*
X7374444Y-18564951D02*
X7374444Y-18698285D01*
X7326825Y-18488761D02*
X7279206Y-18631618D01*
X7279206Y-18631618D02*
X7403015Y-18631618D01*
X7631587Y-18698285D02*
X7631587Y-18498285D01*
X7717301Y-18698285D02*
X7717301Y-18593523D01*
X7717301Y-18593523D02*
X7707777Y-18574475D01*
X7707777Y-18574475D02*
X7688730Y-18564951D01*
X7688730Y-18564951D02*
X7660158Y-18564951D01*
X7660158Y-18564951D02*
X7641110Y-18574475D01*
X7641110Y-18574475D02*
X7631587Y-18583999D01*
X7841110Y-18698285D02*
X7822063Y-18688761D01*
X7822063Y-18688761D02*
X7812539Y-18679237D01*
X7812539Y-18679237D02*
X7803015Y-18660189D01*
X7803015Y-18660189D02*
X7803015Y-18603046D01*
X7803015Y-18603046D02*
X7812539Y-18583999D01*
X7812539Y-18583999D02*
X7822063Y-18574475D01*
X7822063Y-18574475D02*
X7841110Y-18564951D01*
X7841110Y-18564951D02*
X7869682Y-18564951D01*
X7869682Y-18564951D02*
X7888730Y-18574475D01*
X7888730Y-18574475D02*
X7898253Y-18583999D01*
X7898253Y-18583999D02*
X7907777Y-18603046D01*
X7907777Y-18603046D02*
X7907777Y-18660189D01*
X7907777Y-18660189D02*
X7898253Y-18679237D01*
X7898253Y-18679237D02*
X7888730Y-18688761D01*
X7888730Y-18688761D02*
X7869682Y-18698285D01*
X7869682Y-18698285D02*
X7841110Y-18698285D01*
X8022063Y-18698285D02*
X8003015Y-18688761D01*
X8003015Y-18688761D02*
X7993491Y-18669713D01*
X7993491Y-18669713D02*
X7993491Y-18498285D01*
X8174444Y-18688761D02*
X8155396Y-18698285D01*
X8155396Y-18698285D02*
X8117301Y-18698285D01*
X8117301Y-18698285D02*
X8098253Y-18688761D01*
X8098253Y-18688761D02*
X8088730Y-18669713D01*
X8088730Y-18669713D02*
X8088730Y-18593523D01*
X8088730Y-18593523D02*
X8098253Y-18574475D01*
X8098253Y-18574475D02*
X8117301Y-18564951D01*
X8117301Y-18564951D02*
X8155396Y-18564951D01*
X8155396Y-18564951D02*
X8174444Y-18574475D01*
X8174444Y-18574475D02*
X8183968Y-18593523D01*
X8183968Y-18593523D02*
X8183968Y-18612570D01*
X8183968Y-18612570D02*
X8088730Y-18631618D01*
X8260158Y-18688761D02*
X8279206Y-18698285D01*
X8279206Y-18698285D02*
X8317301Y-18698285D01*
X8317301Y-18698285D02*
X8336349Y-18688761D01*
X8336349Y-18688761D02*
X8345872Y-18669713D01*
X8345872Y-18669713D02*
X8345872Y-18660189D01*
X8345872Y-18660189D02*
X8336349Y-18641142D01*
X8336349Y-18641142D02*
X8317301Y-18631618D01*
X8317301Y-18631618D02*
X8288730Y-18631618D01*
X8288730Y-18631618D02*
X8269682Y-18622094D01*
X8269682Y-18622094D02*
X8260158Y-18603046D01*
X8260158Y-18603046D02*
X8260158Y-18593523D01*
X8260158Y-18593523D02*
X8269682Y-18574475D01*
X8269682Y-18574475D02*
X8288730Y-18564951D01*
X8288730Y-18564951D02*
X8317301Y-18564951D01*
X8317301Y-18564951D02*
X8336349Y-18574475D01*
X8412539Y-18774475D02*
X8422063Y-18764951D01*
X8422063Y-18764951D02*
X8441111Y-18736380D01*
X8441111Y-18736380D02*
X8450634Y-18717332D01*
X8450634Y-18717332D02*
X8460158Y-18688761D01*
X8460158Y-18688761D02*
X8469682Y-18641142D01*
X8469682Y-18641142D02*
X8469682Y-18603046D01*
X8469682Y-18603046D02*
X8460158Y-18555427D01*
X8460158Y-18555427D02*
X8450634Y-18526856D01*
X8450634Y-18526856D02*
X8441111Y-18507808D01*
X8441111Y-18507808D02*
X8422063Y-18479237D01*
X8422063Y-18479237D02*
X8412539Y-18469713D01*
D14*
X3430891Y-18909692D02*
X3430891Y-18831910D01*
X3353109Y-18831910D01*
X3353109Y-18909692D01*
X3430891Y-18909692D01*
D11*
X3812539Y-18962285D02*
X3698253Y-18962285D01*
X3755396Y-18962285D02*
X3755396Y-18762285D01*
X3755396Y-18762285D02*
X3736348Y-18790856D01*
X3736348Y-18790856D02*
X3717301Y-18809904D01*
X3717301Y-18809904D02*
X3698253Y-18819427D01*
X3898253Y-18943237D02*
X3907777Y-18952761D01*
X3907777Y-18952761D02*
X3898253Y-18962285D01*
X3898253Y-18962285D02*
X3888729Y-18952761D01*
X3888729Y-18952761D02*
X3898253Y-18943237D01*
X3898253Y-18943237D02*
X3898253Y-18962285D01*
X4098253Y-18962285D02*
X3983967Y-18962285D01*
X4041110Y-18962285D02*
X4041110Y-18762285D01*
X4041110Y-18762285D02*
X4022062Y-18790856D01*
X4022062Y-18790856D02*
X4003015Y-18809904D01*
X4003015Y-18809904D02*
X3983967Y-18819427D01*
X4222063Y-18762285D02*
X4241110Y-18762285D01*
X4241110Y-18762285D02*
X4260158Y-18771808D01*
X4260158Y-18771808D02*
X4269682Y-18781332D01*
X4269682Y-18781332D02*
X4279205Y-18800380D01*
X4279205Y-18800380D02*
X4288729Y-18838475D01*
X4288729Y-18838475D02*
X4288729Y-18886094D01*
X4288729Y-18886094D02*
X4279205Y-18924189D01*
X4279205Y-18924189D02*
X4269682Y-18943237D01*
X4269682Y-18943237D02*
X4260158Y-18952761D01*
X4260158Y-18952761D02*
X4241110Y-18962285D01*
X4241110Y-18962285D02*
X4222063Y-18962285D01*
X4222063Y-18962285D02*
X4203015Y-18952761D01*
X4203015Y-18952761D02*
X4193491Y-18943237D01*
X4193491Y-18943237D02*
X4183967Y-18924189D01*
X4183967Y-18924189D02*
X4174443Y-18886094D01*
X4174443Y-18886094D02*
X4174443Y-18838475D01*
X4174443Y-18838475D02*
X4183967Y-18800380D01*
X4183967Y-18800380D02*
X4193491Y-18781332D01*
X4193491Y-18781332D02*
X4203015Y-18771808D01*
X4203015Y-18771808D02*
X4222063Y-18762285D01*
X4412539Y-18762285D02*
X4431586Y-18762285D01*
X4431586Y-18762285D02*
X4450634Y-18771808D01*
X4450634Y-18771808D02*
X4460158Y-18781332D01*
X4460158Y-18781332D02*
X4469682Y-18800380D01*
X4469682Y-18800380D02*
X4479205Y-18838475D01*
X4479205Y-18838475D02*
X4479205Y-18886094D01*
X4479205Y-18886094D02*
X4469682Y-18924189D01*
X4469682Y-18924189D02*
X4460158Y-18943237D01*
X4460158Y-18943237D02*
X4450634Y-18952761D01*
X4450634Y-18952761D02*
X4431586Y-18962285D01*
X4431586Y-18962285D02*
X4412539Y-18962285D01*
X4412539Y-18962285D02*
X4393491Y-18952761D01*
X4393491Y-18952761D02*
X4383967Y-18943237D01*
X4383967Y-18943237D02*
X4374444Y-18924189D01*
X4374444Y-18924189D02*
X4364920Y-18886094D01*
X4364920Y-18886094D02*
X4364920Y-18838475D01*
X4364920Y-18838475D02*
X4374444Y-18800380D01*
X4374444Y-18800380D02*
X4383967Y-18781332D01*
X4383967Y-18781332D02*
X4393491Y-18771808D01*
X4393491Y-18771808D02*
X4412539Y-18762285D01*
X4564920Y-18962285D02*
X4564920Y-18828951D01*
X4564920Y-18847999D02*
X4574444Y-18838475D01*
X4574444Y-18838475D02*
X4593491Y-18828951D01*
X4593491Y-18828951D02*
X4622063Y-18828951D01*
X4622063Y-18828951D02*
X4641110Y-18838475D01*
X4641110Y-18838475D02*
X4650634Y-18857523D01*
X4650634Y-18857523D02*
X4650634Y-18962285D01*
X4650634Y-18857523D02*
X4660158Y-18838475D01*
X4660158Y-18838475D02*
X4679205Y-18828951D01*
X4679205Y-18828951D02*
X4707777Y-18828951D01*
X4707777Y-18828951D02*
X4726825Y-18838475D01*
X4726825Y-18838475D02*
X4736348Y-18857523D01*
X4736348Y-18857523D02*
X4736348Y-18962285D01*
X4831586Y-18962285D02*
X4831586Y-18828951D01*
X4831586Y-18847999D02*
X4841110Y-18838475D01*
X4841110Y-18838475D02*
X4860158Y-18828951D01*
X4860158Y-18828951D02*
X4888729Y-18828951D01*
X4888729Y-18828951D02*
X4907777Y-18838475D01*
X4907777Y-18838475D02*
X4917301Y-18857523D01*
X4917301Y-18857523D02*
X4917301Y-18962285D01*
X4917301Y-18857523D02*
X4926825Y-18838475D01*
X4926825Y-18838475D02*
X4945872Y-18828951D01*
X4945872Y-18828951D02*
X4974444Y-18828951D01*
X4974444Y-18828951D02*
X4993491Y-18838475D01*
X4993491Y-18838475D02*
X5003015Y-18857523D01*
X5003015Y-18857523D02*
X5003015Y-18962285D01*
X5393491Y-18752761D02*
X5222063Y-19009904D01*
X5650634Y-18762285D02*
X5669682Y-18762285D01*
X5669682Y-18762285D02*
X5688729Y-18771808D01*
X5688729Y-18771808D02*
X5698253Y-18781332D01*
X5698253Y-18781332D02*
X5707777Y-18800380D01*
X5707777Y-18800380D02*
X5717301Y-18838475D01*
X5717301Y-18838475D02*
X5717301Y-18886094D01*
X5717301Y-18886094D02*
X5707777Y-18924189D01*
X5707777Y-18924189D02*
X5698253Y-18943237D01*
X5698253Y-18943237D02*
X5688729Y-18952761D01*
X5688729Y-18952761D02*
X5669682Y-18962285D01*
X5669682Y-18962285D02*
X5650634Y-18962285D01*
X5650634Y-18962285D02*
X5631586Y-18952761D01*
X5631586Y-18952761D02*
X5622063Y-18943237D01*
X5622063Y-18943237D02*
X5612539Y-18924189D01*
X5612539Y-18924189D02*
X5603015Y-18886094D01*
X5603015Y-18886094D02*
X5603015Y-18838475D01*
X5603015Y-18838475D02*
X5612539Y-18800380D01*
X5612539Y-18800380D02*
X5622063Y-18781332D01*
X5622063Y-18781332D02*
X5631586Y-18771808D01*
X5631586Y-18771808D02*
X5650634Y-18762285D01*
X5803015Y-18943237D02*
X5812539Y-18952761D01*
X5812539Y-18952761D02*
X5803015Y-18962285D01*
X5803015Y-18962285D02*
X5793491Y-18952761D01*
X5793491Y-18952761D02*
X5803015Y-18943237D01*
X5803015Y-18943237D02*
X5803015Y-18962285D01*
X5936348Y-18762285D02*
X5955396Y-18762285D01*
X5955396Y-18762285D02*
X5974444Y-18771808D01*
X5974444Y-18771808D02*
X5983967Y-18781332D01*
X5983967Y-18781332D02*
X5993491Y-18800380D01*
X5993491Y-18800380D02*
X6003015Y-18838475D01*
X6003015Y-18838475D02*
X6003015Y-18886094D01*
X6003015Y-18886094D02*
X5993491Y-18924189D01*
X5993491Y-18924189D02*
X5983967Y-18943237D01*
X5983967Y-18943237D02*
X5974444Y-18952761D01*
X5974444Y-18952761D02*
X5955396Y-18962285D01*
X5955396Y-18962285D02*
X5936348Y-18962285D01*
X5936348Y-18962285D02*
X5917301Y-18952761D01*
X5917301Y-18952761D02*
X5907777Y-18943237D01*
X5907777Y-18943237D02*
X5898253Y-18924189D01*
X5898253Y-18924189D02*
X5888729Y-18886094D01*
X5888729Y-18886094D02*
X5888729Y-18838475D01*
X5888729Y-18838475D02*
X5898253Y-18800380D01*
X5898253Y-18800380D02*
X5907777Y-18781332D01*
X5907777Y-18781332D02*
X5917301Y-18771808D01*
X5917301Y-18771808D02*
X5936348Y-18762285D01*
X6174444Y-18828951D02*
X6174444Y-18962285D01*
X6126825Y-18752761D02*
X6079206Y-18895618D01*
X6079206Y-18895618D02*
X6203015Y-18895618D01*
X6260158Y-18762285D02*
X6383967Y-18762285D01*
X6383967Y-18762285D02*
X6317301Y-18838475D01*
X6317301Y-18838475D02*
X6345872Y-18838475D01*
X6345872Y-18838475D02*
X6364920Y-18847999D01*
X6364920Y-18847999D02*
X6374444Y-18857523D01*
X6374444Y-18857523D02*
X6383967Y-18876570D01*
X6383967Y-18876570D02*
X6383967Y-18924189D01*
X6383967Y-18924189D02*
X6374444Y-18943237D01*
X6374444Y-18943237D02*
X6364920Y-18952761D01*
X6364920Y-18952761D02*
X6345872Y-18962285D01*
X6345872Y-18962285D02*
X6288729Y-18962285D01*
X6288729Y-18962285D02*
X6269682Y-18952761D01*
X6269682Y-18952761D02*
X6260158Y-18943237D01*
X6450634Y-18762285D02*
X6574444Y-18762285D01*
X6574444Y-18762285D02*
X6507777Y-18838475D01*
X6507777Y-18838475D02*
X6536348Y-18838475D01*
X6536348Y-18838475D02*
X6555396Y-18847999D01*
X6555396Y-18847999D02*
X6564920Y-18857523D01*
X6564920Y-18857523D02*
X6574444Y-18876570D01*
X6574444Y-18876570D02*
X6574444Y-18924189D01*
X6574444Y-18924189D02*
X6564920Y-18943237D01*
X6564920Y-18943237D02*
X6555396Y-18952761D01*
X6555396Y-18952761D02*
X6536348Y-18962285D01*
X6536348Y-18962285D02*
X6479206Y-18962285D01*
X6479206Y-18962285D02*
X6460158Y-18952761D01*
X6460158Y-18952761D02*
X6450634Y-18943237D01*
X6650634Y-18762285D02*
X6650634Y-18800380D01*
X6726825Y-18762285D02*
X6726825Y-18800380D01*
X7022063Y-19038475D02*
X7012539Y-19028951D01*
X7012539Y-19028951D02*
X6993491Y-19000380D01*
X6993491Y-19000380D02*
X6983968Y-18981332D01*
X6983968Y-18981332D02*
X6974444Y-18952761D01*
X6974444Y-18952761D02*
X6964920Y-18905142D01*
X6964920Y-18905142D02*
X6964920Y-18867046D01*
X6964920Y-18867046D02*
X6974444Y-18819427D01*
X6974444Y-18819427D02*
X6983968Y-18790856D01*
X6983968Y-18790856D02*
X6993491Y-18771808D01*
X6993491Y-18771808D02*
X7012539Y-18743237D01*
X7012539Y-18743237D02*
X7022063Y-18733713D01*
X7079206Y-18762285D02*
X7203015Y-18762285D01*
X7203015Y-18762285D02*
X7136348Y-18838475D01*
X7136348Y-18838475D02*
X7164920Y-18838475D01*
X7164920Y-18838475D02*
X7183968Y-18847999D01*
X7183968Y-18847999D02*
X7193491Y-18857523D01*
X7193491Y-18857523D02*
X7203015Y-18876570D01*
X7203015Y-18876570D02*
X7203015Y-18924189D01*
X7203015Y-18924189D02*
X7193491Y-18943237D01*
X7193491Y-18943237D02*
X7183968Y-18952761D01*
X7183968Y-18952761D02*
X7164920Y-18962285D01*
X7164920Y-18962285D02*
X7107777Y-18962285D01*
X7107777Y-18962285D02*
X7088729Y-18952761D01*
X7088729Y-18952761D02*
X7079206Y-18943237D01*
X7441110Y-18962285D02*
X7441110Y-18762285D01*
X7526825Y-18962285D02*
X7526825Y-18857523D01*
X7526825Y-18857523D02*
X7517301Y-18838475D01*
X7517301Y-18838475D02*
X7498253Y-18828951D01*
X7498253Y-18828951D02*
X7469682Y-18828951D01*
X7469682Y-18828951D02*
X7450634Y-18838475D01*
X7450634Y-18838475D02*
X7441110Y-18847999D01*
X7650634Y-18962285D02*
X7631587Y-18952761D01*
X7631587Y-18952761D02*
X7622063Y-18943237D01*
X7622063Y-18943237D02*
X7612539Y-18924189D01*
X7612539Y-18924189D02*
X7612539Y-18867046D01*
X7612539Y-18867046D02*
X7622063Y-18847999D01*
X7622063Y-18847999D02*
X7631587Y-18838475D01*
X7631587Y-18838475D02*
X7650634Y-18828951D01*
X7650634Y-18828951D02*
X7679206Y-18828951D01*
X7679206Y-18828951D02*
X7698253Y-18838475D01*
X7698253Y-18838475D02*
X7707777Y-18847999D01*
X7707777Y-18847999D02*
X7717301Y-18867046D01*
X7717301Y-18867046D02*
X7717301Y-18924189D01*
X7717301Y-18924189D02*
X7707777Y-18943237D01*
X7707777Y-18943237D02*
X7698253Y-18952761D01*
X7698253Y-18952761D02*
X7679206Y-18962285D01*
X7679206Y-18962285D02*
X7650634Y-18962285D01*
X7831587Y-18962285D02*
X7812539Y-18952761D01*
X7812539Y-18952761D02*
X7803015Y-18933713D01*
X7803015Y-18933713D02*
X7803015Y-18762285D01*
X7983968Y-18952761D02*
X7964920Y-18962285D01*
X7964920Y-18962285D02*
X7926825Y-18962285D01*
X7926825Y-18962285D02*
X7907777Y-18952761D01*
X7907777Y-18952761D02*
X7898253Y-18933713D01*
X7898253Y-18933713D02*
X7898253Y-18857523D01*
X7898253Y-18857523D02*
X7907777Y-18838475D01*
X7907777Y-18838475D02*
X7926825Y-18828951D01*
X7926825Y-18828951D02*
X7964920Y-18828951D01*
X7964920Y-18828951D02*
X7983968Y-18838475D01*
X7983968Y-18838475D02*
X7993491Y-18857523D01*
X7993491Y-18857523D02*
X7993491Y-18876570D01*
X7993491Y-18876570D02*
X7898253Y-18895618D01*
X8069682Y-18952761D02*
X8088730Y-18962285D01*
X8088730Y-18962285D02*
X8126825Y-18962285D01*
X8126825Y-18962285D02*
X8145872Y-18952761D01*
X8145872Y-18952761D02*
X8155396Y-18933713D01*
X8155396Y-18933713D02*
X8155396Y-18924189D01*
X8155396Y-18924189D02*
X8145872Y-18905142D01*
X8145872Y-18905142D02*
X8126825Y-18895618D01*
X8126825Y-18895618D02*
X8098253Y-18895618D01*
X8098253Y-18895618D02*
X8079206Y-18886094D01*
X8079206Y-18886094D02*
X8069682Y-18867046D01*
X8069682Y-18867046D02*
X8069682Y-18857523D01*
X8069682Y-18857523D02*
X8079206Y-18838475D01*
X8079206Y-18838475D02*
X8098253Y-18828951D01*
X8098253Y-18828951D02*
X8126825Y-18828951D01*
X8126825Y-18828951D02*
X8145872Y-18838475D01*
X8222063Y-19038475D02*
X8231587Y-19028951D01*
X8231587Y-19028951D02*
X8250634Y-19000380D01*
X8250634Y-19000380D02*
X8260158Y-18981332D01*
X8260158Y-18981332D02*
X8269682Y-18952761D01*
X8269682Y-18952761D02*
X8279206Y-18905142D01*
X8279206Y-18905142D02*
X8279206Y-18867046D01*
X8279206Y-18867046D02*
X8269682Y-18819427D01*
X8269682Y-18819427D02*
X8260158Y-18790856D01*
X8260158Y-18790856D02*
X8250634Y-18771808D01*
X8250634Y-18771808D02*
X8231587Y-18743237D01*
X8231587Y-18743237D02*
X8222063Y-18733713D01*
X3347000Y-19234801D02*
X3447000Y-19134801D01*
X3347000Y-19034801D01*
X3247000Y-19134801D01*
X3347000Y-19234801D01*
X3688729Y-19026285D02*
X3812539Y-19026285D01*
X3812539Y-19026285D02*
X3745872Y-19102475D01*
X3745872Y-19102475D02*
X3774443Y-19102475D01*
X3774443Y-19102475D02*
X3793491Y-19111999D01*
X3793491Y-19111999D02*
X3803015Y-19121523D01*
X3803015Y-19121523D02*
X3812539Y-19140570D01*
X3812539Y-19140570D02*
X3812539Y-19188189D01*
X3812539Y-19188189D02*
X3803015Y-19207237D01*
X3803015Y-19207237D02*
X3793491Y-19216761D01*
X3793491Y-19216761D02*
X3774443Y-19226285D01*
X3774443Y-19226285D02*
X3717301Y-19226285D01*
X3717301Y-19226285D02*
X3698253Y-19216761D01*
X3698253Y-19216761D02*
X3688729Y-19207237D01*
X3898253Y-19207237D02*
X3907777Y-19216761D01*
X3907777Y-19216761D02*
X3898253Y-19226285D01*
X3898253Y-19226285D02*
X3888729Y-19216761D01*
X3888729Y-19216761D02*
X3898253Y-19207237D01*
X3898253Y-19207237D02*
X3898253Y-19226285D01*
X4031586Y-19026285D02*
X4050634Y-19026285D01*
X4050634Y-19026285D02*
X4069682Y-19035808D01*
X4069682Y-19035808D02*
X4079205Y-19045332D01*
X4079205Y-19045332D02*
X4088729Y-19064380D01*
X4088729Y-19064380D02*
X4098253Y-19102475D01*
X4098253Y-19102475D02*
X4098253Y-19150094D01*
X4098253Y-19150094D02*
X4088729Y-19188189D01*
X4088729Y-19188189D02*
X4079205Y-19207237D01*
X4079205Y-19207237D02*
X4069682Y-19216761D01*
X4069682Y-19216761D02*
X4050634Y-19226285D01*
X4050634Y-19226285D02*
X4031586Y-19226285D01*
X4031586Y-19226285D02*
X4012539Y-19216761D01*
X4012539Y-19216761D02*
X4003015Y-19207237D01*
X4003015Y-19207237D02*
X3993491Y-19188189D01*
X3993491Y-19188189D02*
X3983967Y-19150094D01*
X3983967Y-19150094D02*
X3983967Y-19102475D01*
X3983967Y-19102475D02*
X3993491Y-19064380D01*
X3993491Y-19064380D02*
X4003015Y-19045332D01*
X4003015Y-19045332D02*
X4012539Y-19035808D01*
X4012539Y-19035808D02*
X4031586Y-19026285D01*
X4279205Y-19026285D02*
X4183967Y-19026285D01*
X4183967Y-19026285D02*
X4174443Y-19121523D01*
X4174443Y-19121523D02*
X4183967Y-19111999D01*
X4183967Y-19111999D02*
X4203015Y-19102475D01*
X4203015Y-19102475D02*
X4250634Y-19102475D01*
X4250634Y-19102475D02*
X4269682Y-19111999D01*
X4269682Y-19111999D02*
X4279205Y-19121523D01*
X4279205Y-19121523D02*
X4288729Y-19140570D01*
X4288729Y-19140570D02*
X4288729Y-19188189D01*
X4288729Y-19188189D02*
X4279205Y-19207237D01*
X4279205Y-19207237D02*
X4269682Y-19216761D01*
X4269682Y-19216761D02*
X4250634Y-19226285D01*
X4250634Y-19226285D02*
X4203015Y-19226285D01*
X4203015Y-19226285D02*
X4183967Y-19216761D01*
X4183967Y-19216761D02*
X4174443Y-19207237D01*
X4412539Y-19026285D02*
X4431586Y-19026285D01*
X4431586Y-19026285D02*
X4450634Y-19035808D01*
X4450634Y-19035808D02*
X4460158Y-19045332D01*
X4460158Y-19045332D02*
X4469682Y-19064380D01*
X4469682Y-19064380D02*
X4479205Y-19102475D01*
X4479205Y-19102475D02*
X4479205Y-19150094D01*
X4479205Y-19150094D02*
X4469682Y-19188189D01*
X4469682Y-19188189D02*
X4460158Y-19207237D01*
X4460158Y-19207237D02*
X4450634Y-19216761D01*
X4450634Y-19216761D02*
X4431586Y-19226285D01*
X4431586Y-19226285D02*
X4412539Y-19226285D01*
X4412539Y-19226285D02*
X4393491Y-19216761D01*
X4393491Y-19216761D02*
X4383967Y-19207237D01*
X4383967Y-19207237D02*
X4374444Y-19188189D01*
X4374444Y-19188189D02*
X4364920Y-19150094D01*
X4364920Y-19150094D02*
X4364920Y-19102475D01*
X4364920Y-19102475D02*
X4374444Y-19064380D01*
X4374444Y-19064380D02*
X4383967Y-19045332D01*
X4383967Y-19045332D02*
X4393491Y-19035808D01*
X4393491Y-19035808D02*
X4412539Y-19026285D01*
X4564920Y-19226285D02*
X4564920Y-19092951D01*
X4564920Y-19111999D02*
X4574444Y-19102475D01*
X4574444Y-19102475D02*
X4593491Y-19092951D01*
X4593491Y-19092951D02*
X4622063Y-19092951D01*
X4622063Y-19092951D02*
X4641110Y-19102475D01*
X4641110Y-19102475D02*
X4650634Y-19121523D01*
X4650634Y-19121523D02*
X4650634Y-19226285D01*
X4650634Y-19121523D02*
X4660158Y-19102475D01*
X4660158Y-19102475D02*
X4679205Y-19092951D01*
X4679205Y-19092951D02*
X4707777Y-19092951D01*
X4707777Y-19092951D02*
X4726825Y-19102475D01*
X4726825Y-19102475D02*
X4736348Y-19121523D01*
X4736348Y-19121523D02*
X4736348Y-19226285D01*
X4831586Y-19226285D02*
X4831586Y-19092951D01*
X4831586Y-19111999D02*
X4841110Y-19102475D01*
X4841110Y-19102475D02*
X4860158Y-19092951D01*
X4860158Y-19092951D02*
X4888729Y-19092951D01*
X4888729Y-19092951D02*
X4907777Y-19102475D01*
X4907777Y-19102475D02*
X4917301Y-19121523D01*
X4917301Y-19121523D02*
X4917301Y-19226285D01*
X4917301Y-19121523D02*
X4926825Y-19102475D01*
X4926825Y-19102475D02*
X4945872Y-19092951D01*
X4945872Y-19092951D02*
X4974444Y-19092951D01*
X4974444Y-19092951D02*
X4993491Y-19102475D01*
X4993491Y-19102475D02*
X5003015Y-19121523D01*
X5003015Y-19121523D02*
X5003015Y-19226285D01*
X5393491Y-19016761D02*
X5222063Y-19273904D01*
X5650634Y-19026285D02*
X5669682Y-19026285D01*
X5669682Y-19026285D02*
X5688729Y-19035808D01*
X5688729Y-19035808D02*
X5698253Y-19045332D01*
X5698253Y-19045332D02*
X5707777Y-19064380D01*
X5707777Y-19064380D02*
X5717301Y-19102475D01*
X5717301Y-19102475D02*
X5717301Y-19150094D01*
X5717301Y-19150094D02*
X5707777Y-19188189D01*
X5707777Y-19188189D02*
X5698253Y-19207237D01*
X5698253Y-19207237D02*
X5688729Y-19216761D01*
X5688729Y-19216761D02*
X5669682Y-19226285D01*
X5669682Y-19226285D02*
X5650634Y-19226285D01*
X5650634Y-19226285D02*
X5631586Y-19216761D01*
X5631586Y-19216761D02*
X5622063Y-19207237D01*
X5622063Y-19207237D02*
X5612539Y-19188189D01*
X5612539Y-19188189D02*
X5603015Y-19150094D01*
X5603015Y-19150094D02*
X5603015Y-19102475D01*
X5603015Y-19102475D02*
X5612539Y-19064380D01*
X5612539Y-19064380D02*
X5622063Y-19045332D01*
X5622063Y-19045332D02*
X5631586Y-19035808D01*
X5631586Y-19035808D02*
X5650634Y-19026285D01*
X5803015Y-19207237D02*
X5812539Y-19216761D01*
X5812539Y-19216761D02*
X5803015Y-19226285D01*
X5803015Y-19226285D02*
X5793491Y-19216761D01*
X5793491Y-19216761D02*
X5803015Y-19207237D01*
X5803015Y-19207237D02*
X5803015Y-19226285D01*
X6003015Y-19226285D02*
X5888729Y-19226285D01*
X5945872Y-19226285D02*
X5945872Y-19026285D01*
X5945872Y-19026285D02*
X5926825Y-19054856D01*
X5926825Y-19054856D02*
X5907777Y-19073904D01*
X5907777Y-19073904D02*
X5888729Y-19083427D01*
X6079206Y-19045332D02*
X6088729Y-19035808D01*
X6088729Y-19035808D02*
X6107777Y-19026285D01*
X6107777Y-19026285D02*
X6155396Y-19026285D01*
X6155396Y-19026285D02*
X6174444Y-19035808D01*
X6174444Y-19035808D02*
X6183967Y-19045332D01*
X6183967Y-19045332D02*
X6193491Y-19064380D01*
X6193491Y-19064380D02*
X6193491Y-19083427D01*
X6193491Y-19083427D02*
X6183967Y-19111999D01*
X6183967Y-19111999D02*
X6069682Y-19226285D01*
X6069682Y-19226285D02*
X6193491Y-19226285D01*
X6317301Y-19026285D02*
X6336348Y-19026285D01*
X6336348Y-19026285D02*
X6355396Y-19035808D01*
X6355396Y-19035808D02*
X6364920Y-19045332D01*
X6364920Y-19045332D02*
X6374444Y-19064380D01*
X6374444Y-19064380D02*
X6383967Y-19102475D01*
X6383967Y-19102475D02*
X6383967Y-19150094D01*
X6383967Y-19150094D02*
X6374444Y-19188189D01*
X6374444Y-19188189D02*
X6364920Y-19207237D01*
X6364920Y-19207237D02*
X6355396Y-19216761D01*
X6355396Y-19216761D02*
X6336348Y-19226285D01*
X6336348Y-19226285D02*
X6317301Y-19226285D01*
X6317301Y-19226285D02*
X6298253Y-19216761D01*
X6298253Y-19216761D02*
X6288729Y-19207237D01*
X6288729Y-19207237D02*
X6279206Y-19188189D01*
X6279206Y-19188189D02*
X6269682Y-19150094D01*
X6269682Y-19150094D02*
X6269682Y-19102475D01*
X6269682Y-19102475D02*
X6279206Y-19064380D01*
X6279206Y-19064380D02*
X6288729Y-19045332D01*
X6288729Y-19045332D02*
X6298253Y-19035808D01*
X6298253Y-19035808D02*
X6317301Y-19026285D01*
X6574444Y-19226285D02*
X6460158Y-19226285D01*
X6517301Y-19226285D02*
X6517301Y-19026285D01*
X6517301Y-19026285D02*
X6498253Y-19054856D01*
X6498253Y-19054856D02*
X6479206Y-19073904D01*
X6479206Y-19073904D02*
X6460158Y-19083427D01*
X6650634Y-19026285D02*
X6650634Y-19064380D01*
X6726825Y-19026285D02*
X6726825Y-19064380D01*
X7022063Y-19302475D02*
X7012539Y-19292951D01*
X7012539Y-19292951D02*
X6993491Y-19264380D01*
X6993491Y-19264380D02*
X6983968Y-19245332D01*
X6983968Y-19245332D02*
X6974444Y-19216761D01*
X6974444Y-19216761D02*
X6964920Y-19169142D01*
X6964920Y-19169142D02*
X6964920Y-19131046D01*
X6964920Y-19131046D02*
X6974444Y-19083427D01*
X6974444Y-19083427D02*
X6983968Y-19054856D01*
X6983968Y-19054856D02*
X6993491Y-19035808D01*
X6993491Y-19035808D02*
X7012539Y-19007237D01*
X7012539Y-19007237D02*
X7022063Y-18997713D01*
X7183968Y-19092951D02*
X7183968Y-19226285D01*
X7136348Y-19016761D02*
X7088729Y-19159618D01*
X7088729Y-19159618D02*
X7212539Y-19159618D01*
X7374444Y-19026285D02*
X7336348Y-19026285D01*
X7336348Y-19026285D02*
X7317301Y-19035808D01*
X7317301Y-19035808D02*
X7307777Y-19045332D01*
X7307777Y-19045332D02*
X7288729Y-19073904D01*
X7288729Y-19073904D02*
X7279206Y-19111999D01*
X7279206Y-19111999D02*
X7279206Y-19188189D01*
X7279206Y-19188189D02*
X7288729Y-19207237D01*
X7288729Y-19207237D02*
X7298253Y-19216761D01*
X7298253Y-19216761D02*
X7317301Y-19226285D01*
X7317301Y-19226285D02*
X7355396Y-19226285D01*
X7355396Y-19226285D02*
X7374444Y-19216761D01*
X7374444Y-19216761D02*
X7383968Y-19207237D01*
X7383968Y-19207237D02*
X7393491Y-19188189D01*
X7393491Y-19188189D02*
X7393491Y-19140570D01*
X7393491Y-19140570D02*
X7383968Y-19121523D01*
X7383968Y-19121523D02*
X7374444Y-19111999D01*
X7374444Y-19111999D02*
X7355396Y-19102475D01*
X7355396Y-19102475D02*
X7317301Y-19102475D01*
X7317301Y-19102475D02*
X7298253Y-19111999D01*
X7298253Y-19111999D02*
X7288729Y-19121523D01*
X7288729Y-19121523D02*
X7279206Y-19140570D01*
X7631587Y-19226285D02*
X7631587Y-19026285D01*
X7717301Y-19226285D02*
X7717301Y-19121523D01*
X7717301Y-19121523D02*
X7707777Y-19102475D01*
X7707777Y-19102475D02*
X7688730Y-19092951D01*
X7688730Y-19092951D02*
X7660158Y-19092951D01*
X7660158Y-19092951D02*
X7641110Y-19102475D01*
X7641110Y-19102475D02*
X7631587Y-19111999D01*
X7841110Y-19226285D02*
X7822063Y-19216761D01*
X7822063Y-19216761D02*
X7812539Y-19207237D01*
X7812539Y-19207237D02*
X7803015Y-19188189D01*
X7803015Y-19188189D02*
X7803015Y-19131046D01*
X7803015Y-19131046D02*
X7812539Y-19111999D01*
X7812539Y-19111999D02*
X7822063Y-19102475D01*
X7822063Y-19102475D02*
X7841110Y-19092951D01*
X7841110Y-19092951D02*
X7869682Y-19092951D01*
X7869682Y-19092951D02*
X7888730Y-19102475D01*
X7888730Y-19102475D02*
X7898253Y-19111999D01*
X7898253Y-19111999D02*
X7907777Y-19131046D01*
X7907777Y-19131046D02*
X7907777Y-19188189D01*
X7907777Y-19188189D02*
X7898253Y-19207237D01*
X7898253Y-19207237D02*
X7888730Y-19216761D01*
X7888730Y-19216761D02*
X7869682Y-19226285D01*
X7869682Y-19226285D02*
X7841110Y-19226285D01*
X8022063Y-19226285D02*
X8003015Y-19216761D01*
X8003015Y-19216761D02*
X7993491Y-19197713D01*
X7993491Y-19197713D02*
X7993491Y-19026285D01*
X8174444Y-19216761D02*
X8155396Y-19226285D01*
X8155396Y-19226285D02*
X8117301Y-19226285D01*
X8117301Y-19226285D02*
X8098253Y-19216761D01*
X8098253Y-19216761D02*
X8088730Y-19197713D01*
X8088730Y-19197713D02*
X8088730Y-19121523D01*
X8088730Y-19121523D02*
X8098253Y-19102475D01*
X8098253Y-19102475D02*
X8117301Y-19092951D01*
X8117301Y-19092951D02*
X8155396Y-19092951D01*
X8155396Y-19092951D02*
X8174444Y-19102475D01*
X8174444Y-19102475D02*
X8183968Y-19121523D01*
X8183968Y-19121523D02*
X8183968Y-19140570D01*
X8183968Y-19140570D02*
X8088730Y-19159618D01*
X8260158Y-19216761D02*
X8279206Y-19226285D01*
X8279206Y-19226285D02*
X8317301Y-19226285D01*
X8317301Y-19226285D02*
X8336349Y-19216761D01*
X8336349Y-19216761D02*
X8345872Y-19197713D01*
X8345872Y-19197713D02*
X8345872Y-19188189D01*
X8345872Y-19188189D02*
X8336349Y-19169142D01*
X8336349Y-19169142D02*
X8317301Y-19159618D01*
X8317301Y-19159618D02*
X8288730Y-19159618D01*
X8288730Y-19159618D02*
X8269682Y-19150094D01*
X8269682Y-19150094D02*
X8260158Y-19131046D01*
X8260158Y-19131046D02*
X8260158Y-19121523D01*
X8260158Y-19121523D02*
X8269682Y-19102475D01*
X8269682Y-19102475D02*
X8288730Y-19092951D01*
X8288730Y-19092951D02*
X8317301Y-19092951D01*
X8317301Y-19092951D02*
X8336349Y-19102475D01*
X8412539Y-19302475D02*
X8422063Y-19292951D01*
X8422063Y-19292951D02*
X8441111Y-19264380D01*
X8441111Y-19264380D02*
X8450634Y-19245332D01*
X8450634Y-19245332D02*
X8460158Y-19216761D01*
X8460158Y-19216761D02*
X8469682Y-19169142D01*
X8469682Y-19169142D02*
X8469682Y-19131046D01*
X8469682Y-19131046D02*
X8460158Y-19083427D01*
X8460158Y-19083427D02*
X8450634Y-19054856D01*
X8450634Y-19054856D02*
X8441111Y-19035808D01*
X8441111Y-19035808D02*
X8422063Y-19007237D01*
X8422063Y-19007237D02*
X8412539Y-18997713D01*
M02*
