%TF.GenerationSoftware,KiCad,Pcbnew,7.0.5*%
%TF.CreationDate,2024-03-19T12:27:36+08:00*%
%TF.ProjectId,Prime52left,5072696d-6535-4326-9c65-66742e6b6963,rev?*%
%TF.SameCoordinates,Original*%
%TF.FileFunction,Legend,Top*%
%TF.FilePolarity,Positive*%
%FSLAX46Y46*%
G04 Gerber Fmt 4.6, Leading zero omitted, Abs format (unit mm)*
G04 Created by KiCad (PCBNEW 7.0.5) date 2024-03-19 12:27:36*
%MOMM*%
%LPD*%
G01*
G04 APERTURE LIST*
%ADD10C,0.150000*%
%ADD11C,0.120000*%
%ADD12C,0.800000*%
G04 APERTURE END LIST*
D10*
%TO.C,U1*%
X187323507Y-94451455D02*
X187532804Y-94002617D01*
X187532804Y-94002617D02*
X187696313Y-94373097D01*
X187696313Y-94373097D02*
X187744613Y-94269519D01*
X187744613Y-94269519D02*
X187811338Y-94216566D01*
X187811338Y-94216566D02*
X187861964Y-94198140D01*
X187861964Y-94198140D02*
X187947116Y-94195814D01*
X187947116Y-94195814D02*
X188119746Y-94276312D01*
X188119746Y-94276312D02*
X188172698Y-94343038D01*
X188172698Y-94343038D02*
X188191124Y-94393664D01*
X188191124Y-94393664D02*
X188193451Y-94478815D01*
X188193451Y-94478815D02*
X188096852Y-94685971D01*
X188096852Y-94685971D02*
X188030127Y-94738924D01*
X188030127Y-94738924D02*
X187979501Y-94757350D01*
X187629402Y-93795460D02*
X188467147Y-93891873D01*
X188467147Y-93891873D02*
X187854799Y-93312096D01*
X187935297Y-93139466D02*
X188144594Y-92690628D01*
X188144594Y-92690628D02*
X188308104Y-93061108D01*
X188308104Y-93061108D02*
X188356403Y-92957530D01*
X188356403Y-92957530D02*
X188423128Y-92904578D01*
X188423128Y-92904578D02*
X188473754Y-92886152D01*
X188473754Y-92886152D02*
X188558906Y-92883825D01*
X188558906Y-92883825D02*
X188731536Y-92964324D01*
X188731536Y-92964324D02*
X188784488Y-93031049D01*
X188784488Y-93031049D02*
X188802915Y-93081675D01*
X188802915Y-93081675D02*
X188805241Y-93166827D01*
X188805241Y-93166827D02*
X188708643Y-93373983D01*
X188708643Y-93373983D02*
X188641917Y-93426935D01*
X188641917Y-93426935D02*
X188591291Y-93445362D01*
X189824603Y-89087839D02*
X189663605Y-89433099D01*
X189663605Y-89433099D02*
X189992765Y-89628623D01*
X189992765Y-89628623D02*
X189974339Y-89577997D01*
X189974339Y-89577997D02*
X189972013Y-89492845D01*
X189972013Y-89492845D02*
X190052511Y-89320215D01*
X190052511Y-89320215D02*
X190119237Y-89267263D01*
X190119237Y-89267263D02*
X190169863Y-89248836D01*
X190169863Y-89248836D02*
X190255014Y-89246510D01*
X190255014Y-89246510D02*
X190427644Y-89327009D01*
X190427644Y-89327009D02*
X190480597Y-89393734D01*
X190480597Y-89393734D02*
X190499023Y-89444360D01*
X190499023Y-89444360D02*
X190501350Y-89529512D01*
X190501350Y-89529512D02*
X190420851Y-89702142D01*
X190420851Y-89702142D02*
X190354125Y-89755094D01*
X190354125Y-89755094D02*
X190303500Y-89773520D01*
X189937301Y-88846157D02*
X190775045Y-88942569D01*
X190775045Y-88942569D02*
X190162697Y-88362793D01*
X188592481Y-91820272D02*
X188525755Y-91873224D01*
X188525755Y-91873224D02*
X188477456Y-91976802D01*
X188477456Y-91976802D02*
X188463683Y-92096480D01*
X188463683Y-92096480D02*
X188500535Y-92197731D01*
X188500535Y-92197731D02*
X188553488Y-92264457D01*
X188553488Y-92264457D02*
X188675492Y-92363382D01*
X188675492Y-92363382D02*
X188779070Y-92411681D01*
X188779070Y-92411681D02*
X188933274Y-92441554D01*
X188933274Y-92441554D02*
X189018425Y-92439228D01*
X189018425Y-92439228D02*
X189119677Y-92402375D01*
X189119677Y-92402375D02*
X189202502Y-92314897D01*
X189202502Y-92314897D02*
X189234702Y-92245845D01*
X189234702Y-92245845D02*
X189248475Y-92126167D01*
X189248475Y-92126167D02*
X189230049Y-92075541D01*
X189230049Y-92075541D02*
X188988367Y-91962843D01*
X188988367Y-91962843D02*
X188923968Y-92100947D01*
X189443998Y-91797007D02*
X188718952Y-91458912D01*
X188718952Y-91458912D02*
X189637195Y-91382694D01*
X189637195Y-91382694D02*
X188912149Y-91044600D01*
X189798193Y-91037435D02*
X189073146Y-90699340D01*
X189073146Y-90699340D02*
X189153645Y-90526710D01*
X189153645Y-90526710D02*
X189236470Y-90439232D01*
X189236470Y-90439232D02*
X189337722Y-90402379D01*
X189337722Y-90402379D02*
X189422874Y-90400053D01*
X189422874Y-90400053D02*
X189577077Y-90429926D01*
X189577077Y-90429926D02*
X189680655Y-90478225D01*
X189680655Y-90478225D02*
X189802660Y-90577150D01*
X189802660Y-90577150D02*
X189855612Y-90643875D01*
X189855612Y-90643875D02*
X189892464Y-90745127D01*
X189892464Y-90745127D02*
X189878691Y-90864805D01*
X189878691Y-90864805D02*
X189798193Y-91037435D01*
D11*
X188229673Y-86421607D02*
X204443520Y-93982248D01*
X178298144Y-107719840D02*
X188229673Y-86421607D01*
X204443520Y-93982248D02*
X194511991Y-115280481D01*
X194511991Y-115280481D02*
X178298144Y-107719840D01*
%TO.C,K23*%
X168020000Y-95795000D02*
X180820000Y-95795000D01*
X168020000Y-95795000D02*
X168020000Y-89995000D01*
X173150000Y-95795000D02*
X170650000Y-92895000D01*
X170650000Y-92895000D02*
X173150000Y-89995000D01*
X168020000Y-89995000D02*
X180820000Y-89995000D01*
X180820000Y-89995000D02*
X180820000Y-95795000D01*
%TO.C,RE1*%
X152170000Y-96635000D02*
X152170000Y-89235000D01*
%TO.C,K7*%
X95770000Y-128720000D02*
X95770000Y-129320000D01*
X95470000Y-129020000D02*
X95770000Y-128720000D01*
X95770000Y-129320000D02*
X95470000Y-129020000D01*
X97570000Y-130420000D02*
X85770000Y-130420000D01*
X97570000Y-134520000D02*
X97570000Y-130420000D01*
X85770000Y-134520000D02*
X85770000Y-130420000D01*
X91670000Y-136020000D02*
X91670000Y-137020000D01*
X92170000Y-136520000D02*
X91170000Y-136520000D01*
X97570000Y-138520000D02*
X97570000Y-142620000D01*
X97570000Y-142620000D02*
X95170000Y-142620000D01*
X92970000Y-142620000D02*
X90370000Y-142620000D01*
X88170000Y-142620000D02*
X85770000Y-142620000D01*
X85770000Y-142620000D02*
X85770000Y-138520000D01*
X94670000Y-136520000D02*
G75*
G03*
X94670000Y-136520000I-3000000J0D01*
G01*
%TO.C,K26*%
X194894347Y-159024583D02*
X193743985Y-158141879D01*
X197207641Y-156009840D02*
X196057278Y-155127136D01*
X184734316Y-169883508D02*
X171167974Y-159473688D01*
X196300783Y-154809795D02*
X184734316Y-169883508D01*
X173717898Y-163131951D02*
X174539725Y-162060924D01*
X170703155Y-160818658D02*
X171524983Y-159747631D01*
D12*
X171795194Y-158820546D02*
X170446494Y-157785652D01*
X173012717Y-157233839D02*
X171664017Y-156198945D01*
X174230240Y-155647133D02*
X172881539Y-154612238D01*
X175447763Y-154060426D02*
X174099062Y-153025532D01*
X176665286Y-152473719D02*
X175316585Y-151438825D01*
X177882809Y-150887013D02*
X176534108Y-149852118D01*
D11*
X171167974Y-159473688D02*
X182734441Y-144399975D01*
X182734441Y-144399975D02*
X196300783Y-154809795D01*
X194894347Y-159024583D02*
G75*
G03*
X197207641Y-156009841I1156647J1507371D01*
G01*
X170703154Y-160818658D02*
G75*
G03*
X173717897Y-163131951I1507372J-1156646D01*
G01*
X192030481Y-157500518D02*
G75*
G03*
X192030481Y-157500518I-7500000J0D01*
G01*
D10*
%TO.C,T1*%
X195037854Y-117346654D02*
X183914739Y-112159861D01*
X195037854Y-117346654D02*
X192309262Y-123198140D01*
X192309262Y-123198140D02*
X181186146Y-118011346D01*
X181186146Y-118011346D02*
X183914739Y-112159861D01*
%TD*%
M02*
