M48
; DRILL file {KiCad 7.0.5} date Tue Mar 19 12:27:33 2024
; FORMAT={-:-/ absolute / metric / decimal}
; #@! TF.CreationDate,2024-03-19T12:27:33+08:00
; #@! TF.GenerationSoftware,Kicad,Pcbnew,7.0.5
; #@! TF.FileFunction,NonPlated,1,2,NPTH
FMAT,2
METRIC
; #@! TA.AperFunction,NonPlated,NPTH,ComponentDrill
T1C0.600
; #@! TA.AperFunction,NonPlated,NPTH,ComponentDrill
T2C0.800
; #@! TA.AperFunction,NonPlated,NPTH,ComponentDrill
T3C1.000
; #@! TA.AperFunction,NonPlated,NPTH,ComponentDrill
T4C1.100
; #@! TA.AperFunction,NonPlated,NPTH,ComponentDrill
T5C1.200
; #@! TA.AperFunction,NonPlated,NPTH,ComponentDrill
T6C1.500
; #@! TA.AperFunction,NonPlated,NPTH,ComponentDrill
T7C1.900
; #@! TA.AperFunction,NonPlated,NPTH,ComponentDrill
T8C2.200
; #@! TA.AperFunction,NonPlated,NPTH,ComponentDrill
T9C3.500
; #@! TA.AperFunction,NonPlated,NPTH,ComponentDrill
T10C5.050
%
G90
G05
T2
X186.015Y-116.701
X192.359Y-119.66
T3
X49.045Y-83.745
X49.045Y-102.795
X49.045Y-121.845
X68.095Y-81.364
X68.095Y-100.414
X68.095Y-119.464
X87.145Y-71.839
X87.145Y-90.889
X87.145Y-109.939
X106.195Y-69.457
X106.195Y-88.507
X106.195Y-107.557
X125.245Y-71.839
X125.245Y-90.889
X125.245Y-109.939
X125.245Y-131.37
X144.295Y-74.22
X144.295Y-93.27
X144.295Y-112.32
X147.127Y-134.862
X159.479Y-136.694
X169.166Y-117.399
X186.431Y-125.45
T4
X172.211Y-161.975
X196.051Y-157.517
T7
X38.545Y-88.895
X38.545Y-107.945
X38.545Y-126.995
X49.545Y-88.895
X49.545Y-107.945
X49.545Y-126.995
X57.595Y-86.514
X57.595Y-105.564
X57.595Y-124.614
X68.595Y-86.514
X68.595Y-105.564
X68.595Y-124.614
X76.645Y-76.989
X76.645Y-96.039
X76.645Y-115.089
X87.645Y-76.989
X87.645Y-96.039
X87.645Y-115.089
X95.695Y-74.607
X95.695Y-93.657
X95.695Y-112.707
X106.695Y-74.607
X106.695Y-93.657
X106.695Y-112.707
X114.745Y-76.989
X114.745Y-96.039
X114.745Y-115.089
X114.745Y-136.52
X125.745Y-76.989
X125.745Y-96.039
X125.745Y-115.089
X125.745Y-136.52
X133.795Y-79.37
X133.795Y-98.42
X133.795Y-117.47
X135.762Y-137.617
X144.795Y-79.37
X144.795Y-98.42
X144.795Y-117.47
X146.501Y-139.998
X157.474Y-117.629
X159.709Y-148.387
X164.358Y-138.418
X167.443Y-122.278
X174.739Y-125.68
X184.708Y-130.329
T8
X79.763Y-136.52
X103.577Y-129.376
X103.577Y-143.664
X170.395Y-87.72
X170.395Y-98.07
X172.434Y-111.778
X175.781Y-168.903
X184.079Y-86.803
X193.28Y-146.098
X195.933Y-166.25
T9
X53.57Y-98.42
X53.57Y-117.47
X108.339Y-136.52
X129.77Y-88.895
X129.77Y-107.945
X167.066Y-132.611
T10
X44.045Y-88.895
X44.045Y-107.945
X44.045Y-126.995
X63.095Y-86.514
X63.095Y-105.564
X63.095Y-124.614
X82.145Y-76.989
X82.145Y-96.039
X82.145Y-115.089
X101.195Y-74.607
X101.195Y-93.657
X101.195Y-112.707
X120.245Y-76.989
X120.245Y-96.039
X120.245Y-115.089
X120.245Y-136.52
X139.295Y-79.37
X139.295Y-98.42
X139.295Y-117.47
X141.131Y-138.807
X162.033Y-143.402
X162.458Y-119.954
X179.723Y-128.005
T1
X190.946Y-161.541G85X190.094Y-162.652
G05
T5
X152.97Y-87.695G85X151.37Y-87.695
G05
X152.97Y-98.095G85X151.37Y-98.095
G05
T6
X86.07Y-135.87G85X86.07Y-137.17
G05
X97.27Y-135.87G85X97.27Y-137.17
G05
T0
M30
