%TF.GenerationSoftware,KiCad,Pcbnew,7.0.5*%
%TF.CreationDate,2024-03-19T12:27:36+08:00*%
%TF.ProjectId,Prime52left,5072696d-6535-4326-9c65-66742e6b6963,rev?*%
%TF.SameCoordinates,Original*%
%TF.FileFunction,Legend,Bot*%
%TF.FilePolarity,Positive*%
%FSLAX46Y46*%
G04 Gerber Fmt 4.6, Leading zero omitted, Abs format (unit mm)*
G04 Created by KiCad (PCBNEW 7.0.5) date 2024-03-19 12:27:36*
%MOMM*%
%LPD*%
G01*
G04 APERTURE LIST*
%ADD10C,0.120000*%
%ADD11C,0.100000*%
%ADD12C,0.150000*%
%ADD13C,0.010000*%
G04 APERTURE END LIST*
D10*
%TO.C,K25*%
X178781768Y-135740480D02*
X177536564Y-136193697D01*
X177536564Y-136193697D02*
X175046937Y-135032765D01*
X179561751Y-131850670D02*
X180055598Y-133207504D01*
X177162754Y-130732000D02*
X179561751Y-131850670D01*
X175046937Y-135032765D02*
X174715504Y-134789945D01*
X174715504Y-134789945D02*
X174502326Y-134437865D01*
X176697784Y-130399326D02*
X177162754Y-130732000D01*
X174502326Y-134437865D02*
X174244520Y-133729548D01*
X176390026Y-129925906D02*
X176697784Y-130399326D01*
X174244520Y-133729548D02*
X174338341Y-133528347D01*
X174338341Y-133528347D02*
X174444599Y-133094617D01*
X176275140Y-129372503D02*
X176390026Y-129925906D01*
X174444599Y-133094617D02*
X174378561Y-132658883D01*
X176371389Y-128801700D02*
X176275140Y-129372503D01*
X176423012Y-128496966D02*
X176371389Y-128801700D01*
X174378561Y-132658883D02*
X174149065Y-132282643D01*
X176357130Y-128181573D02*
X176423012Y-128496966D01*
X174149065Y-132282643D02*
X173788870Y-132018687D01*
X176180647Y-127911704D02*
X176357130Y-128181573D01*
X175924626Y-127727220D02*
X176180647Y-127911704D01*
X173788870Y-132018687D02*
X171251208Y-130835356D01*
X171251208Y-130835356D02*
X170982316Y-130638250D01*
X170982316Y-130638250D02*
X170805705Y-130347357D01*
X170805705Y-130347357D02*
X170754014Y-130010997D01*
X170754014Y-130010997D02*
X170857436Y-129588081D01*
X172152336Y-127007554D02*
X171823346Y-126854143D01*
X171823346Y-126854143D02*
X172221453Y-126000402D01*
X172221453Y-126000402D02*
X175924626Y-127727220D01*
%TO.C,K4*%
X65511000Y-93923000D02*
X64574000Y-94860000D01*
X64574000Y-94860000D02*
X61827000Y-94860000D01*
X64574000Y-90068000D02*
X65595000Y-91089000D01*
X61927000Y-90068000D02*
X64574000Y-90068000D01*
X61827000Y-94860000D02*
X61424000Y-94780000D01*
X61424000Y-94780000D02*
X61082000Y-94551000D01*
X61365000Y-89963000D02*
X61927000Y-90068000D01*
X61082000Y-94551000D02*
X60549000Y-94018000D01*
X60886000Y-89664000D02*
X61365000Y-89963000D01*
X60549000Y-94018000D02*
X60549000Y-93796000D01*
X60549000Y-93796000D02*
X60462000Y-93358000D01*
X60548000Y-89211000D02*
X60886000Y-89664000D01*
X60462000Y-93358000D02*
X60218000Y-92991000D01*
X60394000Y-88653000D02*
X60548000Y-89211000D01*
X60312000Y-88355000D02*
X60394000Y-88653000D01*
X60218000Y-92991000D02*
X59851000Y-92747000D01*
X60119000Y-88097000D02*
X60312000Y-88355000D01*
X59851000Y-92747000D02*
X59413000Y-92660000D01*
X59845000Y-87927000D02*
X60119000Y-88097000D01*
X59535000Y-87868000D02*
X59845000Y-87927000D01*
X59413000Y-92660000D02*
X56613000Y-92660000D01*
X56613000Y-92660000D02*
X56286000Y-92595000D01*
X56286000Y-92595000D02*
X56003000Y-92406000D01*
X56003000Y-92406000D02*
X55814000Y-92123000D01*
X55814000Y-92123000D02*
X55729000Y-91696000D01*
X55812000Y-88810000D02*
X55449000Y-88810000D01*
X55449000Y-88810000D02*
X55449000Y-87868000D01*
X55449000Y-87868000D02*
X59535000Y-87868000D01*
%TO.C,K20*%
X141711000Y-105829000D02*
X140774000Y-106766000D01*
X140774000Y-106766000D02*
X138027000Y-106766000D01*
X140774000Y-101974000D02*
X141795000Y-102995000D01*
X138127000Y-101974000D02*
X140774000Y-101974000D01*
X138027000Y-106766000D02*
X137624000Y-106686000D01*
X137624000Y-106686000D02*
X137282000Y-106457000D01*
X137565000Y-101869000D02*
X138127000Y-101974000D01*
X137282000Y-106457000D02*
X136749000Y-105924000D01*
X137086000Y-101570000D02*
X137565000Y-101869000D01*
X136749000Y-105924000D02*
X136749000Y-105702000D01*
X136749000Y-105702000D02*
X136662000Y-105264000D01*
X136748000Y-101117000D02*
X137086000Y-101570000D01*
X136662000Y-105264000D02*
X136418000Y-104897000D01*
X136594000Y-100559000D02*
X136748000Y-101117000D01*
X136512000Y-100261000D02*
X136594000Y-100559000D01*
X136418000Y-104897000D02*
X136051000Y-104653000D01*
X136319000Y-100003000D02*
X136512000Y-100261000D01*
X136051000Y-104653000D02*
X135613000Y-104566000D01*
X136045000Y-99833000D02*
X136319000Y-100003000D01*
X135735000Y-99774000D02*
X136045000Y-99833000D01*
X135613000Y-104566000D02*
X132813000Y-104566000D01*
X132813000Y-104566000D02*
X132486000Y-104501000D01*
X132486000Y-104501000D02*
X132203000Y-104312000D01*
X132203000Y-104312000D02*
X132014000Y-104029000D01*
X132014000Y-104029000D02*
X131929000Y-103602000D01*
X132012000Y-100716000D02*
X131649000Y-100716000D01*
X131649000Y-100716000D02*
X131649000Y-99774000D01*
X131649000Y-99774000D02*
X135735000Y-99774000D01*
%TO.C,K3*%
X46461000Y-134404000D02*
X45524000Y-135341000D01*
X45524000Y-135341000D02*
X42777000Y-135341000D01*
X45524000Y-130549000D02*
X46545000Y-131570000D01*
X42877000Y-130549000D02*
X45524000Y-130549000D01*
X42777000Y-135341000D02*
X42374000Y-135261000D01*
X42374000Y-135261000D02*
X42032000Y-135032000D01*
X42315000Y-130444000D02*
X42877000Y-130549000D01*
X42032000Y-135032000D02*
X41499000Y-134499000D01*
X41836000Y-130145000D02*
X42315000Y-130444000D01*
X41499000Y-134499000D02*
X41499000Y-134277000D01*
X41499000Y-134277000D02*
X41412000Y-133839000D01*
X41498000Y-129692000D02*
X41836000Y-130145000D01*
X41412000Y-133839000D02*
X41168000Y-133472000D01*
X41344000Y-129134000D02*
X41498000Y-129692000D01*
X41262000Y-128836000D02*
X41344000Y-129134000D01*
X41168000Y-133472000D02*
X40801000Y-133228000D01*
X41069000Y-128578000D02*
X41262000Y-128836000D01*
X40801000Y-133228000D02*
X40363000Y-133141000D01*
X40795000Y-128408000D02*
X41069000Y-128578000D01*
X40485000Y-128349000D02*
X40795000Y-128408000D01*
X40363000Y-133141000D02*
X37563000Y-133141000D01*
X37563000Y-133141000D02*
X37236000Y-133076000D01*
X37236000Y-133076000D02*
X36953000Y-132887000D01*
X36953000Y-132887000D02*
X36764000Y-132604000D01*
X36764000Y-132604000D02*
X36679000Y-132177000D01*
X36762000Y-129291000D02*
X36399000Y-129291000D01*
X36399000Y-129291000D02*
X36399000Y-128349000D01*
X36399000Y-128349000D02*
X40485000Y-128349000D01*
%TO.C,K10*%
X84561000Y-122498000D02*
X83624000Y-123435000D01*
X83624000Y-123435000D02*
X80877000Y-123435000D01*
X83624000Y-118643000D02*
X84645000Y-119664000D01*
X80977000Y-118643000D02*
X83624000Y-118643000D01*
X80877000Y-123435000D02*
X80474000Y-123355000D01*
X80474000Y-123355000D02*
X80132000Y-123126000D01*
X80415000Y-118538000D02*
X80977000Y-118643000D01*
X80132000Y-123126000D02*
X79599000Y-122593000D01*
X79936000Y-118239000D02*
X80415000Y-118538000D01*
X79599000Y-122593000D02*
X79599000Y-122371000D01*
X79599000Y-122371000D02*
X79512000Y-121933000D01*
X79598000Y-117786000D02*
X79936000Y-118239000D01*
X79512000Y-121933000D02*
X79268000Y-121566000D01*
X79444000Y-117228000D02*
X79598000Y-117786000D01*
X79362000Y-116930000D02*
X79444000Y-117228000D01*
X79268000Y-121566000D02*
X78901000Y-121322000D01*
X79169000Y-116672000D02*
X79362000Y-116930000D01*
X78901000Y-121322000D02*
X78463000Y-121235000D01*
X78895000Y-116502000D02*
X79169000Y-116672000D01*
X78585000Y-116443000D02*
X78895000Y-116502000D01*
X78463000Y-121235000D02*
X75663000Y-121235000D01*
X75663000Y-121235000D02*
X75336000Y-121170000D01*
X75336000Y-121170000D02*
X75053000Y-120981000D01*
X75053000Y-120981000D02*
X74864000Y-120698000D01*
X74864000Y-120698000D02*
X74779000Y-120271000D01*
X74862000Y-117385000D02*
X74499000Y-117385000D01*
X74499000Y-117385000D02*
X74499000Y-116443000D01*
X74499000Y-116443000D02*
X78585000Y-116443000D01*
%TO.C,K24*%
X161516768Y-127689480D02*
X160271564Y-128142697D01*
X160271564Y-128142697D02*
X157781937Y-126981765D01*
X162296751Y-123799670D02*
X162790598Y-125156504D01*
X159897754Y-122681000D02*
X162296751Y-123799670D01*
X157781937Y-126981765D02*
X157450504Y-126738945D01*
X157450504Y-126738945D02*
X157237326Y-126386865D01*
X159432784Y-122348326D02*
X159897754Y-122681000D01*
X157237326Y-126386865D02*
X156979520Y-125678548D01*
X159125026Y-121874906D02*
X159432784Y-122348326D01*
X156979520Y-125678548D02*
X157073341Y-125477347D01*
X157073341Y-125477347D02*
X157179599Y-125043617D01*
X159010140Y-121321503D02*
X159125026Y-121874906D01*
X157179599Y-125043617D02*
X157113561Y-124607883D01*
X159106389Y-120750700D02*
X159010140Y-121321503D01*
X159158012Y-120445966D02*
X159106389Y-120750700D01*
X157113561Y-124607883D02*
X156884065Y-124231643D01*
X159092130Y-120130573D02*
X159158012Y-120445966D01*
X156884065Y-124231643D02*
X156523870Y-123967687D01*
X158915647Y-119860704D02*
X159092130Y-120130573D01*
X158659626Y-119676220D02*
X158915647Y-119860704D01*
X156523870Y-123967687D02*
X153986208Y-122784356D01*
X153986208Y-122784356D02*
X153717316Y-122587250D01*
X153717316Y-122587250D02*
X153540705Y-122296357D01*
X153540705Y-122296357D02*
X153489014Y-121959997D01*
X153489014Y-121959997D02*
X153592436Y-121537081D01*
X154887336Y-118956554D02*
X154558346Y-118803143D01*
X154558346Y-118803143D02*
X154956453Y-117949402D01*
X154956453Y-117949402D02*
X158659626Y-119676220D01*
%TO.C,K22*%
X169769280Y-144343846D02*
X170222497Y-145589050D01*
X170222497Y-145589050D02*
X169061565Y-148078677D01*
X165879470Y-143563863D02*
X167236304Y-143070016D01*
X164760800Y-145962860D02*
X165879470Y-143563863D01*
X169061565Y-148078677D02*
X168818745Y-148410110D01*
X168818745Y-148410110D02*
X168466665Y-148623288D01*
X164428126Y-146427830D02*
X164760800Y-145962860D01*
X168466665Y-148623288D02*
X167758348Y-148881094D01*
X163954706Y-146735588D02*
X164428126Y-146427830D01*
X167758348Y-148881094D02*
X167557147Y-148787273D01*
X167557147Y-148787273D02*
X167123417Y-148681015D01*
X163401303Y-146850474D02*
X163954706Y-146735588D01*
X167123417Y-148681015D02*
X166687683Y-148747053D01*
X162830500Y-146754225D02*
X163401303Y-146850474D01*
X162525766Y-146702602D02*
X162830500Y-146754225D01*
X166687683Y-148747053D02*
X166311443Y-148976549D01*
X162210373Y-146768484D02*
X162525766Y-146702602D01*
X166311443Y-148976549D02*
X166047487Y-149336744D01*
X161940504Y-146944967D02*
X162210373Y-146768484D01*
X161756020Y-147200988D02*
X161940504Y-146944967D01*
X166047487Y-149336744D02*
X164864156Y-151874406D01*
X164864156Y-151874406D02*
X164667050Y-152143298D01*
X164667050Y-152143298D02*
X164376157Y-152319909D01*
X164376157Y-152319909D02*
X164039797Y-152371600D01*
X164039797Y-152371600D02*
X163616881Y-152268178D01*
X161036354Y-150973278D02*
X160882943Y-151302268D01*
X160882943Y-151302268D02*
X160029202Y-150904161D01*
X160029202Y-150904161D02*
X161756020Y-147200988D01*
%TO.C,K18*%
X141886274Y-146563569D02*
X140768681Y-147275555D01*
X140768681Y-147275555D02*
X138086796Y-146680995D01*
X141805859Y-142597144D02*
X142581673Y-143814927D01*
X139221604Y-142024229D02*
X141805859Y-142597144D01*
X138086796Y-146680995D02*
X137710664Y-146515666D01*
X137710664Y-146515666D02*
X137426335Y-146218072D01*
X138695652Y-141800078D02*
X139221604Y-142024229D01*
X137426335Y-146218072D02*
X137021332Y-145582344D01*
X138292721Y-141404491D02*
X138695652Y-141800078D01*
X137021332Y-145582344D02*
X137069381Y-145365606D01*
X137069381Y-145365606D02*
X137079244Y-144919158D01*
X138060780Y-140889073D02*
X138292721Y-141404491D01*
X137079244Y-144919158D02*
X136920461Y-144508046D01*
X138031204Y-140310968D02*
X138060780Y-140889073D01*
X138015647Y-140002284D02*
X138031204Y-140310968D01*
X136920461Y-144508046D02*
X136614972Y-144190397D01*
X137883063Y-139708626D02*
X138015647Y-140002284D01*
X136614972Y-144190397D02*
X136206184Y-144010659D01*
X137652353Y-139483352D02*
X137883063Y-139708626D01*
X137362471Y-139358654D02*
X137652353Y-139483352D01*
X136206184Y-144010659D02*
X133472555Y-143404628D01*
X133472555Y-143404628D02*
X133167375Y-143270393D01*
X133167375Y-143270393D02*
X132931991Y-143024620D01*
X132931991Y-143024620D02*
X132808723Y-142707421D01*
X132808723Y-142707421D02*
X132818158Y-142272146D01*
X133523835Y-139472520D02*
X133169439Y-139393952D01*
X133169439Y-139393952D02*
X133373325Y-138474282D01*
X133373325Y-138474282D02*
X137362471Y-139358654D01*
%TO.C,K12*%
X103611000Y-82016000D02*
X102674000Y-82953000D01*
X102674000Y-82953000D02*
X99927000Y-82953000D01*
X102674000Y-78161000D02*
X103695000Y-79182000D01*
X100027000Y-78161000D02*
X102674000Y-78161000D01*
X99927000Y-82953000D02*
X99524000Y-82873000D01*
X99524000Y-82873000D02*
X99182000Y-82644000D01*
X99465000Y-78056000D02*
X100027000Y-78161000D01*
X99182000Y-82644000D02*
X98649000Y-82111000D01*
X98986000Y-77757000D02*
X99465000Y-78056000D01*
X98649000Y-82111000D02*
X98649000Y-81889000D01*
X98649000Y-81889000D02*
X98562000Y-81451000D01*
X98648000Y-77304000D02*
X98986000Y-77757000D01*
X98562000Y-81451000D02*
X98318000Y-81084000D01*
X98494000Y-76746000D02*
X98648000Y-77304000D01*
X98412000Y-76448000D02*
X98494000Y-76746000D01*
X98318000Y-81084000D02*
X97951000Y-80840000D01*
X98219000Y-76190000D02*
X98412000Y-76448000D01*
X97951000Y-80840000D02*
X97513000Y-80753000D01*
X97945000Y-76020000D02*
X98219000Y-76190000D01*
X97635000Y-75961000D02*
X97945000Y-76020000D01*
X97513000Y-80753000D02*
X94713000Y-80753000D01*
X94713000Y-80753000D02*
X94386000Y-80688000D01*
X94386000Y-80688000D02*
X94103000Y-80499000D01*
X94103000Y-80499000D02*
X93914000Y-80216000D01*
X93914000Y-80216000D02*
X93829000Y-79789000D01*
X93912000Y-76903000D02*
X93549000Y-76903000D01*
X93549000Y-76903000D02*
X93549000Y-75961000D01*
X93549000Y-75961000D02*
X97635000Y-75961000D01*
%TO.C,K15*%
X122661000Y-84398000D02*
X121724000Y-85335000D01*
X121724000Y-85335000D02*
X118977000Y-85335000D01*
X121724000Y-80543000D02*
X122745000Y-81564000D01*
X119077000Y-80543000D02*
X121724000Y-80543000D01*
X118977000Y-85335000D02*
X118574000Y-85255000D01*
X118574000Y-85255000D02*
X118232000Y-85026000D01*
X118515000Y-80438000D02*
X119077000Y-80543000D01*
X118232000Y-85026000D02*
X117699000Y-84493000D01*
X118036000Y-80139000D02*
X118515000Y-80438000D01*
X117699000Y-84493000D02*
X117699000Y-84271000D01*
X117699000Y-84271000D02*
X117612000Y-83833000D01*
X117698000Y-79686000D02*
X118036000Y-80139000D01*
X117612000Y-83833000D02*
X117368000Y-83466000D01*
X117544000Y-79128000D02*
X117698000Y-79686000D01*
X117462000Y-78830000D02*
X117544000Y-79128000D01*
X117368000Y-83466000D02*
X117001000Y-83222000D01*
X117269000Y-78572000D02*
X117462000Y-78830000D01*
X117001000Y-83222000D02*
X116563000Y-83135000D01*
X116995000Y-78402000D02*
X117269000Y-78572000D01*
X116685000Y-78343000D02*
X116995000Y-78402000D01*
X116563000Y-83135000D02*
X113763000Y-83135000D01*
X113763000Y-83135000D02*
X113436000Y-83070000D01*
X113436000Y-83070000D02*
X113153000Y-82881000D01*
X113153000Y-82881000D02*
X112964000Y-82598000D01*
X112964000Y-82598000D02*
X112879000Y-82171000D01*
X112962000Y-79285000D02*
X112599000Y-79285000D01*
X112599000Y-79285000D02*
X112599000Y-78343000D01*
X112599000Y-78343000D02*
X116685000Y-78343000D01*
%TO.C,K9*%
X84561000Y-103448000D02*
X83624000Y-104385000D01*
X83624000Y-104385000D02*
X80877000Y-104385000D01*
X83624000Y-99593000D02*
X84645000Y-100614000D01*
X80977000Y-99593000D02*
X83624000Y-99593000D01*
X80877000Y-104385000D02*
X80474000Y-104305000D01*
X80474000Y-104305000D02*
X80132000Y-104076000D01*
X80415000Y-99488000D02*
X80977000Y-99593000D01*
X80132000Y-104076000D02*
X79599000Y-103543000D01*
X79936000Y-99189000D02*
X80415000Y-99488000D01*
X79599000Y-103543000D02*
X79599000Y-103321000D01*
X79599000Y-103321000D02*
X79512000Y-102883000D01*
X79598000Y-98736000D02*
X79936000Y-99189000D01*
X79512000Y-102883000D02*
X79268000Y-102516000D01*
X79444000Y-98178000D02*
X79598000Y-98736000D01*
X79362000Y-97880000D02*
X79444000Y-98178000D01*
X79268000Y-102516000D02*
X78901000Y-102272000D01*
X79169000Y-97622000D02*
X79362000Y-97880000D01*
X78901000Y-102272000D02*
X78463000Y-102185000D01*
X78895000Y-97452000D02*
X79169000Y-97622000D01*
X78585000Y-97393000D02*
X78895000Y-97452000D01*
X78463000Y-102185000D02*
X75663000Y-102185000D01*
X75663000Y-102185000D02*
X75336000Y-102120000D01*
X75336000Y-102120000D02*
X75053000Y-101931000D01*
X75053000Y-101931000D02*
X74864000Y-101648000D01*
X74864000Y-101648000D02*
X74779000Y-101221000D01*
X74862000Y-98335000D02*
X74499000Y-98335000D01*
X74499000Y-98335000D02*
X74499000Y-97393000D01*
X74499000Y-97393000D02*
X78585000Y-97393000D01*
%TO.C,K6*%
X65511000Y-132023000D02*
X64574000Y-132960000D01*
X64574000Y-132960000D02*
X61827000Y-132960000D01*
X64574000Y-128168000D02*
X65595000Y-129189000D01*
X61927000Y-128168000D02*
X64574000Y-128168000D01*
X61827000Y-132960000D02*
X61424000Y-132880000D01*
X61424000Y-132880000D02*
X61082000Y-132651000D01*
X61365000Y-128063000D02*
X61927000Y-128168000D01*
X61082000Y-132651000D02*
X60549000Y-132118000D01*
X60886000Y-127764000D02*
X61365000Y-128063000D01*
X60549000Y-132118000D02*
X60549000Y-131896000D01*
X60549000Y-131896000D02*
X60462000Y-131458000D01*
X60548000Y-127311000D02*
X60886000Y-127764000D01*
X60462000Y-131458000D02*
X60218000Y-131091000D01*
X60394000Y-126753000D02*
X60548000Y-127311000D01*
X60312000Y-126455000D02*
X60394000Y-126753000D01*
X60218000Y-131091000D02*
X59851000Y-130847000D01*
X60119000Y-126197000D02*
X60312000Y-126455000D01*
X59851000Y-130847000D02*
X59413000Y-130760000D01*
X59845000Y-126027000D02*
X60119000Y-126197000D01*
X59535000Y-125968000D02*
X59845000Y-126027000D01*
X59413000Y-130760000D02*
X56613000Y-130760000D01*
X56613000Y-130760000D02*
X56286000Y-130695000D01*
X56286000Y-130695000D02*
X56003000Y-130506000D01*
X56003000Y-130506000D02*
X55814000Y-130223000D01*
X55814000Y-130223000D02*
X55729000Y-129796000D01*
X55812000Y-126910000D02*
X55449000Y-126910000D01*
X55449000Y-126910000D02*
X55449000Y-125968000D01*
X55449000Y-125968000D02*
X59535000Y-125968000D01*
%TO.C,K17*%
X122661000Y-122498000D02*
X121724000Y-123435000D01*
X121724000Y-123435000D02*
X118977000Y-123435000D01*
X121724000Y-118643000D02*
X122745000Y-119664000D01*
X119077000Y-118643000D02*
X121724000Y-118643000D01*
X118977000Y-123435000D02*
X118574000Y-123355000D01*
X118574000Y-123355000D02*
X118232000Y-123126000D01*
X118515000Y-118538000D02*
X119077000Y-118643000D01*
X118232000Y-123126000D02*
X117699000Y-122593000D01*
X118036000Y-118239000D02*
X118515000Y-118538000D01*
X117699000Y-122593000D02*
X117699000Y-122371000D01*
X117699000Y-122371000D02*
X117612000Y-121933000D01*
X117698000Y-117786000D02*
X118036000Y-118239000D01*
X117612000Y-121933000D02*
X117368000Y-121566000D01*
X117544000Y-117228000D02*
X117698000Y-117786000D01*
X117462000Y-116930000D02*
X117544000Y-117228000D01*
X117368000Y-121566000D02*
X117001000Y-121322000D01*
X117269000Y-116672000D02*
X117462000Y-116930000D01*
X117001000Y-121322000D02*
X116563000Y-121235000D01*
X116995000Y-116502000D02*
X117269000Y-116672000D01*
X116685000Y-116443000D02*
X116995000Y-116502000D01*
X116563000Y-121235000D02*
X113763000Y-121235000D01*
X113763000Y-121235000D02*
X113436000Y-121170000D01*
X113436000Y-121170000D02*
X113153000Y-120981000D01*
X113153000Y-120981000D02*
X112964000Y-120698000D01*
X112964000Y-120698000D02*
X112879000Y-120271000D01*
X112962000Y-117385000D02*
X112599000Y-117385000D01*
X112599000Y-117385000D02*
X112599000Y-116443000D01*
X112599000Y-116443000D02*
X116685000Y-116443000D01*
%TO.C,K21*%
X141711000Y-124879000D02*
X140774000Y-125816000D01*
X140774000Y-125816000D02*
X138027000Y-125816000D01*
X140774000Y-121024000D02*
X141795000Y-122045000D01*
X138127000Y-121024000D02*
X140774000Y-121024000D01*
X138027000Y-125816000D02*
X137624000Y-125736000D01*
X137624000Y-125736000D02*
X137282000Y-125507000D01*
X137565000Y-120919000D02*
X138127000Y-121024000D01*
X137282000Y-125507000D02*
X136749000Y-124974000D01*
X137086000Y-120620000D02*
X137565000Y-120919000D01*
X136749000Y-124974000D02*
X136749000Y-124752000D01*
X136749000Y-124752000D02*
X136662000Y-124314000D01*
X136748000Y-120167000D02*
X137086000Y-120620000D01*
X136662000Y-124314000D02*
X136418000Y-123947000D01*
X136594000Y-119609000D02*
X136748000Y-120167000D01*
X136512000Y-119311000D02*
X136594000Y-119609000D01*
X136418000Y-123947000D02*
X136051000Y-123703000D01*
X136319000Y-119053000D02*
X136512000Y-119311000D01*
X136051000Y-123703000D02*
X135613000Y-123616000D01*
X136045000Y-118883000D02*
X136319000Y-119053000D01*
X135735000Y-118824000D02*
X136045000Y-118883000D01*
X135613000Y-123616000D02*
X132813000Y-123616000D01*
X132813000Y-123616000D02*
X132486000Y-123551000D01*
X132486000Y-123551000D02*
X132203000Y-123362000D01*
X132203000Y-123362000D02*
X132014000Y-123079000D01*
X132014000Y-123079000D02*
X131929000Y-122652000D01*
X132012000Y-119766000D02*
X131649000Y-119766000D01*
X131649000Y-119766000D02*
X131649000Y-118824000D01*
X131649000Y-118824000D02*
X135735000Y-118824000D01*
%TO.C,K1*%
X46461000Y-96304000D02*
X45524000Y-97241000D01*
X45524000Y-97241000D02*
X42777000Y-97241000D01*
X45524000Y-92449000D02*
X46545000Y-93470000D01*
X42877000Y-92449000D02*
X45524000Y-92449000D01*
X42777000Y-97241000D02*
X42374000Y-97161000D01*
X42374000Y-97161000D02*
X42032000Y-96932000D01*
X42315000Y-92344000D02*
X42877000Y-92449000D01*
X42032000Y-96932000D02*
X41499000Y-96399000D01*
X41836000Y-92045000D02*
X42315000Y-92344000D01*
X41499000Y-96399000D02*
X41499000Y-96177000D01*
X41499000Y-96177000D02*
X41412000Y-95739000D01*
X41498000Y-91592000D02*
X41836000Y-92045000D01*
X41412000Y-95739000D02*
X41168000Y-95372000D01*
X41344000Y-91034000D02*
X41498000Y-91592000D01*
X41262000Y-90736000D02*
X41344000Y-91034000D01*
X41168000Y-95372000D02*
X40801000Y-95128000D01*
X41069000Y-90478000D02*
X41262000Y-90736000D01*
X40801000Y-95128000D02*
X40363000Y-95041000D01*
X40795000Y-90308000D02*
X41069000Y-90478000D01*
X40485000Y-90249000D02*
X40795000Y-90308000D01*
X40363000Y-95041000D02*
X37563000Y-95041000D01*
X37563000Y-95041000D02*
X37236000Y-94976000D01*
X37236000Y-94976000D02*
X36953000Y-94787000D01*
X36953000Y-94787000D02*
X36764000Y-94504000D01*
X36764000Y-94504000D02*
X36679000Y-94077000D01*
X36762000Y-91191000D02*
X36399000Y-91191000D01*
X36399000Y-91191000D02*
X36399000Y-90249000D01*
X36399000Y-90249000D02*
X40485000Y-90249000D01*
%TO.C,K19*%
X141711000Y-86779000D02*
X140774000Y-87716000D01*
X140774000Y-87716000D02*
X138027000Y-87716000D01*
X140774000Y-82924000D02*
X141795000Y-83945000D01*
X138127000Y-82924000D02*
X140774000Y-82924000D01*
X138027000Y-87716000D02*
X137624000Y-87636000D01*
X137624000Y-87636000D02*
X137282000Y-87407000D01*
X137565000Y-82819000D02*
X138127000Y-82924000D01*
X137282000Y-87407000D02*
X136749000Y-86874000D01*
X137086000Y-82520000D02*
X137565000Y-82819000D01*
X136749000Y-86874000D02*
X136749000Y-86652000D01*
X136749000Y-86652000D02*
X136662000Y-86214000D01*
X136748000Y-82067000D02*
X137086000Y-82520000D01*
X136662000Y-86214000D02*
X136418000Y-85847000D01*
X136594000Y-81509000D02*
X136748000Y-82067000D01*
X136512000Y-81211000D02*
X136594000Y-81509000D01*
X136418000Y-85847000D02*
X136051000Y-85603000D01*
X136319000Y-80953000D02*
X136512000Y-81211000D01*
X136051000Y-85603000D02*
X135613000Y-85516000D01*
X136045000Y-80783000D02*
X136319000Y-80953000D01*
X135735000Y-80724000D02*
X136045000Y-80783000D01*
X135613000Y-85516000D02*
X132813000Y-85516000D01*
X132813000Y-85516000D02*
X132486000Y-85451000D01*
X132486000Y-85451000D02*
X132203000Y-85262000D01*
X132203000Y-85262000D02*
X132014000Y-84979000D01*
X132014000Y-84979000D02*
X131929000Y-84552000D01*
X132012000Y-81666000D02*
X131649000Y-81666000D01*
X131649000Y-81666000D02*
X131649000Y-80724000D01*
X131649000Y-80724000D02*
X135735000Y-80724000D01*
%TO.C,K16*%
X122661000Y-103448000D02*
X121724000Y-104385000D01*
X121724000Y-104385000D02*
X118977000Y-104385000D01*
X121724000Y-99593000D02*
X122745000Y-100614000D01*
X119077000Y-99593000D02*
X121724000Y-99593000D01*
X118977000Y-104385000D02*
X118574000Y-104305000D01*
X118574000Y-104305000D02*
X118232000Y-104076000D01*
X118515000Y-99488000D02*
X119077000Y-99593000D01*
X118232000Y-104076000D02*
X117699000Y-103543000D01*
X118036000Y-99189000D02*
X118515000Y-99488000D01*
X117699000Y-103543000D02*
X117699000Y-103321000D01*
X117699000Y-103321000D02*
X117612000Y-102883000D01*
X117698000Y-98736000D02*
X118036000Y-99189000D01*
X117612000Y-102883000D02*
X117368000Y-102516000D01*
X117544000Y-98178000D02*
X117698000Y-98736000D01*
X117462000Y-97880000D02*
X117544000Y-98178000D01*
X117368000Y-102516000D02*
X117001000Y-102272000D01*
X117269000Y-97622000D02*
X117462000Y-97880000D01*
X117001000Y-102272000D02*
X116563000Y-102185000D01*
X116995000Y-97452000D02*
X117269000Y-97622000D01*
X116685000Y-97393000D02*
X116995000Y-97452000D01*
X116563000Y-102185000D02*
X113763000Y-102185000D01*
X113763000Y-102185000D02*
X113436000Y-102120000D01*
X113436000Y-102120000D02*
X113153000Y-101931000D01*
X113153000Y-101931000D02*
X112964000Y-101648000D01*
X112964000Y-101648000D02*
X112879000Y-101221000D01*
X112962000Y-98335000D02*
X112599000Y-98335000D01*
X112599000Y-98335000D02*
X112599000Y-97393000D01*
X112599000Y-97393000D02*
X116685000Y-97393000D01*
%TO.C,K2*%
X46461000Y-115354000D02*
X45524000Y-116291000D01*
X45524000Y-116291000D02*
X42777000Y-116291000D01*
X45524000Y-111499000D02*
X46545000Y-112520000D01*
X42877000Y-111499000D02*
X45524000Y-111499000D01*
X42777000Y-116291000D02*
X42374000Y-116211000D01*
X42374000Y-116211000D02*
X42032000Y-115982000D01*
X42315000Y-111394000D02*
X42877000Y-111499000D01*
X42032000Y-115982000D02*
X41499000Y-115449000D01*
X41836000Y-111095000D02*
X42315000Y-111394000D01*
X41499000Y-115449000D02*
X41499000Y-115227000D01*
X41499000Y-115227000D02*
X41412000Y-114789000D01*
X41498000Y-110642000D02*
X41836000Y-111095000D01*
X41412000Y-114789000D02*
X41168000Y-114422000D01*
X41344000Y-110084000D02*
X41498000Y-110642000D01*
X41262000Y-109786000D02*
X41344000Y-110084000D01*
X41168000Y-114422000D02*
X40801000Y-114178000D01*
X41069000Y-109528000D02*
X41262000Y-109786000D01*
X40801000Y-114178000D02*
X40363000Y-114091000D01*
X40795000Y-109358000D02*
X41069000Y-109528000D01*
X40485000Y-109299000D02*
X40795000Y-109358000D01*
X40363000Y-114091000D02*
X37563000Y-114091000D01*
X37563000Y-114091000D02*
X37236000Y-114026000D01*
X37236000Y-114026000D02*
X36953000Y-113837000D01*
X36953000Y-113837000D02*
X36764000Y-113554000D01*
X36764000Y-113554000D02*
X36679000Y-113127000D01*
X36762000Y-110241000D02*
X36399000Y-110241000D01*
X36399000Y-110241000D02*
X36399000Y-109299000D01*
X36399000Y-109299000D02*
X40485000Y-109299000D01*
%TO.C,K5*%
X65511000Y-112973000D02*
X64574000Y-113910000D01*
X64574000Y-113910000D02*
X61827000Y-113910000D01*
X64574000Y-109118000D02*
X65595000Y-110139000D01*
X61927000Y-109118000D02*
X64574000Y-109118000D01*
X61827000Y-113910000D02*
X61424000Y-113830000D01*
X61424000Y-113830000D02*
X61082000Y-113601000D01*
X61365000Y-109013000D02*
X61927000Y-109118000D01*
X61082000Y-113601000D02*
X60549000Y-113068000D01*
X60886000Y-108714000D02*
X61365000Y-109013000D01*
X60549000Y-113068000D02*
X60549000Y-112846000D01*
X60549000Y-112846000D02*
X60462000Y-112408000D01*
X60548000Y-108261000D02*
X60886000Y-108714000D01*
X60462000Y-112408000D02*
X60218000Y-112041000D01*
X60394000Y-107703000D02*
X60548000Y-108261000D01*
X60312000Y-107405000D02*
X60394000Y-107703000D01*
X60218000Y-112041000D02*
X59851000Y-111797000D01*
X60119000Y-107147000D02*
X60312000Y-107405000D01*
X59851000Y-111797000D02*
X59413000Y-111710000D01*
X59845000Y-106977000D02*
X60119000Y-107147000D01*
X59535000Y-106918000D02*
X59845000Y-106977000D01*
X59413000Y-111710000D02*
X56613000Y-111710000D01*
X56613000Y-111710000D02*
X56286000Y-111645000D01*
X56286000Y-111645000D02*
X56003000Y-111456000D01*
X56003000Y-111456000D02*
X55814000Y-111173000D01*
X55814000Y-111173000D02*
X55729000Y-110746000D01*
X55812000Y-107860000D02*
X55449000Y-107860000D01*
X55449000Y-107860000D02*
X55449000Y-106918000D01*
X55449000Y-106918000D02*
X59535000Y-106918000D01*
%TO.C,K13*%
X103611000Y-101066000D02*
X102674000Y-102003000D01*
X102674000Y-102003000D02*
X99927000Y-102003000D01*
X102674000Y-97211000D02*
X103695000Y-98232000D01*
X100027000Y-97211000D02*
X102674000Y-97211000D01*
X99927000Y-102003000D02*
X99524000Y-101923000D01*
X99524000Y-101923000D02*
X99182000Y-101694000D01*
X99465000Y-97106000D02*
X100027000Y-97211000D01*
X99182000Y-101694000D02*
X98649000Y-101161000D01*
X98986000Y-96807000D02*
X99465000Y-97106000D01*
X98649000Y-101161000D02*
X98649000Y-100939000D01*
X98649000Y-100939000D02*
X98562000Y-100501000D01*
X98648000Y-96354000D02*
X98986000Y-96807000D01*
X98562000Y-100501000D02*
X98318000Y-100134000D01*
X98494000Y-95796000D02*
X98648000Y-96354000D01*
X98412000Y-95498000D02*
X98494000Y-95796000D01*
X98318000Y-100134000D02*
X97951000Y-99890000D01*
X98219000Y-95240000D02*
X98412000Y-95498000D01*
X97951000Y-99890000D02*
X97513000Y-99803000D01*
X97945000Y-95070000D02*
X98219000Y-95240000D01*
X97635000Y-95011000D02*
X97945000Y-95070000D01*
X97513000Y-99803000D02*
X94713000Y-99803000D01*
X94713000Y-99803000D02*
X94386000Y-99738000D01*
X94386000Y-99738000D02*
X94103000Y-99549000D01*
X94103000Y-99549000D02*
X93914000Y-99266000D01*
X93914000Y-99266000D02*
X93829000Y-98839000D01*
X93912000Y-95953000D02*
X93549000Y-95953000D01*
X93549000Y-95953000D02*
X93549000Y-95011000D01*
X93549000Y-95011000D02*
X97635000Y-95011000D01*
%TO.C,K8*%
X84561000Y-84398000D02*
X83624000Y-85335000D01*
X83624000Y-85335000D02*
X80877000Y-85335000D01*
X83624000Y-80543000D02*
X84645000Y-81564000D01*
X80977000Y-80543000D02*
X83624000Y-80543000D01*
X80877000Y-85335000D02*
X80474000Y-85255000D01*
X80474000Y-85255000D02*
X80132000Y-85026000D01*
X80415000Y-80438000D02*
X80977000Y-80543000D01*
X80132000Y-85026000D02*
X79599000Y-84493000D01*
X79936000Y-80139000D02*
X80415000Y-80438000D01*
X79599000Y-84493000D02*
X79599000Y-84271000D01*
X79599000Y-84271000D02*
X79512000Y-83833000D01*
X79598000Y-79686000D02*
X79936000Y-80139000D01*
X79512000Y-83833000D02*
X79268000Y-83466000D01*
X79444000Y-79128000D02*
X79598000Y-79686000D01*
X79362000Y-78830000D02*
X79444000Y-79128000D01*
X79268000Y-83466000D02*
X78901000Y-83222000D01*
X79169000Y-78572000D02*
X79362000Y-78830000D01*
X78901000Y-83222000D02*
X78463000Y-83135000D01*
X78895000Y-78402000D02*
X79169000Y-78572000D01*
X78585000Y-78343000D02*
X78895000Y-78402000D01*
X78463000Y-83135000D02*
X75663000Y-83135000D01*
X75663000Y-83135000D02*
X75336000Y-83070000D01*
X75336000Y-83070000D02*
X75053000Y-82881000D01*
X75053000Y-82881000D02*
X74864000Y-82598000D01*
X74864000Y-82598000D02*
X74779000Y-82171000D01*
X74862000Y-79285000D02*
X74499000Y-79285000D01*
X74499000Y-79285000D02*
X74499000Y-78343000D01*
X74499000Y-78343000D02*
X78585000Y-78343000D01*
%TO.C,K11*%
X122661000Y-143929000D02*
X121724000Y-144866000D01*
X121724000Y-144866000D02*
X118977000Y-144866000D01*
X121724000Y-140074000D02*
X122745000Y-141095000D01*
X119077000Y-140074000D02*
X121724000Y-140074000D01*
X118977000Y-144866000D02*
X118574000Y-144786000D01*
X118574000Y-144786000D02*
X118232000Y-144557000D01*
X118515000Y-139969000D02*
X119077000Y-140074000D01*
X118232000Y-144557000D02*
X117699000Y-144024000D01*
X118036000Y-139670000D02*
X118515000Y-139969000D01*
X117699000Y-144024000D02*
X117699000Y-143802000D01*
X117699000Y-143802000D02*
X117612000Y-143364000D01*
X117698000Y-139217000D02*
X118036000Y-139670000D01*
X117612000Y-143364000D02*
X117368000Y-142997000D01*
X117544000Y-138659000D02*
X117698000Y-139217000D01*
X117462000Y-138361000D02*
X117544000Y-138659000D01*
X117368000Y-142997000D02*
X117001000Y-142753000D01*
X117269000Y-138103000D02*
X117462000Y-138361000D01*
X117001000Y-142753000D02*
X116563000Y-142666000D01*
X116995000Y-137933000D02*
X117269000Y-138103000D01*
X116685000Y-137874000D02*
X116995000Y-137933000D01*
X116563000Y-142666000D02*
X113763000Y-142666000D01*
X113763000Y-142666000D02*
X113436000Y-142601000D01*
X113436000Y-142601000D02*
X113153000Y-142412000D01*
X113153000Y-142412000D02*
X112964000Y-142129000D01*
X112964000Y-142129000D02*
X112879000Y-141702000D01*
X112962000Y-138816000D02*
X112599000Y-138816000D01*
X112599000Y-138816000D02*
X112599000Y-137874000D01*
X112599000Y-137874000D02*
X116685000Y-137874000D01*
%TO.C,K14*%
X103611000Y-120116000D02*
X102674000Y-121053000D01*
X102674000Y-121053000D02*
X99927000Y-121053000D01*
X102674000Y-116261000D02*
X103695000Y-117282000D01*
X100027000Y-116261000D02*
X102674000Y-116261000D01*
X99927000Y-121053000D02*
X99524000Y-120973000D01*
X99524000Y-120973000D02*
X99182000Y-120744000D01*
X99465000Y-116156000D02*
X100027000Y-116261000D01*
X99182000Y-120744000D02*
X98649000Y-120211000D01*
X98986000Y-115857000D02*
X99465000Y-116156000D01*
X98649000Y-120211000D02*
X98649000Y-119989000D01*
X98649000Y-119989000D02*
X98562000Y-119551000D01*
X98648000Y-115404000D02*
X98986000Y-115857000D01*
X98562000Y-119551000D02*
X98318000Y-119184000D01*
X98494000Y-114846000D02*
X98648000Y-115404000D01*
X98412000Y-114548000D02*
X98494000Y-114846000D01*
X98318000Y-119184000D02*
X97951000Y-118940000D01*
X98219000Y-114290000D02*
X98412000Y-114548000D01*
X97951000Y-118940000D02*
X97513000Y-118853000D01*
X97945000Y-114120000D02*
X98219000Y-114290000D01*
X97635000Y-114061000D02*
X97945000Y-114120000D01*
X97513000Y-118853000D02*
X94713000Y-118853000D01*
X94713000Y-118853000D02*
X94386000Y-118788000D01*
X94386000Y-118788000D02*
X94103000Y-118599000D01*
X94103000Y-118599000D02*
X93914000Y-118316000D01*
X93914000Y-118316000D02*
X93829000Y-117889000D01*
X93912000Y-115003000D02*
X93549000Y-115003000D01*
X93549000Y-115003000D02*
X93549000Y-114061000D01*
X93549000Y-114061000D02*
X97635000Y-114061000D01*
D11*
%TO.C,D1*%
X50645000Y-93539400D02*
X50645000Y-93939400D01*
X50645000Y-93939400D02*
X51195000Y-93939400D01*
X50645000Y-93939400D02*
X50095000Y-93939400D01*
X50645000Y-93939400D02*
X50245000Y-94539400D01*
X51045000Y-94539400D02*
X50645000Y-93939400D01*
X50645000Y-94539400D02*
X50645000Y-95039400D01*
X50245000Y-94539400D02*
X51045000Y-94539400D01*
%TO.C,D7*%
X98270000Y-141164400D02*
X98270000Y-141564400D01*
X98270000Y-141564400D02*
X98820000Y-141564400D01*
X98270000Y-141564400D02*
X97720000Y-141564400D01*
X98270000Y-141564400D02*
X97870000Y-142164400D01*
X98670000Y-142164400D02*
X98270000Y-141564400D01*
X98270000Y-142164400D02*
X98270000Y-142664400D01*
X97870000Y-142164400D02*
X98670000Y-142164400D01*
%TO.C,D13*%
X107795000Y-98301400D02*
X107795000Y-98701400D01*
X107795000Y-98701400D02*
X108345000Y-98701400D01*
X107795000Y-98701400D02*
X107245000Y-98701400D01*
X107795000Y-98701400D02*
X107395000Y-99301400D01*
X108195000Y-99301400D02*
X107795000Y-98701400D01*
X107795000Y-99301400D02*
X107795000Y-99801400D01*
X107395000Y-99301400D02*
X108195000Y-99301400D01*
%TO.C,D5*%
X69695000Y-110208400D02*
X69695000Y-110608400D01*
X69695000Y-110608400D02*
X70245000Y-110608400D01*
X69695000Y-110608400D02*
X69145000Y-110608400D01*
X69695000Y-110608400D02*
X69295000Y-111208400D01*
X70095000Y-111208400D02*
X69695000Y-110608400D01*
X69695000Y-111208400D02*
X69695000Y-111708400D01*
X69295000Y-111208400D02*
X70095000Y-111208400D01*
%TO.C,D12*%
X107795000Y-79251400D02*
X107795000Y-79651400D01*
X107795000Y-79651400D02*
X108345000Y-79651400D01*
X107795000Y-79651400D02*
X107245000Y-79651400D01*
X107795000Y-79651400D02*
X107395000Y-80251400D01*
X108195000Y-80251400D02*
X107795000Y-79651400D01*
X107795000Y-80251400D02*
X107795000Y-80751400D01*
X107395000Y-80251400D02*
X108195000Y-80251400D01*
D12*
%TO.C,L6*%
X135295000Y-93240000D02*
X135295000Y-91990000D01*
X136545000Y-91990000D02*
X135295000Y-91990000D01*
%TO.C,L18*%
X59095000Y-119434000D02*
X59095000Y-118184000D01*
X60345000Y-118184000D02*
X59095000Y-118184000D01*
D11*
%TO.C,D4*%
X69695000Y-91158400D02*
X69695000Y-91558400D01*
X69695000Y-91558400D02*
X70245000Y-91558400D01*
X69695000Y-91558400D02*
X69145000Y-91558400D01*
X69695000Y-91558400D02*
X69295000Y-92158400D01*
X70095000Y-92158400D02*
X69695000Y-91558400D01*
X69695000Y-92158400D02*
X69695000Y-92658400D01*
X69295000Y-92158400D02*
X70095000Y-92158400D01*
%TO.C,D26*%
X169032194Y-139389670D02*
X169394717Y-139558717D01*
X169394717Y-139558717D02*
X169627157Y-139060248D01*
X169394717Y-139558717D02*
X169162277Y-140057186D01*
X169394717Y-139558717D02*
X169769454Y-140174811D01*
X170107549Y-139449765D02*
X169394717Y-139558717D01*
X169938502Y-139812288D02*
X170391656Y-140023597D01*
X169769454Y-140174811D02*
X170107549Y-139449765D01*
D12*
%TO.C,L14*%
X97195000Y-69427000D02*
X97195000Y-68177000D01*
X98445000Y-68177000D02*
X97195000Y-68177000D01*
D11*
%TO.C,D19*%
X145895000Y-84014400D02*
X145895000Y-84414400D01*
X145895000Y-84414400D02*
X146445000Y-84414400D01*
X145895000Y-84414400D02*
X145345000Y-84414400D01*
X145895000Y-84414400D02*
X145495000Y-85014400D01*
X146295000Y-85014400D02*
X145895000Y-84414400D01*
X145895000Y-85014400D02*
X145895000Y-85514400D01*
X145495000Y-85014400D02*
X146295000Y-85014400D01*
D12*
%TO.C,L21*%
X48045000Y-84215000D02*
X48045000Y-85465000D01*
X46795000Y-85465000D02*
X48045000Y-85465000D01*
D11*
%TO.C,D16*%
X126845000Y-100683400D02*
X126845000Y-101083400D01*
X126845000Y-101083400D02*
X127395000Y-101083400D01*
X126845000Y-101083400D02*
X126295000Y-101083400D01*
X126845000Y-101083400D02*
X126445000Y-101683400D01*
X127245000Y-101683400D02*
X126845000Y-101083400D01*
X126845000Y-101683400D02*
X126845000Y-102183400D01*
X126445000Y-101683400D02*
X127245000Y-101683400D01*
D12*
%TO.C,L13*%
X97195000Y-88477000D02*
X97195000Y-87227000D01*
X98445000Y-87227000D02*
X97195000Y-87227000D01*
%TO.C,L12*%
X97195000Y-107527000D02*
X97195000Y-106277000D01*
X98445000Y-106277000D02*
X97195000Y-106277000D01*
%TO.C,L1*%
X185326577Y-125454050D02*
X184798304Y-126586935D01*
X183665419Y-126058662D02*
X184798304Y-126586935D01*
D11*
%TO.C,D14*%
X107795000Y-117351400D02*
X107795000Y-117751400D01*
X107795000Y-117751400D02*
X108345000Y-117751400D01*
X107795000Y-117751400D02*
X107245000Y-117751400D01*
X107795000Y-117751400D02*
X107395000Y-118351400D01*
X108195000Y-118351400D02*
X107795000Y-117751400D01*
X107795000Y-118351400D02*
X107795000Y-118851400D01*
X107395000Y-118351400D02*
X108195000Y-118351400D01*
D12*
%TO.C,L17*%
X86145000Y-110409000D02*
X86145000Y-111659000D01*
X84895000Y-111659000D02*
X86145000Y-111659000D01*
D11*
%TO.C,D3*%
X50645000Y-131639400D02*
X50645000Y-132039400D01*
X50645000Y-132039400D02*
X51195000Y-132039400D01*
X50645000Y-132039400D02*
X50095000Y-132039400D01*
X50645000Y-132039400D02*
X50245000Y-132639400D01*
X51045000Y-132639400D02*
X50645000Y-132039400D01*
X50645000Y-132639400D02*
X50645000Y-133139400D01*
X50245000Y-132639400D02*
X51045000Y-132639400D01*
%TO.C,D10*%
X88745000Y-119733400D02*
X88745000Y-120133400D01*
X88745000Y-120133400D02*
X89295000Y-120133400D01*
X88745000Y-120133400D02*
X88195000Y-120133400D01*
X88745000Y-120133400D02*
X88345000Y-120733400D01*
X89145000Y-120733400D02*
X88745000Y-120133400D01*
X88745000Y-120733400D02*
X88745000Y-121233400D01*
X88345000Y-120733400D02*
X89145000Y-120733400D01*
D12*
%TO.C,L15*%
X86145000Y-72309000D02*
X86145000Y-73559000D01*
X84895000Y-73559000D02*
X86145000Y-73559000D01*
D11*
%TO.C,D18*%
X146569542Y-144770311D02*
X146482966Y-145160829D01*
X146482966Y-145160829D02*
X147019929Y-145279871D01*
X146482966Y-145160829D02*
X145946003Y-145041787D01*
X146482966Y-145160829D02*
X145962584Y-145660031D01*
X146743621Y-145833183D02*
X146482966Y-145160829D01*
X146353102Y-145746607D02*
X146244882Y-146234755D01*
X145962584Y-145660031D02*
X146743621Y-145833183D01*
D12*
%TO.C,L10*%
X124245000Y-110409000D02*
X124245000Y-111659000D01*
X122995000Y-111659000D02*
X124245000Y-111659000D01*
D11*
%TO.C,D20*%
X145895000Y-103064400D02*
X145895000Y-103464400D01*
X145895000Y-103464400D02*
X146445000Y-103464400D01*
X145895000Y-103464400D02*
X145345000Y-103464400D01*
X145895000Y-103464400D02*
X145495000Y-104064400D01*
X146295000Y-104064400D02*
X145895000Y-103464400D01*
X145895000Y-104064400D02*
X145895000Y-104564400D01*
X145495000Y-104064400D02*
X146295000Y-104064400D01*
%TO.C,D6*%
X69695000Y-129258400D02*
X69695000Y-129658400D01*
X69695000Y-129658400D02*
X70245000Y-129658400D01*
X69695000Y-129658400D02*
X69145000Y-129658400D01*
X69695000Y-129658400D02*
X69295000Y-130258400D01*
X70095000Y-130258400D02*
X69695000Y-129658400D01*
X69695000Y-130258400D02*
X69695000Y-130758400D01*
X69295000Y-130258400D02*
X70095000Y-130258400D01*
D12*
%TO.C,L3*%
X159482850Y-137799037D02*
X160615735Y-138327310D01*
X160087462Y-139460195D02*
X160615735Y-138327310D01*
%TO.C,SYM1*%
D13*
X190253178Y-96875202D02*
X190286020Y-96924547D01*
X190337870Y-97006643D01*
X190405017Y-97115513D01*
X190483753Y-97245184D01*
X190570367Y-97389683D01*
X190878815Y-97907427D01*
X191327680Y-97927786D01*
X191776544Y-97948144D01*
X192130962Y-97454485D01*
X192485381Y-96960825D01*
X193611925Y-97486140D01*
X193461575Y-98074960D01*
X193311225Y-98663778D01*
X193615346Y-98994542D01*
X193919466Y-99325306D01*
X194514348Y-99228792D01*
X194631977Y-99209929D01*
X194787546Y-99185715D01*
X194921803Y-99165679D01*
X195027794Y-99150820D01*
X195098565Y-99142141D01*
X195127162Y-99140639D01*
X195137194Y-99155869D01*
X195162326Y-99211799D01*
X195198198Y-99301081D01*
X195241965Y-99415728D01*
X195290785Y-99547749D01*
X195341817Y-99689159D01*
X195392217Y-99831971D01*
X195439144Y-99968194D01*
X195479754Y-100089844D01*
X195511205Y-100188930D01*
X195530655Y-100257468D01*
X195535262Y-100287468D01*
X195527125Y-100295639D01*
X195482078Y-100328011D01*
X195403504Y-100379215D01*
X195297682Y-100445296D01*
X195170893Y-100522295D01*
X195029417Y-100606255D01*
X194951973Y-100651912D01*
X194818101Y-100731845D01*
X194702488Y-100802173D01*
X194611342Y-100859053D01*
X194550869Y-100898642D01*
X194527277Y-100917099D01*
X194526854Y-100918534D01*
X194523409Y-100954269D01*
X194519112Y-101028519D01*
X194514307Y-101131480D01*
X194509335Y-101253353D01*
X194504541Y-101384337D01*
X194500267Y-101514630D01*
X194496856Y-101634433D01*
X194494650Y-101733942D01*
X194493994Y-101803360D01*
X194495230Y-101832882D01*
X194501538Y-101838391D01*
X194541402Y-101868561D01*
X194613009Y-101921137D01*
X194710612Y-101991939D01*
X194828466Y-102076790D01*
X194960826Y-102171509D01*
X195030546Y-102221517D01*
X195158028Y-102314344D01*
X195268862Y-102396855D01*
X195357024Y-102464471D01*
X195416489Y-102512611D01*
X195441231Y-102536694D01*
X195441774Y-102549386D01*
X195427302Y-102603406D01*
X195395452Y-102689768D01*
X195349877Y-102800652D01*
X195294229Y-102928236D01*
X195232163Y-103064701D01*
X195167330Y-103202228D01*
X195103384Y-103332995D01*
X195043979Y-103449184D01*
X194992766Y-103542973D01*
X194953401Y-103606545D01*
X194929533Y-103632077D01*
X194921987Y-103632694D01*
X194870728Y-103626529D01*
X194784605Y-103609837D01*
X194673519Y-103584666D01*
X194547366Y-103553061D01*
X194504999Y-103541974D01*
X194309215Y-103490998D01*
X194155070Y-103451524D01*
X194037140Y-103422363D01*
X193949995Y-103402330D01*
X193888208Y-103390237D01*
X193846351Y-103384896D01*
X193818997Y-103385119D01*
X193800717Y-103389720D01*
X193798333Y-103390811D01*
X193759071Y-103418427D01*
X193694815Y-103472497D01*
X193612450Y-103546372D01*
X193518859Y-103633404D01*
X193420926Y-103726945D01*
X193325535Y-103820347D01*
X193239571Y-103906962D01*
X193169917Y-103980141D01*
X193123456Y-104033237D01*
X193107074Y-104059600D01*
X193107630Y-104064271D01*
X193114531Y-104110155D01*
X193128101Y-104195179D01*
X193147061Y-104311497D01*
X193170139Y-104451266D01*
X193196055Y-104606640D01*
X193203129Y-104649362D01*
X193226943Y-104801878D01*
X193245892Y-104937181D01*
X193259003Y-105047320D01*
X193265302Y-105124340D01*
X193263816Y-105160286D01*
X193257423Y-105166938D01*
X193211059Y-105192782D01*
X193125764Y-105230518D01*
X193007520Y-105277717D01*
X192862306Y-105331951D01*
X192696103Y-105390793D01*
X192601723Y-105423097D01*
X192453187Y-105472691D01*
X192324030Y-105514271D01*
X192221150Y-105545692D01*
X192151440Y-105564809D01*
X192121793Y-105569476D01*
X192108916Y-105556617D01*
X192073606Y-105507725D01*
X192024604Y-105431843D01*
X191968378Y-105338704D01*
X191928883Y-105271452D01*
X191849833Y-105137612D01*
X191765289Y-104995193D01*
X191687883Y-104865506D01*
X191535999Y-104611988D01*
X191302810Y-104625841D01*
X191248119Y-104628634D01*
X191149831Y-104631201D01*
X191075361Y-104629890D01*
X191037629Y-104624755D01*
X191032971Y-104606582D01*
X191029520Y-104544052D01*
X191028429Y-104443103D01*
X191029456Y-104309996D01*
X191032363Y-104150994D01*
X191036908Y-103972361D01*
X191042853Y-103780356D01*
X191049958Y-103581243D01*
X191057981Y-103381284D01*
X191066682Y-103186742D01*
X191075822Y-103003878D01*
X191085161Y-102838956D01*
X191094459Y-102698236D01*
X191103475Y-102587983D01*
X191111969Y-102514457D01*
X191119702Y-102483921D01*
X191120446Y-102483270D01*
X191157428Y-102468953D01*
X191228428Y-102452630D01*
X191318774Y-102437707D01*
X191347065Y-102433479D01*
X191574871Y-102374433D01*
X191786413Y-102276226D01*
X191975332Y-102144085D01*
X192135267Y-101983238D01*
X192259854Y-101798911D01*
X192342731Y-101596331D01*
X192386359Y-101402122D01*
X192400124Y-101191888D01*
X192373249Y-100986074D01*
X192305097Y-100770690D01*
X192273153Y-100697141D01*
X192152607Y-100496417D01*
X191999870Y-100327868D01*
X191820780Y-100193346D01*
X191621177Y-100094703D01*
X191406903Y-100033793D01*
X191183796Y-100012465D01*
X190957697Y-100032573D01*
X190734447Y-100095969D01*
X190519884Y-100204506D01*
X190474208Y-100234862D01*
X190295773Y-100387757D01*
X190154866Y-100567908D01*
X190052701Y-100769516D01*
X189990495Y-100986780D01*
X189969461Y-101213898D01*
X189990814Y-101445070D01*
X190055770Y-101674495D01*
X190165544Y-101896371D01*
X190169470Y-101902802D01*
X190214969Y-101982157D01*
X190246827Y-102046443D01*
X190258362Y-102082271D01*
X190246291Y-102100515D01*
X190201469Y-102149124D01*
X190127935Y-102222567D01*
X190030331Y-102316635D01*
X189913302Y-102427118D01*
X189781489Y-102549804D01*
X189639534Y-102680482D01*
X189492081Y-102814943D01*
X189343772Y-102948973D01*
X189199249Y-103078364D01*
X189063155Y-103198904D01*
X188940133Y-103306381D01*
X188834826Y-103396588D01*
X188751874Y-103465310D01*
X188695921Y-103508339D01*
X188671611Y-103521462D01*
X188660454Y-103512946D01*
X188620757Y-103470627D01*
X188564598Y-103402696D01*
X188500325Y-103319020D01*
X188361045Y-103131482D01*
X188069209Y-103178090D01*
X187982943Y-103191961D01*
X187822312Y-103218137D01*
X187661988Y-103244618D01*
X187526420Y-103267385D01*
X187451828Y-103279461D01*
X187355909Y-103292951D01*
X187286056Y-103300233D01*
X187253735Y-103299938D01*
X187244684Y-103289444D01*
X187217996Y-103238573D01*
X187180079Y-103153237D01*
X187133939Y-103041493D01*
X187082585Y-102911397D01*
X187029021Y-102771007D01*
X186976254Y-102628379D01*
X186927294Y-102491568D01*
X186885146Y-102368634D01*
X186852817Y-102267633D01*
X186833314Y-102196620D01*
X186829644Y-102163653D01*
X186832824Y-102159189D01*
X186869979Y-102128112D01*
X186941822Y-102077870D01*
X187041614Y-102012884D01*
X187162613Y-101937577D01*
X187298079Y-101856368D01*
X187335816Y-101834141D01*
X187468438Y-101755849D01*
X187585430Y-101686514D01*
X187679963Y-101630201D01*
X187745207Y-101590975D01*
X187774331Y-101572901D01*
X187775268Y-101571981D01*
X187785085Y-101537831D01*
X187795976Y-101464455D01*
X187807272Y-101361400D01*
X187818307Y-101238214D01*
X187828413Y-101104443D01*
X187836921Y-100969633D01*
X187843164Y-100843332D01*
X187846474Y-100735087D01*
X187846183Y-100654443D01*
X187841623Y-100610949D01*
X187840563Y-100607886D01*
X187830930Y-100590401D01*
X187811275Y-100568132D01*
X187777199Y-100537686D01*
X187724303Y-100495667D01*
X187648190Y-100438682D01*
X187544461Y-100363334D01*
X187408718Y-100266231D01*
X187236561Y-100143977D01*
X187200902Y-100118514D01*
X187099521Y-100043929D01*
X187015353Y-99978805D01*
X186956327Y-99929409D01*
X186930378Y-99902010D01*
X186929945Y-99889044D01*
X186944557Y-99834546D01*
X186976457Y-99747779D01*
X187022004Y-99636569D01*
X187077555Y-99508741D01*
X187139468Y-99372119D01*
X187204101Y-99234528D01*
X187267811Y-99103796D01*
X187326956Y-98987743D01*
X187377893Y-98894199D01*
X187416982Y-98830985D01*
X187440577Y-98805928D01*
X187452607Y-98806210D01*
X187508733Y-98815590D01*
X187601829Y-98835251D01*
X187724513Y-98863522D01*
X187869406Y-98898730D01*
X188029125Y-98939204D01*
X188116180Y-98961631D01*
X188265529Y-98999770D01*
X188394261Y-99032212D01*
X188495481Y-99057243D01*
X188562293Y-99073146D01*
X188587806Y-99078205D01*
X188589207Y-99077449D01*
X188617501Y-99054837D01*
X188674027Y-99006183D01*
X188751500Y-98938042D01*
X188842631Y-98856970D01*
X188940138Y-98769521D01*
X189036730Y-98682250D01*
X189125124Y-98601712D01*
X189198033Y-98534462D01*
X189248170Y-98487055D01*
X189268250Y-98466046D01*
X189268618Y-98455530D01*
X189263299Y-98402197D01*
X189251105Y-98310913D01*
X189233078Y-98188882D01*
X189210259Y-98043305D01*
X189183691Y-97881385D01*
X189169058Y-97792672D01*
X189144666Y-97637727D01*
X189124868Y-97502492D01*
X189110658Y-97394305D01*
X189103037Y-97320501D01*
X189103003Y-97288420D01*
X189118223Y-97278124D01*
X189173926Y-97252127D01*
X189262779Y-97214906D01*
X189376839Y-97169422D01*
X189508162Y-97118635D01*
X189648802Y-97065505D01*
X189790819Y-97012995D01*
X189926266Y-96964064D01*
X190047201Y-96921674D01*
X190145680Y-96888783D01*
X190213759Y-96868355D01*
X190243496Y-96863348D01*
X190253178Y-96875202D01*
G36*
X190253178Y-96875202D02*
G01*
X190286020Y-96924547D01*
X190337870Y-97006643D01*
X190405017Y-97115513D01*
X190483753Y-97245184D01*
X190570367Y-97389683D01*
X190878815Y-97907427D01*
X191327680Y-97927786D01*
X191776544Y-97948144D01*
X192130962Y-97454485D01*
X192485381Y-96960825D01*
X193611925Y-97486140D01*
X193461575Y-98074960D01*
X193311225Y-98663778D01*
X193615346Y-98994542D01*
X193919466Y-99325306D01*
X194514348Y-99228792D01*
X194631977Y-99209929D01*
X194787546Y-99185715D01*
X194921803Y-99165679D01*
X195027794Y-99150820D01*
X195098565Y-99142141D01*
X195127162Y-99140639D01*
X195137194Y-99155869D01*
X195162326Y-99211799D01*
X195198198Y-99301081D01*
X195241965Y-99415728D01*
X195290785Y-99547749D01*
X195341817Y-99689159D01*
X195392217Y-99831971D01*
X195439144Y-99968194D01*
X195479754Y-100089844D01*
X195511205Y-100188930D01*
X195530655Y-100257468D01*
X195535262Y-100287468D01*
X195527125Y-100295639D01*
X195482078Y-100328011D01*
X195403504Y-100379215D01*
X195297682Y-100445296D01*
X195170893Y-100522295D01*
X195029417Y-100606255D01*
X194951973Y-100651912D01*
X194818101Y-100731845D01*
X194702488Y-100802173D01*
X194611342Y-100859053D01*
X194550869Y-100898642D01*
X194527277Y-100917099D01*
X194526854Y-100918534D01*
X194523409Y-100954269D01*
X194519112Y-101028519D01*
X194514307Y-101131480D01*
X194509335Y-101253353D01*
X194504541Y-101384337D01*
X194500267Y-101514630D01*
X194496856Y-101634433D01*
X194494650Y-101733942D01*
X194493994Y-101803360D01*
X194495230Y-101832882D01*
X194501538Y-101838391D01*
X194541402Y-101868561D01*
X194613009Y-101921137D01*
X194710612Y-101991939D01*
X194828466Y-102076790D01*
X194960826Y-102171509D01*
X195030546Y-102221517D01*
X195158028Y-102314344D01*
X195268862Y-102396855D01*
X195357024Y-102464471D01*
X195416489Y-102512611D01*
X195441231Y-102536694D01*
X195441774Y-102549386D01*
X195427302Y-102603406D01*
X195395452Y-102689768D01*
X195349877Y-102800652D01*
X195294229Y-102928236D01*
X195232163Y-103064701D01*
X195167330Y-103202228D01*
X195103384Y-103332995D01*
X195043979Y-103449184D01*
X194992766Y-103542973D01*
X194953401Y-103606545D01*
X194929533Y-103632077D01*
X194921987Y-103632694D01*
X194870728Y-103626529D01*
X194784605Y-103609837D01*
X194673519Y-103584666D01*
X194547366Y-103553061D01*
X194504999Y-103541974D01*
X194309215Y-103490998D01*
X194155070Y-103451524D01*
X194037140Y-103422363D01*
X193949995Y-103402330D01*
X193888208Y-103390237D01*
X193846351Y-103384896D01*
X193818997Y-103385119D01*
X193800717Y-103389720D01*
X193798333Y-103390811D01*
X193759071Y-103418427D01*
X193694815Y-103472497D01*
X193612450Y-103546372D01*
X193518859Y-103633404D01*
X193420926Y-103726945D01*
X193325535Y-103820347D01*
X193239571Y-103906962D01*
X193169917Y-103980141D01*
X193123456Y-104033237D01*
X193107074Y-104059600D01*
X193107630Y-104064271D01*
X193114531Y-104110155D01*
X193128101Y-104195179D01*
X193147061Y-104311497D01*
X193170139Y-104451266D01*
X193196055Y-104606640D01*
X193203129Y-104649362D01*
X193226943Y-104801878D01*
X193245892Y-104937181D01*
X193259003Y-105047320D01*
X193265302Y-105124340D01*
X193263816Y-105160286D01*
X193257423Y-105166938D01*
X193211059Y-105192782D01*
X193125764Y-105230518D01*
X193007520Y-105277717D01*
X192862306Y-105331951D01*
X192696103Y-105390793D01*
X192601723Y-105423097D01*
X192453187Y-105472691D01*
X192324030Y-105514271D01*
X192221150Y-105545692D01*
X192151440Y-105564809D01*
X192121793Y-105569476D01*
X192108916Y-105556617D01*
X192073606Y-105507725D01*
X192024604Y-105431843D01*
X191968378Y-105338704D01*
X191928883Y-105271452D01*
X191849833Y-105137612D01*
X191765289Y-104995193D01*
X191687883Y-104865506D01*
X191535999Y-104611988D01*
X191302810Y-104625841D01*
X191248119Y-104628634D01*
X191149831Y-104631201D01*
X191075361Y-104629890D01*
X191037629Y-104624755D01*
X191032971Y-104606582D01*
X191029520Y-104544052D01*
X191028429Y-104443103D01*
X191029456Y-104309996D01*
X191032363Y-104150994D01*
X191036908Y-103972361D01*
X191042853Y-103780356D01*
X191049958Y-103581243D01*
X191057981Y-103381284D01*
X191066682Y-103186742D01*
X191075822Y-103003878D01*
X191085161Y-102838956D01*
X191094459Y-102698236D01*
X191103475Y-102587983D01*
X191111969Y-102514457D01*
X191119702Y-102483921D01*
X191120446Y-102483270D01*
X191157428Y-102468953D01*
X191228428Y-102452630D01*
X191318774Y-102437707D01*
X191347065Y-102433479D01*
X191574871Y-102374433D01*
X191786413Y-102276226D01*
X191975332Y-102144085D01*
X192135267Y-101983238D01*
X192259854Y-101798911D01*
X192342731Y-101596331D01*
X192386359Y-101402122D01*
X192400124Y-101191888D01*
X192373249Y-100986074D01*
X192305097Y-100770690D01*
X192273153Y-100697141D01*
X192152607Y-100496417D01*
X191999870Y-100327868D01*
X191820780Y-100193346D01*
X191621177Y-100094703D01*
X191406903Y-100033793D01*
X191183796Y-100012465D01*
X190957697Y-100032573D01*
X190734447Y-100095969D01*
X190519884Y-100204506D01*
X190474208Y-100234862D01*
X190295773Y-100387757D01*
X190154866Y-100567908D01*
X190052701Y-100769516D01*
X189990495Y-100986780D01*
X189969461Y-101213898D01*
X189990814Y-101445070D01*
X190055770Y-101674495D01*
X190165544Y-101896371D01*
X190169470Y-101902802D01*
X190214969Y-101982157D01*
X190246827Y-102046443D01*
X190258362Y-102082271D01*
X190246291Y-102100515D01*
X190201469Y-102149124D01*
X190127935Y-102222567D01*
X190030331Y-102316635D01*
X189913302Y-102427118D01*
X189781489Y-102549804D01*
X189639534Y-102680482D01*
X189492081Y-102814943D01*
X189343772Y-102948973D01*
X189199249Y-103078364D01*
X189063155Y-103198904D01*
X188940133Y-103306381D01*
X188834826Y-103396588D01*
X188751874Y-103465310D01*
X188695921Y-103508339D01*
X188671611Y-103521462D01*
X188660454Y-103512946D01*
X188620757Y-103470627D01*
X188564598Y-103402696D01*
X188500325Y-103319020D01*
X188361045Y-103131482D01*
X188069209Y-103178090D01*
X187982943Y-103191961D01*
X187822312Y-103218137D01*
X187661988Y-103244618D01*
X187526420Y-103267385D01*
X187451828Y-103279461D01*
X187355909Y-103292951D01*
X187286056Y-103300233D01*
X187253735Y-103299938D01*
X187244684Y-103289444D01*
X187217996Y-103238573D01*
X187180079Y-103153237D01*
X187133939Y-103041493D01*
X187082585Y-102911397D01*
X187029021Y-102771007D01*
X186976254Y-102628379D01*
X186927294Y-102491568D01*
X186885146Y-102368634D01*
X186852817Y-102267633D01*
X186833314Y-102196620D01*
X186829644Y-102163653D01*
X186832824Y-102159189D01*
X186869979Y-102128112D01*
X186941822Y-102077870D01*
X187041614Y-102012884D01*
X187162613Y-101937577D01*
X187298079Y-101856368D01*
X187335816Y-101834141D01*
X187468438Y-101755849D01*
X187585430Y-101686514D01*
X187679963Y-101630201D01*
X187745207Y-101590975D01*
X187774331Y-101572901D01*
X187775268Y-101571981D01*
X187785085Y-101537831D01*
X187795976Y-101464455D01*
X187807272Y-101361400D01*
X187818307Y-101238214D01*
X187828413Y-101104443D01*
X187836921Y-100969633D01*
X187843164Y-100843332D01*
X187846474Y-100735087D01*
X187846183Y-100654443D01*
X187841623Y-100610949D01*
X187840563Y-100607886D01*
X187830930Y-100590401D01*
X187811275Y-100568132D01*
X187777199Y-100537686D01*
X187724303Y-100495667D01*
X187648190Y-100438682D01*
X187544461Y-100363334D01*
X187408718Y-100266231D01*
X187236561Y-100143977D01*
X187200902Y-100118514D01*
X187099521Y-100043929D01*
X187015353Y-99978805D01*
X186956327Y-99929409D01*
X186930378Y-99902010D01*
X186929945Y-99889044D01*
X186944557Y-99834546D01*
X186976457Y-99747779D01*
X187022004Y-99636569D01*
X187077555Y-99508741D01*
X187139468Y-99372119D01*
X187204101Y-99234528D01*
X187267811Y-99103796D01*
X187326956Y-98987743D01*
X187377893Y-98894199D01*
X187416982Y-98830985D01*
X187440577Y-98805928D01*
X187452607Y-98806210D01*
X187508733Y-98815590D01*
X187601829Y-98835251D01*
X187724513Y-98863522D01*
X187869406Y-98898730D01*
X188029125Y-98939204D01*
X188116180Y-98961631D01*
X188265529Y-98999770D01*
X188394261Y-99032212D01*
X188495481Y-99057243D01*
X188562293Y-99073146D01*
X188587806Y-99078205D01*
X188589207Y-99077449D01*
X188617501Y-99054837D01*
X188674027Y-99006183D01*
X188751500Y-98938042D01*
X188842631Y-98856970D01*
X188940138Y-98769521D01*
X189036730Y-98682250D01*
X189125124Y-98601712D01*
X189198033Y-98534462D01*
X189248170Y-98487055D01*
X189268250Y-98466046D01*
X189268618Y-98455530D01*
X189263299Y-98402197D01*
X189251105Y-98310913D01*
X189233078Y-98188882D01*
X189210259Y-98043305D01*
X189183691Y-97881385D01*
X189169058Y-97792672D01*
X189144666Y-97637727D01*
X189124868Y-97502492D01*
X189110658Y-97394305D01*
X189103037Y-97320501D01*
X189103003Y-97288420D01*
X189118223Y-97278124D01*
X189173926Y-97252127D01*
X189262779Y-97214906D01*
X189376839Y-97169422D01*
X189508162Y-97118635D01*
X189648802Y-97065505D01*
X189790819Y-97012995D01*
X189926266Y-96964064D01*
X190047201Y-96921674D01*
X190145680Y-96888783D01*
X190213759Y-96868355D01*
X190243496Y-96863348D01*
X190253178Y-96875202D01*
G37*
D12*
%TO.C,L22*%
X48045000Y-103265000D02*
X48045000Y-104515000D01*
X46795000Y-104515000D02*
X48045000Y-104515000D01*
%TO.C,L16*%
X86145000Y-91359000D02*
X86145000Y-92609000D01*
X84895000Y-92609000D02*
X86145000Y-92609000D01*
D11*
%TO.C,D24*%
X166476637Y-126951794D02*
X166307590Y-127314317D01*
X166307590Y-127314317D02*
X166806059Y-127546757D01*
X166307590Y-127314317D02*
X165809121Y-127081877D01*
X166307590Y-127314317D02*
X165691496Y-127689054D01*
X166416542Y-128027149D02*
X166307590Y-127314317D01*
X166054019Y-127858102D02*
X165842710Y-128311256D01*
X165691496Y-127689054D02*
X166416542Y-128027149D01*
D12*
%TO.C,L9*%
X124245000Y-91359000D02*
X124245000Y-92609000D01*
X122995000Y-92609000D02*
X124245000Y-92609000D01*
D11*
%TO.C,D22*%
X153665194Y-146782670D02*
X154027717Y-146951717D01*
X154027717Y-146951717D02*
X154260157Y-146453248D01*
X154027717Y-146951717D02*
X153795277Y-147450186D01*
X154027717Y-146951717D02*
X154402454Y-147567811D01*
X154740549Y-146842765D02*
X154027717Y-146951717D01*
X154571502Y-147205288D02*
X155024656Y-147416597D01*
X154402454Y-147567811D02*
X154740549Y-146842765D01*
%TO.C,D8*%
X88745000Y-81633400D02*
X88745000Y-82033400D01*
X88745000Y-82033400D02*
X89295000Y-82033400D01*
X88745000Y-82033400D02*
X88195000Y-82033400D01*
X88745000Y-82033400D02*
X88345000Y-82633400D01*
X89145000Y-82633400D02*
X88745000Y-82033400D01*
X88745000Y-82633400D02*
X88745000Y-83133400D01*
X88345000Y-82633400D02*
X89145000Y-82633400D01*
D12*
%TO.C,L4*%
X146049574Y-135103832D02*
X145779025Y-136324202D01*
X144558655Y-136053653D02*
X145779025Y-136324202D01*
%TO.C,L7*%
X135295000Y-74190000D02*
X135295000Y-72940000D01*
X136545000Y-72940000D02*
X135295000Y-72940000D01*
%TO.C,L5*%
X135295000Y-112290000D02*
X135295000Y-111040000D01*
X136545000Y-111040000D02*
X135295000Y-111040000D01*
D11*
%TO.C,D21*%
X145895000Y-122114400D02*
X145895000Y-122514400D01*
X145895000Y-122514400D02*
X146445000Y-122514400D01*
X145895000Y-122514400D02*
X145345000Y-122514400D01*
X145895000Y-122514400D02*
X145495000Y-123114400D01*
X146295000Y-123114400D02*
X145895000Y-122514400D01*
X145895000Y-123114400D02*
X145895000Y-123614400D01*
X145495000Y-123114400D02*
X146295000Y-123114400D01*
D12*
%TO.C,L23*%
X48045000Y-122315000D02*
X48045000Y-123565000D01*
X46795000Y-123565000D02*
X48045000Y-123565000D01*
D11*
%TO.C,D9*%
X88745000Y-100683400D02*
X88745000Y-101083400D01*
X88745000Y-101083400D02*
X89295000Y-101083400D01*
X88745000Y-101083400D02*
X88195000Y-101083400D01*
X88745000Y-101083400D02*
X88345000Y-101683400D01*
X89145000Y-101683400D02*
X88745000Y-101083400D01*
X88745000Y-101683400D02*
X88745000Y-102183400D01*
X88345000Y-101683400D02*
X89145000Y-101683400D01*
%TO.C,D15*%
X126845000Y-81633400D02*
X126845000Y-82033400D01*
X126845000Y-82033400D02*
X127395000Y-82033400D01*
X126845000Y-82033400D02*
X126295000Y-82033400D01*
X126845000Y-82033400D02*
X126445000Y-82633400D01*
X127245000Y-82633400D02*
X126845000Y-82033400D01*
X126845000Y-82633400D02*
X126845000Y-83133400D01*
X126445000Y-82633400D02*
X127245000Y-82633400D01*
D12*
%TO.C,L19*%
X59095000Y-100384000D02*
X59095000Y-99134000D01*
X60345000Y-99134000D02*
X59095000Y-99134000D01*
D11*
%TO.C,D25*%
X183741637Y-135002794D02*
X183572590Y-135365317D01*
X183572590Y-135365317D02*
X184071059Y-135597757D01*
X183572590Y-135365317D02*
X183074121Y-135132877D01*
X183572590Y-135365317D02*
X182956496Y-135740054D01*
X183681542Y-136078149D02*
X183572590Y-135365317D01*
X183319019Y-135909102D02*
X183107710Y-136362256D01*
X182956496Y-135740054D02*
X183681542Y-136078149D01*
%TO.C,D17*%
X126845000Y-119733400D02*
X126845000Y-120133400D01*
X126845000Y-120133400D02*
X127395000Y-120133400D01*
X126845000Y-120133400D02*
X126295000Y-120133400D01*
X126845000Y-120133400D02*
X126445000Y-120733400D01*
X127245000Y-120733400D02*
X126845000Y-120133400D01*
X126845000Y-120733400D02*
X126845000Y-121233400D01*
X126445000Y-120733400D02*
X127245000Y-120733400D01*
%TO.C,D23*%
X151864400Y-84770000D02*
X152264400Y-84770000D01*
X152264400Y-84770000D02*
X152264400Y-84220000D01*
X152264400Y-84770000D02*
X152264400Y-85320000D01*
X152264400Y-84770000D02*
X152864400Y-85170000D01*
X152864400Y-84370000D02*
X152264400Y-84770000D01*
X152864400Y-84770000D02*
X153364400Y-84770000D01*
X152864400Y-85170000D02*
X152864400Y-84370000D01*
D12*
%TO.C,L11*%
X124245000Y-131840000D02*
X124245000Y-133090000D01*
X122995000Y-133090000D02*
X124245000Y-133090000D01*
D11*
%TO.C,D2*%
X50645000Y-112589400D02*
X50645000Y-112989400D01*
X50645000Y-112989400D02*
X51195000Y-112989400D01*
X50645000Y-112989400D02*
X50095000Y-112989400D01*
X50645000Y-112989400D02*
X50245000Y-113589400D01*
X51045000Y-113589400D02*
X50645000Y-112989400D01*
X50645000Y-113589400D02*
X50645000Y-114089400D01*
X50245000Y-113589400D02*
X51045000Y-113589400D01*
%TO.C,D11*%
X126845000Y-141164400D02*
X126845000Y-141564400D01*
X126845000Y-141564400D02*
X127395000Y-141564400D01*
X126845000Y-141564400D02*
X126295000Y-141564400D01*
X126845000Y-141564400D02*
X126445000Y-142164400D01*
X127245000Y-142164400D02*
X126845000Y-141564400D01*
X126845000Y-142164400D02*
X126845000Y-142664400D01*
X126445000Y-142164400D02*
X127245000Y-142164400D01*
D12*
%TO.C,L2*%
X168061577Y-117403050D02*
X167533304Y-118535935D01*
X166400419Y-118007662D02*
X167533304Y-118535935D01*
%TO.C,L20*%
X59095000Y-81334000D02*
X59095000Y-80084000D01*
X60345000Y-80084000D02*
X59095000Y-80084000D01*
%TO.C,L8*%
X124245000Y-72309000D02*
X124245000Y-73559000D01*
X122995000Y-73559000D02*
X124245000Y-73559000D01*
%TD*%
M02*
