%TF.GenerationSoftware,KiCad,Pcbnew,7.0.5*%
%TF.CreationDate,2024-03-19T12:27:36+08:00*%
%TF.ProjectId,Prime52left,5072696d-6535-4326-9c65-66742e6b6963,rev?*%
%TF.SameCoordinates,Original*%
%TF.FileFunction,Profile,NP*%
%FSLAX46Y46*%
G04 Gerber Fmt 4.6, Leading zero omitted, Abs format (unit mm)*
G04 Created by KiCad (PCBNEW 7.0.5) date 2024-03-19 12:27:36*
%MOMM*%
%LPD*%
G01*
G04 APERTURE LIST*
%TA.AperFunction,Profile*%
%ADD10C,0.100000*%
%TD*%
%TA.AperFunction,Profile*%
%ADD11C,0.120000*%
%TD*%
%TA.AperFunction,Profile*%
%ADD12C,0.050000*%
%TD*%
G04 APERTURE END LIST*
D10*
X129770000Y-69845000D02*
X129770000Y-67464000D01*
X91670000Y-65082000D02*
X91670000Y-67464000D01*
X34520000Y-136520000D02*
X72620000Y-136520000D01*
X129770000Y-67464000D02*
X110720000Y-67464000D01*
X205804024Y-94615231D02*
X185889404Y-137298714D01*
X53570000Y-76989000D02*
X53570000Y-79370000D01*
X110720000Y-65082000D02*
X91670000Y-65082000D01*
X34520000Y-79370000D02*
X34520000Y-136520000D01*
X167782170Y-159218430D02*
G75*
G03*
X194784067Y-144141201I16750530J1718920D01*
G01*
X72620000Y-136520000D02*
X82145000Y-146045000D01*
X148370036Y-150166521D02*
X167782177Y-159218429D01*
X148820000Y-69845000D02*
X129770000Y-69845000D01*
X110720000Y-67464000D02*
X110720000Y-65082000D01*
X148370036Y-150166521D02*
X129770802Y-146044608D01*
X72620000Y-67464000D02*
X72620000Y-76989000D01*
X158345000Y-79370000D02*
X173099719Y-79370000D01*
X148820000Y-69845000D02*
X158345000Y-79370000D01*
X205802981Y-94616175D02*
X173099719Y-79370000D01*
X53570000Y-79370000D02*
X34520000Y-79370000D01*
X129770000Y-146045000D02*
X82145000Y-146045000D01*
X91670000Y-67464000D02*
X72620000Y-67464000D01*
X194784067Y-144141200D02*
X185889404Y-137298714D01*
X72620000Y-76989000D02*
X53570000Y-76989000D01*
D11*
%TO.C,RE1*%
X157870000Y-84895000D02*
X157870000Y-100895000D01*
X157870000Y-84895000D02*
X167870000Y-84895000D01*
X157870000Y-100895000D02*
X167870000Y-100895000D01*
X167870000Y-100895000D02*
X167870000Y-84895000D01*
D12*
%TO.C,L6*%
X137545000Y-91940000D02*
X137545000Y-95040000D01*
X137545000Y-95040000D02*
X141045000Y-95040000D01*
X141045000Y-91940000D02*
X137545000Y-91940000D01*
X141045000Y-95040000D02*
X141045000Y-91940000D01*
%TO.C,L18*%
X61345000Y-118134000D02*
X61345000Y-121234000D01*
X61345000Y-121234000D02*
X64845000Y-121234000D01*
X64845000Y-118134000D02*
X61345000Y-118134000D01*
X64845000Y-121234000D02*
X64845000Y-118134000D01*
%TO.C,L14*%
X99445000Y-68127000D02*
X99445000Y-71227000D01*
X99445000Y-71227000D02*
X102945000Y-71227000D01*
X102945000Y-68127000D02*
X99445000Y-68127000D01*
X102945000Y-71227000D02*
X102945000Y-68127000D01*
%TO.C,L21*%
X45795000Y-85515000D02*
X45795000Y-82415000D01*
X45795000Y-82415000D02*
X42295000Y-82415000D01*
X42295000Y-85515000D02*
X45795000Y-85515000D01*
X42295000Y-82415000D02*
X42295000Y-85515000D01*
%TO.C,L13*%
X99445000Y-87177000D02*
X99445000Y-90277000D01*
X99445000Y-90277000D02*
X102945000Y-90277000D01*
X102945000Y-87177000D02*
X99445000Y-87177000D01*
X102945000Y-90277000D02*
X102945000Y-87177000D01*
%TO.C,L12*%
X99445000Y-106227000D02*
X99445000Y-109327000D01*
X99445000Y-109327000D02*
X102945000Y-109327000D01*
X102945000Y-106227000D02*
X99445000Y-106227000D01*
X102945000Y-109327000D02*
X102945000Y-106227000D01*
%TO.C,L1*%
X182737980Y-125681359D02*
X184048097Y-122871805D01*
X184048097Y-122871805D02*
X180876020Y-121392641D01*
X179565903Y-124202195D02*
X182737980Y-125681359D01*
X180876020Y-121392641D02*
X179565903Y-124202195D01*
%TO.C,L17*%
X83895000Y-111709000D02*
X83895000Y-108609000D01*
X83895000Y-108609000D02*
X80395000Y-108609000D01*
X80395000Y-111709000D02*
X83895000Y-111709000D01*
X80395000Y-108609000D02*
X80395000Y-111709000D01*
%TO.C,L15*%
X83895000Y-73609000D02*
X83895000Y-70509000D01*
X83895000Y-70509000D02*
X80395000Y-70509000D01*
X80395000Y-73609000D02*
X83895000Y-73609000D01*
X80395000Y-70509000D02*
X80395000Y-73609000D01*
%TO.C,L10*%
X121995000Y-111709000D02*
X121995000Y-108609000D01*
X121995000Y-108609000D02*
X118495000Y-108609000D01*
X118495000Y-111709000D02*
X121995000Y-111709000D01*
X118495000Y-108609000D02*
X118495000Y-111709000D01*
%TO.C,L3*%
X159710159Y-140387634D02*
X156900605Y-139077517D01*
X156900605Y-139077517D02*
X155421441Y-142249594D01*
X158230995Y-143559711D02*
X159710159Y-140387634D01*
X155421441Y-142249594D02*
X158230995Y-143559711D01*
%TO.C,L22*%
X45795000Y-104565000D02*
X45795000Y-101465000D01*
X45795000Y-101465000D02*
X42295000Y-101465000D01*
X42295000Y-104565000D02*
X45795000Y-104565000D01*
X42295000Y-101465000D02*
X42295000Y-104565000D01*
%TO.C,L16*%
X83895000Y-92659000D02*
X83895000Y-89559000D01*
X83895000Y-89559000D02*
X80395000Y-89559000D01*
X80395000Y-92659000D02*
X83895000Y-92659000D01*
X80395000Y-89559000D02*
X80395000Y-92659000D01*
%TO.C,L9*%
X121995000Y-92659000D02*
X121995000Y-89559000D01*
X121995000Y-89559000D02*
X118495000Y-89559000D01*
X118495000Y-92659000D02*
X121995000Y-92659000D01*
X118495000Y-89559000D02*
X118495000Y-92659000D01*
%TO.C,L4*%
X143571537Y-135886028D02*
X144242499Y-132859511D01*
X144242499Y-132859511D02*
X140825463Y-132101972D01*
X140154501Y-135128489D02*
X143571537Y-135886028D01*
X140825463Y-132101972D02*
X140154501Y-135128489D01*
%TO.C,L7*%
X137545000Y-72890000D02*
X137545000Y-75990000D01*
X137545000Y-75990000D02*
X141045000Y-75990000D01*
X141045000Y-72890000D02*
X137545000Y-72890000D01*
X141045000Y-75990000D02*
X141045000Y-72890000D01*
%TO.C,L5*%
X137545000Y-110990000D02*
X137545000Y-114090000D01*
X137545000Y-114090000D02*
X141045000Y-114090000D01*
X141045000Y-110990000D02*
X137545000Y-110990000D01*
X141045000Y-114090000D02*
X141045000Y-110990000D01*
%TO.C,L23*%
X45795000Y-123615000D02*
X45795000Y-120515000D01*
X45795000Y-120515000D02*
X42295000Y-120515000D01*
X42295000Y-123615000D02*
X45795000Y-123615000D01*
X42295000Y-120515000D02*
X42295000Y-123615000D01*
%TO.C,L19*%
X61345000Y-99084000D02*
X61345000Y-102184000D01*
X61345000Y-102184000D02*
X64845000Y-102184000D01*
X64845000Y-99084000D02*
X61345000Y-99084000D01*
X64845000Y-102184000D02*
X64845000Y-99084000D01*
%TO.C,L11*%
X121995000Y-133140000D02*
X121995000Y-130040000D01*
X121995000Y-130040000D02*
X118495000Y-130040000D01*
X118495000Y-133140000D02*
X121995000Y-133140000D01*
X118495000Y-130040000D02*
X118495000Y-133140000D01*
%TO.C,L2*%
X165472980Y-117630359D02*
X166783097Y-114820805D01*
X166783097Y-114820805D02*
X163611020Y-113341641D01*
X162300903Y-116151195D02*
X165472980Y-117630359D01*
X163611020Y-113341641D02*
X162300903Y-116151195D01*
%TO.C,L20*%
X61345000Y-80034000D02*
X61345000Y-83134000D01*
X61345000Y-83134000D02*
X64845000Y-83134000D01*
X64845000Y-80034000D02*
X61345000Y-80034000D01*
X64845000Y-83134000D02*
X64845000Y-80034000D01*
%TO.C,L8*%
X121995000Y-73609000D02*
X121995000Y-70509000D01*
X121995000Y-70509000D02*
X118495000Y-70509000D01*
X118495000Y-73609000D02*
X121995000Y-73609000D01*
X118495000Y-70509000D02*
X118495000Y-73609000D01*
%TD*%
M02*
