%TF.GenerationSoftware,KiCad,Pcbnew,7.0.5*%
%TF.CreationDate,2024-03-19T12:27:36+08:00*%
%TF.ProjectId,Prime52left,5072696d-6535-4326-9c65-66742e6b6963,rev?*%
%TF.SameCoordinates,Original*%
%TF.FileFunction,Soldermask,Top*%
%TF.FilePolarity,Negative*%
%FSLAX46Y46*%
G04 Gerber Fmt 4.6, Leading zero omitted, Abs format (unit mm)*
G04 Created by KiCad (PCBNEW 7.0.5) date 2024-03-19 12:27:36*
%MOMM*%
%LPD*%
G01*
G04 APERTURE LIST*
G04 Aperture macros list*
%AMRoundRect*
0 Rectangle with rounded corners*
0 $1 Rounding radius*
0 $2 $3 $4 $5 $6 $7 $8 $9 X,Y pos of 4 corners*
0 Add a 4 corners polygon primitive as box body*
4,1,4,$2,$3,$4,$5,$6,$7,$8,$9,$2,$3,0*
0 Add four circle primitives for the rounded corners*
1,1,$1+$1,$2,$3*
1,1,$1+$1,$4,$5*
1,1,$1+$1,$6,$7*
1,1,$1+$1,$8,$9*
0 Add four rect primitives between the rounded corners*
20,1,$1+$1,$2,$3,$4,$5,0*
20,1,$1+$1,$4,$5,$6,$7,0*
20,1,$1+$1,$6,$7,$8,$9,0*
20,1,$1+$1,$8,$9,$2,$3,0*%
%AMHorizOval*
0 Thick line with rounded ends*
0 $1 width*
0 $2 $3 position (X,Y) of the first rounded end (center of the circle)*
0 $4 $5 position (X,Y) of the second rounded end (center of the circle)*
0 Add line between two ends*
20,1,$1,$2,$3,$4,$5,0*
0 Add two circle primitives to create the rounded ends*
1,1,$1,$2,$3*
1,1,$1,$4,$5*%
%AMFreePoly0*
4,1,29,-1.390750,0.438150,-1.383112,0.519607,-1.339975,0.642884,-1.262419,0.747969,-1.157334,0.825525,-1.034057,0.868663,-0.952600,0.876300,0.952600,0.876300,1.034057,0.868662,1.157334,0.825525,1.262419,0.747969,1.339975,0.642884,1.383113,0.519607,1.390750,0.438150,1.390750,-0.438150,1.383112,-0.519607,1.339975,-0.642884,1.262419,-0.747969,1.157334,-0.825525,1.034057,-0.868663,
0.952600,-0.876300,-0.952600,-0.876300,-1.034057,-0.868662,-1.157334,-0.825525,-1.262419,-0.747969,-1.339975,-0.642884,-1.383113,-0.519607,-1.390750,-0.438150,-1.390750,0.438150,-1.390750,0.438150,$1*%
G04 Aperture macros list end*
%ADD10C,3.500000*%
%ADD11C,1.900000*%
%ADD12C,1.000000*%
%ADD13C,5.050000*%
%ADD14C,3.600000*%
%ADD15C,2.200000*%
%ADD16FreePoly0,335.000000*%
%ADD17RoundRect,0.438150X-0.005487X-1.048519X0.799685X0.678179X0.005487X1.048519X-0.799685X-0.678179X0*%
%ADD18C,1.800000*%
%ADD19O,3.200000X1.600000*%
%ADD20C,1.524000*%
%ADD21O,2.000000X3.200000*%
%ADD22R,2.000000X2.000000*%
%ADD23C,2.000000*%
%ADD24C,1.100000*%
%ADD25HorizOval,0.900000X-0.426133X-0.555347X0.426133X0.555347X0*%
%ADD26C,1.500000*%
%ADD27C,0.800000*%
%ADD28HorizOval,1.500000X-0.181262X0.084524X0.181262X-0.084524X0*%
%ADD29HorizOval,1.500000X-0.135946X0.063393X0.135946X-0.063393X0*%
G04 APERTURE END LIST*
D10*
%TO.C,H7*%
X108339000Y-136520000D03*
%TD*%
D11*
%TO.C,K25*%
X184708000Y-130329000D03*
D12*
X186431330Y-125450206D03*
D13*
X179723307Y-128004600D03*
D11*
X174738614Y-125680200D03*
D14*
X177229859Y-133351816D03*
X173585819Y-129335478D03*
%TD*%
D15*
%TO.C,U1*%
X184079467Y-86803428D03*
X172433798Y-111777645D03*
D16*
X187829603Y-87989422D03*
X186756152Y-90291444D03*
X185682702Y-92593466D03*
X184609252Y-94895487D03*
X183535801Y-97197509D03*
X182462351Y-99499531D03*
X181388900Y-101801553D03*
X180315450Y-104103574D03*
X179242000Y-106405596D03*
X203499664Y-95296492D03*
X202426214Y-97598514D03*
X201352764Y-99900535D03*
X200279313Y-102202557D03*
X199205863Y-104504579D03*
X198132412Y-106806601D03*
X197058962Y-109108622D03*
X195985512Y-111410644D03*
X194912061Y-113712666D03*
D17*
X191271134Y-113085150D03*
X188969113Y-112011700D03*
X186667091Y-110938250D03*
X184365069Y-109864799D03*
X182063047Y-108791349D03*
%TD*%
D11*
%TO.C,K4*%
X68595000Y-86514000D03*
D12*
X68095000Y-81364000D03*
D13*
X63095000Y-86514000D03*
D11*
X57595000Y-86514000D03*
D14*
X63095000Y-92414000D03*
X58095000Y-90314000D03*
%TD*%
D10*
%TO.C,H9*%
X53570000Y-98420000D03*
%TD*%
D11*
%TO.C,K20*%
X144795000Y-98420000D03*
D12*
X144295000Y-93270000D03*
D13*
X139295000Y-98420000D03*
D11*
X133795000Y-98420000D03*
D14*
X139295000Y-104320000D03*
X134295000Y-102220000D03*
%TD*%
D11*
%TO.C,K3*%
X49545000Y-126995000D03*
D12*
X49045000Y-121845000D03*
D13*
X44045000Y-126995000D03*
D11*
X38545000Y-126995000D03*
D14*
X44045000Y-132895000D03*
X39045000Y-130795000D03*
%TD*%
D11*
%TO.C,K10*%
X87645000Y-115089000D03*
D12*
X87145000Y-109939000D03*
D13*
X82145000Y-115089000D03*
D11*
X76645000Y-115089000D03*
D14*
X82145000Y-120989000D03*
X77145000Y-118889000D03*
%TD*%
D15*
%TO.C,H3*%
X103577000Y-143664000D03*
%TD*%
D18*
%TO.C,K23*%
X169340000Y-92895000D03*
X174420000Y-92895000D03*
X179500000Y-92895000D03*
%TD*%
D11*
%TO.C,K24*%
X167443000Y-122278000D03*
D12*
X169166330Y-117399206D03*
D13*
X162458307Y-119953600D03*
D11*
X157473614Y-117629200D03*
D14*
X159964859Y-125300816D03*
X156320819Y-121284478D03*
%TD*%
D11*
%TO.C,K22*%
X164357800Y-138417614D03*
D12*
X159479006Y-136694284D03*
D13*
X162033400Y-143402307D03*
D11*
X159709000Y-148387000D03*
D14*
X167380616Y-145895755D03*
X163364278Y-149539795D03*
%TD*%
D11*
%TO.C,K18*%
X146500772Y-139997692D03*
D12*
X147127288Y-134861548D03*
D13*
X141131144Y-138807274D03*
D11*
X135761516Y-137616856D03*
D14*
X139854150Y-144567420D03*
X135427193Y-141435001D03*
%TD*%
D11*
%TO.C,K12*%
X106695000Y-74607000D03*
D12*
X106195000Y-69457000D03*
D13*
X101195000Y-74607000D03*
D11*
X95695000Y-74607000D03*
D14*
X101195000Y-80507000D03*
X96195000Y-78407000D03*
%TD*%
D10*
%TO.C,H13*%
X167066000Y-132611000D03*
%TD*%
D19*
%TO.C,RE1*%
X152170000Y-87695000D03*
X152170000Y-98095000D03*
D15*
X170395000Y-87720000D03*
X170395000Y-98070000D03*
D20*
X154170000Y-90435000D03*
X154170000Y-95435000D03*
X154170000Y-92935000D03*
%TD*%
D15*
%TO.C,H1*%
X79763000Y-136520000D03*
%TD*%
D11*
%TO.C,K15*%
X125745000Y-76989000D03*
D12*
X125245000Y-71839000D03*
D13*
X120245000Y-76989000D03*
D11*
X114745000Y-76989000D03*
D14*
X120245000Y-82889000D03*
X115245000Y-80789000D03*
%TD*%
D11*
%TO.C,K9*%
X87645000Y-96039000D03*
D12*
X87145000Y-90889000D03*
D13*
X82145000Y-96039000D03*
D11*
X76645000Y-96039000D03*
D14*
X82145000Y-101939000D03*
X77145000Y-99839000D03*
%TD*%
D21*
%TO.C,K7*%
X97270000Y-136520000D03*
X86070000Y-136520000D03*
D22*
X94170000Y-129020000D03*
D23*
X89170000Y-129020000D03*
X91670000Y-129020000D03*
X89170000Y-143520000D03*
X94170000Y-143520000D03*
%TD*%
D11*
%TO.C,K6*%
X68595000Y-124614000D03*
D12*
X68095000Y-119464000D03*
D13*
X63095000Y-124614000D03*
D11*
X57595000Y-124614000D03*
D14*
X63095000Y-130514000D03*
X58095000Y-128414000D03*
%TD*%
D11*
%TO.C,K17*%
X125745000Y-115089000D03*
D12*
X125245000Y-109939000D03*
D13*
X120245000Y-115089000D03*
D11*
X114745000Y-115089000D03*
D14*
X120245000Y-120989000D03*
X115245000Y-118889000D03*
%TD*%
D11*
%TO.C,K21*%
X144795000Y-117470000D03*
D12*
X144295000Y-112320000D03*
D13*
X139295000Y-117470000D03*
D11*
X133795000Y-117470000D03*
D14*
X139295000Y-123370000D03*
X134295000Y-121270000D03*
%TD*%
D11*
%TO.C,K1*%
X49545000Y-88895000D03*
D12*
X49045000Y-83745000D03*
D13*
X44045000Y-88895000D03*
D11*
X38545000Y-88895000D03*
D14*
X44045000Y-94795000D03*
X39045000Y-92695000D03*
%TD*%
D11*
%TO.C,K19*%
X144795000Y-79370000D03*
D12*
X144295000Y-74220000D03*
D13*
X139295000Y-79370000D03*
D11*
X133795000Y-79370000D03*
D14*
X139295000Y-85270000D03*
X134295000Y-83170000D03*
%TD*%
D11*
%TO.C,K16*%
X125745000Y-96039000D03*
D12*
X125245000Y-90889000D03*
D13*
X120245000Y-96039000D03*
D11*
X114745000Y-96039000D03*
D14*
X120245000Y-101939000D03*
X115245000Y-99839000D03*
%TD*%
D11*
%TO.C,K2*%
X49545000Y-107945000D03*
D12*
X49045000Y-102795000D03*
D13*
X44045000Y-107945000D03*
D11*
X38545000Y-107945000D03*
D14*
X44045000Y-113845000D03*
X39045000Y-111745000D03*
%TD*%
D11*
%TO.C,K5*%
X68595000Y-105564000D03*
D12*
X68095000Y-100414000D03*
D13*
X63095000Y-105564000D03*
D11*
X57595000Y-105564000D03*
D14*
X63095000Y-111464000D03*
X58095000Y-109364000D03*
%TD*%
D11*
%TO.C,K13*%
X106695000Y-93657000D03*
D12*
X106195000Y-88507000D03*
D13*
X101195000Y-93657000D03*
D11*
X95695000Y-93657000D03*
D14*
X101195000Y-99557000D03*
X96195000Y-97457000D03*
%TD*%
D11*
%TO.C,K8*%
X87645000Y-76989000D03*
D12*
X87145000Y-71839000D03*
D13*
X82145000Y-76989000D03*
D11*
X76645000Y-76989000D03*
D14*
X82145000Y-82889000D03*
X77145000Y-80789000D03*
%TD*%
D10*
%TO.C,H14*%
X129770000Y-88895000D03*
%TD*%
D15*
%TO.C,K26*%
X195932555Y-166249637D03*
D24*
X196050994Y-157517212D03*
D25*
X190520299Y-162096667D03*
D15*
X175781362Y-168902592D03*
X193279600Y-146098444D03*
D24*
X172210526Y-161975304D03*
D26*
X169177128Y-156811633D03*
X170394651Y-155224927D03*
X171612174Y-153638220D03*
X172829697Y-152051513D03*
X174047220Y-150464807D03*
X175264743Y-148878100D03*
%TD*%
D27*
%TO.C,T1*%
X192359412Y-119659601D03*
X186015257Y-116701273D03*
D28*
X183593143Y-118109592D03*
D29*
X189980800Y-121088205D03*
D28*
X187218374Y-119800065D03*
X184540248Y-113475696D03*
%TD*%
D15*
%TO.C,H2*%
X103577000Y-129376000D03*
%TD*%
D11*
%TO.C,K11*%
X125745000Y-136520000D03*
D12*
X125245000Y-131370000D03*
D13*
X120245000Y-136520000D03*
D11*
X114745000Y-136520000D03*
D14*
X120245000Y-142420000D03*
X115245000Y-140320000D03*
%TD*%
D10*
%TO.C,H10*%
X53570000Y-117470000D03*
%TD*%
D11*
%TO.C,K14*%
X106695000Y-112707000D03*
D12*
X106195000Y-107557000D03*
D13*
X101195000Y-112707000D03*
D11*
X95695000Y-112707000D03*
D14*
X101195000Y-118607000D03*
X96195000Y-116507000D03*
%TD*%
D10*
%TO.C,H15*%
X129770000Y-107945000D03*
%TD*%
M02*
