M48
; DRILL file {KiCad 7.0.5} date Tue Mar 19 12:27:33 2024
; FORMAT={-:-/ absolute / metric / decimal}
; #@! TF.CreationDate,2024-03-19T12:27:33+08:00
; #@! TF.GenerationSoftware,Kicad,Pcbnew,7.0.5
; #@! TF.FileFunction,Plated,1,2,PTH
FMAT,2
METRIC
; #@! TA.AperFunction,Plated,PTH,ViaDrill
T1C0.400
; #@! TA.AperFunction,Plated,PTH,ComponentDrill
T2C0.900
; #@! TA.AperFunction,Plated,PTH,ComponentDrill
T3C1.000
; #@! TA.AperFunction,Plated,PTH,ComponentDrill
T4C1.100
; #@! TA.AperFunction,Plated,PTH,ComponentDrill
T5C3.050
%
G90
G05
T1
X38.3Y-102.265
X38.31Y-120.68
X39.9Y-83.22
X41.39Y-104.78
X41.4Y-85.73
X46.69Y-120.3
X46.71Y-101.25
X51.25Y-85.59
X53.55Y-104.64
X53.55Y-123.68
X58.84Y-113.92
X58.84Y-120.43
X60.44Y-102.19
X60.45Y-83.34
X65.74Y-117.92
X65.75Y-83.55
X65.75Y-98.87
X66.62Y-122.07
X66.63Y-97.82
X66.63Y-102.94
X72.59Y-94.88
X72.61Y-121.26
X72.61Y-127.66
X72.62Y-83.13
X72.63Y-89.56
X72.63Y-102.18
X72.63Y-108.6
X73.344Y-85.31
X76.26Y-90.359
X76.37Y-109.409
X77.145Y-86.78
X77.99Y-71.31
X79.49Y-73.82
X79.49Y-92.87
X84.79Y-108.4
X84.81Y-89.34
X91.67Y-71.32
X91.67Y-90.19
X91.67Y-109.46
X91.67Y-126.22
X96.195Y-100.53
X98.54Y-90.48
X98.55Y-71.44
X98.55Y-109.54
X98.82Y-132.34
X103.84Y-106.01
X103.85Y-86.97
X110.98Y-130.84
X114.49Y-109.38
X114.51Y-90.359
X115.245Y-102.92
X116.09Y-71.31
X117.59Y-73.82
X117.59Y-112.12
X117.6Y-92.87
X122.88Y-74.3
X122.89Y-93.35
X122.89Y-133.34
X122.9Y-89.34
X122.9Y-108.21
X122.91Y-112.23
X122.91Y-129.63
X123.84Y-126.23
X134.295Y-105.745
X136.63Y-114.33
X136.64Y-76.2
X136.645Y-95.25
X137.98Y-133.8
X138.31Y-132.33
X141.94Y-91.72
X141.95Y-110.79
X141.96Y-76.2
X142.83Y-96.13
X142.83Y-114.89
X144.96Y-137.3
X146.74Y-126.24
X147.12Y-121.22
X147.125Y-103.619
X147.356Y-89.174
X147.845Y-108.88
X147.845Y-126.21
X147.85Y-104.35
X148.085Y-88.45
X148.58Y-109.56
X148.58Y-126.98
X148.81Y-87.72
X148.81Y-100.86
X148.82Y-102.894
X149.601Y-100.15
X149.61Y-85.25
X150.43Y-142.77
X152.07Y-137.31
X153.87Y-141.509
X154.11Y-104.5
X154.88Y-105.23
X155.951Y-145.211
X156.87Y-137.42
X157.38Y-114.85
X160.27Y-115.05
X168.81Y-116.16
X170.46Y-125.51
X171.22Y-121.23
X171.6Y-101.95
X171.678Y-116.602
X172.285Y-114.945
X172.43Y-140.94
X173.19Y-140.19
X173.945Y-142.215
X174.61Y-119.0
X175.0Y-115.17
X175.01Y-113.84
X180.15Y-109.62
X180.47Y-113.11
X182.1Y-106.21
X182.13Y-104.95
X182.5Y-110.86
X182.5Y-111.88
X183.11Y-104.02
X183.19Y-102.66
X183.87Y-106.2
X184.05Y-101.65
X184.26Y-100.37
X184.92Y-106.2
X185.98Y-106.19
X187.865Y-97.71
X187.9Y-126.79
X188.59Y-95.99
X190.32Y-91.93
X191.18Y-96.82
X191.35Y-89.73
X191.94Y-96.01
T3
X89.17Y-129.02
X89.17Y-143.52
X91.67Y-129.02
X94.17Y-129.02
X94.17Y-143.52
X154.17Y-90.435
X154.17Y-92.935
X154.17Y-95.435
X169.177Y-156.812
X170.395Y-155.225
X171.612Y-153.638
X172.83Y-152.052
X174.047Y-150.465
X175.265Y-148.878
T4
X169.34Y-92.895
X174.42Y-92.895
X179.5Y-92.895
T5
X39.045Y-92.695
X39.045Y-111.745
X39.045Y-130.795
X44.045Y-94.795
X44.045Y-113.845
X44.045Y-132.895
X58.095Y-90.314
X58.095Y-109.364
X58.095Y-128.414
X63.095Y-92.414
X63.095Y-111.464
X63.095Y-130.514
X77.145Y-80.789
X77.145Y-99.839
X77.145Y-118.889
X82.145Y-82.889
X82.145Y-101.939
X82.145Y-120.989
X96.195Y-78.407
X96.195Y-97.457
X96.195Y-116.507
X101.195Y-80.507
X101.195Y-99.557
X101.195Y-118.607
X115.245Y-80.789
X115.245Y-99.839
X115.245Y-118.889
X115.245Y-140.32
X120.245Y-82.889
X120.245Y-101.939
X120.245Y-120.989
X120.245Y-142.42
X134.295Y-83.17
X134.295Y-102.22
X134.295Y-121.27
X135.427Y-141.435
X139.295Y-85.27
X139.295Y-104.32
X139.295Y-123.37
X139.854Y-144.567
X156.321Y-121.284
X159.965Y-125.301
X163.364Y-149.54
X167.381Y-145.896
X173.586Y-129.335
X177.23Y-133.352
T2
X183.774Y-118.194G85X183.412Y-118.025
G05
X184.722Y-113.56G85X184.359Y-113.391
G05
X187.4Y-119.885G85X187.037Y-119.716
G05
X190.162Y-121.173G85X189.8Y-121.004
G05
T0
M30
