%TF.GenerationSoftware,KiCad,Pcbnew,7.0.5*%
%TF.CreationDate,2024-03-19T15:00:47+08:00*%
%TF.ProjectId,J-50x,4a2d3530-782e-46b6-9963-61645f706362,rev?*%
%TF.SameCoordinates,Original*%
%TF.FileFunction,Drillmap*%
%TF.FilePolarity,Positive*%
%FSLAX45Y45*%
G04 Gerber Fmt 4.5, Leading zero omitted, Abs format (unit mm)*
G04 Created by KiCad (PCBNEW 7.0.5) date 2024-03-19 15:00:47*
%MOMM*%
%LPD*%
G01*
G04 APERTURE LIST*
%ADD10C,0.100000*%
%ADD11C,0.200000*%
%ADD12C,0.220000*%
G04 APERTURE END LIST*
D10*
X12977000Y-6984500D02*
X12977000Y-6746400D01*
X9167000Y-6508200D02*
X9167000Y-6746400D01*
X3452000Y-13652000D02*
X7262000Y-13652000D01*
X12977000Y-6746400D02*
X11072000Y-6746400D01*
X16814016Y-16134911D02*
G75*
G03*
X19478407Y-14414120I1639254J384960D01*
G01*
X20580402Y-9461523D02*
X18745424Y-13392777D01*
X18745423Y-13392777D02*
G75*
G03*
X18885957Y-13958718I415577J-197223D01*
G01*
X5357000Y-7698900D02*
X5357000Y-7937000D01*
X11072000Y-6508200D02*
X9167000Y-6508200D01*
X3452000Y-7937000D02*
X3452000Y-13652000D01*
X7262000Y-13652000D02*
X8214500Y-14604500D01*
X14837004Y-15016652D02*
X16563614Y-15821607D01*
X14882000Y-6984500D02*
X12977000Y-6984500D01*
X11072000Y-6746400D02*
X11072000Y-6508200D01*
X14837004Y-15016652D02*
X12977080Y-14604461D01*
X7262000Y-6746400D02*
X7262000Y-7698900D01*
X15834500Y-7937000D02*
X17309972Y-7937000D01*
X14882000Y-6984500D02*
X15834500Y-7937000D01*
X20580298Y-9461618D02*
X17309972Y-7937000D01*
X5357000Y-7937000D02*
X3452000Y-7937000D01*
X12977000Y-14604500D02*
X8214500Y-14604500D01*
X9167000Y-6746400D02*
X7262000Y-6746400D01*
X19478407Y-14414120D02*
X18885957Y-13958718D01*
X16814019Y-16134911D02*
G75*
G03*
X16563614Y-15821607I-447459J-100909D01*
G01*
X7262000Y-7698900D02*
X5357000Y-7698900D01*
D11*
D12*
X17133380Y-11067765D02*
X17353380Y-11287764D01*
X17353380Y-11067765D02*
X17133380Y-11287764D01*
X17468136Y-16780259D02*
X17688136Y-17000259D01*
X17688136Y-16780259D02*
X17468136Y-17000259D01*
X18297947Y-8570343D02*
X18517947Y-8790343D01*
X18517947Y-8570343D02*
X18297947Y-8790343D01*
X19217960Y-14499844D02*
X19437960Y-14719844D01*
X19437960Y-14499844D02*
X19217960Y-14719844D01*
X19483256Y-16514964D02*
X19703256Y-16734964D01*
X19703256Y-16514964D02*
X19483256Y-16734964D01*
D11*
X3707777Y-17750284D02*
X3707777Y-17550284D01*
X3707777Y-17550284D02*
X3755396Y-17550284D01*
X3755396Y-17550284D02*
X3783967Y-17559808D01*
X3783967Y-17559808D02*
X3803015Y-17578856D01*
X3803015Y-17578856D02*
X3812539Y-17597903D01*
X3812539Y-17597903D02*
X3822062Y-17635999D01*
X3822062Y-17635999D02*
X3822062Y-17664570D01*
X3822062Y-17664570D02*
X3812539Y-17702665D01*
X3812539Y-17702665D02*
X3803015Y-17721713D01*
X3803015Y-17721713D02*
X3783967Y-17740761D01*
X3783967Y-17740761D02*
X3755396Y-17750284D01*
X3755396Y-17750284D02*
X3707777Y-17750284D01*
X3907777Y-17750284D02*
X3907777Y-17616951D01*
X3907777Y-17655046D02*
X3917301Y-17635999D01*
X3917301Y-17635999D02*
X3926824Y-17626475D01*
X3926824Y-17626475D02*
X3945872Y-17616951D01*
X3945872Y-17616951D02*
X3964920Y-17616951D01*
X4031586Y-17750284D02*
X4031586Y-17616951D01*
X4031586Y-17550284D02*
X4022062Y-17559808D01*
X4022062Y-17559808D02*
X4031586Y-17569332D01*
X4031586Y-17569332D02*
X4041110Y-17559808D01*
X4041110Y-17559808D02*
X4031586Y-17550284D01*
X4031586Y-17550284D02*
X4031586Y-17569332D01*
X4155396Y-17750284D02*
X4136348Y-17740761D01*
X4136348Y-17740761D02*
X4126824Y-17721713D01*
X4126824Y-17721713D02*
X4126824Y-17550284D01*
X4260158Y-17750284D02*
X4241110Y-17740761D01*
X4241110Y-17740761D02*
X4231586Y-17721713D01*
X4231586Y-17721713D02*
X4231586Y-17550284D01*
X4488729Y-17750284D02*
X4488729Y-17550284D01*
X4488729Y-17550284D02*
X4555396Y-17693142D01*
X4555396Y-17693142D02*
X4622063Y-17550284D01*
X4622063Y-17550284D02*
X4622063Y-17750284D01*
X4803015Y-17750284D02*
X4803015Y-17645523D01*
X4803015Y-17645523D02*
X4793491Y-17626475D01*
X4793491Y-17626475D02*
X4774444Y-17616951D01*
X4774444Y-17616951D02*
X4736348Y-17616951D01*
X4736348Y-17616951D02*
X4717301Y-17626475D01*
X4803015Y-17740761D02*
X4783967Y-17750284D01*
X4783967Y-17750284D02*
X4736348Y-17750284D01*
X4736348Y-17750284D02*
X4717301Y-17740761D01*
X4717301Y-17740761D02*
X4707777Y-17721713D01*
X4707777Y-17721713D02*
X4707777Y-17702665D01*
X4707777Y-17702665D02*
X4717301Y-17683618D01*
X4717301Y-17683618D02*
X4736348Y-17674094D01*
X4736348Y-17674094D02*
X4783967Y-17674094D01*
X4783967Y-17674094D02*
X4803015Y-17664570D01*
X4898253Y-17616951D02*
X4898253Y-17816951D01*
X4898253Y-17626475D02*
X4917301Y-17616951D01*
X4917301Y-17616951D02*
X4955396Y-17616951D01*
X4955396Y-17616951D02*
X4974444Y-17626475D01*
X4974444Y-17626475D02*
X4983967Y-17635999D01*
X4983967Y-17635999D02*
X4993491Y-17655046D01*
X4993491Y-17655046D02*
X4993491Y-17712189D01*
X4993491Y-17712189D02*
X4983967Y-17731237D01*
X4983967Y-17731237D02*
X4974444Y-17740761D01*
X4974444Y-17740761D02*
X4955396Y-17750284D01*
X4955396Y-17750284D02*
X4917301Y-17750284D01*
X4917301Y-17750284D02*
X4898253Y-17740761D01*
X5079205Y-17731237D02*
X5088729Y-17740761D01*
X5088729Y-17740761D02*
X5079205Y-17750284D01*
X5079205Y-17750284D02*
X5069682Y-17740761D01*
X5069682Y-17740761D02*
X5079205Y-17731237D01*
X5079205Y-17731237D02*
X5079205Y-17750284D01*
X5079205Y-17626475D02*
X5088729Y-17635999D01*
X5088729Y-17635999D02*
X5079205Y-17645523D01*
X5079205Y-17645523D02*
X5069682Y-17635999D01*
X5069682Y-17635999D02*
X5079205Y-17626475D01*
X5079205Y-17626475D02*
X5079205Y-17645523D01*
X3247000Y-17978801D02*
X3447000Y-18178801D01*
X3447000Y-17978801D02*
X3247000Y-18178801D01*
X3698253Y-17989332D02*
X3707777Y-17979808D01*
X3707777Y-17979808D02*
X3726824Y-17970284D01*
X3726824Y-17970284D02*
X3774443Y-17970284D01*
X3774443Y-17970284D02*
X3793491Y-17979808D01*
X3793491Y-17979808D02*
X3803015Y-17989332D01*
X3803015Y-17989332D02*
X3812539Y-18008380D01*
X3812539Y-18008380D02*
X3812539Y-18027427D01*
X3812539Y-18027427D02*
X3803015Y-18055999D01*
X3803015Y-18055999D02*
X3688729Y-18170284D01*
X3688729Y-18170284D02*
X3812539Y-18170284D01*
X3898253Y-18151237D02*
X3907777Y-18160761D01*
X3907777Y-18160761D02*
X3898253Y-18170284D01*
X3898253Y-18170284D02*
X3888729Y-18160761D01*
X3888729Y-18160761D02*
X3898253Y-18151237D01*
X3898253Y-18151237D02*
X3898253Y-18170284D01*
X3983967Y-17989332D02*
X3993491Y-17979808D01*
X3993491Y-17979808D02*
X4012539Y-17970284D01*
X4012539Y-17970284D02*
X4060158Y-17970284D01*
X4060158Y-17970284D02*
X4079205Y-17979808D01*
X4079205Y-17979808D02*
X4088729Y-17989332D01*
X4088729Y-17989332D02*
X4098253Y-18008380D01*
X4098253Y-18008380D02*
X4098253Y-18027427D01*
X4098253Y-18027427D02*
X4088729Y-18055999D01*
X4088729Y-18055999D02*
X3974443Y-18170284D01*
X3974443Y-18170284D02*
X4098253Y-18170284D01*
X4222063Y-17970284D02*
X4241110Y-17970284D01*
X4241110Y-17970284D02*
X4260158Y-17979808D01*
X4260158Y-17979808D02*
X4269682Y-17989332D01*
X4269682Y-17989332D02*
X4279205Y-18008380D01*
X4279205Y-18008380D02*
X4288729Y-18046475D01*
X4288729Y-18046475D02*
X4288729Y-18094094D01*
X4288729Y-18094094D02*
X4279205Y-18132189D01*
X4279205Y-18132189D02*
X4269682Y-18151237D01*
X4269682Y-18151237D02*
X4260158Y-18160761D01*
X4260158Y-18160761D02*
X4241110Y-18170284D01*
X4241110Y-18170284D02*
X4222063Y-18170284D01*
X4222063Y-18170284D02*
X4203015Y-18160761D01*
X4203015Y-18160761D02*
X4193491Y-18151237D01*
X4193491Y-18151237D02*
X4183967Y-18132189D01*
X4183967Y-18132189D02*
X4174443Y-18094094D01*
X4174443Y-18094094D02*
X4174443Y-18046475D01*
X4174443Y-18046475D02*
X4183967Y-18008380D01*
X4183967Y-18008380D02*
X4193491Y-17989332D01*
X4193491Y-17989332D02*
X4203015Y-17979808D01*
X4203015Y-17979808D02*
X4222063Y-17970284D01*
X4412539Y-17970284D02*
X4431586Y-17970284D01*
X4431586Y-17970284D02*
X4450634Y-17979808D01*
X4450634Y-17979808D02*
X4460158Y-17989332D01*
X4460158Y-17989332D02*
X4469682Y-18008380D01*
X4469682Y-18008380D02*
X4479205Y-18046475D01*
X4479205Y-18046475D02*
X4479205Y-18094094D01*
X4479205Y-18094094D02*
X4469682Y-18132189D01*
X4469682Y-18132189D02*
X4460158Y-18151237D01*
X4460158Y-18151237D02*
X4450634Y-18160761D01*
X4450634Y-18160761D02*
X4431586Y-18170284D01*
X4431586Y-18170284D02*
X4412539Y-18170284D01*
X4412539Y-18170284D02*
X4393491Y-18160761D01*
X4393491Y-18160761D02*
X4383967Y-18151237D01*
X4383967Y-18151237D02*
X4374444Y-18132189D01*
X4374444Y-18132189D02*
X4364920Y-18094094D01*
X4364920Y-18094094D02*
X4364920Y-18046475D01*
X4364920Y-18046475D02*
X4374444Y-18008380D01*
X4374444Y-18008380D02*
X4383967Y-17989332D01*
X4383967Y-17989332D02*
X4393491Y-17979808D01*
X4393491Y-17979808D02*
X4412539Y-17970284D01*
X4564920Y-18170284D02*
X4564920Y-18036951D01*
X4564920Y-18055999D02*
X4574444Y-18046475D01*
X4574444Y-18046475D02*
X4593491Y-18036951D01*
X4593491Y-18036951D02*
X4622063Y-18036951D01*
X4622063Y-18036951D02*
X4641110Y-18046475D01*
X4641110Y-18046475D02*
X4650634Y-18065523D01*
X4650634Y-18065523D02*
X4650634Y-18170284D01*
X4650634Y-18065523D02*
X4660158Y-18046475D01*
X4660158Y-18046475D02*
X4679205Y-18036951D01*
X4679205Y-18036951D02*
X4707777Y-18036951D01*
X4707777Y-18036951D02*
X4726825Y-18046475D01*
X4726825Y-18046475D02*
X4736348Y-18065523D01*
X4736348Y-18065523D02*
X4736348Y-18170284D01*
X4831586Y-18170284D02*
X4831586Y-18036951D01*
X4831586Y-18055999D02*
X4841110Y-18046475D01*
X4841110Y-18046475D02*
X4860158Y-18036951D01*
X4860158Y-18036951D02*
X4888729Y-18036951D01*
X4888729Y-18036951D02*
X4907777Y-18046475D01*
X4907777Y-18046475D02*
X4917301Y-18065523D01*
X4917301Y-18065523D02*
X4917301Y-18170284D01*
X4917301Y-18065523D02*
X4926825Y-18046475D01*
X4926825Y-18046475D02*
X4945872Y-18036951D01*
X4945872Y-18036951D02*
X4974444Y-18036951D01*
X4974444Y-18036951D02*
X4993491Y-18046475D01*
X4993491Y-18046475D02*
X5003015Y-18065523D01*
X5003015Y-18065523D02*
X5003015Y-18170284D01*
X5393491Y-17960761D02*
X5222063Y-18217903D01*
X5650634Y-17970284D02*
X5669682Y-17970284D01*
X5669682Y-17970284D02*
X5688729Y-17979808D01*
X5688729Y-17979808D02*
X5698253Y-17989332D01*
X5698253Y-17989332D02*
X5707777Y-18008380D01*
X5707777Y-18008380D02*
X5717301Y-18046475D01*
X5717301Y-18046475D02*
X5717301Y-18094094D01*
X5717301Y-18094094D02*
X5707777Y-18132189D01*
X5707777Y-18132189D02*
X5698253Y-18151237D01*
X5698253Y-18151237D02*
X5688729Y-18160761D01*
X5688729Y-18160761D02*
X5669682Y-18170284D01*
X5669682Y-18170284D02*
X5650634Y-18170284D01*
X5650634Y-18170284D02*
X5631586Y-18160761D01*
X5631586Y-18160761D02*
X5622063Y-18151237D01*
X5622063Y-18151237D02*
X5612539Y-18132189D01*
X5612539Y-18132189D02*
X5603015Y-18094094D01*
X5603015Y-18094094D02*
X5603015Y-18046475D01*
X5603015Y-18046475D02*
X5612539Y-18008380D01*
X5612539Y-18008380D02*
X5622063Y-17989332D01*
X5622063Y-17989332D02*
X5631586Y-17979808D01*
X5631586Y-17979808D02*
X5650634Y-17970284D01*
X5803015Y-18151237D02*
X5812539Y-18160761D01*
X5812539Y-18160761D02*
X5803015Y-18170284D01*
X5803015Y-18170284D02*
X5793491Y-18160761D01*
X5793491Y-18160761D02*
X5803015Y-18151237D01*
X5803015Y-18151237D02*
X5803015Y-18170284D01*
X5936348Y-17970284D02*
X5955396Y-17970284D01*
X5955396Y-17970284D02*
X5974444Y-17979808D01*
X5974444Y-17979808D02*
X5983967Y-17989332D01*
X5983967Y-17989332D02*
X5993491Y-18008380D01*
X5993491Y-18008380D02*
X6003015Y-18046475D01*
X6003015Y-18046475D02*
X6003015Y-18094094D01*
X6003015Y-18094094D02*
X5993491Y-18132189D01*
X5993491Y-18132189D02*
X5983967Y-18151237D01*
X5983967Y-18151237D02*
X5974444Y-18160761D01*
X5974444Y-18160761D02*
X5955396Y-18170284D01*
X5955396Y-18170284D02*
X5936348Y-18170284D01*
X5936348Y-18170284D02*
X5917301Y-18160761D01*
X5917301Y-18160761D02*
X5907777Y-18151237D01*
X5907777Y-18151237D02*
X5898253Y-18132189D01*
X5898253Y-18132189D02*
X5888729Y-18094094D01*
X5888729Y-18094094D02*
X5888729Y-18046475D01*
X5888729Y-18046475D02*
X5898253Y-18008380D01*
X5898253Y-18008380D02*
X5907777Y-17989332D01*
X5907777Y-17989332D02*
X5917301Y-17979808D01*
X5917301Y-17979808D02*
X5936348Y-17970284D01*
X6117301Y-18055999D02*
X6098253Y-18046475D01*
X6098253Y-18046475D02*
X6088729Y-18036951D01*
X6088729Y-18036951D02*
X6079206Y-18017903D01*
X6079206Y-18017903D02*
X6079206Y-18008380D01*
X6079206Y-18008380D02*
X6088729Y-17989332D01*
X6088729Y-17989332D02*
X6098253Y-17979808D01*
X6098253Y-17979808D02*
X6117301Y-17970284D01*
X6117301Y-17970284D02*
X6155396Y-17970284D01*
X6155396Y-17970284D02*
X6174444Y-17979808D01*
X6174444Y-17979808D02*
X6183967Y-17989332D01*
X6183967Y-17989332D02*
X6193491Y-18008380D01*
X6193491Y-18008380D02*
X6193491Y-18017903D01*
X6193491Y-18017903D02*
X6183967Y-18036951D01*
X6183967Y-18036951D02*
X6174444Y-18046475D01*
X6174444Y-18046475D02*
X6155396Y-18055999D01*
X6155396Y-18055999D02*
X6117301Y-18055999D01*
X6117301Y-18055999D02*
X6098253Y-18065523D01*
X6098253Y-18065523D02*
X6088729Y-18075046D01*
X6088729Y-18075046D02*
X6079206Y-18094094D01*
X6079206Y-18094094D02*
X6079206Y-18132189D01*
X6079206Y-18132189D02*
X6088729Y-18151237D01*
X6088729Y-18151237D02*
X6098253Y-18160761D01*
X6098253Y-18160761D02*
X6117301Y-18170284D01*
X6117301Y-18170284D02*
X6155396Y-18170284D01*
X6155396Y-18170284D02*
X6174444Y-18160761D01*
X6174444Y-18160761D02*
X6183967Y-18151237D01*
X6183967Y-18151237D02*
X6193491Y-18132189D01*
X6193491Y-18132189D02*
X6193491Y-18094094D01*
X6193491Y-18094094D02*
X6183967Y-18075046D01*
X6183967Y-18075046D02*
X6174444Y-18065523D01*
X6174444Y-18065523D02*
X6155396Y-18055999D01*
X6364920Y-17970284D02*
X6326825Y-17970284D01*
X6326825Y-17970284D02*
X6307777Y-17979808D01*
X6307777Y-17979808D02*
X6298253Y-17989332D01*
X6298253Y-17989332D02*
X6279206Y-18017903D01*
X6279206Y-18017903D02*
X6269682Y-18055999D01*
X6269682Y-18055999D02*
X6269682Y-18132189D01*
X6269682Y-18132189D02*
X6279206Y-18151237D01*
X6279206Y-18151237D02*
X6288729Y-18160761D01*
X6288729Y-18160761D02*
X6307777Y-18170284D01*
X6307777Y-18170284D02*
X6345872Y-18170284D01*
X6345872Y-18170284D02*
X6364920Y-18160761D01*
X6364920Y-18160761D02*
X6374444Y-18151237D01*
X6374444Y-18151237D02*
X6383967Y-18132189D01*
X6383967Y-18132189D02*
X6383967Y-18084570D01*
X6383967Y-18084570D02*
X6374444Y-18065523D01*
X6374444Y-18065523D02*
X6364920Y-18055999D01*
X6364920Y-18055999D02*
X6345872Y-18046475D01*
X6345872Y-18046475D02*
X6307777Y-18046475D01*
X6307777Y-18046475D02*
X6288729Y-18055999D01*
X6288729Y-18055999D02*
X6279206Y-18065523D01*
X6279206Y-18065523D02*
X6269682Y-18084570D01*
X6555396Y-17970284D02*
X6517301Y-17970284D01*
X6517301Y-17970284D02*
X6498253Y-17979808D01*
X6498253Y-17979808D02*
X6488729Y-17989332D01*
X6488729Y-17989332D02*
X6469682Y-18017903D01*
X6469682Y-18017903D02*
X6460158Y-18055999D01*
X6460158Y-18055999D02*
X6460158Y-18132189D01*
X6460158Y-18132189D02*
X6469682Y-18151237D01*
X6469682Y-18151237D02*
X6479206Y-18160761D01*
X6479206Y-18160761D02*
X6498253Y-18170284D01*
X6498253Y-18170284D02*
X6536348Y-18170284D01*
X6536348Y-18170284D02*
X6555396Y-18160761D01*
X6555396Y-18160761D02*
X6564920Y-18151237D01*
X6564920Y-18151237D02*
X6574444Y-18132189D01*
X6574444Y-18132189D02*
X6574444Y-18084570D01*
X6574444Y-18084570D02*
X6564920Y-18065523D01*
X6564920Y-18065523D02*
X6555396Y-18055999D01*
X6555396Y-18055999D02*
X6536348Y-18046475D01*
X6536348Y-18046475D02*
X6498253Y-18046475D01*
X6498253Y-18046475D02*
X6479206Y-18055999D01*
X6479206Y-18055999D02*
X6469682Y-18065523D01*
X6469682Y-18065523D02*
X6460158Y-18084570D01*
X6650634Y-17970284D02*
X6650634Y-18008380D01*
X6726825Y-17970284D02*
X6726825Y-18008380D01*
X7022063Y-18246475D02*
X7012539Y-18236951D01*
X7012539Y-18236951D02*
X6993491Y-18208380D01*
X6993491Y-18208380D02*
X6983968Y-18189332D01*
X6983968Y-18189332D02*
X6974444Y-18160761D01*
X6974444Y-18160761D02*
X6964920Y-18113142D01*
X6964920Y-18113142D02*
X6964920Y-18075046D01*
X6964920Y-18075046D02*
X6974444Y-18027427D01*
X6974444Y-18027427D02*
X6983968Y-17998856D01*
X6983968Y-17998856D02*
X6993491Y-17979808D01*
X6993491Y-17979808D02*
X7012539Y-17951237D01*
X7012539Y-17951237D02*
X7022063Y-17941713D01*
X7193491Y-17970284D02*
X7098253Y-17970284D01*
X7098253Y-17970284D02*
X7088729Y-18065523D01*
X7088729Y-18065523D02*
X7098253Y-18055999D01*
X7098253Y-18055999D02*
X7117301Y-18046475D01*
X7117301Y-18046475D02*
X7164920Y-18046475D01*
X7164920Y-18046475D02*
X7183968Y-18055999D01*
X7183968Y-18055999D02*
X7193491Y-18065523D01*
X7193491Y-18065523D02*
X7203015Y-18084570D01*
X7203015Y-18084570D02*
X7203015Y-18132189D01*
X7203015Y-18132189D02*
X7193491Y-18151237D01*
X7193491Y-18151237D02*
X7183968Y-18160761D01*
X7183968Y-18160761D02*
X7164920Y-18170284D01*
X7164920Y-18170284D02*
X7117301Y-18170284D01*
X7117301Y-18170284D02*
X7098253Y-18160761D01*
X7098253Y-18160761D02*
X7088729Y-18151237D01*
X7441110Y-18170284D02*
X7441110Y-17970284D01*
X7526825Y-18170284D02*
X7526825Y-18065523D01*
X7526825Y-18065523D02*
X7517301Y-18046475D01*
X7517301Y-18046475D02*
X7498253Y-18036951D01*
X7498253Y-18036951D02*
X7469682Y-18036951D01*
X7469682Y-18036951D02*
X7450634Y-18046475D01*
X7450634Y-18046475D02*
X7441110Y-18055999D01*
X7650634Y-18170284D02*
X7631587Y-18160761D01*
X7631587Y-18160761D02*
X7622063Y-18151237D01*
X7622063Y-18151237D02*
X7612539Y-18132189D01*
X7612539Y-18132189D02*
X7612539Y-18075046D01*
X7612539Y-18075046D02*
X7622063Y-18055999D01*
X7622063Y-18055999D02*
X7631587Y-18046475D01*
X7631587Y-18046475D02*
X7650634Y-18036951D01*
X7650634Y-18036951D02*
X7679206Y-18036951D01*
X7679206Y-18036951D02*
X7698253Y-18046475D01*
X7698253Y-18046475D02*
X7707777Y-18055999D01*
X7707777Y-18055999D02*
X7717301Y-18075046D01*
X7717301Y-18075046D02*
X7717301Y-18132189D01*
X7717301Y-18132189D02*
X7707777Y-18151237D01*
X7707777Y-18151237D02*
X7698253Y-18160761D01*
X7698253Y-18160761D02*
X7679206Y-18170284D01*
X7679206Y-18170284D02*
X7650634Y-18170284D01*
X7831587Y-18170284D02*
X7812539Y-18160761D01*
X7812539Y-18160761D02*
X7803015Y-18141713D01*
X7803015Y-18141713D02*
X7803015Y-17970284D01*
X7983968Y-18160761D02*
X7964920Y-18170284D01*
X7964920Y-18170284D02*
X7926825Y-18170284D01*
X7926825Y-18170284D02*
X7907777Y-18160761D01*
X7907777Y-18160761D02*
X7898253Y-18141713D01*
X7898253Y-18141713D02*
X7898253Y-18065523D01*
X7898253Y-18065523D02*
X7907777Y-18046475D01*
X7907777Y-18046475D02*
X7926825Y-18036951D01*
X7926825Y-18036951D02*
X7964920Y-18036951D01*
X7964920Y-18036951D02*
X7983968Y-18046475D01*
X7983968Y-18046475D02*
X7993491Y-18065523D01*
X7993491Y-18065523D02*
X7993491Y-18084570D01*
X7993491Y-18084570D02*
X7898253Y-18103618D01*
X8069682Y-18160761D02*
X8088730Y-18170284D01*
X8088730Y-18170284D02*
X8126825Y-18170284D01*
X8126825Y-18170284D02*
X8145872Y-18160761D01*
X8145872Y-18160761D02*
X8155396Y-18141713D01*
X8155396Y-18141713D02*
X8155396Y-18132189D01*
X8155396Y-18132189D02*
X8145872Y-18113142D01*
X8145872Y-18113142D02*
X8126825Y-18103618D01*
X8126825Y-18103618D02*
X8098253Y-18103618D01*
X8098253Y-18103618D02*
X8079206Y-18094094D01*
X8079206Y-18094094D02*
X8069682Y-18075046D01*
X8069682Y-18075046D02*
X8069682Y-18065523D01*
X8069682Y-18065523D02*
X8079206Y-18046475D01*
X8079206Y-18046475D02*
X8098253Y-18036951D01*
X8098253Y-18036951D02*
X8126825Y-18036951D01*
X8126825Y-18036951D02*
X8145872Y-18046475D01*
X8222063Y-18246475D02*
X8231587Y-18236951D01*
X8231587Y-18236951D02*
X8250634Y-18208380D01*
X8250634Y-18208380D02*
X8260158Y-18189332D01*
X8260158Y-18189332D02*
X8269682Y-18160761D01*
X8269682Y-18160761D02*
X8279206Y-18113142D01*
X8279206Y-18113142D02*
X8279206Y-18075046D01*
X8279206Y-18075046D02*
X8269682Y-18027427D01*
X8269682Y-18027427D02*
X8260158Y-17998856D01*
X8260158Y-17998856D02*
X8250634Y-17979808D01*
X8250634Y-17979808D02*
X8231587Y-17951237D01*
X8231587Y-17951237D02*
X8222063Y-17941713D01*
X8583968Y-18246475D02*
X8574444Y-18236951D01*
X8574444Y-18236951D02*
X8555396Y-18208380D01*
X8555396Y-18208380D02*
X8545873Y-18189332D01*
X8545873Y-18189332D02*
X8536349Y-18160761D01*
X8536349Y-18160761D02*
X8526825Y-18113142D01*
X8526825Y-18113142D02*
X8526825Y-18075046D01*
X8526825Y-18075046D02*
X8536349Y-18027427D01*
X8536349Y-18027427D02*
X8545873Y-17998856D01*
X8545873Y-17998856D02*
X8555396Y-17979808D01*
X8555396Y-17979808D02*
X8574444Y-17951237D01*
X8574444Y-17951237D02*
X8583968Y-17941713D01*
X8660158Y-18036951D02*
X8660158Y-18170284D01*
X8660158Y-18055999D02*
X8669682Y-18046475D01*
X8669682Y-18046475D02*
X8688730Y-18036951D01*
X8688730Y-18036951D02*
X8717301Y-18036951D01*
X8717301Y-18036951D02*
X8736349Y-18046475D01*
X8736349Y-18046475D02*
X8745873Y-18065523D01*
X8745873Y-18065523D02*
X8745873Y-18170284D01*
X8869682Y-18170284D02*
X8850634Y-18160761D01*
X8850634Y-18160761D02*
X8841111Y-18151237D01*
X8841111Y-18151237D02*
X8831587Y-18132189D01*
X8831587Y-18132189D02*
X8831587Y-18075046D01*
X8831587Y-18075046D02*
X8841111Y-18055999D01*
X8841111Y-18055999D02*
X8850634Y-18046475D01*
X8850634Y-18046475D02*
X8869682Y-18036951D01*
X8869682Y-18036951D02*
X8898254Y-18036951D01*
X8898254Y-18036951D02*
X8917301Y-18046475D01*
X8917301Y-18046475D02*
X8926825Y-18055999D01*
X8926825Y-18055999D02*
X8936349Y-18075046D01*
X8936349Y-18075046D02*
X8936349Y-18132189D01*
X8936349Y-18132189D02*
X8926825Y-18151237D01*
X8926825Y-18151237D02*
X8917301Y-18160761D01*
X8917301Y-18160761D02*
X8898254Y-18170284D01*
X8898254Y-18170284D02*
X8869682Y-18170284D01*
X8993492Y-18036951D02*
X9069682Y-18036951D01*
X9022063Y-17970284D02*
X9022063Y-18141713D01*
X9022063Y-18141713D02*
X9031587Y-18160761D01*
X9031587Y-18160761D02*
X9050634Y-18170284D01*
X9050634Y-18170284D02*
X9069682Y-18170284D01*
X9288730Y-18036951D02*
X9288730Y-18236951D01*
X9288730Y-18046475D02*
X9307777Y-18036951D01*
X9307777Y-18036951D02*
X9345873Y-18036951D01*
X9345873Y-18036951D02*
X9364920Y-18046475D01*
X9364920Y-18046475D02*
X9374444Y-18055999D01*
X9374444Y-18055999D02*
X9383968Y-18075046D01*
X9383968Y-18075046D02*
X9383968Y-18132189D01*
X9383968Y-18132189D02*
X9374444Y-18151237D01*
X9374444Y-18151237D02*
X9364920Y-18160761D01*
X9364920Y-18160761D02*
X9345873Y-18170284D01*
X9345873Y-18170284D02*
X9307777Y-18170284D01*
X9307777Y-18170284D02*
X9288730Y-18160761D01*
X9498254Y-18170284D02*
X9479206Y-18160761D01*
X9479206Y-18160761D02*
X9469682Y-18141713D01*
X9469682Y-18141713D02*
X9469682Y-17970284D01*
X9660158Y-18170284D02*
X9660158Y-18065523D01*
X9660158Y-18065523D02*
X9650635Y-18046475D01*
X9650635Y-18046475D02*
X9631587Y-18036951D01*
X9631587Y-18036951D02*
X9593492Y-18036951D01*
X9593492Y-18036951D02*
X9574444Y-18046475D01*
X9660158Y-18160761D02*
X9641111Y-18170284D01*
X9641111Y-18170284D02*
X9593492Y-18170284D01*
X9593492Y-18170284D02*
X9574444Y-18160761D01*
X9574444Y-18160761D02*
X9564920Y-18141713D01*
X9564920Y-18141713D02*
X9564920Y-18122665D01*
X9564920Y-18122665D02*
X9574444Y-18103618D01*
X9574444Y-18103618D02*
X9593492Y-18094094D01*
X9593492Y-18094094D02*
X9641111Y-18094094D01*
X9641111Y-18094094D02*
X9660158Y-18084570D01*
X9726825Y-18036951D02*
X9803015Y-18036951D01*
X9755396Y-17970284D02*
X9755396Y-18141713D01*
X9755396Y-18141713D02*
X9764920Y-18160761D01*
X9764920Y-18160761D02*
X9783968Y-18170284D01*
X9783968Y-18170284D02*
X9803015Y-18170284D01*
X9945873Y-18160761D02*
X9926825Y-18170284D01*
X9926825Y-18170284D02*
X9888730Y-18170284D01*
X9888730Y-18170284D02*
X9869682Y-18160761D01*
X9869682Y-18160761D02*
X9860158Y-18141713D01*
X9860158Y-18141713D02*
X9860158Y-18065523D01*
X9860158Y-18065523D02*
X9869682Y-18046475D01*
X9869682Y-18046475D02*
X9888730Y-18036951D01*
X9888730Y-18036951D02*
X9926825Y-18036951D01*
X9926825Y-18036951D02*
X9945873Y-18046475D01*
X9945873Y-18046475D02*
X9955396Y-18065523D01*
X9955396Y-18065523D02*
X9955396Y-18084570D01*
X9955396Y-18084570D02*
X9860158Y-18103618D01*
X10126825Y-18170284D02*
X10126825Y-17970284D01*
X10126825Y-18160761D02*
X10107777Y-18170284D01*
X10107777Y-18170284D02*
X10069682Y-18170284D01*
X10069682Y-18170284D02*
X10050635Y-18160761D01*
X10050635Y-18160761D02*
X10041111Y-18151237D01*
X10041111Y-18151237D02*
X10031587Y-18132189D01*
X10031587Y-18132189D02*
X10031587Y-18075046D01*
X10031587Y-18075046D02*
X10041111Y-18055999D01*
X10041111Y-18055999D02*
X10050635Y-18046475D01*
X10050635Y-18046475D02*
X10069682Y-18036951D01*
X10069682Y-18036951D02*
X10107777Y-18036951D01*
X10107777Y-18036951D02*
X10126825Y-18046475D01*
X10203016Y-18246475D02*
X10212539Y-18236951D01*
X10212539Y-18236951D02*
X10231587Y-18208380D01*
X10231587Y-18208380D02*
X10241111Y-18189332D01*
X10241111Y-18189332D02*
X10250635Y-18160761D01*
X10250635Y-18160761D02*
X10260158Y-18113142D01*
X10260158Y-18113142D02*
X10260158Y-18075046D01*
X10260158Y-18075046D02*
X10250635Y-18027427D01*
X10250635Y-18027427D02*
X10241111Y-17998856D01*
X10241111Y-17998856D02*
X10231587Y-17979808D01*
X10231587Y-17979808D02*
X10212539Y-17951237D01*
X10212539Y-17951237D02*
X10203016Y-17941713D01*
M02*
