%TF.GenerationSoftware,KiCad,Pcbnew,7.0.5*%
%TF.CreationDate,2024-03-19T15:00:49+08:00*%
%TF.ProjectId,J-50x,4a2d3530-782e-46b6-9963-61645f706362,rev?*%
%TF.SameCoordinates,Original*%
%TF.FileFunction,Copper,L2,Bot*%
%TF.FilePolarity,Positive*%
%FSLAX46Y46*%
G04 Gerber Fmt 4.6, Leading zero omitted, Abs format (unit mm)*
G04 Created by KiCad (PCBNEW 7.0.5) date 2024-03-19 15:00:49*
%MOMM*%
%LPD*%
G01*
G04 APERTURE LIST*
%TA.AperFunction,ComponentPad*%
%ADD10C,3.800000*%
%TD*%
%TA.AperFunction,WasherPad*%
%ADD11C,3.800000*%
%TD*%
G04 APERTURE END LIST*
D10*
%TO.P,H7,1*%
%TO.N,N/C*%
X108339000Y-136520000D03*
%TD*%
D11*
%TO.P,U1,*%
%TO.N,*%
X184079467Y-86803428D03*
X172433798Y-111777645D03*
%TD*%
D10*
%TO.P,H9,1*%
%TO.N,N/C*%
X53570000Y-98420000D03*
%TD*%
%TO.P,H3,1*%
%TO.N,N/C*%
X103577000Y-143664000D03*
%TD*%
%TO.P,H13,1*%
%TO.N,N/C*%
X167066000Y-132611000D03*
%TD*%
%TO.P,He,1*%
%TO.N,N/C*%
X79763000Y-136520000D03*
%TD*%
%TO.P,H14,1*%
%TO.N,N/C*%
X129770000Y-88895000D03*
%TD*%
D11*
%TO.P,K26,*%
%TO.N,*%
X195932555Y-166249637D03*
X175781362Y-168902592D03*
X193279600Y-146098444D03*
%TD*%
D10*
%TO.P,H2,1*%
%TO.N,N/C*%
X103577000Y-129376000D03*
%TD*%
%TO.P,H10,1*%
%TO.N,N/C*%
X53570000Y-117470000D03*
%TD*%
%TO.P,H15,1*%
%TO.N,N/C*%
X129770000Y-107945000D03*
%TD*%
%TA.AperFunction,NonConductor*%
G36*
X110662539Y-65102185D02*
G01*
X110708294Y-65154989D01*
X110719500Y-65206500D01*
X110719500Y-67439467D01*
X110719416Y-67439889D01*
X110719459Y-67464001D01*
X110719544Y-67464206D01*
X110719616Y-67464382D01*
X110719618Y-67464384D01*
X110719808Y-67464462D01*
X110720000Y-67464541D01*
X110720002Y-67464539D01*
X110744616Y-67464524D01*
X110744616Y-67464528D01*
X110744760Y-67464500D01*
X129645500Y-67464500D01*
X129712539Y-67484185D01*
X129758294Y-67536989D01*
X129769500Y-67588500D01*
X129769500Y-69820467D01*
X129769416Y-69820889D01*
X129769459Y-69845001D01*
X129769544Y-69845206D01*
X129769616Y-69845382D01*
X129769618Y-69845384D01*
X129769808Y-69845462D01*
X129770000Y-69845541D01*
X129770002Y-69845539D01*
X129794616Y-69845524D01*
X129794616Y-69845528D01*
X129794760Y-69845500D01*
X148768430Y-69845500D01*
X148835469Y-69865185D01*
X148856111Y-69881819D01*
X158327197Y-79352904D01*
X158327501Y-79353359D01*
X158344616Y-79370381D01*
X158344617Y-79370383D01*
X158344827Y-79370469D01*
X158345000Y-79370542D01*
X158345002Y-79370541D01*
X158369771Y-79370562D01*
X158370083Y-79370500D01*
X173072125Y-79370500D01*
X173124519Y-79382113D01*
X183688831Y-84307167D01*
X183741274Y-84353334D01*
X183760432Y-84420525D01*
X183740222Y-84487409D01*
X183687061Y-84532748D01*
X183660628Y-84541170D01*
X183482780Y-84576547D01*
X183482768Y-84576550D01*
X183197219Y-84673481D01*
X183197198Y-84673490D01*
X182926753Y-84806859D01*
X182926746Y-84806863D01*
X182676007Y-84974401D01*
X182449277Y-85173238D01*
X182250440Y-85399968D01*
X182082902Y-85650707D01*
X182082898Y-85650714D01*
X181949529Y-85921159D01*
X181949520Y-85921180D01*
X181852589Y-86206729D01*
X181852585Y-86206744D01*
X181793755Y-86502497D01*
X181793754Y-86502509D01*
X181774031Y-86803427D01*
X181793754Y-87104346D01*
X181793755Y-87104358D01*
X181852585Y-87400111D01*
X181852589Y-87400126D01*
X181949520Y-87685675D01*
X181949529Y-87685696D01*
X182082898Y-87956141D01*
X182082902Y-87956148D01*
X182250440Y-88206887D01*
X182449277Y-88433617D01*
X182676007Y-88632454D01*
X182926746Y-88799992D01*
X182926753Y-88799996D01*
X183197198Y-88933365D01*
X183197203Y-88933367D01*
X183197215Y-88933373D01*
X183482776Y-89030308D01*
X183682718Y-89070079D01*
X183778536Y-89089139D01*
X183778537Y-89089139D01*
X183778547Y-89089141D01*
X184079467Y-89108864D01*
X184380387Y-89089141D01*
X184676158Y-89030308D01*
X184961719Y-88933373D01*
X185232185Y-88799994D01*
X185482928Y-88632453D01*
X185709656Y-88433617D01*
X185908492Y-88206889D01*
X186076033Y-87956146D01*
X186209412Y-87685680D01*
X186306347Y-87400119D01*
X186365180Y-87104348D01*
X186384903Y-86803428D01*
X186365180Y-86502508D01*
X186306347Y-86206737D01*
X186209412Y-85921176D01*
X186084272Y-85667418D01*
X186072276Y-85598588D01*
X186099398Y-85534197D01*
X186157026Y-85494691D01*
X186226865Y-85492612D01*
X186247879Y-85500189D01*
X188753108Y-86668120D01*
X205690331Y-94564209D01*
X205742774Y-94610376D01*
X205761932Y-94677567D01*
X205750299Y-94729041D01*
X204269945Y-97900653D01*
X187454637Y-133925734D01*
X187369071Y-134105976D01*
X187285879Y-134328824D01*
X187284964Y-134331131D01*
X187255893Y-134400404D01*
X187253860Y-134414592D01*
X187230917Y-134476050D01*
X187157584Y-134739504D01*
X187156979Y-134741544D01*
X187139451Y-134797065D01*
X187138930Y-134806522D01*
X187124987Y-134856615D01*
X187124984Y-134856625D01*
X187066285Y-135169138D01*
X187065933Y-135170874D01*
X187059004Y-135202717D01*
X187059148Y-135207132D01*
X187052067Y-135244834D01*
X187052062Y-135244869D01*
X187012685Y-135637897D01*
X187007138Y-136032905D01*
X187007138Y-136032906D01*
X187035465Y-136426904D01*
X187050179Y-136519500D01*
X187066436Y-136621814D01*
X187097459Y-136817044D01*
X187192656Y-137200414D01*
X187192659Y-137200422D01*
X187320369Y-137574236D01*
X187320370Y-137574237D01*
X187479642Y-137935717D01*
X187479647Y-137935726D01*
X187669321Y-138282236D01*
X187778281Y-138446157D01*
X187887993Y-138611210D01*
X187888000Y-138611220D01*
X187911903Y-138641238D01*
X187913221Y-138644475D01*
X187934852Y-138670101D01*
X187935976Y-138671472D01*
X188058572Y-138825436D01*
X188134061Y-138920240D01*
X188169818Y-138957992D01*
X188173219Y-138964642D01*
X188216130Y-139006940D01*
X188217619Y-139008460D01*
X188332400Y-139129643D01*
X188405707Y-139207039D01*
X188405716Y-139207047D01*
X188405717Y-139207048D01*
X188454730Y-139250621D01*
X188460712Y-139260195D01*
X188521255Y-139309829D01*
X188523141Y-139311440D01*
X188552459Y-139337504D01*
X188700935Y-139469501D01*
X188836130Y-139570322D01*
X188837312Y-139571722D01*
X188858522Y-139587039D01*
X188860008Y-139588147D01*
X193770946Y-143363069D01*
X194278427Y-143753157D01*
X194319582Y-143809620D01*
X194323677Y-143879370D01*
X194289413Y-143940261D01*
X194227668Y-143972961D01*
X194162998Y-143968888D01*
X193876298Y-143871566D01*
X193876292Y-143871564D01*
X193876291Y-143871564D01*
X193876289Y-143871563D01*
X193876283Y-143871562D01*
X193580530Y-143812732D01*
X193580521Y-143812731D01*
X193580520Y-143812731D01*
X193279600Y-143793008D01*
X192978680Y-143812731D01*
X192978679Y-143812731D01*
X192978669Y-143812732D01*
X192682916Y-143871562D01*
X192682901Y-143871566D01*
X192397352Y-143968497D01*
X192397331Y-143968506D01*
X192126886Y-144101875D01*
X192126879Y-144101879D01*
X191876140Y-144269417D01*
X191649410Y-144468254D01*
X191450573Y-144694984D01*
X191283035Y-144945723D01*
X191283031Y-144945730D01*
X191149662Y-145216175D01*
X191149653Y-145216196D01*
X191052722Y-145501745D01*
X191052718Y-145501760D01*
X190993888Y-145797513D01*
X190993887Y-145797523D01*
X190993887Y-145797524D01*
X190977700Y-146044491D01*
X190974164Y-146098444D01*
X190993887Y-146399362D01*
X190993888Y-146399374D01*
X191052718Y-146695127D01*
X191052722Y-146695142D01*
X191149653Y-146980691D01*
X191149662Y-146980712D01*
X191283031Y-147251157D01*
X191283035Y-147251164D01*
X191450573Y-147501903D01*
X191649410Y-147728633D01*
X191876140Y-147927470D01*
X192126879Y-148095008D01*
X192126886Y-148095012D01*
X192397331Y-148228381D01*
X192397336Y-148228383D01*
X192397348Y-148228389D01*
X192682909Y-148325324D01*
X192882851Y-148365095D01*
X192978669Y-148384155D01*
X192978670Y-148384155D01*
X192978680Y-148384157D01*
X193279600Y-148403880D01*
X193580520Y-148384157D01*
X193876291Y-148325324D01*
X194161852Y-148228389D01*
X194432318Y-148095010D01*
X194683061Y-147927469D01*
X194909789Y-147728633D01*
X195108625Y-147501905D01*
X195276166Y-147251162D01*
X195409545Y-146980696D01*
X195506480Y-146695135D01*
X195565313Y-146399364D01*
X195585036Y-146098444D01*
X195565313Y-145797524D01*
X195564599Y-145793937D01*
X195546251Y-145701695D01*
X195506480Y-145501753D01*
X195409545Y-145216192D01*
X195393201Y-145183050D01*
X195276168Y-144945730D01*
X195276164Y-144945723D01*
X195137272Y-144737855D01*
X195116394Y-144671178D01*
X195134879Y-144603798D01*
X195186858Y-144557108D01*
X195255828Y-144545932D01*
X195318194Y-144572425D01*
X195409668Y-144646166D01*
X195411932Y-144648082D01*
X196011893Y-145181027D01*
X196014063Y-145183050D01*
X196047942Y-145216175D01*
X196340007Y-145501745D01*
X196488536Y-145646970D01*
X196488631Y-145647140D01*
X196488669Y-145647102D01*
X196591012Y-145747471D01*
X196592994Y-145749506D01*
X196991227Y-146178006D01*
X196996590Y-146183777D01*
X197142458Y-146341401D01*
X197144315Y-146343501D01*
X197441065Y-146695127D01*
X197500914Y-146766043D01*
X197501056Y-146766365D01*
X197501132Y-146766302D01*
X197664669Y-146961155D01*
X197666417Y-146963337D01*
X197987158Y-147382527D01*
X197987312Y-147382927D01*
X197987409Y-147382854D01*
X198156452Y-147605314D01*
X198158058Y-147607528D01*
X198241853Y-147728633D01*
X198448470Y-148027248D01*
X198448391Y-148027302D01*
X198448748Y-148027649D01*
X198616652Y-148272366D01*
X198618143Y-148274643D01*
X198881696Y-148697413D01*
X199044253Y-148960833D01*
X199045613Y-148963147D01*
X199161605Y-149170704D01*
X199283994Y-149389711D01*
X199438205Y-149669027D01*
X199439419Y-149671341D01*
X199653750Y-150102027D01*
X199797624Y-150395354D01*
X199798714Y-150397700D01*
X199989734Y-150832522D01*
X200121674Y-151138121D01*
X200122644Y-151140503D01*
X200290867Y-151579307D01*
X200409603Y-151895598D01*
X200410445Y-151897989D01*
X200556151Y-152340268D01*
X200660763Y-152666088D01*
X200661479Y-152668480D01*
X200784915Y-153113782D01*
X200874555Y-153447742D01*
X200875145Y-153450130D01*
X200976479Y-153897886D01*
X201050478Y-154238736D01*
X201050945Y-154241112D01*
X201130306Y-154690676D01*
X201188148Y-155037317D01*
X201188495Y-155039676D01*
X201245974Y-155490226D01*
X201287230Y-155841549D01*
X201287459Y-155843885D01*
X201323176Y-156294782D01*
X201347503Y-156649611D01*
X201347618Y-156651917D01*
X201361676Y-157102297D01*
X201368827Y-157459654D01*
X201368831Y-157461925D01*
X201361364Y-157910877D01*
X201351154Y-158269757D01*
X201351050Y-158271988D01*
X201322214Y-158718647D01*
X201294523Y-159078081D01*
X201294316Y-159080267D01*
X201244281Y-159523893D01*
X201199075Y-159882692D01*
X201198768Y-159884829D01*
X201127751Y-160324477D01*
X201065025Y-160681793D01*
X201064623Y-160683876D01*
X200972865Y-161118656D01*
X200892678Y-161473544D01*
X200892185Y-161475569D01*
X200779962Y-161904612D01*
X200682455Y-162256021D01*
X200681875Y-162257984D01*
X200549514Y-162680377D01*
X200434822Y-163027503D01*
X200434161Y-163029400D01*
X200281990Y-163444328D01*
X200150366Y-163786160D01*
X200149628Y-163787988D01*
X199978009Y-164194643D01*
X199829771Y-164530186D01*
X199828962Y-164531943D01*
X199638308Y-164929475D01*
X199473716Y-165258003D01*
X199472841Y-165259685D01*
X199263665Y-165647144D01*
X199083105Y-165967762D01*
X199082169Y-165969368D01*
X198854860Y-166346120D01*
X198658791Y-166657926D01*
X198657799Y-166659453D01*
X198412961Y-167024567D01*
X198301455Y-167184182D01*
X198246925Y-167227866D01*
X198177435Y-167235135D01*
X198115046Y-167203680D01*
X198079567Y-167143489D01*
X198082262Y-167073671D01*
X198159435Y-166846328D01*
X198218268Y-166550557D01*
X198237991Y-166249637D01*
X198218268Y-165948717D01*
X198159435Y-165652946D01*
X198062500Y-165367385D01*
X198009388Y-165259685D01*
X197929123Y-165096923D01*
X197929119Y-165096916D01*
X197761581Y-164846177D01*
X197562744Y-164619447D01*
X197336014Y-164420610D01*
X197085275Y-164253072D01*
X197085268Y-164253068D01*
X196814823Y-164119699D01*
X196814802Y-164119690D01*
X196529253Y-164022759D01*
X196529247Y-164022757D01*
X196529246Y-164022757D01*
X196529244Y-164022756D01*
X196529238Y-164022755D01*
X196233485Y-163963925D01*
X196233476Y-163963924D01*
X196233475Y-163963924D01*
X195932555Y-163944201D01*
X195932554Y-163944201D01*
X195782095Y-163954062D01*
X195631635Y-163963924D01*
X195631634Y-163963924D01*
X195631624Y-163963925D01*
X195335871Y-164022755D01*
X195335856Y-164022759D01*
X195050307Y-164119690D01*
X195050286Y-164119699D01*
X194779841Y-164253068D01*
X194779834Y-164253072D01*
X194529095Y-164420610D01*
X194302365Y-164619447D01*
X194103528Y-164846177D01*
X193935990Y-165096916D01*
X193935986Y-165096923D01*
X193802617Y-165367368D01*
X193802608Y-165367389D01*
X193705677Y-165652938D01*
X193705673Y-165652953D01*
X193646843Y-165948706D01*
X193646842Y-165948716D01*
X193646842Y-165948717D01*
X193631494Y-166182885D01*
X193627119Y-166249637D01*
X193646842Y-166550555D01*
X193646843Y-166550567D01*
X193705673Y-166846320D01*
X193705677Y-166846335D01*
X193802608Y-167131884D01*
X193802617Y-167131905D01*
X193935986Y-167402350D01*
X193935990Y-167402357D01*
X194103528Y-167653096D01*
X194302365Y-167879826D01*
X194529095Y-168078663D01*
X194779834Y-168246201D01*
X194779841Y-168246205D01*
X195050286Y-168379574D01*
X195050291Y-168379576D01*
X195050303Y-168379582D01*
X195335864Y-168476517D01*
X195535806Y-168516288D01*
X195631624Y-168535348D01*
X195631625Y-168535348D01*
X195631635Y-168535350D01*
X195932555Y-168555073D01*
X196233475Y-168535350D01*
X196529246Y-168476517D01*
X196814807Y-168379582D01*
X197085273Y-168246203D01*
X197285055Y-168112712D01*
X197351732Y-168091835D01*
X197419112Y-168110320D01*
X197465802Y-168162299D01*
X197476978Y-168231269D01*
X197449862Y-168294402D01*
X197434227Y-168313485D01*
X197433421Y-168314448D01*
X197193915Y-168594980D01*
X197192788Y-168596264D01*
X196899289Y-168921448D01*
X196898412Y-168922401D01*
X196645460Y-169191155D01*
X196644299Y-169192356D01*
X196335689Y-169503028D01*
X196334740Y-169503963D01*
X196068939Y-169760277D01*
X196067749Y-169761396D01*
X195744777Y-170056825D01*
X195743755Y-170057739D01*
X195465735Y-170300985D01*
X195464521Y-170302021D01*
X195127877Y-170581595D01*
X195126784Y-170582482D01*
X194837270Y-170812012D01*
X194836037Y-170812964D01*
X194486412Y-171076118D01*
X194485247Y-171076974D01*
X194184894Y-171292258D01*
X194183648Y-171293129D01*
X193821956Y-171539182D01*
X193820720Y-171540002D01*
X193510256Y-171740514D01*
X193509001Y-171741303D01*
X193135913Y-171969804D01*
X193134607Y-171970583D01*
X192814857Y-172155792D01*
X192813597Y-172156502D01*
X192429933Y-172366942D01*
X192428557Y-172367674D01*
X192100253Y-172537160D01*
X192098995Y-172537791D01*
X191705703Y-172729645D01*
X191704260Y-172730326D01*
X191368158Y-172883703D01*
X191366905Y-172884259D01*
X190964811Y-173057117D01*
X190963303Y-173057742D01*
X190620352Y-173194590D01*
X190619109Y-173195071D01*
X190209008Y-173348579D01*
X190207436Y-173349143D01*
X189858433Y-173469164D01*
X189857203Y-173469572D01*
X189440027Y-173603358D01*
X189438393Y-173603857D01*
X189084232Y-173706764D01*
X189083021Y-173707102D01*
X188659687Y-173820849D01*
X188657994Y-173821278D01*
X188298932Y-173906993D01*
X187869771Y-174000556D01*
X187868023Y-174000911D01*
X187505582Y-174069071D01*
X187072130Y-174142056D01*
X187070330Y-174142332D01*
X186705294Y-174192821D01*
X186268577Y-174245025D01*
X186266729Y-174245218D01*
X185900158Y-174277929D01*
X185460970Y-174309223D01*
X185459076Y-174309329D01*
X185091889Y-174324227D01*
X184651200Y-174334495D01*
X184649266Y-174334510D01*
X184282386Y-174331614D01*
X183841131Y-174320780D01*
X183839162Y-174320701D01*
X183473488Y-174300079D01*
X183327544Y-174289496D01*
X183032647Y-174268112D01*
X183030671Y-174267937D01*
X182667142Y-174229705D01*
X182227642Y-174176609D01*
X182225615Y-174176330D01*
X181926107Y-174130075D01*
X181865194Y-174120668D01*
X181427943Y-174046482D01*
X181425908Y-174046101D01*
X181350163Y-174030615D01*
X181069489Y-173973230D01*
X180635450Y-173878036D01*
X180633386Y-173877546D01*
X180281798Y-173787726D01*
X179851948Y-173671652D01*
X179849874Y-173671053D01*
X179504111Y-173564639D01*
X179079293Y-173427816D01*
X179077214Y-173427105D01*
X178738131Y-173304479D01*
X178319212Y-173147072D01*
X178317136Y-173146249D01*
X177985771Y-173007923D01*
X177573509Y-172830080D01*
X177571440Y-172829142D01*
X177248641Y-172675634D01*
X176843923Y-172477580D01*
X176841869Y-172476527D01*
X176728623Y-172415782D01*
X176528400Y-172308381D01*
X176132123Y-172090377D01*
X176130089Y-172089207D01*
X175826927Y-171907155D01*
X175556887Y-171741303D01*
X175439777Y-171669376D01*
X175437812Y-171668116D01*
X175145681Y-171472841D01*
X174855312Y-171274776D01*
X174811023Y-171220737D01*
X174802979Y-171151332D01*
X174833736Y-171088596D01*
X174893528Y-171052448D01*
X174963371Y-171054364D01*
X174965011Y-171054907D01*
X175184671Y-171129472D01*
X175384613Y-171169243D01*
X175480431Y-171188303D01*
X175480432Y-171188303D01*
X175480442Y-171188305D01*
X175781362Y-171208028D01*
X176082282Y-171188305D01*
X176378053Y-171129472D01*
X176663614Y-171032537D01*
X176934080Y-170899158D01*
X177184823Y-170731617D01*
X177411551Y-170532781D01*
X177610387Y-170306053D01*
X177777928Y-170055310D01*
X177911307Y-169784844D01*
X178008242Y-169499283D01*
X178067075Y-169203512D01*
X178086798Y-168902592D01*
X178067075Y-168601672D01*
X178008242Y-168305901D01*
X177911307Y-168020340D01*
X177777928Y-167749874D01*
X177777926Y-167749871D01*
X177610388Y-167499132D01*
X177411551Y-167272402D01*
X177184821Y-167073565D01*
X176934082Y-166906027D01*
X176934075Y-166906023D01*
X176663630Y-166772654D01*
X176663609Y-166772645D01*
X176378060Y-166675714D01*
X176378054Y-166675712D01*
X176378053Y-166675712D01*
X176378051Y-166675711D01*
X176378045Y-166675710D01*
X176082292Y-166616880D01*
X176082283Y-166616879D01*
X176082282Y-166616879D01*
X175781362Y-166597156D01*
X175781361Y-166597156D01*
X175630902Y-166607017D01*
X175480442Y-166616879D01*
X175480441Y-166616879D01*
X175480431Y-166616880D01*
X175184678Y-166675710D01*
X175184663Y-166675714D01*
X174899114Y-166772645D01*
X174899093Y-166772654D01*
X174628648Y-166906023D01*
X174628641Y-166906027D01*
X174377902Y-167073565D01*
X174151172Y-167272402D01*
X173952335Y-167499132D01*
X173784797Y-167749871D01*
X173784793Y-167749878D01*
X173651424Y-168020323D01*
X173651415Y-168020344D01*
X173554484Y-168305893D01*
X173554480Y-168305908D01*
X173495650Y-168601661D01*
X173495649Y-168601673D01*
X173475926Y-168902591D01*
X173495649Y-169203510D01*
X173495650Y-169203522D01*
X173554480Y-169499275D01*
X173554484Y-169499290D01*
X173651415Y-169784839D01*
X173651424Y-169784860D01*
X173784793Y-170055305D01*
X173784795Y-170055308D01*
X173784796Y-170055310D01*
X173910390Y-170243275D01*
X173931268Y-170309952D01*
X173912783Y-170377332D01*
X173860804Y-170424022D01*
X173791834Y-170435198D01*
X173727947Y-170407459D01*
X173495274Y-170213739D01*
X173493387Y-170212102D01*
X173239385Y-169982691D01*
X172896223Y-169668003D01*
X172894391Y-169666253D01*
X172654836Y-169427836D01*
X172420314Y-169191155D01*
X172324134Y-169094089D01*
X172322378Y-169092242D01*
X172098065Y-168846248D01*
X171835920Y-168555072D01*
X171780323Y-168493317D01*
X171778647Y-168491375D01*
X171570418Y-168239536D01*
X171266043Y-167867071D01*
X171264418Y-167864994D01*
X171105844Y-167653096D01*
X171073213Y-167609492D01*
X170782476Y-167216789D01*
X170780939Y-167214616D01*
X170607707Y-166958114D01*
X170572872Y-166906026D01*
X170330753Y-166543988D01*
X170329295Y-166541701D01*
X170175408Y-166288182D01*
X169911920Y-165850226D01*
X169910574Y-165847873D01*
X169804812Y-165652938D01*
X169777213Y-165602068D01*
X169650886Y-165367368D01*
X169526961Y-165137132D01*
X169525696Y-165134649D01*
X169415415Y-164905568D01*
X169176738Y-164406303D01*
X169175590Y-164403754D01*
X169091853Y-164205817D01*
X169055632Y-164119690D01*
X168862075Y-163659446D01*
X168861047Y-163656834D01*
X168811543Y-163521957D01*
X168685610Y-163177240D01*
X168583882Y-162898777D01*
X168582935Y-162895979D01*
X168343924Y-162129890D01*
X168343118Y-162127074D01*
X168141149Y-161350941D01*
X168140678Y-161348998D01*
X168140620Y-161348742D01*
X168099179Y-161164805D01*
X168025801Y-160930972D01*
X168025158Y-160928783D01*
X168007222Y-160863224D01*
X168001276Y-160852820D01*
X167986117Y-160804512D01*
X167871220Y-160522061D01*
X167870591Y-160520446D01*
X167858169Y-160487195D01*
X167855407Y-160483186D01*
X167843831Y-160454728D01*
X167673282Y-160117820D01*
X167475624Y-159796066D01*
X167475617Y-159796056D01*
X167252202Y-159491651D01*
X167252193Y-159491640D01*
X167004510Y-159206615D01*
X167004505Y-159206609D01*
X166778312Y-158985904D01*
X166734230Y-158942891D01*
X166443203Y-158702281D01*
X166439345Y-158699593D01*
X166417989Y-158684711D01*
X166415591Y-158681726D01*
X166384983Y-158661682D01*
X166383561Y-158660722D01*
X166133381Y-158486395D01*
X166133377Y-158486392D01*
X166133373Y-158486390D01*
X166089583Y-158460949D01*
X166083116Y-158454130D01*
X166020832Y-158420958D01*
X166018832Y-158419845D01*
X166018084Y-158419410D01*
X165806869Y-158296700D01*
X165739634Y-158264730D01*
X165636704Y-158215788D01*
X165636441Y-158215663D01*
X165636355Y-158215622D01*
X165636245Y-158215569D01*
X165597964Y-158197445D01*
X165594459Y-158196090D01*
X148379948Y-150170590D01*
X148378070Y-150169509D01*
X148370193Y-150166032D01*
X148370009Y-150165989D01*
X148362664Y-150164164D01*
X148360179Y-150163823D01*
X136747818Y-147590323D01*
X129770814Y-146044098D01*
X129770812Y-146044098D01*
X129764113Y-146043947D01*
X129757752Y-146044500D01*
X104472196Y-146044500D01*
X104405157Y-146024815D01*
X104359402Y-145972011D01*
X104349458Y-145902853D01*
X104378483Y-145839297D01*
X104432335Y-145803081D01*
X104459252Y-145793945D01*
X104729718Y-145660566D01*
X104980461Y-145493025D01*
X105207189Y-145294189D01*
X105406025Y-145067461D01*
X105573566Y-144816718D01*
X105706945Y-144546252D01*
X105803880Y-144260691D01*
X105862713Y-143964920D01*
X105882436Y-143664000D01*
X105862713Y-143363080D01*
X105803880Y-143067309D01*
X105706945Y-142781748D01*
X105573566Y-142511282D01*
X105406025Y-142260539D01*
X105207189Y-142033810D01*
X104980459Y-141834973D01*
X104729720Y-141667435D01*
X104729713Y-141667431D01*
X104459268Y-141534062D01*
X104459247Y-141534053D01*
X104173698Y-141437122D01*
X104173692Y-141437120D01*
X104173691Y-141437120D01*
X104173689Y-141437119D01*
X104173683Y-141437118D01*
X103877930Y-141378288D01*
X103877921Y-141378287D01*
X103877920Y-141378287D01*
X103577000Y-141358564D01*
X103276080Y-141378287D01*
X103276079Y-141378287D01*
X103276069Y-141378288D01*
X102980316Y-141437118D01*
X102980301Y-141437122D01*
X102694752Y-141534053D01*
X102694731Y-141534062D01*
X102424286Y-141667431D01*
X102424279Y-141667435D01*
X102173540Y-141834973D01*
X101946810Y-142033810D01*
X101747973Y-142260540D01*
X101580435Y-142511279D01*
X101580431Y-142511286D01*
X101447062Y-142781731D01*
X101447053Y-142781752D01*
X101350122Y-143067301D01*
X101350118Y-143067316D01*
X101291288Y-143363069D01*
X101291287Y-143363079D01*
X101291287Y-143363080D01*
X101271564Y-143664000D01*
X101280019Y-143793008D01*
X101291287Y-143964918D01*
X101291288Y-143964930D01*
X101350118Y-144260683D01*
X101350122Y-144260698D01*
X101447053Y-144546247D01*
X101447062Y-144546268D01*
X101580431Y-144816713D01*
X101580435Y-144816720D01*
X101747973Y-145067459D01*
X101946810Y-145294189D01*
X102173540Y-145493026D01*
X102424279Y-145660564D01*
X102424286Y-145660568D01*
X102694731Y-145793937D01*
X102694736Y-145793939D01*
X102694748Y-145793945D01*
X102721664Y-145803081D01*
X102778817Y-145843270D01*
X102805170Y-145907979D01*
X102792356Y-145976664D01*
X102744442Y-146027516D01*
X102681804Y-146044500D01*
X82196569Y-146044500D01*
X82129530Y-146024815D01*
X82108888Y-146008181D01*
X77459271Y-141358564D01*
X72631588Y-136530880D01*
X72620764Y-136520000D01*
X77457564Y-136520000D01*
X77477287Y-136820918D01*
X77477288Y-136820930D01*
X77536118Y-137116683D01*
X77536122Y-137116698D01*
X77633053Y-137402247D01*
X77633062Y-137402268D01*
X77766431Y-137672713D01*
X77766435Y-137672720D01*
X77933973Y-137923459D01*
X78132810Y-138150189D01*
X78359540Y-138349026D01*
X78610279Y-138516564D01*
X78610286Y-138516568D01*
X78880731Y-138649937D01*
X78880736Y-138649939D01*
X78880748Y-138649945D01*
X79166309Y-138746880D01*
X79366251Y-138786651D01*
X79462069Y-138805711D01*
X79462070Y-138805711D01*
X79462080Y-138805713D01*
X79763000Y-138825436D01*
X80063920Y-138805713D01*
X80359691Y-138746880D01*
X80645252Y-138649945D01*
X80915718Y-138516566D01*
X81166461Y-138349025D01*
X81393189Y-138150189D01*
X81592025Y-137923461D01*
X81759566Y-137672718D01*
X81892945Y-137402252D01*
X81989880Y-137116691D01*
X82048713Y-136820920D01*
X82068436Y-136520000D01*
X106033564Y-136520000D01*
X106033599Y-136520541D01*
X106053287Y-136820918D01*
X106053288Y-136820930D01*
X106112118Y-137116683D01*
X106112122Y-137116698D01*
X106209053Y-137402247D01*
X106209062Y-137402268D01*
X106342431Y-137672713D01*
X106342435Y-137672720D01*
X106509973Y-137923459D01*
X106708810Y-138150189D01*
X106935540Y-138349026D01*
X107186279Y-138516564D01*
X107186286Y-138516568D01*
X107456731Y-138649937D01*
X107456736Y-138649939D01*
X107456748Y-138649945D01*
X107742309Y-138746880D01*
X107942251Y-138786651D01*
X108038069Y-138805711D01*
X108038070Y-138805711D01*
X108038080Y-138805713D01*
X108339000Y-138825436D01*
X108639920Y-138805713D01*
X108935691Y-138746880D01*
X109221252Y-138649945D01*
X109491718Y-138516566D01*
X109742461Y-138349025D01*
X109969189Y-138150189D01*
X110168025Y-137923461D01*
X110335566Y-137672718D01*
X110468945Y-137402252D01*
X110565880Y-137116691D01*
X110624713Y-136820920D01*
X110644436Y-136520000D01*
X110624713Y-136219080D01*
X110565880Y-135923309D01*
X110468945Y-135637748D01*
X110335566Y-135367282D01*
X110225607Y-135202717D01*
X110168026Y-135116540D01*
X109969189Y-134889810D01*
X109742459Y-134690973D01*
X109491720Y-134523435D01*
X109491713Y-134523431D01*
X109221268Y-134390062D01*
X109221247Y-134390053D01*
X108935698Y-134293122D01*
X108935692Y-134293120D01*
X108935691Y-134293120D01*
X108935689Y-134293119D01*
X108935683Y-134293118D01*
X108639930Y-134234288D01*
X108639921Y-134234287D01*
X108639920Y-134234287D01*
X108339000Y-134214564D01*
X108338999Y-134214564D01*
X108188540Y-134224425D01*
X108038080Y-134234287D01*
X108038079Y-134234287D01*
X108038069Y-134234288D01*
X107742316Y-134293118D01*
X107742301Y-134293122D01*
X107456752Y-134390053D01*
X107456731Y-134390062D01*
X107186286Y-134523431D01*
X107186279Y-134523435D01*
X106935540Y-134690973D01*
X106708810Y-134889810D01*
X106509973Y-135116540D01*
X106342435Y-135367279D01*
X106342431Y-135367286D01*
X106209062Y-135637731D01*
X106209053Y-135637752D01*
X106112122Y-135923301D01*
X106112118Y-135923316D01*
X106053288Y-136219069D01*
X106053287Y-136219081D01*
X106033571Y-136519900D01*
X106033564Y-136520000D01*
X82068436Y-136520000D01*
X82048713Y-136219080D01*
X81989880Y-135923309D01*
X81892945Y-135637748D01*
X81759566Y-135367282D01*
X81649607Y-135202717D01*
X81592026Y-135116540D01*
X81393189Y-134889810D01*
X81166459Y-134690973D01*
X80915720Y-134523435D01*
X80915713Y-134523431D01*
X80645268Y-134390062D01*
X80645247Y-134390053D01*
X80359698Y-134293122D01*
X80359692Y-134293120D01*
X80359691Y-134293120D01*
X80359689Y-134293119D01*
X80359683Y-134293118D01*
X80063930Y-134234288D01*
X80063921Y-134234287D01*
X80063920Y-134234287D01*
X79763000Y-134214564D01*
X79762999Y-134214564D01*
X79612540Y-134224425D01*
X79462080Y-134234287D01*
X79462079Y-134234287D01*
X79462069Y-134234288D01*
X79166316Y-134293118D01*
X79166301Y-134293122D01*
X78880752Y-134390053D01*
X78880731Y-134390062D01*
X78610286Y-134523431D01*
X78610279Y-134523435D01*
X78359540Y-134690973D01*
X78132810Y-134889810D01*
X77933973Y-135116540D01*
X77766435Y-135367279D01*
X77766431Y-135367286D01*
X77633062Y-135637731D01*
X77633053Y-135637752D01*
X77536122Y-135923301D01*
X77536118Y-135923316D01*
X77477288Y-136219069D01*
X77477287Y-136219081D01*
X77457564Y-136520000D01*
X72620764Y-136520000D01*
X72620381Y-136519615D01*
X72620218Y-136519548D01*
X72620001Y-136519458D01*
X72620000Y-136519458D01*
X72619999Y-136519458D01*
X72595334Y-136519461D01*
X72595145Y-136519500D01*
X34644500Y-136519500D01*
X34577461Y-136499815D01*
X34531706Y-136447011D01*
X34520500Y-136395500D01*
X34520500Y-132611000D01*
X164760564Y-132611000D01*
X164780287Y-132911918D01*
X164780288Y-132911930D01*
X164839118Y-133207683D01*
X164839122Y-133207698D01*
X164936053Y-133493247D01*
X164936062Y-133493268D01*
X165069431Y-133763713D01*
X165069435Y-133763720D01*
X165236973Y-134014459D01*
X165435810Y-134241189D01*
X165662540Y-134440026D01*
X165913279Y-134607564D01*
X165913286Y-134607568D01*
X166183731Y-134740937D01*
X166183736Y-134740939D01*
X166183748Y-134740945D01*
X166469309Y-134837880D01*
X166669251Y-134877651D01*
X166765069Y-134896711D01*
X166765070Y-134896711D01*
X166765080Y-134896713D01*
X167066000Y-134916436D01*
X167366920Y-134896713D01*
X167662691Y-134837880D01*
X167948252Y-134740945D01*
X168218718Y-134607566D01*
X168469461Y-134440025D01*
X168696189Y-134241189D01*
X168895025Y-134014461D01*
X169062566Y-133763718D01*
X169195945Y-133493252D01*
X169292880Y-133207691D01*
X169351713Y-132911920D01*
X169371436Y-132611000D01*
X169351713Y-132310080D01*
X169292880Y-132014309D01*
X169195945Y-131728748D01*
X169172613Y-131681436D01*
X169062568Y-131458286D01*
X169062564Y-131458279D01*
X168895026Y-131207540D01*
X168696189Y-130980810D01*
X168469459Y-130781973D01*
X168218720Y-130614435D01*
X168218713Y-130614431D01*
X167948268Y-130481062D01*
X167948247Y-130481053D01*
X167662698Y-130384122D01*
X167662692Y-130384120D01*
X167662691Y-130384120D01*
X167662689Y-130384119D01*
X167662683Y-130384118D01*
X167366930Y-130325288D01*
X167366921Y-130325287D01*
X167366920Y-130325287D01*
X167066000Y-130305564D01*
X166765080Y-130325287D01*
X166765079Y-130325287D01*
X166765069Y-130325288D01*
X166469316Y-130384118D01*
X166469301Y-130384122D01*
X166183752Y-130481053D01*
X166183731Y-130481062D01*
X165913286Y-130614431D01*
X165913279Y-130614435D01*
X165662540Y-130781973D01*
X165435810Y-130980810D01*
X165236973Y-131207540D01*
X165069435Y-131458279D01*
X165069431Y-131458286D01*
X164936062Y-131728731D01*
X164936053Y-131728752D01*
X164839122Y-132014301D01*
X164839118Y-132014316D01*
X164780288Y-132310069D01*
X164780287Y-132310081D01*
X164760564Y-132611000D01*
X34520500Y-132611000D01*
X34520500Y-129376000D01*
X101271564Y-129376000D01*
X101291287Y-129676918D01*
X101291288Y-129676930D01*
X101350118Y-129972683D01*
X101350122Y-129972698D01*
X101447053Y-130258247D01*
X101447062Y-130258268D01*
X101580431Y-130528713D01*
X101580435Y-130528720D01*
X101747973Y-130779459D01*
X101946810Y-131006189D01*
X102173540Y-131205026D01*
X102424279Y-131372564D01*
X102424286Y-131372568D01*
X102694731Y-131505937D01*
X102694736Y-131505939D01*
X102694748Y-131505945D01*
X102980309Y-131602880D01*
X103180251Y-131642651D01*
X103276069Y-131661711D01*
X103276070Y-131661711D01*
X103276080Y-131661713D01*
X103577000Y-131681436D01*
X103877920Y-131661713D01*
X104173691Y-131602880D01*
X104459252Y-131505945D01*
X104729718Y-131372566D01*
X104980461Y-131205025D01*
X105207189Y-131006189D01*
X105406025Y-130779461D01*
X105573566Y-130528718D01*
X105706945Y-130258252D01*
X105803880Y-129972691D01*
X105862713Y-129676920D01*
X105882436Y-129376000D01*
X105862713Y-129075080D01*
X105803880Y-128779309D01*
X105706945Y-128493748D01*
X105573566Y-128223282D01*
X105406025Y-127972539D01*
X105207189Y-127745810D01*
X104980459Y-127546973D01*
X104729720Y-127379435D01*
X104729713Y-127379431D01*
X104459268Y-127246062D01*
X104459247Y-127246053D01*
X104173698Y-127149122D01*
X104173692Y-127149120D01*
X104173691Y-127149120D01*
X104173689Y-127149119D01*
X104173683Y-127149118D01*
X103877930Y-127090288D01*
X103877921Y-127090287D01*
X103877920Y-127090287D01*
X103577000Y-127070564D01*
X103276080Y-127090287D01*
X103276079Y-127090287D01*
X103276069Y-127090288D01*
X102980316Y-127149118D01*
X102980301Y-127149122D01*
X102694752Y-127246053D01*
X102694731Y-127246062D01*
X102424286Y-127379431D01*
X102424279Y-127379435D01*
X102173540Y-127546973D01*
X101946810Y-127745810D01*
X101747973Y-127972540D01*
X101580435Y-128223279D01*
X101580431Y-128223286D01*
X101447062Y-128493731D01*
X101447053Y-128493752D01*
X101350122Y-128779301D01*
X101350118Y-128779316D01*
X101291288Y-129075069D01*
X101291287Y-129075081D01*
X101271564Y-129376000D01*
X34520500Y-129376000D01*
X34520500Y-117469999D01*
X51264564Y-117469999D01*
X51284287Y-117770918D01*
X51284288Y-117770930D01*
X51343118Y-118066683D01*
X51343122Y-118066698D01*
X51440053Y-118352247D01*
X51440062Y-118352268D01*
X51573431Y-118622713D01*
X51573435Y-118622720D01*
X51740973Y-118873459D01*
X51939810Y-119100189D01*
X52166540Y-119299026D01*
X52417279Y-119466564D01*
X52417286Y-119466568D01*
X52687731Y-119599937D01*
X52687736Y-119599939D01*
X52687748Y-119599945D01*
X52973309Y-119696880D01*
X53173251Y-119736651D01*
X53269069Y-119755711D01*
X53269070Y-119755711D01*
X53269080Y-119755713D01*
X53570000Y-119775436D01*
X53870920Y-119755713D01*
X54166691Y-119696880D01*
X54452252Y-119599945D01*
X54722718Y-119466566D01*
X54973461Y-119299025D01*
X55200189Y-119100189D01*
X55399025Y-118873461D01*
X55566566Y-118622718D01*
X55699945Y-118352252D01*
X55796880Y-118066691D01*
X55855713Y-117770920D01*
X55875436Y-117470000D01*
X55855713Y-117169080D01*
X55796880Y-116873309D01*
X55699945Y-116587748D01*
X55566566Y-116317282D01*
X55399025Y-116066539D01*
X55200189Y-115839810D01*
X54973459Y-115640973D01*
X54722720Y-115473435D01*
X54722713Y-115473431D01*
X54452268Y-115340062D01*
X54452247Y-115340053D01*
X54166698Y-115243122D01*
X54166692Y-115243120D01*
X54166691Y-115243120D01*
X54166689Y-115243119D01*
X54166683Y-115243118D01*
X53870930Y-115184288D01*
X53870921Y-115184287D01*
X53870920Y-115184287D01*
X53570000Y-115164564D01*
X53269080Y-115184287D01*
X53269079Y-115184287D01*
X53269069Y-115184288D01*
X52973316Y-115243118D01*
X52973301Y-115243122D01*
X52687752Y-115340053D01*
X52687731Y-115340062D01*
X52417286Y-115473431D01*
X52417279Y-115473435D01*
X52166540Y-115640973D01*
X51939810Y-115839810D01*
X51740973Y-116066540D01*
X51573435Y-116317279D01*
X51573431Y-116317286D01*
X51440062Y-116587731D01*
X51440053Y-116587752D01*
X51343122Y-116873301D01*
X51343118Y-116873316D01*
X51284288Y-117169069D01*
X51284287Y-117169081D01*
X51264564Y-117469999D01*
X34520500Y-117469999D01*
X34520500Y-111777645D01*
X170128362Y-111777645D01*
X170148085Y-112078563D01*
X170148086Y-112078575D01*
X170206916Y-112374328D01*
X170206920Y-112374343D01*
X170303851Y-112659892D01*
X170303860Y-112659913D01*
X170437229Y-112930358D01*
X170437233Y-112930365D01*
X170604771Y-113181104D01*
X170803608Y-113407834D01*
X171030338Y-113606671D01*
X171281077Y-113774209D01*
X171281084Y-113774213D01*
X171551529Y-113907582D01*
X171551534Y-113907584D01*
X171551546Y-113907590D01*
X171837107Y-114004525D01*
X172037049Y-114044296D01*
X172132867Y-114063356D01*
X172132868Y-114063356D01*
X172132878Y-114063358D01*
X172433798Y-114083081D01*
X172734718Y-114063358D01*
X173030489Y-114004525D01*
X173316050Y-113907590D01*
X173586516Y-113774211D01*
X173837259Y-113606670D01*
X174063987Y-113407834D01*
X174262823Y-113181106D01*
X174430364Y-112930363D01*
X174563743Y-112659897D01*
X174660678Y-112374336D01*
X174719511Y-112078565D01*
X174739234Y-111777645D01*
X174719511Y-111476725D01*
X174660678Y-111180954D01*
X174563743Y-110895393D01*
X174430364Y-110624927D01*
X174262823Y-110374184D01*
X174063987Y-110147455D01*
X173837257Y-109948618D01*
X173586518Y-109781080D01*
X173586511Y-109781076D01*
X173316066Y-109647707D01*
X173316045Y-109647698D01*
X173030496Y-109550767D01*
X173030490Y-109550765D01*
X173030489Y-109550765D01*
X173030487Y-109550764D01*
X173030481Y-109550763D01*
X172734728Y-109491933D01*
X172734719Y-109491932D01*
X172734718Y-109491932D01*
X172433798Y-109472209D01*
X172132878Y-109491932D01*
X172132877Y-109491932D01*
X172132867Y-109491933D01*
X171837114Y-109550763D01*
X171837099Y-109550767D01*
X171551550Y-109647698D01*
X171551529Y-109647707D01*
X171281084Y-109781076D01*
X171281077Y-109781080D01*
X171030338Y-109948618D01*
X170803608Y-110147455D01*
X170604771Y-110374185D01*
X170437233Y-110624924D01*
X170437229Y-110624931D01*
X170303860Y-110895376D01*
X170303851Y-110895397D01*
X170206920Y-111180946D01*
X170206916Y-111180961D01*
X170148086Y-111476714D01*
X170148085Y-111476726D01*
X170128362Y-111777645D01*
X34520500Y-111777645D01*
X34520500Y-107944999D01*
X127464564Y-107944999D01*
X127484287Y-108245918D01*
X127484288Y-108245930D01*
X127543118Y-108541683D01*
X127543122Y-108541698D01*
X127640053Y-108827247D01*
X127640062Y-108827268D01*
X127773431Y-109097713D01*
X127773435Y-109097720D01*
X127940973Y-109348459D01*
X128139810Y-109575189D01*
X128366540Y-109774026D01*
X128617279Y-109941564D01*
X128617286Y-109941568D01*
X128887731Y-110074937D01*
X128887736Y-110074939D01*
X128887748Y-110074945D01*
X129173309Y-110171880D01*
X129373251Y-110211651D01*
X129469069Y-110230711D01*
X129469070Y-110230711D01*
X129469080Y-110230713D01*
X129770000Y-110250436D01*
X130070920Y-110230713D01*
X130366691Y-110171880D01*
X130652252Y-110074945D01*
X130922718Y-109941566D01*
X131173461Y-109774025D01*
X131400189Y-109575189D01*
X131599025Y-109348461D01*
X131766566Y-109097718D01*
X131899945Y-108827252D01*
X131996880Y-108541691D01*
X132055713Y-108245920D01*
X132075436Y-107945000D01*
X132055713Y-107644080D01*
X131996880Y-107348309D01*
X131899945Y-107062748D01*
X131766566Y-106792282D01*
X131599025Y-106541539D01*
X131400189Y-106314810D01*
X131173459Y-106115973D01*
X130922720Y-105948435D01*
X130922713Y-105948431D01*
X130652268Y-105815062D01*
X130652247Y-105815053D01*
X130366698Y-105718122D01*
X130366692Y-105718120D01*
X130366691Y-105718120D01*
X130366689Y-105718119D01*
X130366683Y-105718118D01*
X130070930Y-105659288D01*
X130070921Y-105659287D01*
X130070920Y-105659287D01*
X129770000Y-105639564D01*
X129769999Y-105639564D01*
X129619539Y-105649425D01*
X129469080Y-105659287D01*
X129469079Y-105659287D01*
X129469069Y-105659288D01*
X129173316Y-105718118D01*
X129173301Y-105718122D01*
X128887752Y-105815053D01*
X128887731Y-105815062D01*
X128617286Y-105948431D01*
X128617279Y-105948435D01*
X128366540Y-106115973D01*
X128139810Y-106314810D01*
X127940973Y-106541540D01*
X127773435Y-106792279D01*
X127773431Y-106792286D01*
X127640062Y-107062731D01*
X127640053Y-107062752D01*
X127543122Y-107348301D01*
X127543118Y-107348316D01*
X127484288Y-107644069D01*
X127484287Y-107644081D01*
X127464564Y-107944999D01*
X34520500Y-107944999D01*
X34520500Y-98419999D01*
X51264564Y-98419999D01*
X51284287Y-98720918D01*
X51284288Y-98720930D01*
X51343118Y-99016683D01*
X51343122Y-99016698D01*
X51440053Y-99302247D01*
X51440062Y-99302268D01*
X51573431Y-99572713D01*
X51573435Y-99572720D01*
X51740973Y-99823459D01*
X51939810Y-100050189D01*
X52166540Y-100249026D01*
X52417279Y-100416564D01*
X52417286Y-100416568D01*
X52687731Y-100549937D01*
X52687736Y-100549939D01*
X52687748Y-100549945D01*
X52973309Y-100646880D01*
X53173251Y-100686651D01*
X53269069Y-100705711D01*
X53269070Y-100705711D01*
X53269080Y-100705713D01*
X53570000Y-100725436D01*
X53870920Y-100705713D01*
X54166691Y-100646880D01*
X54452252Y-100549945D01*
X54722718Y-100416566D01*
X54973461Y-100249025D01*
X55200189Y-100050189D01*
X55399025Y-99823461D01*
X55566566Y-99572718D01*
X55699945Y-99302252D01*
X55796880Y-99016691D01*
X55855713Y-98720920D01*
X55875436Y-98420000D01*
X55855713Y-98119080D01*
X55796880Y-97823309D01*
X55699945Y-97537748D01*
X55566566Y-97267282D01*
X55399025Y-97016539D01*
X55200189Y-96789810D01*
X54973459Y-96590973D01*
X54722720Y-96423435D01*
X54722713Y-96423431D01*
X54452268Y-96290062D01*
X54452247Y-96290053D01*
X54166698Y-96193122D01*
X54166692Y-96193120D01*
X54166691Y-96193120D01*
X54166689Y-96193119D01*
X54166683Y-96193118D01*
X53870930Y-96134288D01*
X53870921Y-96134287D01*
X53870920Y-96134287D01*
X53570000Y-96114564D01*
X53569999Y-96114564D01*
X53419540Y-96124425D01*
X53269080Y-96134287D01*
X53269079Y-96134287D01*
X53269069Y-96134288D01*
X52973316Y-96193118D01*
X52973301Y-96193122D01*
X52687752Y-96290053D01*
X52687731Y-96290062D01*
X52417286Y-96423431D01*
X52417279Y-96423435D01*
X52166540Y-96590973D01*
X51939810Y-96789810D01*
X51740973Y-97016540D01*
X51573435Y-97267279D01*
X51573431Y-97267286D01*
X51440062Y-97537731D01*
X51440053Y-97537752D01*
X51343122Y-97823301D01*
X51343118Y-97823316D01*
X51284288Y-98119069D01*
X51284287Y-98119081D01*
X51264564Y-98419999D01*
X34520500Y-98419999D01*
X34520500Y-88895000D01*
X127464564Y-88895000D01*
X127477288Y-89089141D01*
X127484287Y-89195918D01*
X127484288Y-89195930D01*
X127543118Y-89491683D01*
X127543122Y-89491698D01*
X127640053Y-89777247D01*
X127640062Y-89777268D01*
X127773431Y-90047713D01*
X127773435Y-90047720D01*
X127940973Y-90298459D01*
X128139810Y-90525189D01*
X128366540Y-90724026D01*
X128617279Y-90891564D01*
X128617286Y-90891568D01*
X128887731Y-91024937D01*
X128887736Y-91024939D01*
X128887748Y-91024945D01*
X129173309Y-91121880D01*
X129373251Y-91161651D01*
X129469069Y-91180711D01*
X129469070Y-91180711D01*
X129469080Y-91180713D01*
X129770000Y-91200436D01*
X130070920Y-91180713D01*
X130366691Y-91121880D01*
X130652252Y-91024945D01*
X130922718Y-90891566D01*
X131173461Y-90724025D01*
X131400189Y-90525189D01*
X131599025Y-90298461D01*
X131766566Y-90047718D01*
X131899945Y-89777252D01*
X131996880Y-89491691D01*
X132055713Y-89195920D01*
X132075436Y-88895000D01*
X132055713Y-88594080D01*
X131996880Y-88298309D01*
X131899945Y-88012748D01*
X131766566Y-87742282D01*
X131766564Y-87742279D01*
X131599026Y-87491540D01*
X131400189Y-87264810D01*
X131173459Y-87065973D01*
X130922720Y-86898435D01*
X130922713Y-86898431D01*
X130652268Y-86765062D01*
X130652247Y-86765053D01*
X130366698Y-86668122D01*
X130366692Y-86668120D01*
X130366691Y-86668120D01*
X130366689Y-86668119D01*
X130366683Y-86668118D01*
X130070930Y-86609288D01*
X130070921Y-86609287D01*
X130070920Y-86609287D01*
X129770000Y-86589564D01*
X129469080Y-86609287D01*
X129469079Y-86609287D01*
X129469069Y-86609288D01*
X129173316Y-86668118D01*
X129173301Y-86668122D01*
X128887752Y-86765053D01*
X128887731Y-86765062D01*
X128617286Y-86898431D01*
X128617279Y-86898435D01*
X128366540Y-87065973D01*
X128139810Y-87264810D01*
X127940973Y-87491540D01*
X127773435Y-87742279D01*
X127773431Y-87742286D01*
X127640062Y-88012731D01*
X127640053Y-88012752D01*
X127543122Y-88298301D01*
X127543118Y-88298316D01*
X127484288Y-88594069D01*
X127484287Y-88594079D01*
X127484287Y-88594080D01*
X127464564Y-88895000D01*
X34520500Y-88895000D01*
X34520500Y-79494500D01*
X34540185Y-79427461D01*
X34592989Y-79381706D01*
X34644500Y-79370500D01*
X53545240Y-79370500D01*
X53545383Y-79370528D01*
X53545384Y-79370524D01*
X53569997Y-79370539D01*
X53570000Y-79370541D01*
X53570383Y-79370383D01*
X53570500Y-79370099D01*
X53570541Y-79370000D01*
X53570540Y-79369997D01*
X53570583Y-79345889D01*
X53570500Y-79345467D01*
X53570500Y-77113500D01*
X53590185Y-77046461D01*
X53642989Y-77000706D01*
X53694500Y-76989500D01*
X72595240Y-76989500D01*
X72595383Y-76989528D01*
X72595384Y-76989524D01*
X72619997Y-76989539D01*
X72620000Y-76989541D01*
X72620383Y-76989383D01*
X72620500Y-76989099D01*
X72620541Y-76989000D01*
X72620540Y-76988997D01*
X72620583Y-76964889D01*
X72620500Y-76964467D01*
X72620500Y-67588500D01*
X72640185Y-67521461D01*
X72692989Y-67475706D01*
X72744500Y-67464500D01*
X91645240Y-67464500D01*
X91645383Y-67464528D01*
X91645384Y-67464524D01*
X91669997Y-67464539D01*
X91670000Y-67464541D01*
X91670383Y-67464383D01*
X91670500Y-67464099D01*
X91670541Y-67464000D01*
X91670540Y-67463997D01*
X91670583Y-67439889D01*
X91670500Y-67439467D01*
X91670500Y-65206500D01*
X91690185Y-65139461D01*
X91742989Y-65093706D01*
X91794500Y-65082500D01*
X110595500Y-65082500D01*
X110662539Y-65102185D01*
G37*
%TD.AperFunction*%
M02*
