%TF.GenerationSoftware,KiCad,Pcbnew,7.0.5*%
%TF.CreationDate,2024-03-19T15:00:49+08:00*%
%TF.ProjectId,J-50x,4a2d3530-782e-46b6-9963-61645f706362,rev?*%
%TF.SameCoordinates,Original*%
%TF.FileFunction,Legend,Top*%
%TF.FilePolarity,Positive*%
%FSLAX46Y46*%
G04 Gerber Fmt 4.6, Leading zero omitted, Abs format (unit mm)*
G04 Created by KiCad (PCBNEW 7.0.5) date 2024-03-19 15:00:49*
%MOMM*%
%LPD*%
G01*
G04 APERTURE LIST*
%ADD10C,0.150000*%
%ADD11C,0.625000*%
G04 APERTURE END LIST*
D10*
G36*
X35532002Y-131150195D02*
G01*
X35703949Y-131150195D01*
X35703949Y-131407627D01*
X35532002Y-131407627D01*
X35532002Y-131150195D01*
G37*
G36*
X35813370Y-131169734D02*
G01*
X36578583Y-131169734D01*
X36578583Y-130925003D01*
X36720000Y-130925003D01*
X36720000Y-131636727D01*
X36578583Y-131636727D01*
X36578583Y-131387843D01*
X35954787Y-131387843D01*
X35954787Y-131636727D01*
X35813370Y-131636727D01*
X35813370Y-131169734D01*
G37*
G36*
X35813370Y-130290949D02*
G01*
X35813482Y-130279255D01*
X35813817Y-130267896D01*
X35814375Y-130256872D01*
X35815156Y-130246183D01*
X35816161Y-130235829D01*
X35817389Y-130225810D01*
X35818840Y-130216126D01*
X35821122Y-130203734D01*
X35823801Y-130191938D01*
X35826071Y-130183482D01*
X35829547Y-130172636D01*
X35833627Y-130162324D01*
X35838310Y-130152547D01*
X35843595Y-130143304D01*
X35849484Y-130134595D01*
X35855975Y-130126420D01*
X35863070Y-130118780D01*
X35870767Y-130111674D01*
X35879060Y-130105064D01*
X35888063Y-130098913D01*
X35897775Y-130093219D01*
X35908197Y-130087983D01*
X35919329Y-130083205D01*
X35931171Y-130078885D01*
X35940519Y-130075945D01*
X35950265Y-130073263D01*
X35956985Y-130071618D01*
X35967440Y-130069349D01*
X35978380Y-130067302D01*
X35989805Y-130065479D01*
X36001716Y-130063879D01*
X36014111Y-130062502D01*
X36026992Y-130061349D01*
X36040358Y-130060419D01*
X36054209Y-130059712D01*
X36068545Y-130059228D01*
X36078372Y-130059029D01*
X36088414Y-130058930D01*
X36093517Y-130058918D01*
X36720000Y-130058918D01*
X36720000Y-130274096D01*
X36107927Y-130274096D01*
X36096814Y-130274164D01*
X36086189Y-130274371D01*
X36076053Y-130274714D01*
X36064070Y-130275337D01*
X36052850Y-130276174D01*
X36042394Y-130277226D01*
X36032700Y-130278492D01*
X36021981Y-130280272D01*
X36012172Y-130282499D01*
X36001879Y-130285662D01*
X35992825Y-130289432D01*
X35986050Y-130293147D01*
X35977225Y-130299518D01*
X35969984Y-130306817D01*
X35964328Y-130315043D01*
X35961870Y-130320013D01*
X35958446Y-130329583D01*
X35956142Y-130340158D01*
X35955036Y-130350401D01*
X35954787Y-130358604D01*
X35954787Y-130575247D01*
X36720000Y-130575247D01*
X36720000Y-130793356D01*
X35813370Y-130793356D01*
X35813370Y-130290949D01*
G37*
G36*
X35813370Y-128360453D02*
G01*
X35954787Y-128360453D01*
X35954787Y-128764187D01*
X35955126Y-128774891D01*
X35956142Y-128784776D01*
X35958135Y-128795073D01*
X35961434Y-128805379D01*
X35961870Y-128806441D01*
X35966627Y-128815321D01*
X35972929Y-128823004D01*
X35980778Y-128829489D01*
X35985806Y-128832575D01*
X35995041Y-128836788D01*
X36004449Y-128839973D01*
X36015097Y-128842692D01*
X36025209Y-128844649D01*
X36032456Y-128845764D01*
X36044088Y-128847175D01*
X36054621Y-128848128D01*
X36065917Y-128848878D01*
X36077977Y-128849425D01*
X36088174Y-128849717D01*
X36098859Y-128849879D01*
X36107194Y-128849916D01*
X36435945Y-128849916D01*
X36449195Y-128849734D01*
X36461774Y-128849191D01*
X36473681Y-128848284D01*
X36484916Y-128847015D01*
X36495479Y-128845384D01*
X36505371Y-128843390D01*
X36518949Y-128839719D01*
X36531017Y-128835233D01*
X36541572Y-128829930D01*
X36550617Y-128823812D01*
X36558150Y-128816879D01*
X36564173Y-128809129D01*
X36567348Y-128803510D01*
X36570584Y-128793983D01*
X36572779Y-128782756D01*
X36574194Y-128772231D01*
X36575412Y-128759904D01*
X36576432Y-128745773D01*
X36577003Y-128735351D01*
X36577486Y-128724127D01*
X36577881Y-128712102D01*
X36578188Y-128699275D01*
X36578407Y-128685647D01*
X36578539Y-128671218D01*
X36578583Y-128655987D01*
X36578583Y-128645430D01*
X36578583Y-128635395D01*
X36578583Y-128624450D01*
X36578583Y-128614634D01*
X36578583Y-128604185D01*
X36578583Y-128597613D01*
X36578583Y-128585928D01*
X36578583Y-128575910D01*
X36578583Y-128565297D01*
X36578583Y-128554089D01*
X36578583Y-128542285D01*
X36578583Y-128529886D01*
X36578583Y-128516891D01*
X36578583Y-128506755D01*
X36578583Y-128360453D01*
X36720000Y-128360453D01*
X36720000Y-128837459D01*
X36719864Y-128848893D01*
X36719459Y-128860022D01*
X36718782Y-128870846D01*
X36717836Y-128881366D01*
X36716619Y-128891580D01*
X36715131Y-128901490D01*
X36712727Y-128914229D01*
X36709841Y-128926426D01*
X36706476Y-128938081D01*
X36704612Y-128943705D01*
X36700407Y-128954505D01*
X36695606Y-128964801D01*
X36690210Y-128974594D01*
X36684218Y-128983883D01*
X36677631Y-128992668D01*
X36670449Y-129000949D01*
X36662671Y-129008727D01*
X36654298Y-129016001D01*
X36645288Y-129022794D01*
X36635598Y-129029129D01*
X36625229Y-129035006D01*
X36614181Y-129040425D01*
X36602454Y-129045386D01*
X36593212Y-129048807D01*
X36583589Y-129051969D01*
X36573583Y-129054875D01*
X36563196Y-129057522D01*
X36552335Y-129059923D01*
X36541002Y-129062087D01*
X36529197Y-129064016D01*
X36516919Y-129065708D01*
X36504169Y-129067164D01*
X36490947Y-129068384D01*
X36477253Y-129069368D01*
X36463087Y-129070116D01*
X36448448Y-129070628D01*
X36438426Y-129070837D01*
X36428195Y-129070942D01*
X36423000Y-129070956D01*
X36108904Y-129070956D01*
X36098746Y-129070903D01*
X36088788Y-129070746D01*
X36074227Y-129070313D01*
X36060117Y-129069644D01*
X36046458Y-129068739D01*
X36033250Y-129067597D01*
X36020492Y-129066220D01*
X36008185Y-129064606D01*
X35996329Y-129062756D01*
X35984924Y-129060671D01*
X35973970Y-129058349D01*
X35970418Y-129057522D01*
X35959987Y-129054875D01*
X35949942Y-129051969D01*
X35940283Y-129048807D01*
X35931011Y-129045386D01*
X35919249Y-129040425D01*
X35908174Y-129035006D01*
X35897786Y-129029129D01*
X35888085Y-129022794D01*
X35879071Y-129016001D01*
X35870702Y-129008727D01*
X35862936Y-129000949D01*
X35855773Y-128992668D01*
X35849213Y-128983883D01*
X35843255Y-128974594D01*
X35837901Y-128964801D01*
X35833150Y-128954505D01*
X35829002Y-128943705D01*
X35825338Y-128932321D01*
X35822163Y-128920395D01*
X35819476Y-128907927D01*
X35817782Y-128898221D01*
X35816362Y-128888209D01*
X35815217Y-128877893D01*
X35814347Y-128867272D01*
X35813752Y-128856346D01*
X35813431Y-128845116D01*
X35813370Y-128837459D01*
X35813370Y-128360453D01*
G37*
G36*
X36433337Y-127476102D02*
G01*
X36443463Y-127476260D01*
X36453380Y-127476522D01*
X36467861Y-127477112D01*
X36481870Y-127477939D01*
X36495407Y-127479001D01*
X36508472Y-127480300D01*
X36521064Y-127481835D01*
X36533184Y-127483606D01*
X36544832Y-127485613D01*
X36556008Y-127487856D01*
X36563196Y-127489483D01*
X36573583Y-127492096D01*
X36583589Y-127494987D01*
X36593212Y-127498158D01*
X36602454Y-127501607D01*
X36614181Y-127506641D01*
X36625229Y-127512171D01*
X36635598Y-127518197D01*
X36645288Y-127524719D01*
X36654298Y-127531737D01*
X36662671Y-127539183D01*
X36670449Y-127547109D01*
X36677631Y-127555516D01*
X36684218Y-127564405D01*
X36690210Y-127573774D01*
X36695606Y-127583623D01*
X36700407Y-127593954D01*
X36704612Y-127604766D01*
X36708219Y-127616073D01*
X36711344Y-127627892D01*
X36713989Y-127640223D01*
X36716153Y-127653065D01*
X36717460Y-127663032D01*
X36718497Y-127673286D01*
X36719263Y-127683829D01*
X36719759Y-127694659D01*
X36719984Y-127705776D01*
X36720000Y-127709546D01*
X36720000Y-128010697D01*
X36719864Y-128022400D01*
X36719459Y-128033784D01*
X36718782Y-128044851D01*
X36717836Y-128055600D01*
X36716619Y-128066031D01*
X36715131Y-128076145D01*
X36713373Y-128085941D01*
X36710608Y-128098508D01*
X36707362Y-128110510D01*
X36704612Y-128119141D01*
X36700407Y-128130113D01*
X36695606Y-128140558D01*
X36690210Y-128150477D01*
X36684218Y-128159869D01*
X36677631Y-128168734D01*
X36670449Y-128177073D01*
X36662671Y-128184884D01*
X36654298Y-128192170D01*
X36645288Y-128198951D01*
X36635598Y-128205252D01*
X36625229Y-128211072D01*
X36614181Y-128216411D01*
X36602454Y-128221269D01*
X36593212Y-128224597D01*
X36583589Y-128227655D01*
X36573583Y-128230442D01*
X36563196Y-128232958D01*
X36552335Y-128235228D01*
X36541002Y-128237275D01*
X36529197Y-128239098D01*
X36516919Y-128240698D01*
X36504169Y-128242075D01*
X36490947Y-128243228D01*
X36477253Y-128244158D01*
X36463087Y-128244865D01*
X36448448Y-128245349D01*
X36438426Y-128245547D01*
X36428195Y-128245647D01*
X36423000Y-128245659D01*
X36108904Y-128245659D01*
X36098746Y-128245609D01*
X36088788Y-128245461D01*
X36074227Y-128245051D01*
X36060117Y-128244419D01*
X36046458Y-128243563D01*
X36033250Y-128242484D01*
X36020492Y-128241181D01*
X36008185Y-128239656D01*
X35996329Y-128237907D01*
X35984924Y-128235935D01*
X35973970Y-128233740D01*
X35970418Y-128232958D01*
X35959987Y-128230442D01*
X35949942Y-128227655D01*
X35940283Y-128224597D01*
X35931011Y-128221269D01*
X35919249Y-128216411D01*
X35908174Y-128211072D01*
X35897786Y-128205252D01*
X35888085Y-128198951D01*
X35879071Y-128192170D01*
X35870702Y-128184884D01*
X35862936Y-128177073D01*
X35855773Y-128168734D01*
X35849213Y-128159869D01*
X35843255Y-128150477D01*
X35837901Y-128140558D01*
X35833150Y-128130113D01*
X35829002Y-128119141D01*
X35825338Y-128107563D01*
X35822163Y-128095419D01*
X35819476Y-128082711D01*
X35817782Y-128072809D01*
X35816362Y-128062589D01*
X35815217Y-128052052D01*
X35814347Y-128041197D01*
X35813752Y-128030024D01*
X35813431Y-128018534D01*
X35813370Y-128010697D01*
X35813370Y-127938890D01*
X35954787Y-127938890D01*
X35955351Y-127950408D01*
X35957046Y-127961024D01*
X35959870Y-127970741D01*
X35964989Y-127981620D01*
X35971872Y-127991091D01*
X35980521Y-127999155D01*
X35988711Y-128004594D01*
X35990935Y-128005812D01*
X36000609Y-128010220D01*
X36011680Y-128014040D01*
X36024148Y-128017273D01*
X36034415Y-128019311D01*
X36045468Y-128021019D01*
X36057307Y-128022397D01*
X36069932Y-128023444D01*
X36083342Y-128024160D01*
X36097538Y-128024546D01*
X36107438Y-128024619D01*
X36418848Y-128024619D01*
X36429258Y-128024546D01*
X36439300Y-128024325D01*
X36453672Y-128023719D01*
X36467215Y-128022783D01*
X36479930Y-128021515D01*
X36491816Y-128019918D01*
X36502873Y-128017989D01*
X36513102Y-128015730D01*
X36525451Y-128012204D01*
X36536328Y-128008090D01*
X36541214Y-128005812D01*
X36549972Y-128000599D01*
X36559278Y-127992817D01*
X36566759Y-127983626D01*
X36572416Y-127973029D01*
X36575627Y-127963538D01*
X36577671Y-127953146D01*
X36578546Y-127941854D01*
X36578583Y-127938890D01*
X36578583Y-127784040D01*
X36577999Y-127772248D01*
X36576247Y-127761417D01*
X36573328Y-127751548D01*
X36569241Y-127742641D01*
X36562489Y-127732859D01*
X36553913Y-127724580D01*
X36545739Y-127719039D01*
X36541214Y-127716629D01*
X36531116Y-127712336D01*
X36519629Y-127708615D01*
X36510102Y-127706200D01*
X36499794Y-127704107D01*
X36488704Y-127702336D01*
X36476833Y-127700887D01*
X36464180Y-127699760D01*
X36450747Y-127698955D01*
X36436531Y-127698472D01*
X36426620Y-127698329D01*
X36421535Y-127698311D01*
X36107438Y-127698311D01*
X36097538Y-127698382D01*
X36083342Y-127698758D01*
X36069932Y-127699456D01*
X36057307Y-127700475D01*
X36045468Y-127701817D01*
X36034415Y-127703481D01*
X36024148Y-127705466D01*
X36011680Y-127708615D01*
X36000609Y-127712336D01*
X35990935Y-127716629D01*
X35982462Y-127721689D01*
X35973461Y-127729367D01*
X35966224Y-127738548D01*
X35960752Y-127749231D01*
X35957646Y-127758860D01*
X35955669Y-127769450D01*
X35954822Y-127781002D01*
X35954787Y-127784040D01*
X35954787Y-127938890D01*
X35813370Y-127938890D01*
X35813370Y-127709546D01*
X35813507Y-127698339D01*
X35813920Y-127687432D01*
X35814607Y-127676826D01*
X35815568Y-127666521D01*
X35816805Y-127656516D01*
X35818316Y-127646812D01*
X35820758Y-127634340D01*
X35823689Y-127622403D01*
X35827109Y-127611000D01*
X35829002Y-127605498D01*
X35833150Y-127594801D01*
X35837901Y-127584570D01*
X35843255Y-127574804D01*
X35849213Y-127565504D01*
X35855773Y-127556669D01*
X35862936Y-127548300D01*
X35870702Y-127540396D01*
X35879071Y-127532958D01*
X35888085Y-127525986D01*
X35897786Y-127519479D01*
X35908174Y-127513438D01*
X35919249Y-127507862D01*
X35931011Y-127502752D01*
X35940283Y-127499225D01*
X35949942Y-127495960D01*
X35959987Y-127492957D01*
X35970418Y-127490216D01*
X35981222Y-127487684D01*
X35992477Y-127485402D01*
X36004183Y-127483368D01*
X36016340Y-127481583D01*
X36028947Y-127480048D01*
X36042005Y-127478761D01*
X36055514Y-127477724D01*
X36069474Y-127476935D01*
X36083885Y-127476396D01*
X36093742Y-127476174D01*
X36103800Y-127476064D01*
X36108904Y-127476050D01*
X36423000Y-127476050D01*
X36433337Y-127476102D01*
G37*
G36*
X36720000Y-127134598D02*
G01*
X36719845Y-127146076D01*
X36719381Y-127157244D01*
X36718608Y-127168103D01*
X36717527Y-127178654D01*
X36716136Y-127188895D01*
X36714435Y-127198826D01*
X36712426Y-127208449D01*
X36709266Y-127220799D01*
X36705557Y-127232599D01*
X36702414Y-127241088D01*
X36697640Y-127251888D01*
X36692232Y-127262185D01*
X36686191Y-127271977D01*
X36679516Y-127281266D01*
X36672208Y-127290051D01*
X36664266Y-127298333D01*
X36655691Y-127306110D01*
X36646482Y-127313384D01*
X36636613Y-127320177D01*
X36626058Y-127326512D01*
X36614815Y-127332389D01*
X36605932Y-127336496D01*
X36596663Y-127340346D01*
X36587007Y-127343938D01*
X36576965Y-127347273D01*
X36566536Y-127350350D01*
X36555721Y-127353169D01*
X36548297Y-127354905D01*
X36536771Y-127357306D01*
X36524815Y-127359471D01*
X36512430Y-127361399D01*
X36499616Y-127363091D01*
X36486373Y-127364547D01*
X36472700Y-127365767D01*
X36458598Y-127366751D01*
X36444066Y-127367499D01*
X36434140Y-127367866D01*
X36424023Y-127368129D01*
X36413715Y-127368286D01*
X36403217Y-127368339D01*
X36130153Y-127368339D01*
X36119655Y-127368286D01*
X36109350Y-127368129D01*
X36099238Y-127367866D01*
X36089319Y-127367499D01*
X36074801Y-127366751D01*
X36060716Y-127365767D01*
X36047066Y-127364547D01*
X36033849Y-127363091D01*
X36021065Y-127361399D01*
X36008716Y-127359471D01*
X35996800Y-127357306D01*
X35985317Y-127354905D01*
X35974201Y-127352258D01*
X35963475Y-127349353D01*
X35953141Y-127346190D01*
X35943197Y-127342769D01*
X35933643Y-127339092D01*
X35924481Y-127335156D01*
X35912871Y-127329508D01*
X35901957Y-127323402D01*
X35891737Y-127316838D01*
X35886887Y-127313384D01*
X35877682Y-127306110D01*
X35869118Y-127298333D01*
X35861196Y-127290051D01*
X35853914Y-127281266D01*
X35847274Y-127271977D01*
X35841275Y-127262185D01*
X35835917Y-127251888D01*
X35831200Y-127241088D01*
X35827021Y-127229700D01*
X35823399Y-127217763D01*
X35820335Y-127205276D01*
X35818402Y-127195550D01*
X35816783Y-127185515D01*
X35815477Y-127175171D01*
X35814484Y-127164518D01*
X35813805Y-127153556D01*
X35813440Y-127142284D01*
X35813370Y-127134598D01*
X35813370Y-126860314D01*
X35954787Y-126860314D01*
X35954787Y-127065722D01*
X35955091Y-127075855D01*
X35956182Y-127086605D01*
X35958067Y-127096470D01*
X35961137Y-127106510D01*
X35965617Y-127115507D01*
X35971913Y-127123538D01*
X35980025Y-127130602D01*
X35985317Y-127134110D01*
X35994873Y-127139010D01*
X36004487Y-127142721D01*
X36015269Y-127145895D01*
X36025442Y-127148188D01*
X36032700Y-127149497D01*
X36044384Y-127151157D01*
X36055038Y-127152278D01*
X36066528Y-127153161D01*
X36076320Y-127153695D01*
X36086647Y-127154077D01*
X36097508Y-127154306D01*
X36108904Y-127154382D01*
X36324082Y-127154382D01*
X36334541Y-127154354D01*
X36344732Y-127154271D01*
X36354653Y-127154133D01*
X36369031Y-127153822D01*
X36382803Y-127153386D01*
X36395970Y-127152826D01*
X36408532Y-127152141D01*
X36420488Y-127151332D01*
X36431839Y-127150398D01*
X36442584Y-127149339D01*
X36452724Y-127148157D01*
X36459148Y-127147299D01*
X36471303Y-127145364D01*
X36482733Y-127143101D01*
X36493438Y-127140510D01*
X36503417Y-127137590D01*
X36512672Y-127134343D01*
X36523220Y-127129821D01*
X36532636Y-127124788D01*
X36536085Y-127122630D01*
X36544015Y-127116813D01*
X36552304Y-127108982D01*
X36559254Y-127100223D01*
X36564864Y-127090538D01*
X36569134Y-127079925D01*
X36570767Y-127074270D01*
X36573019Y-127064165D01*
X36574889Y-127053238D01*
X36576377Y-127041487D01*
X36577293Y-127031494D01*
X36577965Y-127020975D01*
X36578392Y-127009928D01*
X36578575Y-126998355D01*
X36578583Y-126995380D01*
X36578583Y-126860314D01*
X35954787Y-126860314D01*
X35813370Y-126860314D01*
X35532002Y-126860314D01*
X35532002Y-126642205D01*
X36720000Y-126642205D01*
X36720000Y-127134598D01*
G37*
G36*
X36099985Y-125781927D02*
G01*
X36116582Y-125782497D01*
X36132561Y-125783446D01*
X36147922Y-125784775D01*
X36162664Y-125786484D01*
X36176788Y-125788572D01*
X36190294Y-125791040D01*
X36203182Y-125793888D01*
X36215451Y-125797116D01*
X36227102Y-125800723D01*
X36238135Y-125804710D01*
X36248550Y-125809077D01*
X36258346Y-125813824D01*
X36267524Y-125818950D01*
X36276084Y-125824456D01*
X36284026Y-125830341D01*
X36294895Y-125839867D01*
X36304694Y-125850217D01*
X36313425Y-125861391D01*
X36321086Y-125873389D01*
X36327678Y-125886212D01*
X36331479Y-125895218D01*
X36334805Y-125904591D01*
X36337656Y-125914330D01*
X36340032Y-125924436D01*
X36341932Y-125934908D01*
X36343358Y-125945746D01*
X36344308Y-125956951D01*
X36344783Y-125968522D01*
X36344842Y-125974445D01*
X36344842Y-126299532D01*
X36424710Y-126299532D01*
X36436983Y-126299456D01*
X36448646Y-126299227D01*
X36459698Y-126298845D01*
X36470139Y-126298311D01*
X36479970Y-126297624D01*
X36491400Y-126296550D01*
X36501875Y-126295239D01*
X36505799Y-126294647D01*
X36516824Y-126292540D01*
X36526819Y-126289884D01*
X36537177Y-126286091D01*
X36546133Y-126281550D01*
X36552693Y-126277062D01*
X36560051Y-126270146D01*
X36566004Y-126262102D01*
X36570553Y-126252927D01*
X36573698Y-126242623D01*
X36575601Y-126232515D01*
X36577037Y-126221426D01*
X36577896Y-126211139D01*
X36578411Y-126200131D01*
X36578583Y-126188401D01*
X36578583Y-125859162D01*
X36720000Y-125859162D01*
X36720000Y-126286831D01*
X36719864Y-126298302D01*
X36719459Y-126309451D01*
X36718782Y-126320279D01*
X36717836Y-126330784D01*
X36716619Y-126340967D01*
X36715131Y-126350828D01*
X36712727Y-126363475D01*
X36709841Y-126375550D01*
X36706476Y-126387052D01*
X36704612Y-126392588D01*
X36700407Y-126403217D01*
X36695606Y-126413364D01*
X36690210Y-126423031D01*
X36684218Y-126432217D01*
X36677631Y-126440922D01*
X36670449Y-126449146D01*
X36662671Y-126456889D01*
X36654298Y-126464152D01*
X36645288Y-126470945D01*
X36635598Y-126477280D01*
X36625229Y-126483157D01*
X36614181Y-126488576D01*
X36602454Y-126493537D01*
X36593212Y-126496957D01*
X36583589Y-126500120D01*
X36573583Y-126503025D01*
X36563196Y-126505673D01*
X36552335Y-126508074D01*
X36541002Y-126510238D01*
X36529197Y-126512167D01*
X36516919Y-126513859D01*
X36504169Y-126515315D01*
X36490947Y-126516535D01*
X36477253Y-126517519D01*
X36463087Y-126518267D01*
X36448448Y-126518778D01*
X36438426Y-126518988D01*
X36428195Y-126519093D01*
X36423000Y-126519106D01*
X36108904Y-126519106D01*
X36098746Y-126519054D01*
X36088788Y-126518896D01*
X36074227Y-126518463D01*
X36060117Y-126517794D01*
X36046458Y-126516889D01*
X36033250Y-126515748D01*
X36020492Y-126514370D01*
X36008185Y-126512757D01*
X35996329Y-126510907D01*
X35984924Y-126508821D01*
X35973970Y-126506499D01*
X35970418Y-126505673D01*
X35959987Y-126503025D01*
X35949942Y-126500120D01*
X35940283Y-126496957D01*
X35931011Y-126493537D01*
X35919249Y-126488576D01*
X35908174Y-126483157D01*
X35897786Y-126477280D01*
X35888085Y-126470945D01*
X35879071Y-126464152D01*
X35870702Y-126456889D01*
X35862936Y-126449146D01*
X35855773Y-126440922D01*
X35849213Y-126432217D01*
X35843255Y-126423031D01*
X35837901Y-126413364D01*
X35833150Y-126403217D01*
X35829002Y-126392588D01*
X35825338Y-126381372D01*
X35822163Y-126369584D01*
X35819476Y-126357223D01*
X35817782Y-126347576D01*
X35816362Y-126337608D01*
X35815217Y-126327318D01*
X35814347Y-126316705D01*
X35813752Y-126305771D01*
X35813431Y-126294514D01*
X35813370Y-126286831D01*
X35813370Y-126213803D01*
X35954787Y-126213803D01*
X35955137Y-126224423D01*
X35956189Y-126234272D01*
X35958250Y-126244584D01*
X35961663Y-126254980D01*
X35962114Y-126256057D01*
X35967047Y-126264976D01*
X35973603Y-126272775D01*
X35981782Y-126279453D01*
X35987027Y-126282679D01*
X35996476Y-126287182D01*
X36006021Y-126290497D01*
X36016759Y-126293226D01*
X36026911Y-126295101D01*
X36034166Y-126296113D01*
X36045881Y-126297275D01*
X36056470Y-126298059D01*
X36067810Y-126298677D01*
X36079902Y-126299128D01*
X36090116Y-126299368D01*
X36100811Y-126299502D01*
X36109148Y-126299532D01*
X36219790Y-126299532D01*
X36219790Y-126063105D01*
X36219515Y-126052267D01*
X36218691Y-126042222D01*
X36217107Y-126031871D01*
X36215394Y-126024515D01*
X36211668Y-126015060D01*
X36205987Y-126006845D01*
X36198349Y-125999871D01*
X36196587Y-125998625D01*
X36187378Y-125993456D01*
X36177570Y-125989639D01*
X36167736Y-125986901D01*
X36156733Y-125984724D01*
X36155066Y-125984459D01*
X36144272Y-125982965D01*
X36134320Y-125981956D01*
X36123497Y-125981161D01*
X36111804Y-125980582D01*
X36101823Y-125980273D01*
X36091284Y-125980101D01*
X36083014Y-125980062D01*
X36072371Y-125980120D01*
X36062299Y-125980291D01*
X36050515Y-125980667D01*
X36039626Y-125981222D01*
X36029631Y-125981955D01*
X36018817Y-125983071D01*
X36013893Y-125983726D01*
X36003281Y-125985502D01*
X35992641Y-125988220D01*
X35982569Y-125992152D01*
X35975303Y-125996427D01*
X35967361Y-126003505D01*
X35961670Y-126012316D01*
X35958450Y-126021828D01*
X35956679Y-126031610D01*
X35955592Y-126041506D01*
X35954962Y-126052531D01*
X35954787Y-126063105D01*
X35954787Y-126213803D01*
X35813370Y-126213803D01*
X35813370Y-125974445D01*
X35813622Y-125963535D01*
X35814378Y-125952909D01*
X35815637Y-125942568D01*
X35817400Y-125932511D01*
X35819667Y-125922739D01*
X35822438Y-125913250D01*
X35827538Y-125899551D01*
X35833772Y-125886492D01*
X35841139Y-125874072D01*
X35849640Y-125862291D01*
X35855937Y-125854793D01*
X35862738Y-125847580D01*
X35870042Y-125840650D01*
X35877850Y-125834005D01*
X35886207Y-125827676D01*
X35895157Y-125821755D01*
X35904701Y-125816242D01*
X35914838Y-125811138D01*
X35925568Y-125806442D01*
X35936892Y-125802154D01*
X35948809Y-125798275D01*
X35961320Y-125794804D01*
X35974424Y-125791742D01*
X35988122Y-125789087D01*
X36002413Y-125786841D01*
X36017298Y-125785004D01*
X36032775Y-125783575D01*
X36048847Y-125782554D01*
X36065512Y-125781941D01*
X36082770Y-125781737D01*
X36099985Y-125781927D01*
G37*
G36*
X36032212Y-125167466D02*
G01*
X36219790Y-125167466D01*
X36219790Y-125424898D01*
X36032212Y-125424898D01*
X36032212Y-125167466D01*
G37*
G36*
X36532421Y-125167466D02*
G01*
X36720000Y-125167466D01*
X36720000Y-125424898D01*
X36532421Y-125424898D01*
X36532421Y-125167466D01*
G37*
G36*
X35578897Y-123373307D02*
G01*
X36410788Y-123373307D01*
X36422633Y-123373445D01*
X36434353Y-123373857D01*
X36445948Y-123374544D01*
X36457419Y-123375505D01*
X36468766Y-123376742D01*
X36479988Y-123378253D01*
X36491086Y-123380039D01*
X36502059Y-123382100D01*
X36512907Y-123384436D01*
X36523631Y-123387046D01*
X36530711Y-123388939D01*
X36541168Y-123391942D01*
X36551379Y-123395181D01*
X36561346Y-123398657D01*
X36571069Y-123402368D01*
X36580546Y-123406316D01*
X36589779Y-123410500D01*
X36598767Y-123414920D01*
X36607510Y-123419576D01*
X36616009Y-123424468D01*
X36626960Y-123431359D01*
X36629630Y-123433147D01*
X36639911Y-123440531D01*
X36649627Y-123448275D01*
X36658779Y-123456377D01*
X36667365Y-123464837D01*
X36675387Y-123473657D01*
X36682844Y-123482835D01*
X36689736Y-123492372D01*
X36696064Y-123502267D01*
X36701674Y-123512423D01*
X36706536Y-123522860D01*
X36710650Y-123533580D01*
X36714016Y-123544583D01*
X36716634Y-123555867D01*
X36718504Y-123567435D01*
X36719626Y-123579284D01*
X36720000Y-123591416D01*
X36720000Y-124065491D01*
X36578583Y-124065491D01*
X36578583Y-123683007D01*
X36577698Y-123672032D01*
X36575041Y-123661575D01*
X36570614Y-123651637D01*
X36565288Y-123643368D01*
X36564417Y-123642219D01*
X36557752Y-123634473D01*
X36550151Y-123627265D01*
X36541616Y-123620595D01*
X36532146Y-123614463D01*
X36526315Y-123611200D01*
X36517116Y-123606635D01*
X36507470Y-123602464D01*
X36497378Y-123598689D01*
X36486839Y-123595309D01*
X36475854Y-123592323D01*
X36472093Y-123591416D01*
X36462505Y-123589376D01*
X36452821Y-123587681D01*
X36443041Y-123586332D01*
X36433167Y-123585329D01*
X36423197Y-123584672D01*
X36413131Y-123584361D01*
X36409078Y-123584333D01*
X35720314Y-123584333D01*
X35720314Y-123863014D01*
X35578897Y-123863014D01*
X35578897Y-123373307D01*
G37*
G36*
X35578897Y-123009630D02*
G01*
X36578583Y-123009630D01*
X36578583Y-122506001D01*
X36720000Y-122506001D01*
X36720000Y-123227739D01*
X35578897Y-123227739D01*
X35578897Y-123009630D01*
G37*
G36*
X35578897Y-121673621D02*
G01*
X35720314Y-121673621D01*
X35720314Y-122038032D01*
X35720991Y-122048235D01*
X35723025Y-122057900D01*
X35727009Y-122068288D01*
X35731948Y-122076802D01*
X35734480Y-122080286D01*
X35741110Y-122087971D01*
X35748605Y-122095212D01*
X35756965Y-122102009D01*
X35766189Y-122108362D01*
X35771849Y-122111793D01*
X35780833Y-122116607D01*
X35790385Y-122120975D01*
X35800502Y-122124896D01*
X35811187Y-122128371D01*
X35822439Y-122131399D01*
X35826315Y-122132309D01*
X35836074Y-122134280D01*
X35845964Y-122135916D01*
X35855985Y-122137218D01*
X35866138Y-122138186D01*
X35876422Y-122138821D01*
X35886837Y-122139121D01*
X35891039Y-122139148D01*
X36409078Y-122139148D01*
X36419182Y-122138981D01*
X36429190Y-122138480D01*
X36439103Y-122137645D01*
X36448920Y-122136477D01*
X36458642Y-122134974D01*
X36468269Y-122133137D01*
X36472093Y-122132309D01*
X36483227Y-122129456D01*
X36493915Y-122126207D01*
X36504156Y-122122563D01*
X36513950Y-122118525D01*
X36523298Y-122114091D01*
X36526315Y-122112526D01*
X36534947Y-122107548D01*
X36544150Y-122101199D01*
X36552418Y-122094265D01*
X36559751Y-122086746D01*
X36564417Y-122081018D01*
X36569937Y-122072450D01*
X36574101Y-122063414D01*
X36576909Y-122053910D01*
X36578362Y-122043939D01*
X36578583Y-122038032D01*
X36578583Y-121673621D01*
X36720000Y-121673621D01*
X36720000Y-122132309D01*
X36719626Y-122144434D01*
X36718504Y-122156260D01*
X36716634Y-122167789D01*
X36714016Y-122179021D01*
X36710650Y-122189954D01*
X36706536Y-122200590D01*
X36701674Y-122210929D01*
X36696064Y-122220969D01*
X36689748Y-122230625D01*
X36682890Y-122239929D01*
X36675490Y-122248882D01*
X36667548Y-122257484D01*
X36659065Y-122265735D01*
X36650039Y-122273634D01*
X36640472Y-122281183D01*
X36630362Y-122288381D01*
X36619692Y-122295208D01*
X36608564Y-122301646D01*
X36599917Y-122306219D01*
X36591013Y-122310573D01*
X36581851Y-122314708D01*
X36572431Y-122318625D01*
X36562754Y-122322322D01*
X36552819Y-122325800D01*
X36542627Y-122329060D01*
X36532177Y-122332100D01*
X36521523Y-122334850D01*
X36510719Y-122337329D01*
X36499764Y-122339538D01*
X36488660Y-122341477D01*
X36477405Y-122343145D01*
X36465999Y-122344542D01*
X36454444Y-122345669D01*
X36442738Y-122346526D01*
X36430882Y-122347112D01*
X36418876Y-122347427D01*
X36410788Y-122347487D01*
X35892505Y-122347487D01*
X35880130Y-122347352D01*
X35867918Y-122346946D01*
X35855870Y-122346270D01*
X35843984Y-122345323D01*
X35832262Y-122344106D01*
X35820703Y-122342619D01*
X35809307Y-122340861D01*
X35798074Y-122338832D01*
X35787005Y-122336533D01*
X35776098Y-122333963D01*
X35768918Y-122332100D01*
X35758333Y-122329053D01*
X35748009Y-122325774D01*
X35737948Y-122322264D01*
X35728148Y-122318522D01*
X35718611Y-122314547D01*
X35709335Y-122310341D01*
X35700321Y-122305904D01*
X35691569Y-122301234D01*
X35683079Y-122296332D01*
X35672166Y-122289436D01*
X35669511Y-122287648D01*
X35659176Y-122280279D01*
X35649422Y-122272581D01*
X35640248Y-122264555D01*
X35631653Y-122256202D01*
X35623639Y-122247519D01*
X35616205Y-122238509D01*
X35609351Y-122229171D01*
X35603077Y-122219504D01*
X35597410Y-122209486D01*
X35592498Y-122199217D01*
X35588342Y-122188695D01*
X35584942Y-122177922D01*
X35582297Y-122166896D01*
X35580408Y-122155619D01*
X35579275Y-122144090D01*
X35578897Y-122132309D01*
X35578897Y-121673621D01*
G37*
G36*
X35578897Y-120808757D02*
G01*
X36410788Y-120808757D01*
X36422633Y-120808895D01*
X36434353Y-120809307D01*
X36445948Y-120809994D01*
X36457419Y-120810956D01*
X36468766Y-120812192D01*
X36479988Y-120813703D01*
X36491086Y-120815489D01*
X36502059Y-120817550D01*
X36512907Y-120819886D01*
X36523631Y-120822496D01*
X36530711Y-120824389D01*
X36541168Y-120827392D01*
X36551379Y-120830631D01*
X36561346Y-120834107D01*
X36571069Y-120837818D01*
X36580546Y-120841766D01*
X36589779Y-120845950D01*
X36598767Y-120850370D01*
X36607510Y-120855026D01*
X36616009Y-120859918D01*
X36626960Y-120866809D01*
X36629630Y-120868597D01*
X36639911Y-120875981D01*
X36649627Y-120883725D01*
X36658779Y-120891827D01*
X36667365Y-120900287D01*
X36675387Y-120909107D01*
X36682844Y-120918285D01*
X36689736Y-120927822D01*
X36696064Y-120937718D01*
X36701674Y-120947873D01*
X36706536Y-120958310D01*
X36710650Y-120969030D01*
X36714016Y-120980033D01*
X36716634Y-120991317D01*
X36718504Y-121002885D01*
X36719626Y-121014734D01*
X36720000Y-121026866D01*
X36720000Y-121500942D01*
X36578583Y-121500942D01*
X36578583Y-121118457D01*
X36577698Y-121107482D01*
X36575041Y-121097025D01*
X36570614Y-121087087D01*
X36565288Y-121078818D01*
X36564417Y-121077669D01*
X36557752Y-121069923D01*
X36550151Y-121062716D01*
X36541616Y-121056045D01*
X36532146Y-121049913D01*
X36526315Y-121046650D01*
X36517116Y-121042085D01*
X36507470Y-121037914D01*
X36497378Y-121034139D01*
X36486839Y-121030759D01*
X36475854Y-121027774D01*
X36472093Y-121026866D01*
X36462505Y-121024826D01*
X36452821Y-121023131D01*
X36443041Y-121021782D01*
X36433167Y-121020779D01*
X36423197Y-121020122D01*
X36413131Y-121019811D01*
X36409078Y-121019783D01*
X35720314Y-121019783D01*
X35720314Y-121298464D01*
X35578897Y-121298464D01*
X35578897Y-120808757D01*
G37*
G36*
X35578897Y-120445080D02*
G01*
X36578583Y-120445080D01*
X36578583Y-119941451D01*
X36720000Y-119941451D01*
X36720000Y-120663189D01*
X35578897Y-120663189D01*
X35578897Y-120445080D01*
G37*
G36*
X35578897Y-119109071D02*
G01*
X35720314Y-119109071D01*
X35720314Y-119473482D01*
X35720991Y-119483685D01*
X35723025Y-119493350D01*
X35727009Y-119503738D01*
X35731948Y-119512252D01*
X35734480Y-119515736D01*
X35741110Y-119523421D01*
X35748605Y-119530662D01*
X35756965Y-119537459D01*
X35766189Y-119543812D01*
X35771849Y-119547243D01*
X35780833Y-119552057D01*
X35790385Y-119556425D01*
X35800502Y-119560346D01*
X35811187Y-119563821D01*
X35822439Y-119566849D01*
X35826315Y-119567759D01*
X35836074Y-119569730D01*
X35845964Y-119571366D01*
X35855985Y-119572668D01*
X35866138Y-119573637D01*
X35876422Y-119574271D01*
X35886837Y-119574572D01*
X35891039Y-119574598D01*
X36409078Y-119574598D01*
X36419182Y-119574431D01*
X36429190Y-119573930D01*
X36439103Y-119573096D01*
X36448920Y-119571927D01*
X36458642Y-119570424D01*
X36468269Y-119568588D01*
X36472093Y-119567759D01*
X36483227Y-119564906D01*
X36493915Y-119561657D01*
X36504156Y-119558014D01*
X36513950Y-119553975D01*
X36523298Y-119549541D01*
X36526315Y-119547976D01*
X36534947Y-119542998D01*
X36544150Y-119536649D01*
X36552418Y-119529715D01*
X36559751Y-119522196D01*
X36564417Y-119516468D01*
X36569937Y-119507900D01*
X36574101Y-119498864D01*
X36576909Y-119489360D01*
X36578362Y-119479389D01*
X36578583Y-119473482D01*
X36578583Y-119109071D01*
X36720000Y-119109071D01*
X36720000Y-119567759D01*
X36719626Y-119579884D01*
X36718504Y-119591711D01*
X36716634Y-119603240D01*
X36714016Y-119614471D01*
X36710650Y-119625405D01*
X36706536Y-119636041D01*
X36701674Y-119646379D01*
X36696064Y-119656420D01*
X36689748Y-119666075D01*
X36682890Y-119675379D01*
X36675490Y-119684332D01*
X36667548Y-119692934D01*
X36659065Y-119701185D01*
X36650039Y-119709084D01*
X36640472Y-119716633D01*
X36630362Y-119723831D01*
X36619692Y-119730658D01*
X36608564Y-119737096D01*
X36599917Y-119741669D01*
X36591013Y-119746023D01*
X36581851Y-119750159D01*
X36572431Y-119754075D01*
X36562754Y-119757772D01*
X36552819Y-119761250D01*
X36542627Y-119764510D01*
X36532177Y-119767550D01*
X36521523Y-119770300D01*
X36510719Y-119772779D01*
X36499764Y-119774988D01*
X36488660Y-119776927D01*
X36477405Y-119778595D01*
X36465999Y-119779992D01*
X36454444Y-119781119D01*
X36442738Y-119781976D01*
X36430882Y-119782562D01*
X36418876Y-119782877D01*
X36410788Y-119782937D01*
X35892505Y-119782937D01*
X35880130Y-119782802D01*
X35867918Y-119782396D01*
X35855870Y-119781720D01*
X35843984Y-119780774D01*
X35832262Y-119779556D01*
X35820703Y-119778069D01*
X35809307Y-119776311D01*
X35798074Y-119774282D01*
X35787005Y-119771983D01*
X35776098Y-119769413D01*
X35768918Y-119767550D01*
X35758333Y-119764503D01*
X35748009Y-119761225D01*
X35737948Y-119757714D01*
X35728148Y-119753972D01*
X35718611Y-119749998D01*
X35709335Y-119745791D01*
X35700321Y-119741354D01*
X35691569Y-119736684D01*
X35683079Y-119731782D01*
X35672166Y-119724886D01*
X35669511Y-119723098D01*
X35659176Y-119715729D01*
X35649422Y-119708031D01*
X35640248Y-119700005D01*
X35631653Y-119691652D01*
X35623639Y-119682970D01*
X35616205Y-119673959D01*
X35609351Y-119664621D01*
X35603077Y-119654954D01*
X35597410Y-119644936D01*
X35592498Y-119634667D01*
X35588342Y-119624145D01*
X35584942Y-119613372D01*
X35582297Y-119602347D01*
X35580408Y-119591069D01*
X35579275Y-119579540D01*
X35578897Y-119567759D01*
X35578897Y-119109071D01*
G37*
G36*
X35578897Y-118244207D02*
G01*
X36410788Y-118244207D01*
X36422633Y-118244345D01*
X36434353Y-118244757D01*
X36445948Y-118245444D01*
X36457419Y-118246406D01*
X36468766Y-118247642D01*
X36479988Y-118249153D01*
X36491086Y-118250939D01*
X36502059Y-118253000D01*
X36512907Y-118255336D01*
X36523631Y-118257946D01*
X36530711Y-118259839D01*
X36541168Y-118262842D01*
X36551379Y-118266082D01*
X36561346Y-118269557D01*
X36571069Y-118273269D01*
X36580546Y-118277216D01*
X36589779Y-118281400D01*
X36598767Y-118285820D01*
X36607510Y-118290476D01*
X36616009Y-118295368D01*
X36626960Y-118302259D01*
X36629630Y-118304047D01*
X36639911Y-118311431D01*
X36649627Y-118319175D01*
X36658779Y-118327277D01*
X36667365Y-118335737D01*
X36675387Y-118344557D01*
X36682844Y-118353735D01*
X36689736Y-118363272D01*
X36696064Y-118373168D01*
X36701674Y-118383323D01*
X36706536Y-118393760D01*
X36710650Y-118404480D01*
X36714016Y-118415483D01*
X36716634Y-118426768D01*
X36718504Y-118438335D01*
X36719626Y-118450184D01*
X36720000Y-118462316D01*
X36720000Y-118936392D01*
X36578583Y-118936392D01*
X36578583Y-118553907D01*
X36577698Y-118542932D01*
X36575041Y-118532475D01*
X36570614Y-118522537D01*
X36565288Y-118514268D01*
X36564417Y-118513119D01*
X36557752Y-118505373D01*
X36550151Y-118498166D01*
X36541616Y-118491495D01*
X36532146Y-118485363D01*
X36526315Y-118482100D01*
X36517116Y-118477535D01*
X36507470Y-118473364D01*
X36497378Y-118469589D01*
X36486839Y-118466209D01*
X36475854Y-118463224D01*
X36472093Y-118462316D01*
X36462505Y-118460276D01*
X36452821Y-118458581D01*
X36443041Y-118457232D01*
X36433167Y-118456229D01*
X36423197Y-118455572D01*
X36413131Y-118455261D01*
X36409078Y-118455233D01*
X35720314Y-118455233D01*
X35720314Y-118733914D01*
X35578897Y-118733914D01*
X35578897Y-118244207D01*
G37*
G36*
X35578897Y-117880530D02*
G01*
X36578583Y-117880530D01*
X36578583Y-117376901D01*
X36720000Y-117376901D01*
X36720000Y-118098639D01*
X35578897Y-118098639D01*
X35578897Y-117880530D01*
G37*
G36*
X35578897Y-116544521D02*
G01*
X35720314Y-116544521D01*
X35720314Y-116908932D01*
X35720991Y-116919135D01*
X35723025Y-116928800D01*
X35727009Y-116939188D01*
X35731948Y-116947702D01*
X35734480Y-116951186D01*
X35741110Y-116958871D01*
X35748605Y-116966112D01*
X35756965Y-116972909D01*
X35766189Y-116979262D01*
X35771849Y-116982693D01*
X35780833Y-116987507D01*
X35790385Y-116991875D01*
X35800502Y-116995796D01*
X35811187Y-116999271D01*
X35822439Y-117002299D01*
X35826315Y-117003210D01*
X35836074Y-117005180D01*
X35845964Y-117006816D01*
X35855985Y-117008118D01*
X35866138Y-117009087D01*
X35876422Y-117009721D01*
X35886837Y-117010022D01*
X35891039Y-117010048D01*
X36409078Y-117010048D01*
X36419182Y-117009881D01*
X36429190Y-117009380D01*
X36439103Y-117008546D01*
X36448920Y-117007377D01*
X36458642Y-117005874D01*
X36468269Y-117004038D01*
X36472093Y-117003210D01*
X36483227Y-117000356D01*
X36493915Y-116997107D01*
X36504156Y-116993464D01*
X36513950Y-116989425D01*
X36523298Y-116984992D01*
X36526315Y-116983426D01*
X36534947Y-116978448D01*
X36544150Y-116972099D01*
X36552418Y-116965165D01*
X36559751Y-116957647D01*
X36564417Y-116951919D01*
X36569937Y-116943350D01*
X36574101Y-116934314D01*
X36576909Y-116924810D01*
X36578362Y-116914839D01*
X36578583Y-116908932D01*
X36578583Y-116544521D01*
X36720000Y-116544521D01*
X36720000Y-117003210D01*
X36719626Y-117015334D01*
X36718504Y-117027161D01*
X36716634Y-117038690D01*
X36714016Y-117049921D01*
X36710650Y-117060855D01*
X36706536Y-117071491D01*
X36701674Y-117081829D01*
X36696064Y-117091870D01*
X36689748Y-117101525D01*
X36682890Y-117110829D01*
X36675490Y-117119782D01*
X36667548Y-117128384D01*
X36659065Y-117136635D01*
X36650039Y-117144535D01*
X36640472Y-117152083D01*
X36630362Y-117159281D01*
X36619692Y-117166108D01*
X36608564Y-117172546D01*
X36599917Y-117177119D01*
X36591013Y-117181473D01*
X36581851Y-117185609D01*
X36572431Y-117189525D01*
X36562754Y-117193222D01*
X36552819Y-117196700D01*
X36542627Y-117199960D01*
X36532177Y-117203000D01*
X36521523Y-117205750D01*
X36510719Y-117208229D01*
X36499764Y-117210438D01*
X36488660Y-117212377D01*
X36477405Y-117214045D01*
X36465999Y-117215442D01*
X36454444Y-117216569D01*
X36442738Y-117217426D01*
X36430882Y-117218012D01*
X36418876Y-117218327D01*
X36410788Y-117218387D01*
X35892505Y-117218387D01*
X35880130Y-117218252D01*
X35867918Y-117217847D01*
X35855870Y-117217170D01*
X35843984Y-117216224D01*
X35832262Y-117215006D01*
X35820703Y-117213519D01*
X35809307Y-117211761D01*
X35798074Y-117209732D01*
X35787005Y-117207433D01*
X35776098Y-117204864D01*
X35768918Y-117203000D01*
X35758333Y-117199953D01*
X35748009Y-117196675D01*
X35737948Y-117193164D01*
X35728148Y-117189422D01*
X35718611Y-117185448D01*
X35709335Y-117181242D01*
X35700321Y-117176804D01*
X35691569Y-117172134D01*
X35683079Y-117167232D01*
X35672166Y-117160336D01*
X35669511Y-117158548D01*
X35659176Y-117151179D01*
X35649422Y-117143481D01*
X35640248Y-117135456D01*
X35631653Y-117127102D01*
X35623639Y-117118420D01*
X35616205Y-117109409D01*
X35609351Y-117100071D01*
X35603077Y-117090404D01*
X35597410Y-117080386D01*
X35592498Y-117070117D01*
X35588342Y-117059595D01*
X35584942Y-117048822D01*
X35582297Y-117037797D01*
X35580408Y-117026519D01*
X35579275Y-117014990D01*
X35578897Y-117003210D01*
X35578897Y-116544521D01*
G37*
G36*
X35578897Y-115679658D02*
G01*
X36410788Y-115679658D01*
X36422633Y-115679795D01*
X36434353Y-115680207D01*
X36445948Y-115680894D01*
X36457419Y-115681856D01*
X36468766Y-115683092D01*
X36479988Y-115684603D01*
X36491086Y-115686390D01*
X36502059Y-115688450D01*
X36512907Y-115690786D01*
X36523631Y-115693396D01*
X36530711Y-115695289D01*
X36541168Y-115698292D01*
X36551379Y-115701532D01*
X36561346Y-115705007D01*
X36571069Y-115708719D01*
X36580546Y-115712666D01*
X36589779Y-115716850D01*
X36598767Y-115721270D01*
X36607510Y-115725926D01*
X36616009Y-115730819D01*
X36626960Y-115737709D01*
X36629630Y-115739497D01*
X36639911Y-115746882D01*
X36649627Y-115754625D01*
X36658779Y-115762727D01*
X36667365Y-115771188D01*
X36675387Y-115780007D01*
X36682844Y-115789185D01*
X36689736Y-115798722D01*
X36696064Y-115808618D01*
X36701674Y-115818773D01*
X36706536Y-115829211D01*
X36710650Y-115839930D01*
X36714016Y-115850933D01*
X36716634Y-115862218D01*
X36718504Y-115873785D01*
X36719626Y-115885634D01*
X36720000Y-115897766D01*
X36720000Y-116371842D01*
X36578583Y-116371842D01*
X36578583Y-115989357D01*
X36577698Y-115978382D01*
X36575041Y-115967925D01*
X36570614Y-115957988D01*
X36565288Y-115949718D01*
X36564417Y-115948569D01*
X36557752Y-115940824D01*
X36550151Y-115933616D01*
X36541616Y-115926946D01*
X36532146Y-115920813D01*
X36526315Y-115917550D01*
X36517116Y-115912985D01*
X36507470Y-115908815D01*
X36497378Y-115905039D01*
X36486839Y-115901659D01*
X36475854Y-115898674D01*
X36472093Y-115897766D01*
X36462505Y-115895726D01*
X36452821Y-115894031D01*
X36443041Y-115892682D01*
X36433167Y-115891679D01*
X36423197Y-115891022D01*
X36413131Y-115890711D01*
X36409078Y-115890683D01*
X35720314Y-115890683D01*
X35720314Y-116169364D01*
X35578897Y-116169364D01*
X35578897Y-115679658D01*
G37*
G36*
X35578897Y-115315980D02*
G01*
X36578583Y-115315980D01*
X36578583Y-114812351D01*
X36720000Y-114812351D01*
X36720000Y-115534089D01*
X35578897Y-115534089D01*
X35578897Y-115315980D01*
G37*
G36*
X35578897Y-113979972D02*
G01*
X35720314Y-113979972D01*
X35720314Y-114344382D01*
X35720991Y-114354585D01*
X35723025Y-114364250D01*
X35727009Y-114374638D01*
X35731948Y-114383152D01*
X35734480Y-114386636D01*
X35741110Y-114394321D01*
X35748605Y-114401562D01*
X35756965Y-114408359D01*
X35766189Y-114414712D01*
X35771849Y-114418143D01*
X35780833Y-114422958D01*
X35790385Y-114427325D01*
X35800502Y-114431247D01*
X35811187Y-114434721D01*
X35822439Y-114437749D01*
X35826315Y-114438660D01*
X35836074Y-114440630D01*
X35845964Y-114442266D01*
X35855985Y-114443568D01*
X35866138Y-114444537D01*
X35876422Y-114445171D01*
X35886837Y-114445472D01*
X35891039Y-114445498D01*
X36409078Y-114445498D01*
X36419182Y-114445331D01*
X36429190Y-114444831D01*
X36439103Y-114443996D01*
X36448920Y-114442827D01*
X36458642Y-114441324D01*
X36468269Y-114439488D01*
X36472093Y-114438660D01*
X36483227Y-114435806D01*
X36493915Y-114432557D01*
X36504156Y-114428914D01*
X36513950Y-114424875D01*
X36523298Y-114420442D01*
X36526315Y-114418876D01*
X36534947Y-114413899D01*
X36544150Y-114407549D01*
X36552418Y-114400615D01*
X36559751Y-114393097D01*
X36564417Y-114387369D01*
X36569937Y-114378800D01*
X36574101Y-114369764D01*
X36576909Y-114360261D01*
X36578362Y-114350290D01*
X36578583Y-114344382D01*
X36578583Y-113979972D01*
X36720000Y-113979972D01*
X36720000Y-114438660D01*
X36719626Y-114450784D01*
X36718504Y-114462611D01*
X36716634Y-114474140D01*
X36714016Y-114485371D01*
X36710650Y-114496305D01*
X36706536Y-114506941D01*
X36701674Y-114517279D01*
X36696064Y-114527320D01*
X36689748Y-114536975D01*
X36682890Y-114546279D01*
X36675490Y-114555232D01*
X36667548Y-114563834D01*
X36659065Y-114572085D01*
X36650039Y-114579985D01*
X36640472Y-114587533D01*
X36630362Y-114594731D01*
X36619692Y-114601558D01*
X36608564Y-114607996D01*
X36599917Y-114612569D01*
X36591013Y-114616924D01*
X36581851Y-114621059D01*
X36572431Y-114624975D01*
X36562754Y-114628672D01*
X36552819Y-114632151D01*
X36542627Y-114635410D01*
X36532177Y-114638450D01*
X36521523Y-114641200D01*
X36510719Y-114643680D01*
X36499764Y-114645888D01*
X36488660Y-114647827D01*
X36477405Y-114649495D01*
X36465999Y-114650892D01*
X36454444Y-114652019D01*
X36442738Y-114652876D01*
X36430882Y-114653462D01*
X36418876Y-114653777D01*
X36410788Y-114653838D01*
X35892505Y-114653838D01*
X35880130Y-114653702D01*
X35867918Y-114653297D01*
X35855870Y-114652620D01*
X35843984Y-114651674D01*
X35832262Y-114650457D01*
X35820703Y-114648969D01*
X35809307Y-114647211D01*
X35798074Y-114645182D01*
X35787005Y-114642883D01*
X35776098Y-114640314D01*
X35768918Y-114638450D01*
X35758333Y-114635403D01*
X35748009Y-114632125D01*
X35737948Y-114628614D01*
X35728148Y-114624872D01*
X35718611Y-114620898D01*
X35709335Y-114616692D01*
X35700321Y-114612254D01*
X35691569Y-114607584D01*
X35683079Y-114602683D01*
X35672166Y-114595787D01*
X35669511Y-114593998D01*
X35659176Y-114586629D01*
X35649422Y-114578931D01*
X35640248Y-114570906D01*
X35631653Y-114562552D01*
X35623639Y-114553870D01*
X35616205Y-114544859D01*
X35609351Y-114535521D01*
X35603077Y-114525854D01*
X35597410Y-114515837D01*
X35592498Y-114505567D01*
X35588342Y-114495045D01*
X35584942Y-114484272D01*
X35582297Y-114473247D01*
X35580408Y-114461970D01*
X35579275Y-114450441D01*
X35578897Y-114438660D01*
X35578897Y-113979972D01*
G37*
D11*
G36*
X37276070Y-132613369D02*
G01*
X37310726Y-132616746D01*
X37344672Y-132622375D01*
X37377908Y-132630256D01*
X37410434Y-132640388D01*
X37442250Y-132652772D01*
X37473357Y-132667408D01*
X37503754Y-132684295D01*
X37533406Y-132703080D01*
X37561914Y-132723412D01*
X37589277Y-132745289D01*
X37615495Y-132768711D01*
X37640568Y-132793679D01*
X37658621Y-132813420D01*
X37676031Y-132834029D01*
X37692796Y-132855509D01*
X37708918Y-132877857D01*
X37724402Y-132901011D01*
X37739255Y-132924905D01*
X37753476Y-132949540D01*
X37767067Y-132974915D01*
X37780026Y-133001031D01*
X37792354Y-133027888D01*
X37804052Y-133055485D01*
X37815118Y-133083823D01*
X37825553Y-133112901D01*
X37835356Y-133142720D01*
X37841542Y-133163011D01*
X37850315Y-133193839D01*
X37858226Y-133224956D01*
X37865273Y-133256364D01*
X37871458Y-133288061D01*
X37876779Y-133320048D01*
X37881238Y-133352325D01*
X37884834Y-133384892D01*
X37887566Y-133417748D01*
X37889436Y-133450895D01*
X37890443Y-133484331D01*
X37890635Y-133506782D01*
X37890222Y-133541460D01*
X37888986Y-133575655D01*
X37886925Y-133609366D01*
X37884040Y-133642595D01*
X37880331Y-133675340D01*
X37875797Y-133707603D01*
X37870439Y-133739383D01*
X37864256Y-133770679D01*
X37857250Y-133801493D01*
X37849419Y-133831823D01*
X37843740Y-133851775D01*
X37834750Y-133881063D01*
X37825090Y-133909621D01*
X37814760Y-133937449D01*
X37803760Y-133964547D01*
X37792091Y-133990915D01*
X37779752Y-134016554D01*
X37766743Y-134041462D01*
X37753065Y-134065641D01*
X37738716Y-134089089D01*
X37723698Y-134111808D01*
X37713314Y-134126549D01*
X37697193Y-134147856D01*
X37680427Y-134168273D01*
X37657072Y-134194109D01*
X37632571Y-134218362D01*
X37606925Y-134241030D01*
X37580135Y-134262115D01*
X37552200Y-134281617D01*
X37523120Y-134299534D01*
X37508150Y-134307899D01*
X37477685Y-134323069D01*
X37446372Y-134336216D01*
X37414212Y-134347340D01*
X37381205Y-134356442D01*
X37347351Y-134363522D01*
X37312649Y-134368578D01*
X37277100Y-134371612D01*
X37240704Y-134372623D01*
X36358499Y-134372623D01*
X36358499Y-135465000D01*
X35704173Y-135465000D01*
X35704173Y-132965785D01*
X36358499Y-132965785D01*
X36358499Y-134019082D01*
X36961535Y-134019082D01*
X36998357Y-134017059D01*
X37032804Y-134010991D01*
X37064875Y-134000878D01*
X37094571Y-133986720D01*
X37121891Y-133968516D01*
X37146835Y-133946267D01*
X37169404Y-133919973D01*
X37189596Y-133889633D01*
X37207414Y-133855248D01*
X37222856Y-133816818D01*
X37235922Y-133774343D01*
X37246612Y-133727822D01*
X37251066Y-133703045D01*
X37254927Y-133677256D01*
X37258193Y-133650456D01*
X37260866Y-133622645D01*
X37262944Y-133593823D01*
X37264429Y-133563989D01*
X37265320Y-133533144D01*
X37265617Y-133501287D01*
X37265320Y-133468341D01*
X37264429Y-133436441D01*
X37262944Y-133405587D01*
X37260866Y-133375779D01*
X37258193Y-133347016D01*
X37254927Y-133319300D01*
X37251066Y-133292629D01*
X37246612Y-133267005D01*
X37241564Y-133242426D01*
X37229685Y-133196406D01*
X37215432Y-133154570D01*
X37198802Y-133116918D01*
X37179797Y-133083449D01*
X37158416Y-133054163D01*
X37134660Y-133029062D01*
X37108528Y-133008144D01*
X37080020Y-132991409D01*
X37049137Y-132978858D01*
X37015878Y-132970491D01*
X36980243Y-132966308D01*
X36961535Y-132965785D01*
X36358499Y-132965785D01*
X35704173Y-132965785D01*
X35704173Y-132612243D01*
X37240704Y-132612243D01*
X37276070Y-132613369D01*
G37*
G36*
X40383377Y-133551967D02*
G01*
X39395659Y-133551967D01*
X39365754Y-133552168D01*
X39330306Y-133552982D01*
X39297004Y-133554422D01*
X39265849Y-133556488D01*
X39231296Y-133559794D01*
X39199834Y-133564001D01*
X39194891Y-133564790D01*
X39162489Y-133571594D01*
X39133242Y-133581319D01*
X39107151Y-133593967D01*
X39084215Y-133609536D01*
X39072526Y-133619745D01*
X39054659Y-133640164D01*
X39039527Y-133664558D01*
X39028734Y-133688629D01*
X39019950Y-133715620D01*
X39014164Y-133740342D01*
X39013175Y-133745530D01*
X39008953Y-133772912D01*
X39005447Y-133803156D01*
X39003157Y-133829412D01*
X39001325Y-133857500D01*
X38999951Y-133887420D01*
X38999035Y-133919171D01*
X38998649Y-133944187D01*
X38998520Y-133970233D01*
X38998520Y-135465000D01*
X38344926Y-135465000D01*
X38344926Y-133887801D01*
X38345822Y-133843098D01*
X38348510Y-133799969D01*
X38352989Y-133758415D01*
X38359260Y-133718434D01*
X38367323Y-133680028D01*
X38377178Y-133643196D01*
X38388824Y-133607938D01*
X38402262Y-133574255D01*
X38417492Y-133542145D01*
X38434514Y-133511610D01*
X38453327Y-133482649D01*
X38473932Y-133455262D01*
X38496329Y-133429450D01*
X38520518Y-133405212D01*
X38546498Y-133382548D01*
X38574270Y-133361458D01*
X38603914Y-133341716D01*
X38635327Y-133323247D01*
X38668509Y-133306053D01*
X38703459Y-133290131D01*
X38740179Y-133275484D01*
X38778667Y-133262110D01*
X38818924Y-133250010D01*
X38860950Y-133239184D01*
X38904745Y-133229631D01*
X38950309Y-133221352D01*
X38997641Y-133214347D01*
X39046743Y-133208615D01*
X39097613Y-133204157D01*
X39150252Y-133200973D01*
X39204660Y-133199063D01*
X39260837Y-133198426D01*
X40383377Y-133198426D01*
X40383377Y-133551967D01*
G37*
G36*
X42318513Y-132495006D02*
G01*
X42318513Y-132924874D01*
X41546217Y-132924874D01*
X41546217Y-132495006D01*
X42318513Y-132495006D01*
G37*
G36*
X42259895Y-133198426D02*
G01*
X42259895Y-135111458D01*
X42994089Y-135111458D01*
X42994089Y-135465000D01*
X40858918Y-135465000D01*
X40858918Y-135111458D01*
X41605568Y-135111458D01*
X41605568Y-133551967D01*
X40858918Y-133551967D01*
X40858918Y-133198426D01*
X42259895Y-133198426D01*
G37*
G36*
X44921165Y-133198426D02*
G01*
X44956396Y-133198721D01*
X44990648Y-133199607D01*
X45023921Y-133201082D01*
X45056216Y-133203149D01*
X45087531Y-133205805D01*
X45117868Y-133209052D01*
X45147226Y-133212889D01*
X45184847Y-133218924D01*
X45220728Y-133226008D01*
X45246496Y-133232009D01*
X45279412Y-133241149D01*
X45310747Y-133251778D01*
X45340503Y-133263894D01*
X45368679Y-133277500D01*
X45395275Y-133292593D01*
X45420290Y-133309175D01*
X45443726Y-133327245D01*
X45465582Y-133346803D01*
X45486087Y-133367946D01*
X45505104Y-133390767D01*
X45522632Y-133415268D01*
X45538672Y-133441448D01*
X45553223Y-133469306D01*
X45566287Y-133498845D01*
X45577861Y-133530062D01*
X45585566Y-133554577D01*
X45587948Y-133562958D01*
X45594757Y-133588736D01*
X45600897Y-133615695D01*
X45606366Y-133643834D01*
X45611166Y-133673154D01*
X45615296Y-133703654D01*
X45618757Y-133735336D01*
X45621547Y-133768197D01*
X45623668Y-133802240D01*
X45625120Y-133837463D01*
X45625901Y-133873867D01*
X45626050Y-133898792D01*
X45626050Y-135465000D01*
X45056720Y-135465000D01*
X45056720Y-133934818D01*
X45056514Y-133907035D01*
X45055895Y-133880474D01*
X45054865Y-133855134D01*
X45052997Y-133825176D01*
X45050486Y-133797126D01*
X45047330Y-133770985D01*
X45043531Y-133746751D01*
X45038190Y-133719954D01*
X45031509Y-133695431D01*
X45022022Y-133669698D01*
X45010712Y-133647062D01*
X44999567Y-133630125D01*
X44980453Y-133608063D01*
X44958557Y-133589961D01*
X44933879Y-133575820D01*
X44918967Y-133569675D01*
X44889909Y-133561115D01*
X44860967Y-133555858D01*
X44829093Y-133552815D01*
X44798799Y-133551967D01*
X44697683Y-133551967D01*
X44697683Y-135465000D01*
X44254382Y-135465000D01*
X44254382Y-133551967D01*
X43954696Y-133551967D01*
X43954696Y-135465000D01*
X43364117Y-135465000D01*
X43364117Y-133198426D01*
X44921165Y-133198426D01*
G37*
G36*
X47620294Y-133199056D02*
G01*
X47652170Y-133200945D01*
X47683194Y-133204093D01*
X47713364Y-133208501D01*
X47742682Y-133214168D01*
X47771147Y-133221095D01*
X47812245Y-133233846D01*
X47851424Y-133249431D01*
X47888683Y-133267849D01*
X47924024Y-133289101D01*
X47946518Y-133304843D01*
X47968159Y-133321845D01*
X47988948Y-133340106D01*
X48008883Y-133359626D01*
X48027871Y-133380518D01*
X48045634Y-133402893D01*
X48062172Y-133426752D01*
X48077485Y-133452095D01*
X48091573Y-133478921D01*
X48104435Y-133507231D01*
X48116073Y-133537024D01*
X48126486Y-133568301D01*
X48135674Y-133601062D01*
X48143636Y-133635306D01*
X48150374Y-133671033D01*
X48155887Y-133708245D01*
X48160174Y-133746939D01*
X48163237Y-133787118D01*
X48165074Y-133828780D01*
X48165687Y-133871926D01*
X48165117Y-133914964D01*
X48163409Y-133956456D01*
X48160561Y-133996404D01*
X48156574Y-134034805D01*
X48151447Y-134071661D01*
X48145182Y-134106971D01*
X48137777Y-134140736D01*
X48129234Y-134172955D01*
X48119551Y-134203628D01*
X48108729Y-134232756D01*
X48096767Y-134260338D01*
X48083667Y-134286375D01*
X48069428Y-134310866D01*
X48054049Y-134333812D01*
X48037531Y-134355212D01*
X48019874Y-134375066D01*
X47991297Y-134402237D01*
X47960248Y-134426736D01*
X47926726Y-134448562D01*
X47890730Y-134467716D01*
X47852262Y-134484197D01*
X47825243Y-134493699D01*
X47797124Y-134502014D01*
X47767907Y-134509141D01*
X47737590Y-134515080D01*
X47706174Y-134519832D01*
X47673660Y-134523395D01*
X47640046Y-134525771D01*
X47605333Y-134526958D01*
X47587564Y-134527107D01*
X46612302Y-134527107D01*
X46612302Y-134726775D01*
X46612531Y-134757459D01*
X46613218Y-134786615D01*
X46614363Y-134814245D01*
X46615966Y-134840348D01*
X46618027Y-134864925D01*
X46621247Y-134893500D01*
X46625182Y-134919689D01*
X46626957Y-134929497D01*
X46633277Y-134957060D01*
X46641245Y-134982047D01*
X46652625Y-135007943D01*
X46666250Y-135030333D01*
X46679713Y-135046734D01*
X46700459Y-135065128D01*
X46724593Y-135080012D01*
X46752116Y-135091384D01*
X46783028Y-135099246D01*
X46813352Y-135104004D01*
X46846621Y-135107594D01*
X46877481Y-135109741D01*
X46910506Y-135111029D01*
X46945694Y-135111458D01*
X47933412Y-135111458D01*
X47933412Y-135465000D01*
X46650404Y-135465000D01*
X46615991Y-135464661D01*
X46582544Y-135463647D01*
X46550063Y-135461957D01*
X46518547Y-135459590D01*
X46487998Y-135456547D01*
X46458415Y-135452828D01*
X46420473Y-135446817D01*
X46384249Y-135439604D01*
X46349742Y-135431190D01*
X46333133Y-135426531D01*
X46301248Y-135416017D01*
X46270805Y-135404015D01*
X46241805Y-135390525D01*
X46214248Y-135375546D01*
X46188133Y-135359078D01*
X46163460Y-135341123D01*
X46140231Y-135321679D01*
X46118443Y-135300746D01*
X46098064Y-135278221D01*
X46079059Y-135253997D01*
X46061428Y-135228074D01*
X46045170Y-135200454D01*
X46030287Y-135171135D01*
X46020026Y-135148032D01*
X46010538Y-135123973D01*
X46001822Y-135098959D01*
X45993879Y-135072990D01*
X45986677Y-135045838D01*
X45980184Y-135017506D01*
X45974398Y-134987993D01*
X45969322Y-134957299D01*
X45964953Y-134925424D01*
X45961293Y-134892369D01*
X45958341Y-134858134D01*
X45956098Y-134822717D01*
X45954563Y-134786120D01*
X45953934Y-134761066D01*
X45953619Y-134735487D01*
X45953579Y-134722501D01*
X45953579Y-134214476D01*
X46612302Y-134214476D01*
X47321584Y-134214476D01*
X47354098Y-134213789D01*
X47384232Y-134211728D01*
X47415286Y-134207768D01*
X47437355Y-134203485D01*
X47465719Y-134194171D01*
X47490363Y-134179967D01*
X47511286Y-134160874D01*
X47515024Y-134156468D01*
X47530531Y-134133445D01*
X47541980Y-134108926D01*
X47550195Y-134084340D01*
X47556726Y-134056833D01*
X47557522Y-134052665D01*
X47562004Y-134025682D01*
X47565031Y-134000801D01*
X47567414Y-133973744D01*
X47569153Y-133944511D01*
X47570080Y-133919557D01*
X47570595Y-133893210D01*
X47570711Y-133872536D01*
X47570540Y-133845927D01*
X47570024Y-133820749D01*
X47568897Y-133791289D01*
X47567234Y-133764065D01*
X47565033Y-133739077D01*
X47561685Y-133712044D01*
X47559720Y-133699734D01*
X47554391Y-133673204D01*
X47546239Y-133646604D01*
X47534441Y-133621424D01*
X47521618Y-133603258D01*
X47500382Y-133583404D01*
X47473951Y-133569177D01*
X47445415Y-133561127D01*
X47416068Y-133556699D01*
X47386381Y-133553980D01*
X47353305Y-133552406D01*
X47321584Y-133551967D01*
X46869490Y-133551967D01*
X46837629Y-133552844D01*
X46808081Y-133555474D01*
X46777146Y-133560626D01*
X46745957Y-133569159D01*
X46742728Y-133570286D01*
X46715970Y-133582618D01*
X46692573Y-133599008D01*
X46672539Y-133619455D01*
X46662861Y-133632568D01*
X46649351Y-133656190D01*
X46639408Y-133680054D01*
X46631219Y-133706897D01*
X46625595Y-133732278D01*
X46622561Y-133750415D01*
X46619074Y-133779702D01*
X46616720Y-133806175D01*
X46614867Y-133834526D01*
X46613515Y-133864755D01*
X46612793Y-133890291D01*
X46612393Y-133917029D01*
X46612302Y-133937871D01*
X46612302Y-134214476D01*
X45953579Y-134214476D01*
X45953579Y-133937260D01*
X45953737Y-133911865D01*
X45954209Y-133886971D01*
X45955508Y-133850569D01*
X45957515Y-133815294D01*
X45960230Y-133781146D01*
X45963654Y-133748125D01*
X45967787Y-133716231D01*
X45972627Y-133685464D01*
X45978177Y-133655824D01*
X45984434Y-133627311D01*
X45991400Y-133599925D01*
X45993879Y-133591046D01*
X46001822Y-133564968D01*
X46010538Y-133539855D01*
X46020026Y-133515709D01*
X46030287Y-133492529D01*
X46045170Y-133463124D01*
X46061428Y-133435437D01*
X46079059Y-133409467D01*
X46098064Y-133385214D01*
X46118443Y-133362679D01*
X46140231Y-133341756D01*
X46163460Y-133322341D01*
X46188133Y-133304433D01*
X46214248Y-133288032D01*
X46241805Y-133273139D01*
X46270805Y-133259754D01*
X46301248Y-133247876D01*
X46333133Y-133237505D01*
X46366781Y-133228346D01*
X46402147Y-133220408D01*
X46439230Y-133213691D01*
X46468169Y-133209455D01*
X46498074Y-133205906D01*
X46528945Y-133203044D01*
X46560782Y-133200868D01*
X46593586Y-133199380D01*
X46627355Y-133198579D01*
X46650404Y-133198426D01*
X47587564Y-133198426D01*
X47620294Y-133199056D01*
G37*
G36*
X50476713Y-132612243D02*
G01*
X50476713Y-132965785D01*
X49134354Y-132965785D01*
X49134354Y-133704619D01*
X50097159Y-133704619D01*
X50133521Y-133705669D01*
X50168967Y-133708817D01*
X50203497Y-133714065D01*
X50237110Y-133721411D01*
X50269808Y-133730856D01*
X50301591Y-133742400D01*
X50332457Y-133756044D01*
X50362407Y-133771786D01*
X50391510Y-133789141D01*
X50419468Y-133807926D01*
X50446282Y-133828143D01*
X50471950Y-133849791D01*
X50496473Y-133872870D01*
X50519852Y-133897380D01*
X50542086Y-133923321D01*
X50563175Y-133950694D01*
X50578227Y-133972087D01*
X50592610Y-133994135D01*
X50606323Y-134016838D01*
X50619366Y-134040195D01*
X50631739Y-134064208D01*
X50643443Y-134088875D01*
X50654477Y-134114196D01*
X50664841Y-134140173D01*
X50674535Y-134166804D01*
X50683560Y-134194090D01*
X50689204Y-134212644D01*
X50697192Y-134240692D01*
X50704394Y-134268966D01*
X50710810Y-134297464D01*
X50716441Y-134326189D01*
X50721286Y-134355138D01*
X50725345Y-134384313D01*
X50728619Y-134413714D01*
X50731107Y-134443339D01*
X50732809Y-134473190D01*
X50733726Y-134503267D01*
X50733900Y-134523443D01*
X50733456Y-134556368D01*
X50732123Y-134589196D01*
X50729901Y-134621927D01*
X50726791Y-134654562D01*
X50722791Y-134687100D01*
X50717903Y-134719541D01*
X50712127Y-134751886D01*
X50705461Y-134784134D01*
X50697907Y-134816286D01*
X50689464Y-134848341D01*
X50683342Y-134869658D01*
X50673528Y-134901262D01*
X50663043Y-134932190D01*
X50651889Y-134962442D01*
X50640065Y-134992018D01*
X50627572Y-135020917D01*
X50614408Y-135049140D01*
X50600575Y-135076687D01*
X50586072Y-135103558D01*
X50570900Y-135129753D01*
X50555057Y-135155271D01*
X50544124Y-135171908D01*
X50527184Y-135196083D01*
X50509614Y-135219378D01*
X50491412Y-135241793D01*
X50472580Y-135263327D01*
X50453116Y-135283982D01*
X50433021Y-135303756D01*
X50412295Y-135322651D01*
X50390938Y-135340665D01*
X50368949Y-135357799D01*
X50346330Y-135374052D01*
X50330900Y-135384399D01*
X50299473Y-135403290D01*
X50267473Y-135419662D01*
X50234901Y-135433515D01*
X50201756Y-135444849D01*
X50168039Y-135453665D01*
X50133750Y-135459962D01*
X50098888Y-135463740D01*
X50063454Y-135465000D01*
X48505673Y-135465000D01*
X48505673Y-135111458D01*
X49784284Y-135111458D01*
X49816782Y-135109033D01*
X49847597Y-135101757D01*
X49876728Y-135089632D01*
X49904177Y-135072656D01*
X49919106Y-135060778D01*
X49940693Y-135040656D01*
X49960940Y-135018302D01*
X49979848Y-134993716D01*
X49994582Y-134971522D01*
X50008385Y-134947777D01*
X50018757Y-134927665D01*
X50030922Y-134901369D01*
X50042228Y-134873999D01*
X50052675Y-134845555D01*
X50062263Y-134816039D01*
X50069316Y-134791653D01*
X50075819Y-134766579D01*
X50081772Y-134740819D01*
X50087267Y-134714506D01*
X50092030Y-134688078D01*
X50096060Y-134661536D01*
X50099357Y-134634879D01*
X50101922Y-134608108D01*
X50103754Y-134581222D01*
X50104853Y-134554222D01*
X50105219Y-134527107D01*
X50104956Y-134499930D01*
X50104166Y-134473507D01*
X50102849Y-134447838D01*
X50101006Y-134422922D01*
X50097254Y-134386962D01*
X50092316Y-134352698D01*
X50086194Y-134320129D01*
X50078887Y-134289256D01*
X50070395Y-134260080D01*
X50060718Y-134232599D01*
X50049855Y-134206814D01*
X50037808Y-134182725D01*
X50024499Y-134160464D01*
X50004669Y-134134188D01*
X49982459Y-134111806D01*
X49957866Y-134093316D01*
X49930893Y-134078719D01*
X49901538Y-134068014D01*
X49869802Y-134061202D01*
X49835684Y-134058282D01*
X49826782Y-134058161D01*
X48505673Y-134058161D01*
X48505673Y-132612243D01*
X50476713Y-132612243D01*
G37*
G36*
X52631667Y-132612243D02*
G01*
X52667205Y-132613207D01*
X52702009Y-132616098D01*
X52736081Y-132620916D01*
X52769420Y-132627661D01*
X52802027Y-132636333D01*
X52833900Y-132646933D01*
X52865041Y-132659460D01*
X52895450Y-132673914D01*
X52925137Y-132690076D01*
X52953747Y-132707727D01*
X52981282Y-132726865D01*
X53007740Y-132747493D01*
X53033122Y-132769608D01*
X53057428Y-132793212D01*
X53080658Y-132818304D01*
X53102812Y-132844884D01*
X53118669Y-132865575D01*
X53133818Y-132886887D01*
X53148259Y-132908823D01*
X53161991Y-132931381D01*
X53175015Y-132954561D01*
X53187330Y-132978364D01*
X53198937Y-133002790D01*
X53209836Y-133027838D01*
X53220026Y-133053508D01*
X53229508Y-133079801D01*
X53235436Y-133097676D01*
X53243685Y-133124883D01*
X53251123Y-133152466D01*
X53257750Y-133180424D01*
X53263566Y-133208758D01*
X53268569Y-133237468D01*
X53272762Y-133266554D01*
X53276143Y-133296015D01*
X53278712Y-133325852D01*
X53280471Y-133356064D01*
X53281417Y-133386653D01*
X53281598Y-133407254D01*
X53281192Y-133437956D01*
X53279975Y-133468240D01*
X53277946Y-133498106D01*
X53275106Y-133527553D01*
X53271455Y-133556581D01*
X53266992Y-133585191D01*
X53261717Y-133613382D01*
X53255631Y-133641154D01*
X53248734Y-133668508D01*
X53241026Y-133695443D01*
X53235436Y-133713168D01*
X53226439Y-133739178D01*
X53216760Y-133764545D01*
X53206398Y-133789267D01*
X53195353Y-133813345D01*
X53183626Y-133836780D01*
X53171216Y-133859570D01*
X53158123Y-133881717D01*
X53139605Y-133910244D01*
X53119873Y-133937625D01*
X53104277Y-133957411D01*
X53082650Y-133982646D01*
X53059901Y-134006450D01*
X53036030Y-134028823D01*
X53011038Y-134049765D01*
X52984923Y-134069276D01*
X52957686Y-134087355D01*
X52929327Y-134104004D01*
X52899846Y-134119221D01*
X52869369Y-134132817D01*
X52838022Y-134144600D01*
X52805805Y-134154570D01*
X52772718Y-134162727D01*
X52738760Y-134169072D01*
X52703933Y-134173604D01*
X52668235Y-134176323D01*
X52631667Y-134177229D01*
X51986133Y-134177229D01*
X51954457Y-134178887D01*
X51924825Y-134183860D01*
X51897236Y-134192148D01*
X51859684Y-134210798D01*
X51837204Y-134227375D01*
X51816768Y-134247267D01*
X51798375Y-134270475D01*
X51782026Y-134296998D01*
X51767721Y-134326837D01*
X51755459Y-134359991D01*
X51745241Y-134396460D01*
X51737067Y-134436245D01*
X51730936Y-134479345D01*
X51726848Y-134525761D01*
X51725571Y-134550212D01*
X51724805Y-134575492D01*
X51724549Y-134601601D01*
X51724549Y-135111458D01*
X53294787Y-135111458D01*
X53294787Y-135465000D01*
X51082679Y-135465000D01*
X51082679Y-134605265D01*
X51083053Y-134574328D01*
X51084173Y-134543798D01*
X51086041Y-134513677D01*
X51088656Y-134483964D01*
X51092017Y-134454658D01*
X51096126Y-134425760D01*
X51100982Y-134397271D01*
X51106584Y-134369189D01*
X51112934Y-134341515D01*
X51120031Y-134314248D01*
X51125177Y-134296297D01*
X51133494Y-134269736D01*
X51142505Y-134243862D01*
X51152213Y-134218674D01*
X51162615Y-134194173D01*
X51173714Y-134170360D01*
X51185507Y-134147233D01*
X51197997Y-134124793D01*
X51215731Y-134095942D01*
X51234702Y-134068312D01*
X51249741Y-134048391D01*
X51270784Y-134022984D01*
X51292881Y-133998970D01*
X51316030Y-133976349D01*
X51340233Y-133955121D01*
X51365490Y-133935286D01*
X51391799Y-133916843D01*
X51419162Y-133899794D01*
X51447578Y-133884138D01*
X51477254Y-133869970D01*
X51508028Y-133857691D01*
X51539902Y-133847301D01*
X51572875Y-133838800D01*
X51606946Y-133832188D01*
X51642117Y-133827466D01*
X51678387Y-133824632D01*
X51715757Y-133823688D01*
X52353230Y-133823688D01*
X52387142Y-133821789D01*
X52419268Y-133816093D01*
X52449607Y-133806600D01*
X52478161Y-133793310D01*
X52504928Y-133776222D01*
X52529910Y-133755338D01*
X52553105Y-133730656D01*
X52569330Y-133709653D01*
X52574515Y-133702177D01*
X52589311Y-133678737D01*
X52602653Y-133654213D01*
X52614539Y-133628605D01*
X52624970Y-133601913D01*
X52633945Y-133574137D01*
X52641465Y-133545277D01*
X52647529Y-133515333D01*
X52652138Y-133484304D01*
X52655291Y-133452192D01*
X52656989Y-133418996D01*
X52657313Y-133396263D01*
X52656585Y-133362442D01*
X52654402Y-133329673D01*
X52650763Y-133297956D01*
X52645669Y-133267291D01*
X52639120Y-133237678D01*
X52631115Y-133209116D01*
X52621655Y-133181607D01*
X52610739Y-133155149D01*
X52598368Y-133129743D01*
X52584541Y-133105389D01*
X52574515Y-133089738D01*
X52558625Y-133067586D01*
X52541731Y-133047613D01*
X52517642Y-133024372D01*
X52491768Y-133005004D01*
X52464107Y-132989510D01*
X52434661Y-132977889D01*
X52403428Y-132970142D01*
X52370410Y-132966269D01*
X52353230Y-132965785D01*
X51399218Y-132965785D01*
X51399218Y-132612243D01*
X52631667Y-132612243D01*
G37*
M02*
