%TF.GenerationSoftware,KiCad,Pcbnew,7.0.5*%
%TF.CreationDate,2024-03-19T15:00:49+08:00*%
%TF.ProjectId,J-50x,4a2d3530-782e-46b6-9963-61645f706362,rev?*%
%TF.SameCoordinates,Original*%
%TF.FileFunction,Profile,NP*%
%FSLAX46Y46*%
G04 Gerber Fmt 4.6, Leading zero omitted, Abs format (unit mm)*
G04 Created by KiCad (PCBNEW 7.0.5) date 2024-03-19 15:00:49*
%MOMM*%
%LPD*%
G01*
G04 APERTURE LIST*
%TA.AperFunction,Profile*%
%ADD10C,0.100000*%
%TD*%
G04 APERTURE END LIST*
D10*
X129770000Y-69845000D02*
X129770000Y-67464000D01*
X91670000Y-65082000D02*
X91670000Y-67464000D01*
X34520000Y-136520000D02*
X72620000Y-136520000D01*
X129770000Y-67464000D02*
X110720000Y-67464000D01*
X168140157Y-161349114D02*
G75*
G03*
X194784066Y-144141202I16392543J3849604D01*
G01*
X205804024Y-94615231D02*
X187454237Y-133927774D01*
X187454226Y-133927769D02*
G75*
G03*
X188859566Y-139587177I4155774J-1972231D01*
G01*
X53570000Y-76989000D02*
X53570000Y-79370000D01*
X110720000Y-65082000D02*
X91670000Y-65082000D01*
X34520000Y-79370000D02*
X34520000Y-136520000D01*
X72620000Y-136520000D02*
X82145000Y-146045000D01*
X148370036Y-150166521D02*
X165636140Y-158216074D01*
X148820000Y-69845000D02*
X129770000Y-69845000D01*
X110720000Y-67464000D02*
X110720000Y-65082000D01*
X148370036Y-150166521D02*
X129770802Y-146044608D01*
X72620000Y-67464000D02*
X72620000Y-76989000D01*
X158345000Y-79370000D02*
X173099719Y-79370000D01*
X148820000Y-69845000D02*
X158345000Y-79370000D01*
X205802981Y-94616175D02*
X173099719Y-79370000D01*
X53570000Y-79370000D02*
X34520000Y-79370000D01*
X129770000Y-146045000D02*
X82145000Y-146045000D01*
X91670000Y-67464000D02*
X72620000Y-67464000D01*
X194784067Y-144141200D02*
X188859566Y-139587177D01*
X168140190Y-161349106D02*
G75*
G03*
X165636140Y-158216075I-4474590J-1009094D01*
G01*
X72620000Y-76989000D02*
X53570000Y-76989000D01*
M02*
